<?xml version="1.0" encoding="UTF-8" standalone="no"?>
<svg
   xmlns:dc="http://purl.org/dc/elements/1.1/"
   xmlns:cc="http://creativecommons.org/ns#"
   xmlns:rdf="http://www.w3.org/1999/02/22-rdf-syntax-ns#"
   xmlns:svg="http://www.w3.org/2000/svg"
   xmlns="http://www.w3.org/2000/svg"
   xmlns:xlink="http://www.w3.org/1999/xlink"
   xmlns:sodipodi="http://sodipodi.sourceforge.net/DTD/sodipodi-0.dtd"
   xmlns:inkscape="http://www.inkscape.org/namespaces/inkscape"
   buffered-rendering="static"
   width="75.0mm"
   height="56.5mm"
   viewBox="0 0 75.0 56.5"
   version="1.1"
   id="svg34"
   sodipodi:docname="docker_take2.svg"
   inkscape:version="0.92.4 (5da689c313, 2019-01-14)">
  <metadata
     id="metadata38">
    <rdf:RDF>
      <cc:Work
         rdf:about="">
        <dc:format>image/svg+xml</dc:format>
        <dc:type
           rdf:resource="http://purl.org/dc/dcmitype/StillImage" />
      </cc:Work>
    </rdf:RDF>
  </metadata>
  <sodipodi:namedview
     pagecolor="#ffffff"
     bordercolor="#666666"
     borderopacity="1"
     objecttolerance="10"
     gridtolerance="10"
     guidetolerance="10"
     inkscape:pageopacity="0"
     inkscape:pageshadow="2"
     inkscape:window-width="1366"
     inkscape:window-height="705"
     id="namedview36"
     showgrid="true"
     inkscape:zoom="6.8287345"
     inkscape:cx="103.86225"
     inkscape:cy="111.10251"
     inkscape:window-x="-8"
     inkscape:window-y="-8"
     inkscape:window-maximized="1"
     inkscape:current-layer="layer4"
     borderlayer="true"
     inkscape:document-units="mm">
    <inkscape:grid
       id="grid41"
       units="mm"
       type="xygrid"
       empspacing="1"
       spacingy="2.54"
       spacingx="2.54" />
  </sodipodi:namedview>
  <desc
     id="desc2">
This file was created by http://www.h2.dion.ne.jp/~defghi/img2svg3/img2svg3.htm at Sat Jun 15 2019 01:00:05 GMT+0800 (中国標準時)
</desc>
  <defs
     id="defs30">
    <g
       id="rgb"
       style="isolation:isolate;">
      <g
         id="r"
         style="mix-blend-mode:screen;">
        <path
           d="M279 0l-279 0 0 195.5 0 195.5 279 0 279 0 0-195.5 0-195.5-279 0Z"
           style="fill:rgb(255,0,0);"
           id="path4" />
        <path
           d="M276.5 0l-39.5 0 0 31.5 0 31.5-68 0-68 0 0 31.5 0 31.5-34 0-34 0 0 31.5 0 31.5-15.5 0-15.5 0-.7 3.8c-.5 2-.8 12.7-.7 23.7 0 14.6 .5 22.6 1.8 29.5 .9 5.2 2.9 14 4.2 19.5 1.4 5.5 4 13.8 5.8 18.5 1.9 4.7 5.5 12.8 8.1 18 2.6 5.2 7.1 13.1 10 17.5 2.9 4.4 8.6 11.8 12.7 16.5 4.1 4.7 9.9 10.6 12.9 13.1 3 2.6 8.8 7.1 12.9 10 4.1 3 12.5 8 18.5 11.1 6.1 3.1 15.1 7 20 8.8 5 1.7 13.3 4.2 18.5 5.5 5.2 1.3 14.5 3.2 20.5 4.2 8.9 1.5 16.7 1.8 41 1.8 22.8 0 33.4-.5 44-1.8 7.7-1 20.5-3.1 28.5-4.7 8-1.6 19.9-4.4 26.5-6.3 6.6-1.9 16.5-5.2 22-7.2 5.5-2.1 14.4-5.7 19.8-8.1 5.3-2.4 13.9-6.7 19-9.5 5-2.8 14.2-8.4 20.2-12.4 6.1-4 14.8-10.4 19.5-14.1 4.7-3.8 14.1-12.5 21-19.4 6.9-6.9 15.7-16.3 19.4-21 3.7-4.7 10.8-14.6 15.8-22 5.3-7.9 13-21.6 18.6-33.1l9.7-19.6 12-.6c7-.3 15.3-1.4 20-2.6 4.4-1.2 11.7-3.9 16.3-6.1 5.6-2.8 10.4-6.1 15.3-10.7 4-3.8 9-9.5 11.2-12.8 2.2-3.3 5.9-9.7 8.1-14.3 2.3-4.5 3.9-8.4 3.6-8.5-.3-.2-2.7-1.9-5.5-3.9-2.7-1.9-7.2-4.7-10-6.1-2.7-1.4-7.7-3.2-11-4.1-3.3-.9-10.9-2-17-2.6-7.5-.7-14.2-.7-21 0-5.5 .5-10.1 .9-10.2 .7-.1-.1-1-3.1-1.9-6.7-.9-3.6-2.9-9.2-4.3-12.5-1.5-3.3-4.7-8.9-7.1-12.5-2.4-3.6-7.8-9.9-12-14-4.2-4.1-11-9.9-15.3-12.7-4.2-2.9-7.9-5.3-8.2-5.3-.3 0-2.8 3.7-5.7 8.3-2.8 4.5-6.6 11.4-8.4 15.2-1.8 3.9-4.3 11.1-5.5 16-1.8 7.1-2.3 11.9-2.4 23 0 10.3 .5 15.8 1.8 21 1 3.9 3.2 10.1 5 13.9l3.2 6.8-5 2.3c-2.7 1.2-7.9 3-11.5 3.9-3.6 .8-10 1.9-14.3 2.3l-7.7 .8 0-31.7 0-31.8-34 0-34 0 0-63 0-63-39.5 0ZM183.5 263.4c2.2 .3 5.1 1.4 6.5 2.4 1.4 1 3.5 3.8 4.8 6.3 1.2 2.4 2.2 6 2.2 7.9 0 1.9-1 5.5-2.2 8-1.3 2.5-3.9 5.5-5.8 6.8-2 1.2-5 2.3-7 2.3-2 0-5-1.1-7-2.3-1.9-1.3-4.5-4.3-5.8-6.8-1.2-2.5-2.2-6-2.2-7.7 0-1.8 .7-5 1.6-7 .8-2.1 2.3-4.6 3.2-5.7 .9-1 3.1-2.5 4.7-3.2 1.7-.8 4.7-1.2 7-1ZM148 317.4c0.8 1.1 4.2 5.7 7.4 10.1 3.3 4.4 9.8 11.8 14.6 16.5 4.8 4.7 12.2 11 16.6 14.1 4.3 3.2 11.1 7.4 14.9 9.5 3.9 2.1 10.4 5.3 14.5 7.1l7.5 3.2-3 .8c-1.6 .4-16 .7-32 .8-23 0-31.3-.4-40-1.8-6-1-15.3-2.8-20.5-4.2-5.2-1.3-12.9-3.6-17-5-4.1-1.5-11.1-4.4-15.5-6.5-4.4-2.1-12-6.5-17-9.8-4.9-3.3-11.9-8.7-15.5-12.1l-6.5-6.1 9 .6c5 .4 13.7 .1 19.5-.4 5.8-.6 14.1-1.8 18.5-2.7 4.4-.9 12.1-3 17-4.6 5-1.7 12.8-5 17.5-7.3l8.5-4.2 1.5 2Z"
           style="fill:rgb(170,0,0);"
           id="path6" />
        <path
           d="M277 0l-39 0 0 31.5 0 31.5-68.5 0-68.5 0 0 31.5 0 31.5-33.7 .3-33.8 .2-.2 31.8-.3 31.7-15.5 0-15.5 0-.5 2.3c-.3 1.2-.8 8.3-1.1 15.7-.4 8-.2 18 .5 24.5 .7 6.1 2.1 15.3 3.1 20.5 1.1 5.2 3.1 13.6 4.5 18.5 1.5 5 4.7 14 7.3 20 2.5 6.1 7.3 15.5 10.7 21.1 3.3 5.5 8.7 13.4 12 17.4 3.3 4.1 9.4 10.8 13.5 14.8 4.1 4 11.6 10.2 16.5 13.7 5 3.6 14.4 9.2 21 12.5 6.6 3.2 15.4 7 19.5 8.4 4.1 1.4 12 3.6 17.5 5 5.5 1.4 14.7 3.2 20.5 4.1 5.8 .8 19.1 1.8 29.5 2.2 11.2 .3 25.6 .1 35-.6 8.8-.6 22.3-2.1 30-3.2 7.7-1.1 19.2-3.1 25.5-4.5 6.3-1.4 16.7-4.2 23-6.1 6.3-1.9 15.8-5 21-6.9 5.2-2 16.7-7.1 25.5-11.4 8.8-4.3 21.4-11.4 28-15.8 6.6-4.3 16.7-11.6 22.5-16.2 5.8-4.7 15.2-13.2 21-19 5.8-5.8 14.3-15.2 18.9-21 4.6-5.8 11.4-15 15.1-20.5 3.6-5.5 9.1-14.3 12-19.5 3-5.2 8-15.1 11.1-22l5.8-12.5 5.3-.2c2.9-.2 9.6-.8 14.8-1.3 5.2-.6 13.6-2.4 18.5-4.1 5-1.7 12.2-5 16-7.3 3.9-2.4 9.9-7.5 13.5-11.3 4.8-5.1 8.1-10.2 12.8-19.1 3.4-6.7 6.1-12.4 6-12.6-.2-.2-3.9-2.7-8.3-5.5-4.4-2.9-10.7-6-14-7-3.3-1.1-9.6-2.4-14-3.1-5.3-.9-13.2-1.1-23.5-.8l-15.5 .6-1.2-6.1c-.7-3.4-2.9-9.6-4.9-13.7-1.9-4.1-5.5-10.2-7.9-13.5-2.4-3.3-7.6-9.2-11.7-13.2-4-3.9-10.7-9.4-14.8-12.2l-7.5-5.1-6.3 9.7c-3.4 5.4-7.5 13.2-9.1 17.3-1.6 4.1-3.7 11.1-4.7 15.5-1.3 5.6-1.8 11.8-1.8 21 .1 9.8 .6 14.9 2.1 20.5 1.1 4.1 3.5 10.3 5.2 13.8 1.7 3.4 3 6.4 2.9 6.6-.2 .3-3.4 1.7-7.3 3.1-3.8 1.5-10.3 3.3-14.2 4.1-4 .8-9.5 1.4-12.3 1.4l-5 0 0-31.5 0-31.5-34 0-34 0 0-63 0-63-39 0ZM183.5 263.4c2.2 .3 5.1 1.4 6.5 2.4 1.4 1 3.5 3.8 4.8 6.3 1.2 2.4 2.2 6 2.2 7.9 0 1.9-1 5.5-2.2 8-1.3 2.5-3.9 5.5-5.8 6.8-2 1.2-5 2.3-7 2.3-2 0-5-1.1-7-2.3-1.9-1.3-4.5-4.3-5.8-6.8-1.2-2.5-2.2-6-2.2-7.7 0-1.8 .7-5 1.6-7 .8-2.1 2.3-4.6 3.2-5.7 .9-1 3.1-2.5 4.7-3.2 1.7-.8 4.7-1.2 7-1ZM148.5 317.7c1.1 1.5 4.5 6.1 7.6 10.2 3.1 4.2 9.9 11.7 15 16.6 5.2 5 12.3 11.2 15.9 13.7 3.6 2.5 9.4 6.3 13 8.3 3.6 2.1 10.6 5.4 15.5 7.5 6.4 2.6 8.6 4 7.5 4.5-.8 .5-13 1.1-27 1.3-16.2 .3-29.7 0-37-.7-6.3-.7-16.2-2.1-22-3.3-5.8-1.1-15.2-3.5-21-5.4-5.8-1.9-15.4-5.9-21.5-8.8-6-3-14.7-8-19.1-11.2-4.5-3.3-10.8-8.3-14-11.1l-5.9-5.3 15.5 .1c10.2 0 18.9-.5 25.5-1.6 5.5-1 13.8-2.8 18.5-4.2 4.7-1.3 12.6-4.2 17.5-6.4 5-2.2 10.1-4.6 11.5-5.4l2.5-1.5 2 2.7Z"
           style="fill:rgb(85,0,0);"
           id="path8" />
        <path
           d="M277 0l-39 0 0 31.5 0 31.5-68 0-68 0-.2 31.8-.3 31.7-33.7 .3-33.8 .2-.2 31.3-.3 31.2-15.7 .3-15.8 .2-.7 5.8c-.5 3.1-.8 12.5-.7 20.7 0 8.8 .8 19.5 1.8 26 1 6.1 2.8 15.3 4.1 20.5 1.3 5.2 3.8 13.6 5.5 18.5 1.8 5 5.6 13.7 8.5 19.5 2.9 5.8 8.1 14.8 11.6 20 3.5 5.2 10.2 13.5 14.9 18.4 4.7 4.9 12.1 11.7 16.5 15 4.4 3.4 9.8 7.3 12 8.7 2.2 1.5 8.6 4.9 14.3 7.8 5.6 2.8 15.5 6.9 22 9 6.4 2.2 16.4 4.8 22.2 6 5.8 1.1 14.3 2.5 19 3 4.7 .6 14.6 1.3 22 1.7 7.4 .3 21.8 .1 32-.5 10.2-.7 23.5-1.9 29.5-2.6 6.1-.8 14.8-2.2 19.5-3.1 4.7-.8 13.9-2.9 20.5-4.5 6.6-1.7 17.3-4.8 23.8-7 6.4-2.1 17.4-6.4 24.5-9.5 7-3.1 17.2-8.1 22.7-11.2 5.5-3 14.3-8.4 19.5-11.8 5.2-3.5 14.2-10.1 20-14.7 5.8-4.6 16.4-14.5 23.5-21.8 7.2-7.4 16.9-18.6 21.6-24.9 4.8-6.3 11.7-16.4 15.4-22.5 3.8-6 10.4-18.2 14.7-27 4.3-8.8 7.8-16.6 7.8-17.2 0-.9 3.2-1.5 11.3-1.9 6.1-.3 14.6-1.2 18.7-2.1 4.1-.8 10.7-2.8 14.5-4.3 3.9-1.6 10.3-5.2 14.3-8 3.9-2.7 9.6-7.9 12.5-11.4 2.8-3.5 7.5-10.8 10.4-16.2 2.9-5.5 5.3-10.6 5.3-11.4 .1-.8-2.7-3.4-6.2-5.7-3.5-2.3-8.3-5.1-10.8-6.2-2.5-1.1-7.6-2.8-11.5-3.7-4.9-1.2-11.6-1.7-22-1.8-8.2-.1-17 .1-19.4 .4l-4.3 .5-1.9-7.5c-1.1-4.1-3.5-10.6-5.4-14.5-1.8-3.8-5.6-9.9-8.3-13.5-2.7-3.6-7.8-9.2-11.3-12.5-3.5-3.3-9.1-7.9-12.4-10.2-3.3-2.2-6.7-4.4-7.5-4.8-1.1-.4-2.8 1.4-6.1 6.2-2.5 3.7-6 9.6-7.8 13.1-1.7 3.4-4.2 10.1-5.6 15-1.4 4.8-2.9 13-3.4 18.2-.5 5.5-.5 13.1 0 18.3 .5 4.8 2.1 12.2 3.5 16.5 1.4 4.2 3.4 9.2 4.5 11 1 1.7 1.9 3.5 1.9 4 .1 .4-2.1 1.7-4.7 2.9-2.6 1.2-8.6 3.1-13.3 4.1-4.7 1.1-11.3 2.3-14.7 2.6l-6.3 .6 0-31.5 0-31.5-34 0-34 0 0-63.5 0-63.5-39 0ZM183.5 263.4c2.2 .3 5.1 1.4 6.5 2.4 1.4 1 3.5 3.8 4.8 6.3 1.2 2.4 2.2 6 2.2 7.9 0 1.9-1 5.5-2.2 8-1.3 2.5-3.9 5.5-5.8 6.8-2 1.2-5 2.3-7 2.3-2 0-5-1.1-7-2.3-1.9-1.3-4.5-4.3-5.8-6.8-1.2-2.5-2.2-6-2.2-7.7 0-1.8 .7-5 1.6-7 .8-2.1 2.3-4.6 3.2-5.7 .9-1 3.1-2.5 4.7-3.2 1.7-.8 4.7-1.2 7-1ZM163.7 278.5l0.5 1-.5 1.5c-.3 .8-.5 .4-.5-1 0-1.4 .2-2 .5-1.5ZM164.7 285.3l0.8 .7-.8 .8c-.4 .4-.8 0-.8-.8 0-.8 .4-1.2 .8-.7ZM146.5 315.2c0.6-.1 3.5 3.6 6.5 8.1 3 4.5 10.4 13.2 16.5 19.3 6.8 6.8 14.6 13.4 20.5 17.3 5.2 3.5 12.9 8 17 10.1 4.1 2 9.8 4.5 12.5 5.5 2.8 1 5.5 2.2 6 2.6 .6 .4-4.8 1.1-12 1.5-7.1 .4-21.1 .7-31 .7-9.9-.1-22-.6-27-1.2-4.9-.6-13.7-2.1-19.5-3.2-5.8-1.2-15.2-3.7-21-5.6-5.8-1.9-14.8-5.5-20-8.1-5.2-2.6-12.6-6.8-16.5-9.4-3.8-2.5-10.5-7.6-14.7-11.2-4.3-3.6-7.8-6.9-7.8-7.3 0-.5 6.6-.7 14.7-.5 11.5 .2 17.5-.2 26.8-1.8 6.6-1.1 16.7-3.7 22.5-5.6 5.8-1.9 13.9-5.2 18-7.3 4.1-2.1 8-3.8 8.5-3.9Z"
           style="fill:rgb(0,0,0);"
           id="path10" />
      </g>
      <g
         id="g"
         style="mix-blend-mode:screen;">
        <path
           d="M279 0l-279 0 0 195.5 0 195.5 279 0 279 0 0-195.5 0-195.5-279 0Z"
           style="fill:rgb(0,255,0);"
           id="path13" />
        <path
           d="M276.5 0l-39.5 0 0 31.5 0 31.5-68 0-68 0 0 31.5 0 31.5-34 0-34 0 0 31.5 0 31.5-15 0-15 0-1.1 2.8c-.6 1.5-1.3 9-1.6 16.7-.4 8.3-.1 18.3 .6 24.5 .7 5.8 2.2 15.2 3.3 21 1.1 5.8 3.8 15.9 5.9 22.5 2.2 6.6 6.2 16.7 9 22.5 2.8 5.8 7.9 14.8 11.4 20 3.5 5.2 9.2 12.9 12.8 17 3.6 4.1 10 10.5 14.4 14.1 4.3 3.7 11.6 9.1 16.3 12.2 4.7 3 11.7 7 15.5 9 3.9 1.9 11.3 5 16.5 7 5.2 1.9 14.2 4.7 20 6.1 5.8 1.4 15.2 3.2 21 4.1 5.8 .9 19.1 1.8 29.5 2.2 11.4 .3 25.8 .1 36-.6 9.4-.7 22.6-2.1 29.5-3.1 6.9-1 17.9-3 24.5-4.5 6.6-1.5 17.2-4.2 23.5-6 6.3-1.9 17.6-5.8 25-8.8 7.4-3 18.9-8.1 25.5-11.5 6.6-3.4 16.7-9.2 22.5-12.9 5.8-3.8 13.7-9.3 17.5-12.2 3.9-2.9 11.2-8.9 16.4-13.4 5.2-4.5 13.7-12.9 18.9-18.7 5.3-5.8 13.2-15.4 17.8-21.5 4.5-6 11.2-15.9 14.9-22 3.7-6 9.3-16.2 12.4-22.5 3.1-6.3 6.6-13.7 7.8-16.5l2.1-5 11.9-.7c6.5-.4 15.4-1.6 19.8-2.7 4.4-1.1 10.5-3 13.5-4.3 3-1.4 8.2-4.2 11.5-6.5 3.3-2.2 8.8-7.1 12.3-10.9 4.5-4.9 8-10.3 12.3-18.6 3.2-6.5 5.8-12 5.7-12.2-.2-.2-3.9-2.7-8.3-5.5-4.4-2.9-10.9-6.1-14.5-7.2-3.6-1.1-9.4-2.4-13-3-3.6-.6-13.9-.9-22.9-.7l-16.3 .3-1.8-7c-.9-3.8-3.4-10.4-5.5-14.5-2-4.1-5.2-9.5-7-12-1.8-2.5-6.8-7.9-10.9-12-4.2-4.1-11.1-9.9-15.4-12.8l-7.7-5.2-6.3 9.7c-3.4 5.4-7.6 13.3-9.2 17.6-1.7 4.2-3.7 11-4.7 15-1 4.6-1.6 12-1.7 20.7 0 11.1 .3 14.9 2.2 21.3 1.2 4.2 3.6 10.4 5.2 13.7 1.7 3.3 2.9 6.2 2.8 6.4-.2 .3-3.2 1.6-6.8 2.9-3.6 1.4-10 3.2-14.2 4.1-4.3 .9-10 1.6-12.8 1.6l-5 0 0-31.5 0-31.5-34 0-34 0 0-63 0-63-39.5 0ZM183.5 263.4c2.2 .3 5.1 1.4 6.5 2.4 1.4 1 3.5 3.8 4.8 6.3 1.2 2.4 2.2 6 2.2 7.9 0 1.9-1 5.5-2.2 8-1.3 2.5-3.9 5.5-5.8 6.8-2 1.2-5 2.3-7 2.3-2 0-5-1.1-7-2.3-1.9-1.3-4.5-4.3-5.8-6.8-1.2-2.5-2.2-6-2.2-7.7 0-1.8 .7-5 1.6-7 .8-2.1 2.3-4.6 3.2-5.7 .9-1 3.1-2.5 4.7-3.2 1.7-.8 4.7-1.2 7-1ZM147 315.1c0.3 0 2.5 3.2 5 7.1 2.5 3.9 8.6 11.3 13.5 16.6 5 5.2 12.6 12.3 17 15.7 4.4 3.3 10.3 7.5 13 9.2 2.8 1.8 9.7 5.5 15.5 8.2 5.8 2.8 11.2 5.1 12 5.1 1 0 1.2 .3 .5 1-.6 .7-10.5 1.3-27.5 1.7-21.3 .4-29.4 .2-41-1.1-8-1-20.3-3.2-27.5-5.1-7.1-1.8-17-4.9-22-6.9-4.9-2-13-5.9-18-8.7-4.9-2.9-12.1-7.5-16-10.5-3.8-2.9-8.8-7.1-11-9.5l-4-4.2 8.5 .7c4.7 .3 13.5 .1 19.5-.5 6.1-.5 14.4-1.7 18.5-2.5 4.1-.9 12-3 17.5-4.8 5.5-1.9 13.6-5.2 18-7.4 4.4-2.3 8.2-4.1 8.5-4.1Z"
           style="fill:rgb(0,170,0);"
           id="path15" />
        <path
           d="M277 0l-39 0-.2 31.8-.3 31.7-67.7 .3-67.8 .2-.2 31.3-.3 31.2-33.7 .3-33.8 .2 0 31.5 0 31.5-16 0c-8.8 0-16 .3-16 .8 0 .4-.5 5.7-1.1 11.7-.7 7.8-.7 15.1 .1 25 .6 7.7 2.2 19.4 3.5 26 1.3 6.6 4 17 6 23 2 6.1 5.6 15.3 8.1 20.5 2.5 5.2 6.7 13.1 9.4 17.5 2.7 4.4 7.8 11.6 11.3 16 3.5 4.4 10.2 11.5 14.8 15.8 4.6 4.4 12.5 10.6 17.4 13.9 5 3.3 12.6 7.8 17 10.1 4.4 2.2 11.8 5.4 16.5 7.2 4.7 1.8 13 4.4 18.5 5.8 5.5 1.5 14.3 3.3 19.5 4.2 5.2 .8 16.5 2 25 2.5 10.7 .8 21.7 .8 35.5 .1 11-.6 25.4-1.8 32-2.6 6.6-.9 18.8-2.9 27-4.6 8.3-1.7 20.2-4.7 26.5-6.6 6.3-1.9 15.8-5 21-7 5.2-1.9 16.7-7 25.5-11.3 8.8-4.3 20.1-10.4 25-13.5 5-3.1 14.2-9.5 20.5-14.3 6.4-4.8 18.1-15.3 26.5-23.7 8.3-8.2 18.6-19.7 23-25.5 4.4-5.8 11.3-15.7 15.3-22 4.1-6.3 10.4-17.6 14.1-25 3.7-7.4 7.7-15.9 8.9-18.7l2.2-5.3 9.8 0c5.3 0 12.4-.5 15.7-1 3.3-.6 9.4-2.2 13.5-3.5 4.1-1.4 10-3.9 13-5.7 3-1.8 7.7-5.1 10.4-7.3 2.7-2.2 7-6.9 9.7-10.5 2.7-3.6 6.9-10.5 9.4-15.5 2.4-4.9 4.5-9.4 4.5-10 0-.5-2.8-2.9-6.3-5.2-3.4-2.3-8.2-5.1-10.7-6.2-2.5-1.1-8.1-2.8-12.5-3.8-5.5-1.2-12.5-1.7-22.5-1.8-8 0-16.3 .3-18.5 .7l-4 .8-1.3-6.3c-.8-3.4-2.5-8.9-3.9-12.2-1.4-3.3-4.6-9.1-7-13-2.5-3.8-8.4-10.8-13.2-15.5-4.8-4.7-11.7-10.5-15.4-13-4.4-2.9-7.1-4.1-7.7-3.5-.5 .6-3.4 5.1-6.5 10-3.1 5-6.9 12.4-8.5 16.5-1.5 4.1-3.5 11.3-4.4 16-.9 4.7-1.6 13.5-1.6 19.5 0 7.5 .6 13.6 2 19.3 1.1 4.5 3.4 10.9 5 14.2 1.7 3.3 3 6.3 3 6.8 .1 .4-2.3 1.8-5.2 3.1-2.9 1.3-8.4 3.1-12.3 4.1-3.8 1-10.3 2-14.2 2.4l-7.3 .6 0-31.5 0-31.5-34 0-34 0 0-63.5 0-63.5-39 0ZM277 10l29 0-.2 26.8-.3 26.7-28.7 .3-28.8 .2 0-27 0-27 29 0ZM261.5 21l-2.5 0 0 16 0 16 2.3-.2 2.2-.3 .3-15.7 .2-15.8-2.5 0ZM276.5 21l-2.5 0 .3 15.8 .2 15.7 2.3 .3 2.2 .2 0-16 0-16-2.5 0ZM292.5 21l-2.5 0 0 16 0 16 2.5 0 2.5 0 0-16 0-16-2.5 0ZM140.8 73.3l28.7 .2 0 26.5 0 26.5-28.7 .3-28.8 .2 0-27 0-27 28.8 .3ZM208.8 73.3l28.7 .2 .3 26.8 .2 26.7-29 0-29 0 0-27 0-27 28.8 .3ZM276.8 73.3l28.7 .2 .3 26.8 .2 26.7-29 0-29 0 0-27 0-27 28.8 .3ZM125.3 84c-1 0-2.1 .3-2.6 .7-.4 .5-.7 7.7-.7 16.1l0 15.2 2.5 0 2.5 0 0-16 0-16-1.7 0ZM140.5 84l-2.5 0 0 16 0 16 2.5 0 2.5 0 0-16 0-16-2.5 0ZM156.5 84l-2.5 0 0 16 0 16 2.5 0 2.5 0 0-16 0-16-2.5 0ZM193 84l-2 0 0 16 0 16 2 0 2 0 0-16 0-16-2 0ZM208.5 84l-2.5 0 0 16 0 16 2.5 0 2.5 0 0-16 0-16-2.5 0ZM224.5 84l-2.5 0 0 16 0 16 2.5 0 2.5 0 0-16 0-16-2.5 0ZM261.3 84.3l-2.3-.3 0 16 0 16 2.5 0 2.5 0-.2-15.7-.3-15.8-2.2-.2ZM276.5 84l-2.5 0 0 16 0 16 2.5 0 2.5 0 0-16 0-16-2.5 0ZM292.5 84l-2.5 0 0 16 0 16 2.5 0 2.5 0 0-16 0-16-2.5 0ZM437.8 91c0.4 0 3.6 2.5 7.2 5.6 3.6 3 8.9 8.3 11.7 11.7 2.9 3.4 7.1 9.8 9.3 14.2 2.2 4.4 4.7 11.2 5.5 15 .8 3.9 1.5 9 1.5 11.5l0 4.5 7.8-1.9c5.5-1.3 11.9-1.8 22.2-1.9 10.9-.1 16.5 .3 22.5 1.7 4.4 1 10.1 2.9 12.8 4.2 2.6 1.3 4.9 3.1 5.2 3.9 .3 .8-1.2 4.5-3.2 8.3-2.1 3.9-6.5 9.6-10.7 13.7-3.9 3.9-9.8 8.5-13.1 10.2-3.3 1.7-9.4 4.1-13.5 5.3-5.6 1.7-11.5 2.4-23.3 2.9l-15.8 .6-3.8 9c-2.1 5-6.7 14.9-10.4 22-3.6 7.2-10.6 19.1-15.5 26.5-5 7.4-12.1 17.3-15.9 22-3.7 4.7-11.7 13.5-17.8 19.5-6 6.1-14.8 14.1-19.5 17.8-4.7 3.8-13.9 10.5-20.5 14.9-6.6 4.3-18.1 11-25.5 14.8-7.4 3.8-18.7 8.9-25 11.3-6.3 2.5-16.9 6.1-23.5 8.1-6.6 1.9-17.2 4.6-23.5 6-6.3 1.4-17.8 3.4-25.5 4.5-7.7 1.2-21.9 2.6-31.5 3.2-9.6 .6-23.3 .8-30.5 .5-7.1-.4-16.8-1.1-21.5-1.7-4.7-.5-13-1.9-18.5-3-5.5-1.1-14.7-3.6-20.5-5.5-5.8-1.9-14.3-5.3-19-7.5-4.7-2.2-12.8-6.9-18-10.4-5.2-3.5-12.6-9.2-16.4-12.7l-6.8-6.3 17.8 0c13 0 20.4-.5 26.9-1.8 5-1 12.8-2.9 17.5-4.3 4.7-1.4 13.3-4.9 19.2-7.7l10.7-5.2-1.9-3.7c-1.1-2.1-2.3-4-2.7-4.3-.5-.2-4.4 1.3-8.8 3.5-4.4 2.1-12 5.2-17 6.8-4.9 1.7-12.8 3.7-17.5 4.6-4.7 .9-13.7 1.9-20 2.3-6.6 .3-15.6 0-21-.6-5.2-.7-10.4-1.4-11.5-1.7-1.1-.2-4.3-3.9-7.2-8.2-2.8-4.2-7.6-12.9-10.7-19.2-3-6.3-6.9-15.5-8.5-20.5-1.6-4.9-4.1-14.6-5.5-21.5-1.4-6.9-3-18.2-3.6-25.2-.5-7.1-.7-16-.2-19.8l0.7-7 189.5 0c161.6 0 190.8-.2 198.5-1.5 5-.8 11.9-2.4 15.5-3.6 3.6-1.1 9-3.4 12-5 3-1.6 6.8-3.9 8.4-5.2l2.9-2.2-3.9-5c-2.2-2.7-5.1-7.9-6.6-11.5-1.4-3.6-3.2-9.4-3.9-13-.8-4.2-1-10.7-.6-18.5 .3-7.6 1.3-14.6 2.6-19.2 1.2-4 3.5-10.1 5.2-13.5 1.8-3.5 3.8-7.3 4.5-8.5 .8-1.3 1.7-2.3 2.2-2.3ZM72.5 137l29.5 0 0 26.5 0 26.5-29.2-.2-29.3-.3-.2-26.2-.3-26.3 29.5 0ZM141 137l29 0 0 26.5 0 26.5-29 0-29 0 0-26.5 0-26.5 29 0ZM209 137l29 0 0 26.5 0 26.5-29 0-29 0 0-26.5 0-26.5 29 0ZM277 137l29 0 0 26.5 0 26.5-29 0-29 0 0-26.5 0-26.5 29 0ZM345 137l29 0 0 26.5 0 26.5-29 0-29 0 0-26.5 0-26.5 29 0ZM56.5 148l-2.5 0 0 15.5 0 15.5 2.5 0 2.5 0 0-15.5 0-15.5-2.5 0ZM72.5 148l-2.5 0 0 15.5 0 15.5 2.5 0 2.5 0 0-15.5 0-15.5-2.5 0ZM88.5 148l-2.5 0 0 15.5 0 15.5 2.5 0 2.5 0 0-15.5 0-15.5-2.5 0ZM124.5 148l-2.5 0 0 15.5 0 15.5 2.5 0 2.5 0 0-15.5 0-15.5-2.5 0ZM140.5 148l-2.5 0 0 15.5 0 15.5 2.5 0 2.5 0 0-15.5 0-15.5-2.5 0ZM156.5 148l-2.5 0 0 15.5 0 15.5 2.5 0 2.5 0 0-15.5 0-15.5-2.5 0ZM193 148l-2 0 0 15.5 0 15.5 2 0 2 0 0-15.5 0-15.5-2 0ZM208.5 148l-2.5 0 0 15.5 0 15.5 2.5 0 2.5 0 0-15.5 0-15.5-2.5 0ZM224.5 148l-2.5 0 0 15.5 0 15.5 2.5 0 2.5 0 0-15.5 0-15.5-2.5 0ZM261.5 148l-2.5 0 0 15.5 0 15.5 2.5 0 2.5 0 0-15.5 0-15.5-2.5 0ZM276.5 148l-2.5 0 0 15.5 0 15.5 2.5 0 2.5 0 0-15.5 0-15.5-2.5 0ZM292.5 148l-2.5 0 0 15.5 0 15.5 2.5 0 2.5 0 0-15.5 0-15.5-2.5 0ZM329.5 148l-2.5 0 0 15.5 0 15.5 2.5 0 2.5 0 0-15.5 0-15.5-2.5 0ZM344.5 148l-2.5 0 0 15.5 0 15.5 2.5 0 2.5 0 0-15.5 0-15.5-2.5 0ZM360.5 148l-2.5 0 0 15.5 0 15.5 2.5 0 2.5 0 0-15.5 0-15.5-2.5 0ZM181.8 260c-1.8 0-4.6 .7-6.3 1.6-1.6 .8-4.1 2.5-5.4 3.7-1.3 1.2-3.2 4-4.2 6.2-1 2.2-1.9 6-1.9 8.5 0 2.5 .9 6.3 1.9 8.5 1 2.2 3.4 5.5 5.4 7.3 2.1 1.7 5.2 3.5 7 3.8l3.2 .6 3.8-.6c2.1-.3 5.2-2 7.4-3.8 2-1.8 4.4-5.1 5.4-7.3 1-2.2 1.9-6 1.9-8.5 0-2.5-.9-6.3-1.9-8.5-1-2.2-3.1-5.2-4.7-6.7-1.6-1.5-4.1-3.2-5.6-3.7-1.6-.6-4.3-1.1-6-1.1ZM183.5 263.4c2.2 .3 5.1 1.4 6.5 2.4 1.4 1 3.5 3.8 4.8 6.3 1.2 2.4 2.2 6 2.2 7.9 0 1.9-1 5.5-2.2 8-1.3 2.5-3.9 5.5-5.8 6.8-2 1.2-5 2.3-7 2.3-2 0-5-1.1-7-2.3-1.9-1.3-4.5-4.3-5.8-6.8-1.2-2.5-2.2-6-2.2-7.7 0-1.8 .7-5 1.6-7 .8-2.1 2.3-4.6 3.2-5.7 .9-1 3.1-2.5 4.7-3.2 1.7-.8 4.7-1.2 7-1Z"
           style="fill:rgb(0,85,0);"
           id="path17" />
        <path
           d="M0 0"
           style="fill:rgb(0,0,0);"
           id="path19" />
      </g>
      <g
         id="b"
         style="mix-blend-mode:screen;">
        <path
           d="M279 0l-279 0 0 195.5 0 195.5 279 0 279 0 0-195.5 0-195.5-279 0Z"
           style="fill:rgb(0,0,255);"
           id="path22" />
        <path
           d="M277 0l-39 0 0 31.5 0 31.5-68 0-68 0-.2 31.8-.3 31.7-34.2 .3-34.3 .2 0 31.5 0 31.5-15.2 0-15.3 0-.7 3.7c-.5 2.1-1.1 8.1-1.4 13.3-.4 5.2-.1 15.4 .5 22.5 .7 7.2 2.1 17.7 3.2 23.5 1.2 5.8 4.1 16.6 6.5 24 2.5 7.4 7 18.5 10.1 24.5 3 6.1 8.3 15 11.7 20 3.3 4.9 9.9 12.9 14.6 17.9 4.7 4.9 12.1 11.7 16.5 15.1 4.4 3.4 9.9 7.4 12.3 8.9 2.3 1.4 8.8 4.9 14.5 7.7 5.6 2.9 15.4 6.9 21.7 8.9 6.3 2.1 16.2 4.7 22 5.9 5.8 1.1 14.8 2.6 20 3.3 5.6 .8 19.5 1.2 34 1.2 16.1-.1 29.7-.7 39.5-1.8 8.3-1 20-2.6 26-3.7 6.1-1.1 15.5-3.1 21-4.5 5.5-1.4 13.8-3.7 18.5-5.1 4.7-1.4 13.5-4.5 19.5-6.8 6.1-2.3 16.2-6.7 22.5-9.8 6.3-3 16.5-8.5 22.5-12.2 6.1-3.7 16.2-10.6 22.5-15.3 6.3-4.8 17.5-14.5 24.9-21.7 7.3-7.1 17.2-17.7 21.8-23.5 4.6-5.8 12-15.9 16.4-22.5 4.4-6.6 12.5-21 18-32l10-20 13.2-1.2c7.3-.6 16.1-1.9 19.7-2.8 3.6-.9 10.1-3.3 14.5-5.4 4.4-2.1 10.7-6 14-8.7 3.3-2.8 8-7.7 10.5-11 2.5-3.2 6.9-10.5 9.8-16.1l5.2-10.3-7.5-5c-4.1-2.7-10.8-6.1-14.7-7.4-4-1.4-11.1-3-15.8-3.7-5.2-.7-13.6-1-21.5-.7-7.1 .3-13.6 .7-14.3 .9-.9 .3-2-2-3.3-7.1-1.1-4.1-3-9.7-4.2-12.5-1.3-2.7-4-7.6-6-10.7-2-3.2-7-9.3-11.1-13.5-4-4.3-10.7-10.1-14.7-13-4.1-2.8-8.1-5.4-8.9-5.8-1.1-.4-2.8 1.4-6.1 6.2-2.5 3.7-6 9.6-7.8 13.1-1.7 3.4-4.2 9.9-5.5 14.5-1.3 4.5-2.9 12.7-3.6 18.2-.8 7.4-.8 12.3 0 19 .7 5 2.2 12.4 3.6 16.5 1.3 4.1 3.3 9 4.4 10.8 1.1 1.7 2 3.5 2 4 .1 .4-2.1 1.7-4.7 2.9-2.6 1.2-8.6 3.1-13.3 4.1-4.7 1.1-11.3 2.3-14.7 2.6l-6.3 .6 0-31.5 0-31.5-34 0-34 0 0-63.5 0-63.5-39 0ZM276.8 10.3l28.7 .2 .3 26.3 .2 26.2-29 0-29 0 0-26.5 0-26.5 28.8 .3ZM261.5 21l-2.5 0 0 16 0 16 2.3-.2 2.2-.3 .3-15.7 .2-15.8-2.5 0ZM276.5 21l-2.5 0 .3 15.8 .2 15.7 2.3 .3 2.2 .2 0-16 0-16-2.5 0ZM292.5 21l-2.5 0 0 16 0 16 2.5 0 2.5 0 0-16 0-16-2.5 0ZM141 74l29 0-.2 26.3-.3 26.2-28.7 .3-28.8 .2 0-26.5 0-26.5 29 0ZM209 74l29 0-.2 26.3-.3 26.2-28.7 .3-28.8 .2 0-26.5 0-26.5 29 0ZM277 74l29 0-.2 26.3-.3 26.2-28.7 .3-28.8 .2 0-26.5 0-26.5 29 0ZM125.3 84c-1 0-2.1 .3-2.6 .7-.4 .5-.7 7.7-.7 16.1l0 15.2 2.5 0 2.5 0 0-16 0-16-1.7 0ZM140.5 84l-2.5 0 0 16 0 16 2.5 0 2.5 0 0-16 0-16-2.5 0ZM156.5 84l-2.5 0 0 16 0 16 2.5 0 2.5 0 0-16 0-16-2.5 0ZM193 84l-2 0 0 16 0 16 2 0 2 0 0-16 0-16-2 0ZM208.5 84l-2.5 0 0 16 0 16 2.5 0 2.5 0 0-16 0-16-2.5 0ZM224.5 84l-2.5 0 0 16 0 16 2.5 0 2.5 0 0-16 0-16-2.5 0ZM261.3 84.3l-2.3-.3 0 16 0 16 2.5 0 2.5 0-.2-15.7-.3-15.8-2.2-.2ZM276.5 84l-2.5 0 0 16 0 16 2.5 0 2.5 0 0-16 0-16-2.5 0ZM292.5 84l-2.5 0 0 16 0 16 2.5 0 2.5 0 0-16 0-16-2.5 0ZM437.8 91c0.4 0 3.8 2.6 7.5 5.7 3.8 3.2 9.3 9 12.4 12.8 3 3.9 7 10.2 8.9 14 1.9 3.9 4.1 10.2 4.9 14 .8 3.9 1.5 9 1.5 11.5l0 4.5 7.8-1.9c5.6-1.3 11.7-1.8 22.7-1.9 10.1 0 17.3 .5 22 1.5 3.9 .9 9.4 2.7 12.3 4.2 2.8 1.4 5.4 3.3 5.7 4.1 .3 .8-1.2 4.5-3.2 8.3-2.1 3.9-6.5 9.6-10.7 13.7-3.9 3.9-9.8 8.5-13.1 10.2-3.3 1.7-9.4 4.1-13.5 5.3-5.6 1.7-11.5 2.4-23.3 2.9l-15.9 .6-3.2 8c-1.8 4.4-6.5 14.3-10.4 22-3.9 7.7-11.1 20.1-16 27.5-5 7.4-12.1 17.3-15.8 22-3.8 4.7-11.8 13.5-17.9 19.5-6 6.1-14.8 14.1-19.5 17.9-4.7 3.7-13.9 10.4-20.5 14.8-6.6 4.3-18.1 11-25.5 14.8-7.4 3.7-18.1 8.7-23.7 10.9-5.7 2.3-16.3 5.9-23.5 8.1-7.3 2.2-19.8 5.3-27.8 7-8 1.6-19.9 3.6-26.5 4.5-6.6 .8-20.5 1.9-31 2.5-12.3 .6-24.3 .6-34-.1-8.2-.5-19-1.6-24-2.5-4.9-.8-13.5-2.7-19-4.1-5.5-1.4-12.9-3.7-16.5-5-3.6-1.4-9.6-4-13.5-5.8-3.8-1.8-11-6-16-9.2-4.9-3.3-12.3-8.7-16.2-12.1-4-3.4-7.3-6.5-7.3-6.9 0-.5 8-.8 17.8-.9 14.3 0 19.7-.5 28.2-2.3 5.8-1.2 14.4-3.5 19.3-5.2 4.8-1.6 12.5-4.8 17.1-7.1l8.4-4.3-2.4-4.2-2.4-4.3-7.2 3.6c-4 2-12.5 5.4-18.8 7.5-6.3 2.1-16.2 4.5-22 5.3-5.8 .9-15.1 1.6-20.7 1.6-5.7 0-13.8-.5-18-1.1-4.3-.5-8.5-1.2-9.3-1.4-.8-.3-4-4.2-7-8.7-3-4.6-7.3-12.1-9.7-16.8-2.3-4.7-5.6-12.3-7.3-17-1.7-4.7-4-12.1-5.1-16.5-1.2-4.4-2.7-11.6-3.5-16-.8-4.4-1.9-13.6-2.4-20.5-.5-6.9-.6-15.5-.2-19.3l0.7-6.7 189 0c160 0 190.5-.2 198.5-1.5 5.2-.8 12.4-2.4 16-3.5 3.6-1.2 9-3.5 12-5.1 3-1.6 6.8-3.9 8.3-5.2l2.9-2.2-3.2-4c-1.8-2.2-4.3-6.2-5.7-9-1.4-2.7-3.4-8.4-4.4-12.5-1.3-5.1-1.9-11-1.9-18.5 0-8.3 .6-13.3 2.4-20.5 1.3-5.2 3.8-12.4 5.6-16 1.8-3.6 3.9-7.5 4.6-8.7 .8-1.3 1.7-2.3 2.2-2.3ZM73 137l29 0-.2 26.3-.3 26.2-28.7 .3-28.8 .2 0-26.5 0-26.5 29 0ZM141 137l29 0-.2 26.3-.3 26.2-28.7 .3-28.8 .2 0-26.5 0-26.5 29 0ZM209 137l29 0-.2 26.3-.3 26.2-28.7 .3-28.8 .2 0-26.5 0-26.5 29 0ZM277 137l29 0-.2 26.3-.3 26.2-28.7 .3-28.8 .2 0-26.5 0-26.5 29 0ZM345 137l29 0 0 26.5 0 26.5-29 0-29 0 0-26.5 0-26.5 29 0ZM56.5 148l-2.5 0 0 15.5 0 15.5 2.5 0 2.5 0 0-15.5 0-15.5-2.5 0ZM72.5 148l-2.5 0 0 15.5 0 15.5 2.5 0 2.5 0 0-15.5 0-15.5-2.5 0ZM88.5 148l-2.5 0 0 15.5 0 15.5 2.5 0 2.5 0 0-15.5 0-15.5-2.5 0ZM124.5 148l-2.5 0 0 15.5 0 15.5 2.5 0 2.5 0 0-15.5 0-15.5-2.5 0ZM140.5 148l-2.5 0 0 15.5 0 15.5 2.5 0 2.5 0 0-15.5 0-15.5-2.5 0ZM156.5 148l-2.5 0 0 15.5 0 15.5 2.5 0 2.5 0 0-15.5 0-15.5-2.5 0ZM193 148l-2 0 0 15.5 0 15.5 2 0 2 0 0-15.5 0-15.5-2 0ZM208.5 148l-2.5 0 0 15.5 0 15.5 2.5 0 2.5 0 0-15.5 0-15.5-2.5 0ZM224.5 148l-2.5 0 0 15.5 0 15.5 2.5 0 2.5 0 0-15.5 0-15.5-2.5 0ZM261.5 148l-2.5 0 0 15.5 0 15.5 2.5 0 2.5 0 0-15.5 0-15.5-2.5 0ZM276.5 148l-2.5 0 0 15.5 0 15.5 2.5 0 2.5 0 0-15.5 0-15.5-2.5 0ZM292.5 148l-2.5 0 0 15.5 0 15.5 2.5 0 2.5 0 0-15.5 0-15.5-2.5 0ZM329.5 148l-2.5 0 0 15.5 0 15.5 2.5 0 2.5 0 0-15.5 0-15.5-2.5 0ZM344.5 148l-2.5 0 0 15.5 0 15.5 2.5 0 2.5 0 0-15.5 0-15.5-2.5 0ZM360.5 148l-2.5 0 0 15.5 0 15.5 2.5 0 2.5 0 0-15.5 0-15.5-2.5 0Z"
           style="fill:rgb(0,0,170);"
           id="path24" />
        <path
           d="M0 0"
           style="fill:rgb(0,0,0);"
           id="path26" />
      </g>
    </g>
  </defs>
  <g
     id="g64"
     sodipodi:insensitive="true"
     inkscape:groupmode="layer"
     inkscape:label="[fixed] BG">
    <rect
       id="rect62"
       style="stroke:none;fill-opacity:1;fill:#FFFFFF"
       height="56.5"
       width="75.0"
       y="0"
       x="0" />
  </g>
  <use
     xlink:href="#rgb"
     id="use32"
     transform="matrix(0.1343999,0,0,0.14066496,0.21799139,0.53554947)"
     x="0"
     y="0"
     width="100%"
     height="100%" />
  <g
     id="g66"
     inkscape:groupmode="layer"
     inkscape:label="Edge.Cuts"
     style="display:inline"
     sodipodi:insensitive="true" />
  <g
     id="g68"
     inkscape:groupmode="layer"
     inkscape:label="B.Cu-disabled"
     sodipodi:insensitive="true" />
  <g
     id="g70"
     inkscape:groupmode="layer"
     inkscape:label="B.Mask-disabled"
     sodipodi:insensitive="true" />
  <g
     id="g72"
     inkscape:groupmode="layer"
     inkscape:label="B.Silk-disabled"
     sodipodi:insensitive="true" />
  <g
     id="g76"
     inkscape:groupmode="layer"
     inkscape:label="F.Mask-disabled"
     sodipodi:insensitive="true" />
  <g
     id="g74"
     inkscape:groupmode="layer"
     inkscape:label="F.Cu"
     style="display:inline">
    <path
       style="stroke-width:0.58576006"
       d="m 80.939253,203.25539 c -12.307355,-1.31803 -26.414887,-5.75791 -35.404577,-11.14243 -3.953008,-2.36772 -12.22573,-8.65201 -14.202124,-10.78851 l -1.281495,-1.3853 7.431976,-0.0428 c 11.935743,-0.0687 21.413068,-2.17005 31.673008,-7.02254 3.02319,-1.42983 5.67885,-2.59969 5.901467,-2.59969 0.222617,0 1.955616,2.17463 3.851109,4.83252 4.256207,5.96811 13.285594,15.11984 18.631551,18.884 2.203893,1.55179 6.745352,4.19399 10.092132,5.87157 l 6.08506,3.05014 -3.58826,0.37504 c -3.68405,0.38506 -25.518988,0.36113 -29.189847,-0.032 z"
       id="path94"
       inkscape:connector-curvature="0"
       transform="scale(0.26458333)" />
  </g>
  <g
     inkscape:groupmode="layer"
     id="layer4"
     inkscape:label="F.Cu-disabled">
    <path
       style="fill:#ff00ff;stroke-width:0.29288003"
       d="M 83.296516,208.925 C 69.314204,208.08164 52.970736,202.98591 41.318938,195.83681 18.124826,181.60578 3.2733331,153.76166 1.6161334,121.40054 1.3809365,116.80771 1.6427996,106.7346 2.0544338,104.5404 l 0.1774729,-0.94601 5.0280633,-0.19073 c 2.765435,-0.1049 6.292937,-0.19114 7.838895,-0.19163 l 2.810831,-9e-4 0.189857,-3.294895 c 0.104421,-1.812196 0.190456,-9.324569 0.191189,-16.694162 l 0.0013,-13.399262 10.616901,-0.02202 c 11.136386,-0.02311 23.224324,-0.333247 23.493858,-0.602779 0.08713,-0.08714 0.22982,-6.934441 0.317078,-15.216234 0.08726,-8.281792 0.223954,-15.600097 0.303769,-16.262899 l 0.145119,-1.205099 16.16962,-0.18517 c 8.893294,-0.101843 24.373925,-0.269476 34.401403,-0.372514 l 18.23179,-0.187347 V 19.114574 2.4604029 h 19.47652 19.47652 V 36.141607 69.822811 h 17.42398 17.42399 l 0.0756,16.778658 0.0756,16.778661 3.22169,-0.39961 c 6.92528,-0.859 16.06694,-3.751282 16.4301,-5.198233 0.10542,-0.420016 -0.36343,-1.975959 -1.28927,-4.27862 -2.51486,-6.254772 -3.25536,-10.192931 -3.27015,-17.391618 -0.014,-6.796653 0.67508,-11.291424 2.6371,-17.202349 1.98117,-5.968597 7.09982,-15.153212 8.445,-15.153212 1.31589,0 8.37703,5.846398 12.36843,10.240682 5.48391,6.037441 9.67425,14.354578 10.92443,21.683242 l 0.17487,1.02508 9.73875,0.0026 c 9.0679,0.0026 9.94902,0.04903 12.79129,0.674822 1.67891,0.369652 4.06148,1.061174 5.2946,1.536718 2.86212,1.10375 6.91732,3.518804 8.79148,5.235719 l 1.45881,1.336412 -2.36243,4.671267 c -3.0344,5.999943 -5.08095,9.119944 -7.85475,11.97472 -7.45182,7.66936 -16.92735,11.22855 -30.19982,11.34364 -1.36921,0.0119 -2.73334,0.11753 -3.03139,0.23479 -0.32331,0.12721 -0.88277,1.09356 -1.38694,2.39568 -1.39532,3.6037 -9.182,19.10223 -11.67011,23.22807 -6.42897,10.66067 -13.69386,19.7615 -23.18792,29.04781 -11.3254,11.07757 -21.53878,18.25995 -35.8351,25.2004 -16.04333,7.78856 -32.7479,12.47068 -52.21007,14.63396 -7.39951,0.82248 -24.507728,1.19121 -32.605896,0.70276 z m 24.909724,-4.96847 c 17.30019,-0.9511 35.94685,-5.26241 51.50914,-11.90947 6.94274,-2.96542 16.93452,-8.32221 22.73595,-12.18919 3.84958,-2.56596 9.8774,-7.126 12.77996,-9.66803 5.89239,-5.16048 14.58682,-14.33178 18.27547,-19.27784 2.80148,-3.75646 8.72381,-12.60609 10.75421,-16.06982 2.31539,-3.94993 8.69818,-16.96676 10.69919,-21.81956 l 1.69074,-4.10032 1.60246,-0.0668 c 5.36905,-0.22393 12.01305,-0.74335 14.35652,-1.12238 7.12172,-1.15185 13.4654,-4.65239 18.3485,-10.124972 2.96638,-3.324493 5.94606,-8.536521 5.94653,-10.401622 2e-4,-0.781477 -0.2156,-1.059828 -1.42162,-1.833731 -1.71583,-1.101047 -4.44533,-2.250414 -7.21811,-3.039483 -1.72979,-0.492258 -3.22396,-0.604902 -9.56172,-0.720851 -7.89626,-0.14446 -10.84568,0.07538 -14.94256,1.113759 -1.23497,0.313012 -2.32228,0.569113 -2.41626,0.569113 -0.094,0 -0.17123,-0.69193 -0.17169,-1.537621 -0.004,-6.687327 -2.15239,-13.334948 -6.3614,-19.679816 -2.12422,-3.202166 -9.08387,-10.511127 -10.88088,-11.427013 -1.25385,-0.63905 -1.34032,-0.554712 -3.12642,3.04932 -2.69638,5.440777 -4.20546,10.136221 -4.8027,14.943446 -0.37549,3.022314 -0.38452,9.634265 -0.0187,13.690706 0.42905,4.757646 2.40031,9.917343 5.58603,14.621239 1.61845,2.38974 1.71855,2.080848 -1.33602,4.122746 -4.18831,2.79977 -10.06157,5.05676 -15.13238,5.81511 -5.63958,0.84342 -22.1892,1.02442 -109.859146,1.20156 l -88.6743984,0.17917 -0.2146925,0.7634 c -0.3155519,1.12203 -0.1834844,12.14947 0.2003074,16.72536 0.7311446,8.71732 3.4308061,20.19568 6.6111265,28.10903 2.473047,6.1535 7.701239,15.77989 9.76285,17.97583 0.995936,1.06082 1.672282,1.32188 4.737706,1.82865 6.098914,1.00826 16.501781,0.79054 22.828549,-0.47778 5.941019,-1.191 14.334182,-4.05199 19.492616,-6.64449 3.058426,-1.53709 2.958598,-1.55115 3.957826,0.55747 0.824653,1.74023 0.846417,1.87446 0.363399,2.24133 -1.860757,1.4133 -11.755006,5.71347 -16.182866,7.03329 -6.075143,1.81083 -9.395053,2.20696 -21.370707,2.54996 -3.780226,0.10828 -7.141025,0.30375 -7.468439,0.43439 -0.533222,0.21275 -0.335702,0.48914 1.894183,2.65052 5.556991,5.38626 11.554597,9.56354 18.890762,13.15723 9.054483,4.43542 17.905678,7.04719 28.752059,8.48404 4.777814,0.63293 20.381326,0.78913 29.384625,0.29416 z M 82.652461,103.01797 87.411762,102.83008 V 88.669486 74.508892 H 72.47488 57.537998 v 14.543374 14.543374 l 10.177582,-0.1949 c 5.597669,-0.10719 12.319266,-0.27944 14.936881,-0.38277 z m 34.266969,-0.001 5.05218,-0.18594 V 88.658837 74.487116 l -14.86367,0.197504 c -8.17501,0.108626 -14.91625,0.243023 -14.980528,0.298655 -0.06428,0.05564 -0.181445,6.140526 -0.260371,13.521981 -0.104321,9.756423 -0.05206,13.591694 0.191418,14.046634 0.238179,0.44504 0.694067,0.66427 1.578331,0.75901 1.462314,0.15666 16.03298,-0.0276 23.28264,-0.2944 z m 34.08327,0.006 5.16137,-0.18234 0.18656,-8.674231 c 0.10261,-4.770825 0.26798,-11.145406 0.36749,-14.165731 l 0.18094,-5.491606 h -15.12069 -15.12068 v 14.539115 14.539113 l 9.59182,-0.19105 c 5.2755,-0.10507 11.91444,-0.27309 14.75319,-0.37338 z M 191.09129,89.006453 V 74.508892 h -15.08332 -15.08332 v 11.670209 c 0,6.418612 0.0853,12.87177 0.18953,14.340349 l 0.18953,2.67014 2.51961,0.097 c 1.38579,0.0534 8.08799,0.1241 14.89379,0.15722 l 12.37418,0.0602 z M 52.559038,88.713573 V 74.508892 H 37.622156 22.685274 v 14.204681 14.204677 h 14.936882 14.936882 z m 33.153261,-19.37127 c 0.874531,-0.142858 1.110874,-0.324977 1.228292,-0.946494 0.29563,-1.564797 0.498974,-26.249807 0.219631,-26.662176 -0.34542,-0.50991 -5.089028,-0.768523 -19.444642,-1.060085 L 57.537998,40.466842 V 55.192355 69.917868 L 71.0837,69.718534 C 78.533836,69.6089 85.116704,69.439598 85.712299,69.342303 Z M 121.97161,55.504108 v -14.3187 l -6.2237,-0.210923 c -11.3154,-0.383483 -22.985827,-0.340022 -23.414648,0.0872 -0.298983,0.297868 -0.402036,3.094694 -0.474831,12.886722 -0.100856,13.566768 -0.0072,15.470784 0.770796,15.676149 0.271532,0.07167 6.984649,0.145599 14.918033,0.164285 l 14.42435,0.03397 z m 34.26696,0.01148 V 41.208367 l -5.05218,-0.186477 c -2.7787,-0.10256 -9.4344,-0.274217 -14.79044,-0.381452 l -9.73826,-0.194979 v 14.688677 14.688675 h 14.79044 14.79044 z m -7.6881,-19.558441 7.6881,-0.187461 V 21.458085 7.1464835 H 141.44813 126.65769 V 21.828974 36.511465 l 7.10234,-0.183428 c 3.90629,-0.100886 10.56198,-0.267786 14.79044,-0.37089 z"
       id="path69"
       inkscape:connector-curvature="0"
       transform="scale(0.26458333)" />
    <path
       style="fill:#ff00ff;stroke-width:0.14644001"
       d="m 167.01009,88.924387 v -8.127421 h 1.17152 1.17152 v 8.127421 8.127421 h -1.17152 -1.17152 z"
       id="path71"
       inkscape:connector-curvature="0"
       transform="scale(0.26458333)" />
    <path
       style="fill:#ff00ff;stroke-width:0.14644001"
       d="m 174.62497,88.924387 v -8.127421 h 1.17152 1.17152 v 8.127421 8.127421 h -1.17152 -1.17152 z"
       id="path73"
       inkscape:connector-curvature="0"
       transform="scale(0.26458333)" />
    <path
       style="fill:#ff00ff;stroke-width:0.14644001"
       d="m 182.82561,88.924387 v -8.127421 h 1.0983 1.0983 v 8.127421 8.127421 h -1.0983 -1.0983 z"
       id="path75"
       inkscape:connector-curvature="0"
       transform="scale(0.26458333)" />
  </g>
  <g
     inkscape:groupmode="layer"
     id="layer3"
     inkscape:label="F.Mask" />
  <g
     inkscape:groupmode="layer"
     id="layer1"
     inkscape:label="F.Silk"
     style="display:inline">
    <path
       style="fill:#ff0000;stroke-width:0.41419491"
       d="M 82.602093,209.05079 C 63.692397,207.4006 46.045796,200.74267 33.523004,190.53364 20.018695,179.52443 10.399443,164.06043 5.1569519,144.93211 2.2889426,134.46757 0.92690807,122.75402 1.375681,112.41302 1.5289177,108.882 1.7619179,105.39119 1.8934592,104.65565 l 0.239166,-1.33736 7.9275308,-0.11233 7.92753,-0.11233 0.108247,-16.671345 0.108248,-16.671345 8.796943,-0.0012 c 4.838319,-4.43e-4 12.571295,-0.123223 17.18439,-0.272685 l 8.387448,-0.271753 0.0046,-14.948821 c 0.0025,-8.221856 0.120087,-15.647778 0.26129,-16.502055 l 0.256731,-1.553231 9.161643,-3.74e-4 c 5.038909,-2.05e-4 20.484702,-0.123958 34.323989,-0.275006 L 121.74351,35.651138 V 18.944153 2.2371685 h 19.67426 19.67426 V 35.994054 69.75094 h 17.39619 17.39618 V 86.506321 103.2617 l 2.17453,-0.22957 c 6.53357,-0.68977 16.03869,-3.39793 17.31232,-4.932564 0.41313,-0.497791 0.27158,-1.141558 -0.74794,-3.401596 -2.76869,-6.137532 -3.82789,-11.311274 -3.82789,-18.697554 0,-6.360791 0.82578,-11.610343 2.74224,-17.432739 1.43545,-4.361013 5.5017,-12.119128 7.45751,-14.228382 0.99031,-1.068006 1.04311,-1.077574 2.13848,-0.38755 4.37273,2.754587 10.69728,8.606991 14.07849,13.027499 3.89424,5.091217 7.34207,12.687233 8.20326,18.072832 l 0.25819,1.614627 7.93035,-0.198064 c 8.83191,-0.22058 13.55098,0.230909 18.3533,1.755933 3.34043,1.060783 7.70405,3.487178 10.24961,5.699298 l 1.61958,1.407438 -2.31728,4.73921 c -4.26551,8.723662 -7.67993,12.983712 -13.5574,16.915082 -6.45784,4.31958 -12.75009,6.15874 -22.43421,6.55728 l -5.66187,0.23301 -0.71057,1.90728 c -1.10516,2.96645 -7.75653,16.6107 -10.17065,20.86349 -11.68572,20.58605 -29.92722,39.48645 -49.21808,50.99588 -20.0918,11.98729 -42.25679,18.95483 -67.33661,21.16718 -6.31816,0.55734 -24.903331,0.76993 -29.817667,0.34107 z m 34.262767,-5.88911 c 19.04555,-2.52936 34.13641,-6.83977 48.57622,-13.87484 11.37891,-5.54381 19.01154,-10.38675 28.16525,-17.87098 4.78987,-3.91628 14.05248,-13.31713 18.14669,-18.41752 3.39531,-4.22974 9.23096,-12.80406 12.42527,-18.25647 3.00435,-5.12815 8.3882,-16.10367 10.60488,-21.61909 l 1.73612,-4.31973 6.08748,-0.28913 c 7.55571,-0.35885 11.12129,-0.83777 14.57848,-1.95813 6.19495,-2.00757 11.30311,-5.6847 15.382,-11.072801 2.49053,-3.289908 4.64349,-7.643416 4.30592,-8.707006 -0.34457,-1.085638 -4.55818,-3.221422 -8.37462,-4.24491 -2.74357,-0.735768 -4.46663,-0.871329 -11.3133,-0.89008 -7.73601,-0.02121 -9.46949,0.159867 -14.95272,1.561738 l -1.07719,0.275399 -0.23757,-4.06778 c -0.48875,-8.36805 -4.49822,-16.597585 -11.58868,-23.786 -3.73653,-3.788152 -5.91686,-5.507479 -6.51524,-5.137661 -0.75447,0.466284 -3.70205,6.692934 -4.96204,10.482117 -1.72451,5.18611 -2.21708,9.3994 -1.98433,16.973186 0.16072,5.229907 0.38376,7.084009 1.13224,9.412232 1.14012,3.546407 2.95575,7.228927 4.83493,9.806367 l 1.41201,1.936663 -1.35883,1.020366 c -4.05038,3.04149 -8.53444,5.07109 -14.40597,6.52052 -5.60087,1.38262 -19.69728,1.58077 -114.395968,1.60804 l -86.4378082,0.0249 -0.2875366,1.91743 c -0.4491881,2.9954 0.073988,15.59503 0.8663082,20.86329 1.0316083,6.85931 3.5974356,16.69295 5.8159226,22.28977 2.809397,7.08757 7.896693,16.32793 10.439177,18.96129 1.782799,1.84653 15.838128,2.54051 24.645105,1.21686 6.944226,-1.04369 15.997711,-4.06418 23.228361,-7.7496 0.87635,-0.44667 1.645588,-0.75253 1.709416,-0.67969 0.319385,0.36452 1.87465,3.66803 1.87465,3.98192 0,0.53043 -10.018861,5.24386 -13.87553,6.52783 -7.996774,2.6623 -11.255291,3.16239 -22.055879,3.38502 -5.524325,0.11387 -10.044227,0.33155 -10.044227,0.48373 0,0.42083 4.44906,4.65458 7.248411,6.89763 12.314657,9.86743 27.913362,15.80925 46.182733,17.59181 6.569542,0.64099 27.242145,0.1632 34.469865,-0.79668 z M 78.356595,103.02666 87.365334,102.75461 V 88.737945 74.721279 H 72.454317 57.543301 v 14.289724 14.289727 l 5.902277,-8.3e-4 c 3.246253,-4.1e-4 9.95621,-0.12344 14.911017,-0.27306 z m 34.378175,0 9.00874,-0.27205 V 88.732714 74.710816 l -14.80747,0.10878 -14.807464,0.10878 -0.109335,13.66528 c -0.06014,7.515907 -0.01938,13.899684 0.09055,14.186174 0.232264,0.60528 6.335931,0.67832 20.624979,0.24683 z m 43.25336,-0.2827 c 0.0564,-0.0564 0.2323,-6.384513 0.39099,-14.062573 l 0.28852,-13.960108 h -14.97689 -14.9769 v 14.354939 14.354932 l 14.58591,-0.29236 c 8.02225,-0.1608 14.63202,-0.33848 14.68837,-0.39483 z M 190.91406,89.011003 V 74.721279 h -14.91101 -14.91102 v 14.013593 c 0,7.70748 0.12426,14.137858 0.27613,14.289728 0.15187,0.15187 6.86183,0.27613 14.91102,0.27613 h 14.63488 z M 52.572962,88.803906 V 74.721279 H 37.661945 22.750928 V 88.803906 102.88653 H 37.661945 52.572962 Z M 77.879281,69.478764 86.824897,69.208622 87.117356,55.543648 C 87.278204,48.027916 87.255109,41.723976 87.066025,41.534893 86.876941,41.345811 80.156976,41.063505 72.13277,40.907549 L 57.543301,40.623991 V 55.187465 69.75094 l 5.69518,-8.29e-4 c 3.132349,-4.14e-4 9.720707,-0.122581 14.6408,-0.271161 z M 121.74351,55.526956 V 41.302975 l -8.38744,-0.271752 c -4.6131,-0.149463 -11.20992,-0.272242 -14.659609,-0.27284 -5.337958,-9.11e-4 -6.309605,0.0965 -6.52357,0.654081 -0.343944,0.896306 -0.320322,27.717308 0.02473,28.062344 0.151869,0.151873 6.861826,0.276132 14.911019,0.276132 h 14.63487 z m 34.37818,0 V 41.302975 l -8.38745,-0.271752 c -4.61309,-0.149463 -11.22986,-0.272242 -14.70392,-0.27284 l -6.31647,-0.0011 V 55.254118 69.75094 h 14.70392 14.70392 z m -10.62916,-19.59931 10.62916,-0.273505 V 21.430824 7.2075075 H 141.41777 126.71385 V 21.70433 36.201152 h 4.07476 c 2.24112,0 8.85789,-0.123078 14.70392,-0.273506 z"
       id="path97"
       inkscape:connector-curvature="0"
       transform="scale(0.26458333)" />
    <path
       style="fill:#ff0000;stroke-width:0.14644001"
       d="m 148.24836,21.682619 v -8.493521 h 1.17152 1.17152 v 8.493521 8.493521 h -1.17152 -1.17152 z"
       id="path101"
       inkscape:connector-curvature="0"
       transform="scale(0.26458333)" />
    <path
       style="fill:#ff0000;stroke-width:0.14644001"
       d="m 141.24627,30.02626 c -0.42812,-0.06234 -0.80833,-0.143286 -0.84493,-0.179883 -0.049,-0.04905 -0.32012,-12.628045 -0.35028,-16.254569 l -0.003,-0.40271 h 1.24474 1.24474 v 8.493521 c 0,7.9984 -0.0149,8.492456 -0.25627,8.475251 -0.14094,-0.01005 -0.60654,-0.06927 -1.03465,-0.13161 z"
       id="path103"
       inkscape:connector-curvature="0"
       transform="scale(0.26458333)" />
    <path
       style="fill:#ff0000;stroke-width:0.14644001"
       d="m 132.43283,21.691592 v -8.502494 h 1.23897 1.23896 l -0.071,4.21015 c -0.0391,2.315583 -0.10979,6.068166 -0.15718,8.339072 l -0.0862,4.128922 -0.3862,0.07181 c -0.21241,0.03949 -0.69921,0.113034 -1.08179,0.163423 l -0.69559,0.09161 z"
       id="path105"
       inkscape:connector-curvature="0"
       transform="scale(0.26458333)" />
    <path
       style="fill:#ff0000;stroke-width:0.14644001"
       d="m 148.24836,55.217383 v -8.493521 h 1.17152 1.17152 v 8.493521 8.493521 h -1.17152 -1.17152 z"
       id="path107"
       inkscape:connector-curvature="0"
       transform="scale(0.26458333)" />
    <path
       style="fill:#ff0000;stroke-width:0.14644001"
       d="m 140.04771,55.217383 v -8.493521 h 1.24474 1.24474 v 8.493521 8.493521 h -1.24474 -1.24474 z"
       id="path109"
       inkscape:connector-curvature="0"
       transform="scale(0.26458333)" />
    <path
       style="fill:#ff0000;stroke-width:0.14644001"
       d="m 132.43283,55.215652 v -8.495251 l 0.62237,0.0826 c 0.34231,0.04543 0.82903,0.113685 1.08162,0.151677 l 0.45925,0.06907 0.0863,4.279865 c 0.0474,2.353926 0.119,6.108535 0.159,8.343575 l 0.0727,4.063711 h -1.24062 -1.24062 z"
       id="path111"
       inkscape:connector-curvature="0"
       transform="scale(0.26458333)" />
    <path
       style="fill:#ff0000;stroke-width:0.14644001"
       d="m 113.68851,55.217383 v -8.493521 h 1.17152 1.17152 v 8.493521 8.493521 h -1.17152 -1.17152 z"
       id="path113"
       inkscape:connector-curvature="0"
       transform="scale(0.26458333)" />
    <path
       style="fill:#ff0000;stroke-width:0.14644001"
       d="m 105.48787,55.217383 v -8.493521 h 1.24474 1.24474 v 8.493521 8.493521 h -1.24474 -1.24474 z"
       id="path115"
       inkscape:connector-curvature="0"
       transform="scale(0.26458333)" />
    <path
       style="fill:#ff0000;stroke-width:0.14644001"
       d="m 97.87299,55.217383 v -8.493521 h 0.95186 0.95186 v 8.493521 8.493521 h -0.95186 -0.95186 z"
       id="path117"
       inkscape:connector-curvature="0"
       transform="scale(0.26458333)" />
    <path
       style="fill:#ff0000;stroke-width:0.14644001"
       d="m 79.106979,55.217383 v -8.493521 h 1.24474 1.244741 v 8.493521 8.493521 h -1.244741 -1.24474 z"
       id="path119"
       inkscape:connector-curvature="0"
       transform="scale(0.26458333)" />
    <path
       style="fill:#ff0000;stroke-width:0.14644001"
       d="m 71.003965,63.613277 c -0.05369,-0.05369 -0.09763,-3.875779 -0.09763,-8.493521 v -8.395894 h 1.24474 1.244741 v 8.493521 8.493521 h -1.147114 c -0.630912,0 -1.191045,-0.04393 -1.24474,-0.09763 z"
       id="path121"
       inkscape:connector-curvature="0"
       transform="scale(0.26458333)" />
    <path
       style="fill:#ff0000;stroke-width:0.14644001"
       d="m 62.901655,55.839753 c 0.04734,-4.329133 0.128346,-8.081273 0.180017,-8.33809 0.109068,-0.54209 0.60086,-0.777801 1.622818,-0.777801 h 0.637128 v 8.493521 8.493521 h -1.263016 -1.263016 z"
       id="path123"
       inkscape:connector-curvature="0"
       transform="scale(0.26458333)" />
    <path
       style="fill:#ff0000;stroke-width:0.14644001"
       d="M 44.547135,88.890311 V 80.68967 h 1.24474 1.244741 v 8.200641 8.20064 h -1.244741 -1.24474 z"
       id="path125"
       inkscape:connector-curvature="0"
       transform="scale(0.26458333)" />
    <path
       style="fill:#ff0000;stroke-width:0.14644001"
       d="M 36.492934,88.890311 V 80.68967 h 1.171521 1.17152 v 8.200641 8.20064 h -1.17152 -1.171521 z"
       id="path127"
       inkscape:connector-curvature="0"
       transform="scale(0.26458333)" />
    <path
       style="fill:#ff0000;stroke-width:0.14644001"
       d="M 28.292293,88.890311 V 80.68967 h 1.244741 1.24474 v 8.200641 8.20064 h -1.24474 -1.244741 z"
       id="path129"
       inkscape:connector-curvature="0"
       transform="scale(0.26458333)" />
    <path
       style="fill:#ff0000;stroke-width:0.14644001"
       d="M 79.106979,88.890311 V 80.68967 h 1.24474 1.244741 v 8.200641 8.20064 h -1.244741 -1.24474 z"
       id="path131"
       inkscape:connector-curvature="0"
       transform="scale(0.26458333)" />
    <path
       style="fill:#ff0000;stroke-width:0.14644001"
       d="m 70.941719,88.926921 0.03784,-8.164031 1.20813,-0.04253 1.208131,-0.04253 v 8.206563 8.206563 h -1.24597 -1.24597 z"
       id="path133"
       inkscape:connector-curvature="0"
       transform="scale(0.26458333)" />
    <path
       style="fill:#ff0000;stroke-width:0.14644001"
       d="M 62.852137,88.890311 V 80.68967 h 1.244741 1.24474 v 8.200641 8.20064 h -1.24474 -1.244741 z"
       id="path135"
       inkscape:connector-curvature="0"
       transform="scale(0.26458333)" />
    <path
       style="fill:#ff0000;stroke-width:0.14644001"
       d="m 113.66682,88.884388 v -8.206563 l 1.20813,0.04253 1.20813,0.04253 0.0378,8.164031 0.0378,8.16403 h -1.24597 -1.24597 z"
       id="path137"
       inkscape:connector-curvature="0"
       transform="scale(0.26458333)" />
    <path
       style="fill:#ff0000;stroke-width:0.14644001"
       d="M 105.46618,88.890311 V 80.68967 h 1.24474 1.24474 v 8.200641 8.20064 h -1.24474 -1.24474 z"
       id="path139"
       inkscape:connector-curvature="0"
       transform="scale(0.26458333)" />
    <path
       style="fill:#ff0000;stroke-width:0.14644001"
       d="m 97.851301,88.88362 v -8.207332 l 0.988471,0.0433 0.98847,0.0433 0.03784,8.164031 0.03784,8.16403 h -1.02631 -1.02631 z"
       id="path141"
       inkscape:connector-curvature="0"
       transform="scale(0.26458333)" />
    <path
       style="fill:#ff0000;stroke-width:0.14644001"
       d="M 148.23422,88.890311 V 80.68967 h 1.17152 1.17152 v 8.200641 8.20064 h -1.17152 -1.17152 z"
       id="path143"
       inkscape:connector-curvature="0"
       transform="scale(0.26458333)" />
    <path
       style="fill:#ff0000;stroke-width:0.14644001"
       d="M 140.03358,88.890311 V 80.68967 h 1.24474 1.24474 v 8.200641 8.20064 h -1.24474 -1.24474 z"
       id="path145"
       inkscape:connector-curvature="0"
       transform="scale(0.26458333)" />
    <path
       style="fill:#ff0000;stroke-width:0.14644001"
       d="M 132.4187,88.890311 V 80.68967 h 1.24474 1.24474 v 8.200641 8.20064 h -1.24474 -1.24474 z"
       id="path147"
       inkscape:connector-curvature="0"
       transform="scale(0.26458333)" />
    <path
       style="fill:#ff0000;stroke-width:0.14644001"
       d="M 166.97854,88.890311 V 80.68967 h 1.24474 1.24474 v 8.200641 8.20064 h -1.24474 -1.24474 z"
       id="path149"
       inkscape:connector-curvature="0"
       transform="scale(0.26458333)" />
    <path
       style="fill:#ff0000;stroke-width:0.14644001"
       d="M 174.59342,88.890311 V 80.68967 h 1.24474 1.24474 v 8.200641 8.20064 h -1.24474 -1.24474 z"
       id="path151"
       inkscape:connector-curvature="0"
       transform="scale(0.26458333)" />
    <path
       style="fill:#ff0000;stroke-width:0.14644001"
       d="M 182.79406,88.890311 V 80.68967 h 1.17152 1.17152 v 8.200641 8.20064 h -1.17152 -1.17152 z"
       id="path153"
       inkscape:connector-curvature="0"
       transform="scale(0.26458333)" />
  </g>
  <g
     id="g80"
     inkscape:groupmode="layer"
     inkscape:label="Drill" />
</svg>
