G04 #@! TF.GenerationSoftware,KiCad,Pcbnew,(5.1.2)-1*
G04 #@! TF.CreationDate,2019-06-19T12:48:08+08:00*
G04 #@! TF.ProjectId,docker_take2,646f636b-6572-45f7-9461-6b65322e6b69,rev?*
G04 #@! TF.SameCoordinates,Original*
G04 #@! TF.FileFunction,Copper,L2,Bot*
G04 #@! TF.FilePolarity,Positive*
%FSLAX46Y46*%
G04 Gerber Fmt 4.6, Leading zero omitted, Abs format (unit mm)*
G04 Created by KiCad (PCBNEW (5.1.2)-1) date 2019-06-19 12:48:08*
%MOMM*%
%LPD*%
G04 APERTURE LIST*
%ADD10R,1.948180X1.099820*%
%ADD11R,2.600000X3.600000*%
%ADD12R,1.800000X1.800000*%
%ADD13C,1.800000*%
%ADD14C,0.100000*%
%ADD15C,1.250000*%
%ADD16C,0.250000*%
G04 APERTURE END LIST*
D10*
X163703000Y-86042500D03*
X169351960Y-86042500D03*
X163703000Y-83543140D03*
X163703000Y-88541860D03*
X169351960Y-83543140D03*
X169351960Y-88541860D03*
D11*
X130942800Y-76758800D03*
X160242800Y-76758800D03*
D12*
X141884400Y-89560400D03*
D13*
X139344400Y-89560400D03*
D14*
G36*
X131561104Y-85561404D02*
G01*
X131585373Y-85565004D01*
X131609171Y-85570965D01*
X131632271Y-85579230D01*
X131654449Y-85589720D01*
X131675493Y-85602333D01*
X131695198Y-85616947D01*
X131713377Y-85633423D01*
X131729853Y-85651602D01*
X131744467Y-85671307D01*
X131757080Y-85692351D01*
X131767570Y-85714529D01*
X131775835Y-85737629D01*
X131781796Y-85761427D01*
X131785396Y-85785696D01*
X131786600Y-85810200D01*
X131786600Y-86560200D01*
X131785396Y-86584704D01*
X131781796Y-86608973D01*
X131775835Y-86632771D01*
X131767570Y-86655871D01*
X131757080Y-86678049D01*
X131744467Y-86699093D01*
X131729853Y-86718798D01*
X131713377Y-86736977D01*
X131695198Y-86753453D01*
X131675493Y-86768067D01*
X131654449Y-86780680D01*
X131632271Y-86791170D01*
X131609171Y-86799435D01*
X131585373Y-86805396D01*
X131561104Y-86808996D01*
X131536600Y-86810200D01*
X130286600Y-86810200D01*
X130262096Y-86808996D01*
X130237827Y-86805396D01*
X130214029Y-86799435D01*
X130190929Y-86791170D01*
X130168751Y-86780680D01*
X130147707Y-86768067D01*
X130128002Y-86753453D01*
X130109823Y-86736977D01*
X130093347Y-86718798D01*
X130078733Y-86699093D01*
X130066120Y-86678049D01*
X130055630Y-86655871D01*
X130047365Y-86632771D01*
X130041404Y-86608973D01*
X130037804Y-86584704D01*
X130036600Y-86560200D01*
X130036600Y-85810200D01*
X130037804Y-85785696D01*
X130041404Y-85761427D01*
X130047365Y-85737629D01*
X130055630Y-85714529D01*
X130066120Y-85692351D01*
X130078733Y-85671307D01*
X130093347Y-85651602D01*
X130109823Y-85633423D01*
X130128002Y-85616947D01*
X130147707Y-85602333D01*
X130168751Y-85589720D01*
X130190929Y-85579230D01*
X130214029Y-85570965D01*
X130237827Y-85565004D01*
X130262096Y-85561404D01*
X130286600Y-85560200D01*
X131536600Y-85560200D01*
X131561104Y-85561404D01*
X131561104Y-85561404D01*
G37*
D15*
X130911600Y-86185200D03*
D14*
G36*
X131561104Y-82761404D02*
G01*
X131585373Y-82765004D01*
X131609171Y-82770965D01*
X131632271Y-82779230D01*
X131654449Y-82789720D01*
X131675493Y-82802333D01*
X131695198Y-82816947D01*
X131713377Y-82833423D01*
X131729853Y-82851602D01*
X131744467Y-82871307D01*
X131757080Y-82892351D01*
X131767570Y-82914529D01*
X131775835Y-82937629D01*
X131781796Y-82961427D01*
X131785396Y-82985696D01*
X131786600Y-83010200D01*
X131786600Y-83760200D01*
X131785396Y-83784704D01*
X131781796Y-83808973D01*
X131775835Y-83832771D01*
X131767570Y-83855871D01*
X131757080Y-83878049D01*
X131744467Y-83899093D01*
X131729853Y-83918798D01*
X131713377Y-83936977D01*
X131695198Y-83953453D01*
X131675493Y-83968067D01*
X131654449Y-83980680D01*
X131632271Y-83991170D01*
X131609171Y-83999435D01*
X131585373Y-84005396D01*
X131561104Y-84008996D01*
X131536600Y-84010200D01*
X130286600Y-84010200D01*
X130262096Y-84008996D01*
X130237827Y-84005396D01*
X130214029Y-83999435D01*
X130190929Y-83991170D01*
X130168751Y-83980680D01*
X130147707Y-83968067D01*
X130128002Y-83953453D01*
X130109823Y-83936977D01*
X130093347Y-83918798D01*
X130078733Y-83899093D01*
X130066120Y-83878049D01*
X130055630Y-83855871D01*
X130047365Y-83832771D01*
X130041404Y-83808973D01*
X130037804Y-83784704D01*
X130036600Y-83760200D01*
X130036600Y-83010200D01*
X130037804Y-82985696D01*
X130041404Y-82961427D01*
X130047365Y-82937629D01*
X130055630Y-82914529D01*
X130066120Y-82892351D01*
X130078733Y-82871307D01*
X130093347Y-82851602D01*
X130109823Y-82833423D01*
X130128002Y-82816947D01*
X130147707Y-82802333D01*
X130168751Y-82789720D01*
X130190929Y-82779230D01*
X130214029Y-82770965D01*
X130237827Y-82765004D01*
X130262096Y-82761404D01*
X130286600Y-82760200D01*
X131536600Y-82760200D01*
X131561104Y-82761404D01*
X131561104Y-82761404D01*
G37*
D15*
X130911600Y-83385200D03*
D16*
X130942800Y-83354000D02*
X130911600Y-83385200D01*
X130942800Y-76758800D02*
X130942800Y-83354000D01*
X163278820Y-86042500D02*
X163703000Y-86042500D01*
X160242800Y-83006480D02*
X163278820Y-86042500D01*
X160242800Y-78581800D02*
X160242800Y-83006480D01*
X160242800Y-76758800D02*
X160242800Y-78581800D01*
X160242800Y-78581800D02*
X160242800Y-79418900D01*
X153195020Y-88541860D02*
X142902940Y-88541860D01*
X142902940Y-88541860D02*
X141884400Y-89560400D01*
X163703000Y-88541860D02*
X142902940Y-88541860D01*
X134286800Y-89560400D02*
X130911600Y-86185200D01*
X139344400Y-89560400D02*
X134286800Y-89560400D01*
M02*
