G04 #@! TF.GenerationSoftware,KiCad,Pcbnew,(5.1.2)-1*
G04 #@! TF.CreationDate,2019-06-19T12:48:08+08:00*
G04 #@! TF.ProjectId,docker_take2,646f636b-6572-45f7-9461-6b65322e6b69,rev?*
G04 #@! TF.SameCoordinates,Original*
G04 #@! TF.FileFunction,Legend,Bot*
G04 #@! TF.FilePolarity,Positive*
%FSLAX46Y46*%
G04 Gerber Fmt 4.6, Leading zero omitted, Abs format (unit mm)*
G04 Created by KiCad (PCBNEW (5.1.2)-1) date 2019-06-19 12:48:08*
%MOMM*%
%LPD*%
G04 APERTURE LIST*
%ADD10C,0.127000*%
%ADD11C,0.120000*%
%ADD12C,0.200000*%
%ADD13C,0.150000*%
G04 APERTURE END LIST*
D10*
X164754560Y-81518760D02*
X168300400Y-81518760D01*
X168300400Y-81518760D02*
X168300400Y-90566240D01*
X168300400Y-90566240D02*
X164754560Y-90566240D01*
X164754560Y-90566240D02*
X164754560Y-81518760D01*
D11*
X133592800Y-70758800D02*
X131592800Y-70758800D01*
X132592800Y-71758800D02*
X132592800Y-69758800D01*
X156942800Y-85108800D02*
X156942800Y-80608800D01*
X134242800Y-85108800D02*
X134242800Y-80608800D01*
X134242800Y-85108800D02*
X156942800Y-85108800D01*
X160142800Y-80608800D02*
X160142800Y-79058800D01*
X156942800Y-80608800D02*
X160142800Y-80608800D01*
X131042800Y-80608800D02*
X131042800Y-79058800D01*
X134242800Y-80608800D02*
X131042800Y-80608800D01*
X131042800Y-72908800D02*
X131042800Y-74458800D01*
X134242800Y-72908800D02*
X131042800Y-72908800D01*
X136042800Y-68408800D02*
X134242800Y-70208800D01*
X134242800Y-70208800D02*
X134242800Y-72908800D01*
X156942800Y-68408800D02*
X136042800Y-68408800D01*
X156942800Y-68408800D02*
X156942800Y-72908800D01*
X160142800Y-72908800D02*
X160142800Y-74458800D01*
X156942800Y-72908800D02*
X160142800Y-72908800D01*
X131821600Y-85387264D02*
X131821600Y-84183136D01*
X130001600Y-85387264D02*
X130001600Y-84183136D01*
D12*
X172679860Y-82452023D02*
X171679860Y-82452023D01*
X172394146Y-82785357D01*
X171679860Y-83118690D01*
X172679860Y-83118690D01*
X172632241Y-83547261D02*
X172679860Y-83690119D01*
X172679860Y-83928214D01*
X172632241Y-84023452D01*
X172584622Y-84071071D01*
X172489384Y-84118690D01*
X172394146Y-84118690D01*
X172298908Y-84071071D01*
X172251289Y-84023452D01*
X172203670Y-83928214D01*
X172156051Y-83737738D01*
X172108432Y-83642500D01*
X172060813Y-83594880D01*
X171965575Y-83547261D01*
X171870337Y-83547261D01*
X171775099Y-83594880D01*
X171727480Y-83642500D01*
X171679860Y-83737738D01*
X171679860Y-83975833D01*
X171727480Y-84118690D01*
X172632241Y-84499642D02*
X172679860Y-84642500D01*
X172679860Y-84880595D01*
X172632241Y-84975833D01*
X172584622Y-85023452D01*
X172489384Y-85071071D01*
X172394146Y-85071071D01*
X172298908Y-85023452D01*
X172251289Y-84975833D01*
X172203670Y-84880595D01*
X172156051Y-84690119D01*
X172108432Y-84594880D01*
X172060813Y-84547261D01*
X171965575Y-84499642D01*
X171870337Y-84499642D01*
X171775099Y-84547261D01*
X171727480Y-84594880D01*
X171679860Y-84690119D01*
X171679860Y-84928214D01*
X171727480Y-85071071D01*
X171775099Y-85452023D02*
X171727480Y-85499642D01*
X171679860Y-85594880D01*
X171679860Y-85832976D01*
X171727480Y-85928214D01*
X171775099Y-85975833D01*
X171870337Y-86023452D01*
X171965575Y-86023452D01*
X172108432Y-85975833D01*
X172679860Y-85404404D01*
X172679860Y-86023452D01*
X171775099Y-86404404D02*
X171727480Y-86452023D01*
X171679860Y-86547261D01*
X171679860Y-86785357D01*
X171727480Y-86880595D01*
X171775099Y-86928214D01*
X171870337Y-86975833D01*
X171965575Y-86975833D01*
X172108432Y-86928214D01*
X172679860Y-86356785D01*
X172679860Y-86975833D01*
X172679860Y-87404404D02*
X171679860Y-87404404D01*
X171679860Y-87642500D01*
X171727480Y-87785357D01*
X171822718Y-87880595D01*
X171917956Y-87928214D01*
X172108432Y-87975833D01*
X172251289Y-87975833D01*
X172441765Y-87928214D01*
X172537003Y-87880595D01*
X172632241Y-87785357D01*
X172679860Y-87642500D01*
X172679860Y-87404404D01*
X172679860Y-88928214D02*
X172679860Y-88356785D01*
X172679860Y-88642500D02*
X171679860Y-88642500D01*
X171822718Y-88547261D01*
X171917956Y-88452023D01*
X171965575Y-88356785D01*
X172108432Y-89499642D02*
X172060813Y-89404404D01*
X172013194Y-89356785D01*
X171917956Y-89309166D01*
X171870337Y-89309166D01*
X171775099Y-89356785D01*
X171727480Y-89404404D01*
X171679860Y-89499642D01*
X171679860Y-89690119D01*
X171727480Y-89785357D01*
X171775099Y-89832976D01*
X171870337Y-89880595D01*
X171917956Y-89880595D01*
X172013194Y-89832976D01*
X172060813Y-89785357D01*
X172108432Y-89690119D01*
X172108432Y-89499642D01*
X172156051Y-89404404D01*
X172203670Y-89356785D01*
X172298908Y-89309166D01*
X172489384Y-89309166D01*
X172584622Y-89356785D01*
X172632241Y-89404404D01*
X172679860Y-89499642D01*
X172679860Y-89690119D01*
X172632241Y-89785357D01*
X172584622Y-89832976D01*
X172489384Y-89880595D01*
X172298908Y-89880595D01*
X172203670Y-89832976D01*
X172156051Y-89785357D01*
X172108432Y-89690119D01*
D13*
X132253514Y-81987371D02*
X132110657Y-82034990D01*
X132063038Y-82082609D01*
X132015419Y-82177847D01*
X132015419Y-82320704D01*
X132063038Y-82415942D01*
X132110657Y-82463561D01*
X132205895Y-82511180D01*
X132586847Y-82511180D01*
X132586847Y-81511180D01*
X132253514Y-81511180D01*
X132158276Y-81558800D01*
X132110657Y-81606419D01*
X132063038Y-81701657D01*
X132063038Y-81796895D01*
X132110657Y-81892133D01*
X132158276Y-81939752D01*
X132253514Y-81987371D01*
X132586847Y-81987371D01*
X131729704Y-81511180D02*
X131158276Y-81511180D01*
X131443990Y-82511180D02*
X131443990Y-81511180D01*
X130301133Y-82511180D02*
X130872561Y-82511180D01*
X130586847Y-82511180D02*
X130586847Y-81511180D01*
X130682085Y-81654038D01*
X130777323Y-81749276D01*
X130872561Y-81796895D01*
X133183980Y-84618533D02*
X132707790Y-84285200D01*
X133183980Y-84047104D02*
X132183980Y-84047104D01*
X132183980Y-84428057D01*
X132231600Y-84523295D01*
X132279219Y-84570914D01*
X132374457Y-84618533D01*
X132517314Y-84618533D01*
X132612552Y-84570914D01*
X132660171Y-84523295D01*
X132707790Y-84428057D01*
X132707790Y-84047104D01*
X133183980Y-85570914D02*
X133183980Y-84999485D01*
X133183980Y-85285200D02*
X132183980Y-85285200D01*
X132326838Y-85189961D01*
X132422076Y-85094723D01*
X132469695Y-84999485D01*
M02*
