G04 #@! TF.GenerationSoftware,KiCad,Pcbnew,(5.1.2)-1*
G04 #@! TF.CreationDate,2019-06-19T12:48:08+08:00*
G04 #@! TF.ProjectId,docker_take2,646f636b-6572-45f7-9461-6b65322e6b69,rev?*
G04 #@! TF.SameCoordinates,Original*
G04 #@! TF.FileFunction,Legend,Top*
G04 #@! TF.FilePolarity,Positive*
%FSLAX46Y46*%
G04 Gerber Fmt 4.6, Leading zero omitted, Abs format (unit mm)*
G04 Created by KiCad (PCBNEW (5.1.2)-1) date 2019-06-19 12:48:08*
%MOMM*%
%LPD*%
G04 APERTURE LIST*
%ADD10C,0.010000*%
%ADD11C,0.120000*%
G04 APERTURE END LIST*
D10*
G36*
X136133021Y-95376021D02*
G01*
X136290003Y-95578393D01*
X136417758Y-95794797D01*
X136502109Y-95945415D01*
X136569858Y-96021376D01*
X136578067Y-96023577D01*
X136643531Y-96078295D01*
X136740005Y-96213652D01*
X136762881Y-96251616D01*
X136923170Y-96488223D01*
X137167000Y-96799966D01*
X137475260Y-97166297D01*
X137828840Y-97566665D01*
X138208628Y-97980522D01*
X138595514Y-98387318D01*
X138970389Y-98766504D01*
X139314140Y-99097531D01*
X139607659Y-99359851D01*
X139782445Y-99498493D01*
X140012361Y-99673743D01*
X140261369Y-99875487D01*
X140349498Y-99950353D01*
X140543874Y-100117146D01*
X140705991Y-100249969D01*
X140867375Y-100371851D01*
X141059555Y-100505823D01*
X141314057Y-100674914D01*
X141571671Y-100843107D01*
X141860648Y-101033283D01*
X142123735Y-101210117D01*
X142327793Y-101351125D01*
X142424758Y-101421853D01*
X142581053Y-101522019D01*
X142704495Y-101566534D01*
X142708929Y-101566671D01*
X142845212Y-101608913D01*
X142873246Y-101630225D01*
X143000262Y-101720557D01*
X143228727Y-101854204D01*
X143531754Y-102017718D01*
X143882452Y-102197652D01*
X144253933Y-102380557D01*
X144619307Y-102552986D01*
X144951685Y-102701491D01*
X145224177Y-102812625D01*
X145274405Y-102831077D01*
X145503126Y-102918623D01*
X145673789Y-102994924D01*
X145747611Y-103041896D01*
X145691843Y-103059469D01*
X145522453Y-103079130D01*
X145266108Y-103099506D01*
X144949474Y-103119222D01*
X144599218Y-103136903D01*
X144242007Y-103151176D01*
X143904507Y-103160666D01*
X143613386Y-103163999D01*
X143431063Y-103161282D01*
X143225319Y-103165761D01*
X142973115Y-103185994D01*
X142904820Y-103193944D01*
X142681709Y-103206844D01*
X142378049Y-103204633D01*
X142052728Y-103188002D01*
X141992666Y-103183213D01*
X141720533Y-103165496D01*
X141345670Y-103148655D01*
X140905674Y-103133995D01*
X140438146Y-103122820D01*
X140102956Y-103117634D01*
X139688990Y-103110887D01*
X139322923Y-103101128D01*
X139028091Y-103089286D01*
X138827828Y-103076291D01*
X138746184Y-103063580D01*
X138654187Y-103042491D01*
X138453321Y-103015327D01*
X138174705Y-102985835D01*
X137899430Y-102961686D01*
X137309390Y-102911866D01*
X136802844Y-102863781D01*
X136392946Y-102818907D01*
X136092847Y-102778723D01*
X135915700Y-102744705D01*
X135888246Y-102735821D01*
X135771729Y-102706889D01*
X135557476Y-102668465D01*
X135287074Y-102627838D01*
X135221671Y-102618996D01*
X134904850Y-102574026D01*
X134596564Y-102525186D01*
X134359519Y-102482456D01*
X134344599Y-102479412D01*
X134135961Y-102436670D01*
X133838705Y-102376313D01*
X133501814Y-102308270D01*
X133327196Y-102273141D01*
X132707128Y-102139746D01*
X132070846Y-101986864D01*
X131442777Y-101821586D01*
X130847344Y-101651007D01*
X130308974Y-101482218D01*
X129852091Y-101322313D01*
X129501121Y-101178384D01*
X129416408Y-101137490D01*
X129266124Y-101084237D01*
X129201501Y-101075511D01*
X129090547Y-101046601D01*
X128902191Y-100972043D01*
X128744815Y-100900097D01*
X128541991Y-100805103D01*
X128394660Y-100741402D01*
X128344342Y-100724682D01*
X128268864Y-100696572D01*
X128096839Y-100621142D01*
X127858258Y-100511746D01*
X127713936Y-100444019D01*
X127452750Y-100322033D01*
X127242808Y-100226832D01*
X127113809Y-100171739D01*
X127088310Y-100163356D01*
X127019321Y-100126513D01*
X126865428Y-100028889D01*
X126656922Y-99889842D01*
X126606762Y-99855637D01*
X126364185Y-99692863D01*
X126143968Y-99550793D01*
X125990197Y-99457805D01*
X125979959Y-99452184D01*
X125767700Y-99319038D01*
X125514022Y-99134453D01*
X125279625Y-98943246D01*
X125229152Y-98897813D01*
X125093004Y-98790071D01*
X124906613Y-98662617D01*
X124869664Y-98639321D01*
X124662995Y-98489229D01*
X124447240Y-98300783D01*
X124393681Y-98247548D01*
X124257071Y-98102038D01*
X124210734Y-98027057D01*
X124246949Y-97992682D01*
X124323515Y-97975573D01*
X124439340Y-97965930D01*
X124672799Y-97956163D01*
X125001196Y-97946869D01*
X125401836Y-97938646D01*
X125852023Y-97932092D01*
X126056539Y-97929923D01*
X126514640Y-97923614D01*
X126926954Y-97914131D01*
X127272315Y-97902270D01*
X127529557Y-97888829D01*
X127677512Y-97874604D01*
X127703202Y-97867921D01*
X127806416Y-97838232D01*
X128008523Y-97803361D01*
X128268602Y-97770202D01*
X128308113Y-97766006D01*
X128620050Y-97732553D01*
X128925200Y-97697895D01*
X129152334Y-97670183D01*
X129366011Y-97634605D01*
X129659244Y-97575659D01*
X129996437Y-97501680D01*
X130341994Y-97421004D01*
X130660319Y-97341965D01*
X130915816Y-97272898D01*
X131072889Y-97222140D01*
X131081892Y-97218357D01*
X131256361Y-97158891D01*
X131432721Y-97115694D01*
X131730255Y-97054694D01*
X131919436Y-97007684D01*
X132030514Y-96966688D01*
X132059296Y-96950546D01*
X132157881Y-96905706D01*
X132351404Y-96830196D01*
X132601989Y-96738666D01*
X132660621Y-96717972D01*
X132975796Y-96606402D01*
X133235303Y-96510494D01*
X133468193Y-96417399D01*
X133703516Y-96314268D01*
X133970322Y-96188252D01*
X134297663Y-96026502D01*
X134714588Y-95816170D01*
X134817436Y-95764020D01*
X135956847Y-95186025D01*
X136133021Y-95376021D01*
X136133021Y-95376021D01*
G37*
X136133021Y-95376021D02*
X136290003Y-95578393D01*
X136417758Y-95794797D01*
X136502109Y-95945415D01*
X136569858Y-96021376D01*
X136578067Y-96023577D01*
X136643531Y-96078295D01*
X136740005Y-96213652D01*
X136762881Y-96251616D01*
X136923170Y-96488223D01*
X137167000Y-96799966D01*
X137475260Y-97166297D01*
X137828840Y-97566665D01*
X138208628Y-97980522D01*
X138595514Y-98387318D01*
X138970389Y-98766504D01*
X139314140Y-99097531D01*
X139607659Y-99359851D01*
X139782445Y-99498493D01*
X140012361Y-99673743D01*
X140261369Y-99875487D01*
X140349498Y-99950353D01*
X140543874Y-100117146D01*
X140705991Y-100249969D01*
X140867375Y-100371851D01*
X141059555Y-100505823D01*
X141314057Y-100674914D01*
X141571671Y-100843107D01*
X141860648Y-101033283D01*
X142123735Y-101210117D01*
X142327793Y-101351125D01*
X142424758Y-101421853D01*
X142581053Y-101522019D01*
X142704495Y-101566534D01*
X142708929Y-101566671D01*
X142845212Y-101608913D01*
X142873246Y-101630225D01*
X143000262Y-101720557D01*
X143228727Y-101854204D01*
X143531754Y-102017718D01*
X143882452Y-102197652D01*
X144253933Y-102380557D01*
X144619307Y-102552986D01*
X144951685Y-102701491D01*
X145224177Y-102812625D01*
X145274405Y-102831077D01*
X145503126Y-102918623D01*
X145673789Y-102994924D01*
X145747611Y-103041896D01*
X145691843Y-103059469D01*
X145522453Y-103079130D01*
X145266108Y-103099506D01*
X144949474Y-103119222D01*
X144599218Y-103136903D01*
X144242007Y-103151176D01*
X143904507Y-103160666D01*
X143613386Y-103163999D01*
X143431063Y-103161282D01*
X143225319Y-103165761D01*
X142973115Y-103185994D01*
X142904820Y-103193944D01*
X142681709Y-103206844D01*
X142378049Y-103204633D01*
X142052728Y-103188002D01*
X141992666Y-103183213D01*
X141720533Y-103165496D01*
X141345670Y-103148655D01*
X140905674Y-103133995D01*
X140438146Y-103122820D01*
X140102956Y-103117634D01*
X139688990Y-103110887D01*
X139322923Y-103101128D01*
X139028091Y-103089286D01*
X138827828Y-103076291D01*
X138746184Y-103063580D01*
X138654187Y-103042491D01*
X138453321Y-103015327D01*
X138174705Y-102985835D01*
X137899430Y-102961686D01*
X137309390Y-102911866D01*
X136802844Y-102863781D01*
X136392946Y-102818907D01*
X136092847Y-102778723D01*
X135915700Y-102744705D01*
X135888246Y-102735821D01*
X135771729Y-102706889D01*
X135557476Y-102668465D01*
X135287074Y-102627838D01*
X135221671Y-102618996D01*
X134904850Y-102574026D01*
X134596564Y-102525186D01*
X134359519Y-102482456D01*
X134344599Y-102479412D01*
X134135961Y-102436670D01*
X133838705Y-102376313D01*
X133501814Y-102308270D01*
X133327196Y-102273141D01*
X132707128Y-102139746D01*
X132070846Y-101986864D01*
X131442777Y-101821586D01*
X130847344Y-101651007D01*
X130308974Y-101482218D01*
X129852091Y-101322313D01*
X129501121Y-101178384D01*
X129416408Y-101137490D01*
X129266124Y-101084237D01*
X129201501Y-101075511D01*
X129090547Y-101046601D01*
X128902191Y-100972043D01*
X128744815Y-100900097D01*
X128541991Y-100805103D01*
X128394660Y-100741402D01*
X128344342Y-100724682D01*
X128268864Y-100696572D01*
X128096839Y-100621142D01*
X127858258Y-100511746D01*
X127713936Y-100444019D01*
X127452750Y-100322033D01*
X127242808Y-100226832D01*
X127113809Y-100171739D01*
X127088310Y-100163356D01*
X127019321Y-100126513D01*
X126865428Y-100028889D01*
X126656922Y-99889842D01*
X126606762Y-99855637D01*
X126364185Y-99692863D01*
X126143968Y-99550793D01*
X125990197Y-99457805D01*
X125979959Y-99452184D01*
X125767700Y-99319038D01*
X125514022Y-99134453D01*
X125279625Y-98943246D01*
X125229152Y-98897813D01*
X125093004Y-98790071D01*
X124906613Y-98662617D01*
X124869664Y-98639321D01*
X124662995Y-98489229D01*
X124447240Y-98300783D01*
X124393681Y-98247548D01*
X124257071Y-98102038D01*
X124210734Y-98027057D01*
X124246949Y-97992682D01*
X124323515Y-97975573D01*
X124439340Y-97965930D01*
X124672799Y-97956163D01*
X125001196Y-97946869D01*
X125401836Y-97938646D01*
X125852023Y-97932092D01*
X126056539Y-97929923D01*
X126514640Y-97923614D01*
X126926954Y-97914131D01*
X127272315Y-97902270D01*
X127529557Y-97888829D01*
X127677512Y-97874604D01*
X127703202Y-97867921D01*
X127806416Y-97838232D01*
X128008523Y-97803361D01*
X128268602Y-97770202D01*
X128308113Y-97766006D01*
X128620050Y-97732553D01*
X128925200Y-97697895D01*
X129152334Y-97670183D01*
X129366011Y-97634605D01*
X129659244Y-97575659D01*
X129996437Y-97501680D01*
X130341994Y-97421004D01*
X130660319Y-97341965D01*
X130915816Y-97272898D01*
X131072889Y-97222140D01*
X131081892Y-97218357D01*
X131256361Y-97158891D01*
X131432721Y-97115694D01*
X131730255Y-97054694D01*
X131919436Y-97007684D01*
X132030514Y-96966688D01*
X132059296Y-96950546D01*
X132157881Y-96905706D01*
X132351404Y-96830196D01*
X132601989Y-96738666D01*
X132660621Y-96717972D01*
X132975796Y-96606402D01*
X133235303Y-96510494D01*
X133468193Y-96417399D01*
X133703516Y-96314268D01*
X133970322Y-96188252D01*
X134297663Y-96026502D01*
X134714588Y-95816170D01*
X134817436Y-95764020D01*
X135956847Y-95186025D01*
X136133021Y-95376021D01*
G36*
X141066764Y-87149387D02*
G01*
X141453904Y-87279598D01*
X141746568Y-87392661D01*
X141930791Y-87482648D01*
X141992666Y-87542297D01*
X142050457Y-87602133D01*
X142136992Y-87640038D01*
X142261720Y-87731161D01*
X142380283Y-87895358D01*
X142395567Y-87925430D01*
X142481083Y-88080099D01*
X142548970Y-88161392D01*
X142559260Y-88165014D01*
X142614717Y-88222815D01*
X142703778Y-88371146D01*
X142768507Y-88498301D01*
X142877478Y-88835985D01*
X142934592Y-89253741D01*
X142939001Y-89700910D01*
X142889859Y-90126832D01*
X142801029Y-90445400D01*
X142562043Y-90876179D01*
X142215210Y-91268409D01*
X141792678Y-91593258D01*
X141326596Y-91821894D01*
X141230888Y-91853568D01*
X140962933Y-91910860D01*
X140654491Y-91941824D01*
X140360216Y-91944039D01*
X140134758Y-91915087D01*
X140098191Y-91903694D01*
X139976985Y-91858795D01*
X139775230Y-91784272D01*
X139609205Y-91723028D01*
X139169488Y-91489344D01*
X138790997Y-91147921D01*
X138487677Y-90723146D01*
X138273475Y-90239409D01*
X138162334Y-89721096D01*
X138164058Y-89533246D01*
X138455215Y-89533246D01*
X138490985Y-90023646D01*
X138609085Y-90433767D01*
X138825697Y-90807093D01*
X139014984Y-91037399D01*
X139413379Y-91378457D01*
X139876929Y-91606216D01*
X140381680Y-91715786D01*
X140903678Y-91702276D01*
X141418969Y-91560796D01*
X141470717Y-91538756D01*
X141881668Y-91290793D01*
X142245744Y-90945504D01*
X142520916Y-90544590D01*
X142565677Y-90452334D01*
X142683682Y-90064917D01*
X142733138Y-89618428D01*
X142713662Y-89166950D01*
X142624876Y-88764566D01*
X142578389Y-88647585D01*
X142292948Y-88186870D01*
X141904653Y-87800960D01*
X141512770Y-87553153D01*
X141024931Y-87388326D01*
X140513407Y-87348644D01*
X140006071Y-87428735D01*
X139530796Y-87623226D01*
X139115455Y-87926745D01*
X139008993Y-88035725D01*
X138725811Y-88406965D01*
X138550536Y-88791126D01*
X138467413Y-89230811D01*
X138455215Y-89533246D01*
X138164058Y-89533246D01*
X138167107Y-89201056D01*
X138295280Y-88677536D01*
X138529007Y-88205632D01*
X138850236Y-87798117D01*
X139240919Y-87467760D01*
X139683005Y-87227335D01*
X140158443Y-87089612D01*
X140649184Y-87067364D01*
X141066764Y-87149387D01*
X141066764Y-87149387D01*
G37*
X141066764Y-87149387D02*
X141453904Y-87279598D01*
X141746568Y-87392661D01*
X141930791Y-87482648D01*
X141992666Y-87542297D01*
X142050457Y-87602133D01*
X142136992Y-87640038D01*
X142261720Y-87731161D01*
X142380283Y-87895358D01*
X142395567Y-87925430D01*
X142481083Y-88080099D01*
X142548970Y-88161392D01*
X142559260Y-88165014D01*
X142614717Y-88222815D01*
X142703778Y-88371146D01*
X142768507Y-88498301D01*
X142877478Y-88835985D01*
X142934592Y-89253741D01*
X142939001Y-89700910D01*
X142889859Y-90126832D01*
X142801029Y-90445400D01*
X142562043Y-90876179D01*
X142215210Y-91268409D01*
X141792678Y-91593258D01*
X141326596Y-91821894D01*
X141230888Y-91853568D01*
X140962933Y-91910860D01*
X140654491Y-91941824D01*
X140360216Y-91944039D01*
X140134758Y-91915087D01*
X140098191Y-91903694D01*
X139976985Y-91858795D01*
X139775230Y-91784272D01*
X139609205Y-91723028D01*
X139169488Y-91489344D01*
X138790997Y-91147921D01*
X138487677Y-90723146D01*
X138273475Y-90239409D01*
X138162334Y-89721096D01*
X138164058Y-89533246D01*
X138455215Y-89533246D01*
X138490985Y-90023646D01*
X138609085Y-90433767D01*
X138825697Y-90807093D01*
X139014984Y-91037399D01*
X139413379Y-91378457D01*
X139876929Y-91606216D01*
X140381680Y-91715786D01*
X140903678Y-91702276D01*
X141418969Y-91560796D01*
X141470717Y-91538756D01*
X141881668Y-91290793D01*
X142245744Y-90945504D01*
X142520916Y-90544590D01*
X142565677Y-90452334D01*
X142683682Y-90064917D01*
X142733138Y-89618428D01*
X142713662Y-89166950D01*
X142624876Y-88764566D01*
X142578389Y-88647585D01*
X142292948Y-88186870D01*
X141904653Y-87800960D01*
X141512770Y-87553153D01*
X141024931Y-87388326D01*
X140513407Y-87348644D01*
X140006071Y-87428735D01*
X139530796Y-87623226D01*
X139115455Y-87926745D01*
X139008993Y-88035725D01*
X138725811Y-88406965D01*
X138550536Y-88791126D01*
X138467413Y-89230811D01*
X138455215Y-89533246D01*
X138164058Y-89533246D01*
X138167107Y-89201056D01*
X138295280Y-88677536D01*
X138529007Y-88205632D01*
X138850236Y-87798117D01*
X139240919Y-87467760D01*
X139683005Y-87227335D01*
X140158443Y-87089612D01*
X140649184Y-87067364D01*
X141066764Y-87149387D01*
D11*
X138942065Y-90639008D02*
G75*
G03X142174400Y-90795916I1672335J1078608D01*
G01*
X138942065Y-88481792D02*
G75*
G02X142174400Y-88324884I1672335J-1078608D01*
G01*
X139573270Y-90640237D02*
G75*
G03X141655361Y-90640400I1041130J1079837D01*
G01*
X139573270Y-88480563D02*
G75*
G02X141655361Y-88480400I1041130J-1079837D01*
G01*
X142174400Y-90796400D02*
X142174400Y-90640400D01*
X142174400Y-88480400D02*
X142174400Y-88324400D01*
M02*
