G04 #@! TF.GenerationSoftware,KiCad,Pcbnew,(5.1.2)-1*
G04 #@! TF.CreationDate,2019-06-19T12:48:08+08:00*
G04 #@! TF.ProjectId,docker_take2,646f636b-6572-45f7-9461-6b65322e6b69,rev?*
G04 #@! TF.SameCoordinates,Original*
G04 #@! TF.FileFunction,Copper,L1,Top*
G04 #@! TF.FilePolarity,Positive*
%FSLAX46Y46*%
G04 Gerber Fmt 4.6, Leading zero omitted, Abs format (unit mm)*
G04 Created by KiCad (PCBNEW (5.1.2)-1) date 2019-06-19 12:48:08*
%MOMM*%
%LPD*%
G04 APERTURE LIST*
%ADD10C,0.010000*%
%ADD11R,1.800000X1.800000*%
%ADD12C,1.800000*%
G04 APERTURE END LIST*
D10*
G36*
X156939249Y-48161663D02*
G01*
X157599137Y-48163666D01*
X158151552Y-48168151D01*
X158607705Y-48176085D01*
X158978810Y-48188439D01*
X159276079Y-48206180D01*
X159510723Y-48230277D01*
X159693955Y-48261700D01*
X159836988Y-48301418D01*
X159951034Y-48350399D01*
X160047305Y-48409612D01*
X160137013Y-48480026D01*
X160231371Y-48562611D01*
X160267645Y-48594636D01*
X160341282Y-48655845D01*
X160407222Y-48708276D01*
X160465903Y-48759619D01*
X160517760Y-48817562D01*
X160563229Y-48889792D01*
X160602745Y-48983997D01*
X160636745Y-49107865D01*
X160665664Y-49269085D01*
X160689938Y-49475344D01*
X160710002Y-49734331D01*
X160726293Y-50053733D01*
X160739246Y-50441238D01*
X160749298Y-50904535D01*
X160756883Y-51451311D01*
X160762438Y-52089255D01*
X160766398Y-52826054D01*
X160769199Y-53669397D01*
X160771278Y-54626971D01*
X160773069Y-55706465D01*
X160775009Y-56915566D01*
X160776160Y-57565748D01*
X160778495Y-58632953D01*
X160781427Y-59661066D01*
X160784895Y-60641250D01*
X160788839Y-61564668D01*
X160793199Y-62422484D01*
X160797912Y-63205862D01*
X160802919Y-63905965D01*
X160808159Y-64513957D01*
X160813571Y-65021001D01*
X160819095Y-65418262D01*
X160824669Y-65696902D01*
X160830233Y-65848085D01*
X160833241Y-65873665D01*
X160912338Y-65888583D01*
X161125641Y-65901885D01*
X161466251Y-65913454D01*
X161927272Y-65923174D01*
X162501805Y-65930928D01*
X163182954Y-65936598D01*
X163963820Y-65940069D01*
X164820929Y-65941222D01*
X165833313Y-65942629D01*
X166706590Y-65946872D01*
X167442734Y-65953989D01*
X168043721Y-65964015D01*
X168511525Y-65976989D01*
X168848123Y-65992945D01*
X169055489Y-66011921D01*
X169103015Y-66020441D01*
X169556839Y-66163529D01*
X169901949Y-66362461D01*
X170166203Y-66637582D01*
X170335188Y-66920314D01*
X170497500Y-67246500D01*
X170505918Y-70915389D01*
X170507716Y-71626348D01*
X170509735Y-72297944D01*
X170511912Y-72916311D01*
X170514183Y-73467585D01*
X170516484Y-73937898D01*
X170518750Y-74313387D01*
X170520919Y-74580184D01*
X170522926Y-74724425D01*
X170523557Y-74743028D01*
X170548735Y-74844993D01*
X170634719Y-74890959D01*
X170821041Y-74901777D01*
X170824504Y-74901778D01*
X171120326Y-74884620D01*
X171536331Y-74832573D01*
X172078764Y-74744778D01*
X172437777Y-74680106D01*
X172910967Y-74580643D01*
X173407590Y-74455630D01*
X173904904Y-74312838D01*
X174380165Y-74160041D01*
X174810631Y-74005011D01*
X175173558Y-73855519D01*
X175446204Y-73719338D01*
X175605824Y-73604241D01*
X175614434Y-73594504D01*
X175638902Y-73461270D01*
X175578532Y-73243890D01*
X175441142Y-72964648D01*
X175330552Y-72785111D01*
X175238549Y-72620860D01*
X175125932Y-72386917D01*
X175053516Y-72220667D01*
X174948209Y-71966959D01*
X174850747Y-71732393D01*
X174804379Y-71620945D01*
X174545902Y-70887826D01*
X174336489Y-70065558D01*
X174183914Y-69199926D01*
X174095950Y-68336715D01*
X174080371Y-67521711D01*
X174085659Y-67387611D01*
X174117204Y-66896897D01*
X174162222Y-66402395D01*
X174217345Y-65926869D01*
X174279207Y-65493083D01*
X174344441Y-65123801D01*
X174409680Y-64841785D01*
X174471558Y-64669800D01*
X174492113Y-64639473D01*
X174543149Y-64519189D01*
X174554444Y-64419510D01*
X174576397Y-64289324D01*
X174635024Y-64061343D01*
X174719480Y-63770641D01*
X174818919Y-63452294D01*
X174922496Y-63141376D01*
X175019363Y-62872960D01*
X175076589Y-62730945D01*
X175168349Y-62511590D01*
X175262229Y-62276729D01*
X175263933Y-62272334D01*
X175393818Y-61972534D01*
X175570266Y-61615693D01*
X175780711Y-61222473D01*
X176012585Y-60813535D01*
X176253324Y-60409542D01*
X176490360Y-60031157D01*
X176711128Y-59699042D01*
X176903061Y-59433858D01*
X177053592Y-59256268D01*
X177138522Y-59190027D01*
X177215052Y-59172609D01*
X177305329Y-59191181D01*
X177442794Y-59258963D01*
X177660888Y-59389176D01*
X177694166Y-59409687D01*
X177916180Y-59543056D01*
X178126339Y-59663578D01*
X178177647Y-59691603D01*
X178627139Y-59969178D01*
X179130648Y-60343756D01*
X179665280Y-60794032D01*
X180208143Y-61298699D01*
X180736345Y-61836451D01*
X181226993Y-62385980D01*
X181657195Y-62925980D01*
X181667053Y-62939275D01*
X181911023Y-63291997D01*
X182169129Y-63705203D01*
X182430321Y-64156927D01*
X182683548Y-64625204D01*
X182917758Y-65088071D01*
X183121902Y-65523562D01*
X183284928Y-65909712D01*
X183395786Y-66224556D01*
X183443426Y-66446131D01*
X183444444Y-66472089D01*
X183475491Y-66624904D01*
X183506665Y-66700652D01*
X183576087Y-66888258D01*
X183645117Y-67153221D01*
X183699762Y-67432447D01*
X183726030Y-67662837D01*
X183726666Y-67692639D01*
X183758827Y-67926125D01*
X183867563Y-68061744D01*
X184071260Y-68112773D01*
X184295783Y-68103690D01*
X184515228Y-68083409D01*
X184841782Y-68056581D01*
X185241733Y-68025669D01*
X185681367Y-67993137D01*
X186126970Y-67961450D01*
X186544830Y-67933070D01*
X186901232Y-67910463D01*
X187078055Y-67900345D01*
X187335098Y-67896634D01*
X187687751Y-67905008D01*
X188099073Y-67923172D01*
X188532126Y-67948832D01*
X188949970Y-67979690D01*
X189315665Y-68013451D01*
X189592273Y-68047821D01*
X189670972Y-68061479D01*
X190091343Y-68145990D01*
X190400216Y-68209728D01*
X190624615Y-68258812D01*
X190791566Y-68299360D01*
X190928095Y-68337490D01*
X191029166Y-68368945D01*
X191296522Y-68453607D01*
X191570378Y-68538555D01*
X191593611Y-68545650D01*
X191809897Y-68616249D01*
X191988915Y-68682396D01*
X192016944Y-68694263D01*
X192151436Y-68753945D01*
X192367821Y-68849985D01*
X192616666Y-68960443D01*
X192842566Y-69076665D01*
X193117269Y-69241631D01*
X193413698Y-69436108D01*
X193704778Y-69640865D01*
X193963430Y-69836670D01*
X194162578Y-70004291D01*
X194275146Y-70124496D01*
X194287534Y-70147223D01*
X194282088Y-70272057D01*
X194221017Y-70498975D01*
X194113183Y-70804547D01*
X193967445Y-71165341D01*
X193792662Y-71557927D01*
X193616675Y-71921394D01*
X193201854Y-72640038D01*
X192681771Y-73373435D01*
X192083856Y-74088316D01*
X191435536Y-74751411D01*
X190888055Y-75231136D01*
X190683684Y-75386344D01*
X190426294Y-75567171D01*
X190143401Y-75756080D01*
X189862522Y-75935537D01*
X189611174Y-76088004D01*
X189416872Y-76195947D01*
X189307134Y-76241828D01*
X189301327Y-76242334D01*
X189232193Y-76295548D01*
X189230000Y-76312889D01*
X189175593Y-76380513D01*
X189153931Y-76383445D01*
X189057744Y-76411988D01*
X188871167Y-76487648D01*
X188630538Y-76595469D01*
X188571848Y-76623017D01*
X187920704Y-76907156D01*
X187260508Y-77143416D01*
X186569170Y-77336448D01*
X185824599Y-77490897D01*
X185004707Y-77611412D01*
X184087403Y-77702640D01*
X183148132Y-77764190D01*
X182181541Y-77815215D01*
X181988925Y-78281135D01*
X181885558Y-78521467D01*
X181796388Y-78711662D01*
X181739994Y-78812194D01*
X181738432Y-78814084D01*
X181682932Y-78943796D01*
X181680555Y-78972391D01*
X181653286Y-79070752D01*
X181579363Y-79267441D01*
X181470616Y-79532364D01*
X181360259Y-79787308D01*
X181224988Y-80093636D01*
X181106450Y-80363376D01*
X181019078Y-80563612D01*
X180981141Y-80652056D01*
X180824670Y-81010090D01*
X180615744Y-81462639D01*
X180366911Y-81984644D01*
X180090717Y-82551047D01*
X179799710Y-83136789D01*
X179506437Y-83716811D01*
X179223443Y-84266055D01*
X178963277Y-84759463D01*
X178738484Y-85171975D01*
X178578897Y-85449834D01*
X178477704Y-85624546D01*
X178341640Y-85866465D01*
X178221200Y-86084834D01*
X178001772Y-86463665D01*
X177710623Y-86931585D01*
X177363070Y-87466615D01*
X176974432Y-88046774D01*
X176560027Y-88650081D01*
X176135172Y-89254555D01*
X175715185Y-89838217D01*
X175315384Y-90379087D01*
X174951088Y-90855182D01*
X174637613Y-91244524D01*
X174568478Y-91326315D01*
X174390577Y-91535106D01*
X174161892Y-91804805D01*
X173922384Y-92088254D01*
X173838421Y-92187889D01*
X173348422Y-92740662D01*
X172763738Y-93351548D01*
X172106817Y-93999968D01*
X171400107Y-94665345D01*
X170666054Y-95327101D01*
X169927108Y-95964657D01*
X169205715Y-96557436D01*
X168524324Y-97084858D01*
X168380833Y-97190942D01*
X168118833Y-97379200D01*
X167805462Y-97598709D01*
X167460735Y-97836081D01*
X167104665Y-98077928D01*
X166757267Y-98310861D01*
X166438555Y-98521494D01*
X166168542Y-98696438D01*
X165967242Y-98822306D01*
X165854671Y-98885710D01*
X165839843Y-98890667D01*
X165763853Y-98925325D01*
X165610946Y-99013777D01*
X165504292Y-99079914D01*
X165223625Y-99247380D01*
X164839587Y-99461398D01*
X164376888Y-99709297D01*
X163860239Y-99978410D01*
X163314354Y-100256068D01*
X162763942Y-100529601D01*
X162233715Y-100786342D01*
X161748385Y-101013621D01*
X161607500Y-101077653D01*
X161347595Y-101190313D01*
X161022745Y-101324494D01*
X160657860Y-101470656D01*
X160277853Y-101619261D01*
X159907635Y-101760769D01*
X159572117Y-101885643D01*
X159296212Y-101984344D01*
X159104831Y-102047331D01*
X159027191Y-102065667D01*
X158899315Y-102092482D01*
X158866827Y-102113469D01*
X158778821Y-102159561D01*
X158591884Y-102235777D01*
X158341470Y-102329195D01*
X158063033Y-102426890D01*
X157792028Y-102515940D01*
X157621111Y-102567534D01*
X157383769Y-102635897D01*
X157162500Y-102700462D01*
X156905623Y-102774352D01*
X156570229Y-102868243D01*
X156189342Y-102973177D01*
X155795989Y-103080196D01*
X155423194Y-103180342D01*
X155103983Y-103264655D01*
X154871380Y-103324177D01*
X154798888Y-103341611D01*
X153679686Y-103590295D01*
X152667811Y-103797843D01*
X151737138Y-103968978D01*
X150861541Y-104108421D01*
X150014897Y-104220895D01*
X149789444Y-104247075D01*
X148664782Y-104367027D01*
X147597921Y-104467365D01*
X146608460Y-104546540D01*
X145715996Y-104603001D01*
X144940128Y-104635200D01*
X144850555Y-104637484D01*
X144381050Y-104649685D01*
X143920350Y-104663814D01*
X143502310Y-104678678D01*
X143160787Y-104693079D01*
X142945555Y-104704741D01*
X142655696Y-104713656D01*
X142394874Y-104703924D01*
X142217405Y-104677674D01*
X142211696Y-104675967D01*
X142072126Y-104653882D01*
X141820992Y-104634705D01*
X141487833Y-104619909D01*
X141102189Y-104610969D01*
X140871140Y-104609060D01*
X140276869Y-104595081D01*
X139579680Y-104558113D01*
X138807782Y-104501233D01*
X137989387Y-104427519D01*
X137152702Y-104340050D01*
X136325940Y-104241902D01*
X135537309Y-104136155D01*
X134815019Y-104025884D01*
X134187281Y-103914169D01*
X133843888Y-103842367D01*
X133589120Y-103787021D01*
X133282105Y-103723342D01*
X133103055Y-103687526D01*
X132846188Y-103631908D01*
X132624458Y-103574958D01*
X132517652Y-103540605D01*
X132324133Y-103488945D01*
X132205161Y-103476778D01*
X132027769Y-103456558D01*
X131838064Y-103412474D01*
X131341793Y-103264412D01*
X130855136Y-103117790D01*
X130398922Y-102979016D01*
X129993981Y-102854494D01*
X129661142Y-102750632D01*
X129421234Y-102673837D01*
X129295087Y-102630514D01*
X129293055Y-102629709D01*
X129159307Y-102576939D01*
X128939596Y-102490961D01*
X128679516Y-102389615D01*
X128658055Y-102381270D01*
X128376780Y-102264071D01*
X128011802Y-102100646D01*
X127594607Y-101906255D01*
X127156683Y-101696159D01*
X126729517Y-101485619D01*
X126344596Y-101289894D01*
X126033407Y-101124246D01*
X125865745Y-101027953D01*
X125615275Y-100871987D01*
X125336954Y-100693731D01*
X125057629Y-100511014D01*
X124804144Y-100341668D01*
X124603345Y-100203521D01*
X124482077Y-100114404D01*
X124460000Y-100094278D01*
X124392317Y-100031749D01*
X124241202Y-99904359D01*
X124033856Y-99734842D01*
X123930833Y-99651979D01*
X123220370Y-99037439D01*
X122494313Y-98324284D01*
X121784739Y-97546716D01*
X121123726Y-96738934D01*
X120829449Y-96345454D01*
X120660865Y-96108083D01*
X120469332Y-95831377D01*
X120271142Y-95539778D01*
X120082583Y-95257730D01*
X119919949Y-95009673D01*
X119799528Y-94820051D01*
X119737611Y-94713305D01*
X119732777Y-94700034D01*
X119700277Y-94629106D01*
X119614539Y-94468983D01*
X119493206Y-94252487D01*
X119476440Y-94223139D01*
X119325741Y-93951981D01*
X119156644Y-93634971D01*
X118981825Y-93297473D01*
X118813962Y-92964848D01*
X118665732Y-92662461D01*
X118549812Y-92415674D01*
X118478878Y-92249849D01*
X118462777Y-92195131D01*
X118431070Y-92089185D01*
X118353002Y-91923036D01*
X118335293Y-91890174D01*
X118216672Y-91652562D01*
X118113042Y-91411778D01*
X118021637Y-91177905D01*
X117932869Y-90956990D01*
X117931299Y-90953167D01*
X117844996Y-90732123D01*
X117758935Y-90496170D01*
X117758373Y-90494556D01*
X117683264Y-90287457D01*
X117616433Y-90116611D01*
X117612159Y-90106500D01*
X117554492Y-89952463D01*
X117469382Y-89702628D01*
X117369544Y-89396475D01*
X117267690Y-89073482D01*
X117176533Y-88773129D01*
X117123687Y-88589556D01*
X117058233Y-88364562D01*
X116998703Y-88177355D01*
X116982205Y-88130945D01*
X116930864Y-87968392D01*
X116857013Y-87700100D01*
X116768568Y-87358118D01*
X116673445Y-86974498D01*
X116579560Y-86581293D01*
X116494829Y-86210553D01*
X116427167Y-85894330D01*
X116415876Y-85837889D01*
X116361565Y-85563682D01*
X116300964Y-85260013D01*
X116282419Y-85167611D01*
X116108447Y-84246433D01*
X115966822Y-83363299D01*
X115853326Y-82481514D01*
X115763742Y-81564381D01*
X115693852Y-80575204D01*
X115645851Y-79629000D01*
X115619434Y-78909689D01*
X115608585Y-78323412D01*
X116926528Y-78323412D01*
X116928307Y-78781142D01*
X116938857Y-79278814D01*
X116957692Y-79791237D01*
X116984325Y-80293222D01*
X117018272Y-80759577D01*
X117048743Y-81075389D01*
X117113223Y-81659883D01*
X117165011Y-82124075D01*
X117206500Y-82487965D01*
X117240082Y-82771554D01*
X117268149Y-82994843D01*
X117293093Y-83177833D01*
X117317305Y-83340523D01*
X117327215Y-83403723D01*
X117377474Y-83719749D01*
X117434376Y-84076463D01*
X117467833Y-84285667D01*
X117557826Y-84796933D01*
X117673077Y-85375587D01*
X117804736Y-85982740D01*
X117943950Y-86579506D01*
X118081869Y-87126997D01*
X118209641Y-87586325D01*
X118246710Y-87707611D01*
X118345612Y-88028840D01*
X118450534Y-88379972D01*
X118501234Y-88554278D01*
X118742455Y-89314303D01*
X119048866Y-90151302D01*
X119403959Y-91027197D01*
X119791225Y-91903908D01*
X120194154Y-92743356D01*
X120596237Y-93507462D01*
X120810693Y-93881223D01*
X120990058Y-94173868D01*
X121202566Y-94506731D01*
X121432506Y-94856740D01*
X121664170Y-95200822D01*
X121881845Y-95515904D01*
X122069823Y-95778914D01*
X122212392Y-95966779D01*
X122289515Y-96053057D01*
X122421558Y-96107004D01*
X122673209Y-96159832D01*
X123022963Y-96210040D01*
X123449317Y-96256124D01*
X123930768Y-96296582D01*
X124445813Y-96329911D01*
X124972947Y-96354609D01*
X125490667Y-96369173D01*
X125977471Y-96372101D01*
X126411853Y-96361890D01*
X126580335Y-96352880D01*
X127924030Y-96232262D01*
X129176710Y-96046754D01*
X130370396Y-95787613D01*
X131537108Y-95446098D01*
X132708868Y-95013467D01*
X133917697Y-94480977D01*
X134530156Y-94182510D01*
X134954254Y-93971168D01*
X135273137Y-93816809D01*
X135507115Y-93711950D01*
X135676499Y-93649107D01*
X135801599Y-93620798D01*
X135902725Y-93619537D01*
X136000186Y-93637843D01*
X136005062Y-93639071D01*
X136229595Y-93740329D01*
X136405201Y-93894385D01*
X136406311Y-93895872D01*
X136510497Y-94125537D01*
X136534793Y-94388064D01*
X136479413Y-94626668D01*
X136403147Y-94739708D01*
X136278031Y-94832632D01*
X136053204Y-94969069D01*
X135752351Y-95137157D01*
X135399159Y-95325033D01*
X135017313Y-95520836D01*
X134630499Y-95712704D01*
X134262403Y-95888774D01*
X133936711Y-96037184D01*
X133677108Y-96146073D01*
X133507282Y-96203579D01*
X133468177Y-96209556D01*
X133332905Y-96252382D01*
X133311194Y-96268450D01*
X133209970Y-96323949D01*
X133024289Y-96401545D01*
X132891388Y-96450318D01*
X132660466Y-96532681D01*
X132466088Y-96605190D01*
X132397500Y-96632480D01*
X132208737Y-96699619D01*
X132115277Y-96725927D01*
X131990191Y-96759746D01*
X131765865Y-96823507D01*
X131478308Y-96906896D01*
X131268611Y-96968489D01*
X130507277Y-97180570D01*
X129788591Y-97351527D01*
X129082924Y-97485368D01*
X128360646Y-97586104D01*
X127592127Y-97657743D01*
X126747736Y-97704296D01*
X125797844Y-97729771D01*
X125624166Y-97732289D01*
X125060693Y-97740037D01*
X124625225Y-97748972D01*
X124304666Y-97762211D01*
X124085925Y-97782873D01*
X123955906Y-97814077D01*
X123901516Y-97858943D01*
X123909662Y-97920587D01*
X123967249Y-98002131D01*
X124059588Y-98104957D01*
X124248492Y-98286647D01*
X124528863Y-98526279D01*
X124874460Y-98803970D01*
X125259040Y-99099839D01*
X125656361Y-99394002D01*
X126040181Y-99666577D01*
X126384257Y-99897681D01*
X126610918Y-100037974D01*
X126754391Y-100115153D01*
X126996197Y-100238342D01*
X127307109Y-100393214D01*
X127657897Y-100565445D01*
X128019333Y-100740711D01*
X128362188Y-100904686D01*
X128657233Y-101043045D01*
X128728611Y-101075844D01*
X128991121Y-101186370D01*
X129347714Y-101323849D01*
X129757607Y-101473719D01*
X130180017Y-101621420D01*
X130574161Y-101752391D01*
X130899255Y-101852069D01*
X130915833Y-101856781D01*
X131276474Y-101958345D01*
X131535624Y-102030286D01*
X131727425Y-102081909D01*
X131886022Y-102122518D01*
X131938888Y-102135578D01*
X132130863Y-102183379D01*
X132402681Y-102251968D01*
X132697519Y-102327002D01*
X132715000Y-102331473D01*
X133168684Y-102440499D01*
X133684787Y-102553263D01*
X134211779Y-102659331D01*
X134698126Y-102748269D01*
X135043333Y-102802921D01*
X135205117Y-102826163D01*
X135471678Y-102864941D01*
X135808197Y-102914171D01*
X136179853Y-102968769D01*
X136242777Y-102978036D01*
X136871465Y-103069400D01*
X137381835Y-103140365D01*
X137794831Y-103193319D01*
X138131393Y-103230651D01*
X138412465Y-103254747D01*
X138658987Y-103267997D01*
X138821717Y-103272089D01*
X139147077Y-103284776D01*
X139484112Y-103310426D01*
X139700000Y-103335462D01*
X139877203Y-103350313D01*
X140170881Y-103362065D01*
X140563626Y-103370852D01*
X141038030Y-103376810D01*
X141576685Y-103380075D01*
X142162186Y-103380782D01*
X142777123Y-103379066D01*
X143404090Y-103375063D01*
X144025680Y-103368908D01*
X144624484Y-103360737D01*
X145183096Y-103350685D01*
X145684107Y-103338887D01*
X146110111Y-103325480D01*
X146443701Y-103310598D01*
X146667468Y-103294376D01*
X146755555Y-103280575D01*
X146923984Y-103243101D01*
X147194346Y-103200548D01*
X147527858Y-103158418D01*
X147849166Y-103125478D01*
X149834558Y-102903275D01*
X151800795Y-102600966D01*
X153722047Y-102223758D01*
X155572487Y-101776855D01*
X157326287Y-101265464D01*
X157726944Y-101134715D01*
X157974726Y-101050414D01*
X158185134Y-100975906D01*
X158291388Y-100935705D01*
X158422247Y-100886604D01*
X158644887Y-100807403D01*
X158917336Y-100712969D01*
X158996944Y-100685784D01*
X159701189Y-100427219D01*
X160491645Y-100104328D01*
X161337620Y-99731820D01*
X162208422Y-99324405D01*
X163073361Y-98896789D01*
X163901745Y-98463682D01*
X164662884Y-98039793D01*
X165241111Y-97693316D01*
X165529958Y-97509642D01*
X165873118Y-97286338D01*
X166249446Y-97037712D01*
X166637792Y-96778071D01*
X167017012Y-96521723D01*
X167365957Y-96282976D01*
X167663480Y-96076138D01*
X167888435Y-95915516D01*
X168019675Y-95815418D01*
X168030422Y-95806103D01*
X168146361Y-95707340D01*
X168339814Y-95548231D01*
X168577597Y-95355939D01*
X168698771Y-95259003D01*
X169366120Y-94705878D01*
X170068773Y-94084969D01*
X170785624Y-93417412D01*
X171495568Y-92724342D01*
X172177499Y-92026894D01*
X172810311Y-91346204D01*
X173372900Y-90703407D01*
X173844160Y-90119639D01*
X173886540Y-90063880D01*
X173983049Y-89936550D01*
X174142750Y-89726356D01*
X174343308Y-89462678D01*
X174558695Y-89179743D01*
X174770740Y-88896420D01*
X175017992Y-88558293D01*
X175282464Y-88190798D01*
X175546172Y-87819373D01*
X175791132Y-87469453D01*
X175999358Y-87166476D01*
X176152865Y-86935878D01*
X176212500Y-86840702D01*
X176292849Y-86710786D01*
X176412837Y-86522001D01*
X176466457Y-86438775D01*
X176581565Y-86253068D01*
X176750988Y-85969447D01*
X176960076Y-85613110D01*
X177194178Y-85209253D01*
X177438641Y-84783072D01*
X177678816Y-84359764D01*
X177779963Y-84179834D01*
X177966419Y-83834336D01*
X178197220Y-83386772D01*
X178459419Y-82864031D01*
X178740071Y-82293003D01*
X179026230Y-81700579D01*
X179304949Y-81113650D01*
X179563282Y-80559105D01*
X179788284Y-80063837D01*
X179967008Y-79654734D01*
X180021853Y-79523167D01*
X180145815Y-79221661D01*
X180260145Y-78946483D01*
X180347337Y-78739648D01*
X180374620Y-78676500D01*
X180479209Y-78434525D01*
X180598579Y-78149364D01*
X180743587Y-77794636D01*
X180925090Y-77343959D01*
X180998894Y-77159556D01*
X181295039Y-76418723D01*
X182140436Y-76434658D01*
X183475997Y-76418624D01*
X184710053Y-76315730D01*
X185854998Y-76122416D01*
X186923230Y-75835124D01*
X187927142Y-75450292D01*
X188879132Y-74964361D01*
X189791593Y-74373772D01*
X190091343Y-74151322D01*
X190356981Y-73926551D01*
X190671326Y-73627836D01*
X191004902Y-73286581D01*
X191328233Y-72934190D01*
X191611843Y-72602070D01*
X191826255Y-72321624D01*
X191870320Y-72255945D01*
X192162253Y-71794612D01*
X192380397Y-71432393D01*
X192532727Y-71153393D01*
X192627218Y-70941715D01*
X192671844Y-70781465D01*
X192674580Y-70656746D01*
X192674144Y-70653697D01*
X192587825Y-70505900D01*
X192380506Y-70339374D01*
X192069658Y-70162553D01*
X191672753Y-69983867D01*
X191207264Y-69811749D01*
X190690662Y-69654630D01*
X190500000Y-69604487D01*
X189606433Y-69415233D01*
X188692405Y-69297434D01*
X187712484Y-69245911D01*
X187325000Y-69242607D01*
X186698896Y-69247746D01*
X186170602Y-69262694D01*
X185696966Y-69290786D01*
X185234835Y-69335355D01*
X184741056Y-69399736D01*
X184185277Y-69485198D01*
X183809180Y-69542392D01*
X183453311Y-69590341D01*
X183156564Y-69624191D01*
X182957836Y-69639089D01*
X182950555Y-69639262D01*
X182633055Y-69645389D01*
X182577901Y-69080945D01*
X182404497Y-67870722D01*
X182126731Y-66747098D01*
X181739474Y-65696345D01*
X181237597Y-64704737D01*
X180615971Y-63758548D01*
X180562051Y-63685923D01*
X180301631Y-63360316D01*
X179989568Y-63005743D01*
X179642105Y-62637251D01*
X179275487Y-62269886D01*
X178905957Y-61918694D01*
X178549757Y-61598722D01*
X178223131Y-61325015D01*
X177942323Y-61112621D01*
X177723575Y-60976584D01*
X177588790Y-60931778D01*
X177487272Y-60994095D01*
X177344088Y-61168354D01*
X177170075Y-61435516D01*
X176976068Y-61776543D01*
X176772905Y-62172396D01*
X176571421Y-62604037D01*
X176384037Y-63048445D01*
X175957785Y-64268081D01*
X175653643Y-65473732D01*
X175472264Y-66656424D01*
X175414299Y-67807181D01*
X175480400Y-68917031D01*
X175671218Y-69977000D01*
X175838385Y-70562611D01*
X176063435Y-71168850D01*
X176344596Y-71798994D01*
X176658556Y-72406230D01*
X176982001Y-72943745D01*
X177132997Y-73162173D01*
X177302614Y-73405269D01*
X177434053Y-73614274D01*
X177508176Y-73757751D01*
X177517777Y-73794221D01*
X177456392Y-73926861D01*
X177285797Y-74102138D01*
X177026337Y-74306751D01*
X176698354Y-74527403D01*
X176322192Y-74750796D01*
X175918194Y-74963631D01*
X175506704Y-75152611D01*
X175330555Y-75223989D01*
X174628765Y-75475210D01*
X173913959Y-75694099D01*
X173247828Y-75862033D01*
X173143333Y-75884285D01*
X172967624Y-75921309D01*
X172807268Y-75956147D01*
X172657814Y-75988866D01*
X172514811Y-76019531D01*
X172373808Y-76048209D01*
X172230356Y-76074965D01*
X172080004Y-76099867D01*
X171918301Y-76122981D01*
X171740797Y-76144371D01*
X171543040Y-76164106D01*
X171320581Y-76182251D01*
X171068970Y-76198872D01*
X170783754Y-76214036D01*
X170460485Y-76227809D01*
X170094711Y-76240256D01*
X169681982Y-76251445D01*
X169217847Y-76261442D01*
X168697856Y-76270312D01*
X168117558Y-76278122D01*
X167472503Y-76284938D01*
X166758240Y-76290827D01*
X165970319Y-76295854D01*
X165104289Y-76300087D01*
X164155699Y-76303590D01*
X163120100Y-76306431D01*
X161993039Y-76308676D01*
X160770068Y-76310390D01*
X159446735Y-76311640D01*
X158018590Y-76312493D01*
X156481183Y-76313014D01*
X154830062Y-76313271D01*
X153060777Y-76313328D01*
X151168878Y-76313252D01*
X149149914Y-76313110D01*
X146999435Y-76312967D01*
X144712990Y-76312891D01*
X144343600Y-76312889D01*
X141966082Y-76312981D01*
X139726126Y-76313264D01*
X137620186Y-76313751D01*
X135644711Y-76314452D01*
X133796155Y-76315380D01*
X132070968Y-76316547D01*
X130465603Y-76317963D01*
X128976511Y-76319641D01*
X127600145Y-76321592D01*
X126332955Y-76323829D01*
X125171394Y-76326362D01*
X124111913Y-76329204D01*
X123150964Y-76332366D01*
X122284999Y-76335860D01*
X121510470Y-76339698D01*
X120823828Y-76343891D01*
X120221525Y-76348451D01*
X119700013Y-76353390D01*
X119255744Y-76358720D01*
X118885169Y-76364451D01*
X118584740Y-76370597D01*
X118350909Y-76377168D01*
X118180128Y-76384176D01*
X118068849Y-76391634D01*
X118013522Y-76399552D01*
X118012839Y-76399752D01*
X117710653Y-76546463D01*
X117414404Y-76784811D01*
X117164207Y-77074373D01*
X117000179Y-77374730D01*
X116978672Y-77441778D01*
X116951225Y-77628540D01*
X116934005Y-77930814D01*
X116926528Y-78323412D01*
X115608585Y-78323412D01*
X115608539Y-78320930D01*
X115613394Y-77852995D01*
X115634224Y-77496156D01*
X115671258Y-77240685D01*
X115704163Y-77124278D01*
X116003481Y-76490517D01*
X116388401Y-75966810D01*
X116856973Y-75555255D01*
X117407245Y-75257950D01*
X117459317Y-75237403D01*
X117645511Y-75168984D01*
X117813786Y-75118207D01*
X117990834Y-75081886D01*
X118203344Y-75056833D01*
X118478008Y-75039862D01*
X118841516Y-75027784D01*
X119297782Y-75017854D01*
X119720842Y-75007186D01*
X120097174Y-74993112D01*
X120403296Y-74976883D01*
X120615727Y-74959748D01*
X120710984Y-74942956D01*
X120711506Y-74942649D01*
X120730591Y-74885285D01*
X120746803Y-74734329D01*
X120760278Y-74483346D01*
X120771151Y-74125904D01*
X120779556Y-73655568D01*
X120785630Y-73065907D01*
X120789508Y-72350486D01*
X120791325Y-71502872D01*
X120791504Y-71140531D01*
X120791514Y-71134091D01*
X122166944Y-71134091D01*
X122167140Y-71906776D01*
X122168613Y-72551003D01*
X122172690Y-73079430D01*
X122180699Y-73504709D01*
X122193968Y-73839497D01*
X122213823Y-74096447D01*
X122241593Y-74288215D01*
X122278604Y-74427454D01*
X122326186Y-74526821D01*
X122385664Y-74598969D01*
X122458366Y-74656554D01*
X122542065Y-74710024D01*
X122595839Y-74736576D01*
X122672195Y-74758861D01*
X122783006Y-74777256D01*
X122940146Y-74792134D01*
X123155489Y-74803873D01*
X123440909Y-74812845D01*
X123808280Y-74819427D01*
X124269475Y-74823994D01*
X124836369Y-74826920D01*
X125520836Y-74828582D01*
X126319138Y-74829345D01*
X129906888Y-74831223D01*
X130386666Y-74351445D01*
X130386402Y-71151750D01*
X130386248Y-70774428D01*
X131797761Y-70774428D01*
X131797777Y-71177190D01*
X131797777Y-74374053D01*
X131977021Y-74567360D01*
X132096934Y-74696651D01*
X132166215Y-74771292D01*
X132171049Y-74776486D01*
X132243434Y-74781811D01*
X132440251Y-74787808D01*
X132744823Y-74794306D01*
X133140474Y-74801136D01*
X133610526Y-74808127D01*
X134138304Y-74815109D01*
X134707130Y-74821912D01*
X135300327Y-74828366D01*
X135901220Y-74834301D01*
X136493131Y-74839547D01*
X137059384Y-74843934D01*
X137583302Y-74847291D01*
X138048209Y-74849449D01*
X138437426Y-74850237D01*
X138734279Y-74849486D01*
X138922090Y-74847025D01*
X138959166Y-74845718D01*
X139224825Y-74821764D01*
X139460730Y-74782080D01*
X139573088Y-74750389D01*
X139665811Y-74713205D01*
X139743349Y-74672416D01*
X139807061Y-74615917D01*
X139858302Y-74531606D01*
X139898431Y-74407378D01*
X139928806Y-74231129D01*
X139950783Y-73990758D01*
X139965721Y-73674159D01*
X139974976Y-73269230D01*
X139979908Y-72763866D01*
X139981872Y-72145965D01*
X139982227Y-71403423D01*
X139982222Y-71102632D01*
X139982222Y-67914706D01*
X141534444Y-67914706D01*
X141534444Y-71062440D01*
X141534900Y-71856247D01*
X141537092Y-72521113D01*
X141542256Y-73069207D01*
X141551627Y-73512699D01*
X141566442Y-73863759D01*
X141587935Y-74134555D01*
X141617343Y-74337257D01*
X141655901Y-74484035D01*
X141704846Y-74587057D01*
X141765412Y-74658493D01*
X141838837Y-74710513D01*
X141908569Y-74746764D01*
X142022987Y-74766643D01*
X142277587Y-74783722D01*
X142671465Y-74797983D01*
X143203719Y-74809406D01*
X143873446Y-74817972D01*
X144679744Y-74823662D01*
X145615780Y-74826447D01*
X146422831Y-74827174D01*
X147100761Y-74826757D01*
X147661558Y-74824838D01*
X148117211Y-74821054D01*
X148479706Y-74815044D01*
X148761033Y-74806448D01*
X148973178Y-74794903D01*
X149128131Y-74780050D01*
X149237880Y-74761526D01*
X149314411Y-74738972D01*
X149367334Y-74713443D01*
X149456198Y-74659433D01*
X149530290Y-74603279D01*
X149590955Y-74532436D01*
X149639533Y-74434360D01*
X149677367Y-74296504D01*
X149705801Y-74106325D01*
X149726176Y-73851277D01*
X149739836Y-73518815D01*
X149748122Y-73096394D01*
X149752378Y-72571469D01*
X149753945Y-71931495D01*
X149754166Y-71163927D01*
X149754166Y-67952056D01*
X149671928Y-67836756D01*
X151199167Y-67836756D01*
X151217500Y-71172443D01*
X151235833Y-74508131D01*
X151475572Y-74669677D01*
X151715312Y-74831223D01*
X158888884Y-74831223D01*
X159119303Y-74625343D01*
X159349722Y-74419464D01*
X159349722Y-72392412D01*
X160872971Y-72392412D01*
X160874782Y-72939077D01*
X160881380Y-73382356D01*
X160893696Y-73734819D01*
X160912662Y-74009035D01*
X160939207Y-74217576D01*
X160974264Y-74373012D01*
X161018761Y-74487912D01*
X161073631Y-74574847D01*
X161139804Y-74646387D01*
X161155615Y-74660986D01*
X161196646Y-74692560D01*
X161252216Y-74719039D01*
X161334778Y-74741040D01*
X161456787Y-74759179D01*
X161630697Y-74774072D01*
X161868963Y-74786335D01*
X162184039Y-74796585D01*
X162588379Y-74805438D01*
X163094437Y-74813511D01*
X163714667Y-74821418D01*
X164461523Y-74829778D01*
X164595808Y-74831223D01*
X165430004Y-74839945D01*
X166134992Y-74846582D01*
X166722665Y-74850870D01*
X167204913Y-74852544D01*
X167593629Y-74851339D01*
X167900704Y-74846992D01*
X168138031Y-74839238D01*
X168317500Y-74827813D01*
X168451005Y-74812452D01*
X168550435Y-74792891D01*
X168627684Y-74768866D01*
X168694643Y-74740111D01*
X168694671Y-74740098D01*
X168846388Y-74620220D01*
X168983546Y-74437633D01*
X168999593Y-74407808D01*
X169029564Y-74339541D01*
X169054171Y-74255593D01*
X169073827Y-74142760D01*
X169088950Y-73987839D01*
X169099954Y-73777625D01*
X169107255Y-73498914D01*
X169111268Y-73138503D01*
X169112409Y-72683186D01*
X169111093Y-72119762D01*
X169107735Y-71435024D01*
X169105426Y-71043945D01*
X169100692Y-70299096D01*
X169095985Y-69682297D01*
X169090648Y-69180488D01*
X169084025Y-68780609D01*
X169075459Y-68469600D01*
X169064293Y-68234400D01*
X169049870Y-68061952D01*
X169031535Y-67939193D01*
X169008629Y-67853065D01*
X168980497Y-67790508D01*
X168946481Y-67738462D01*
X168938669Y-67727834D01*
X168764879Y-67563304D01*
X168552752Y-67445266D01*
X168550613Y-67444510D01*
X168425671Y-67425466D01*
X168177103Y-67408527D01*
X167822383Y-67393748D01*
X167378980Y-67381179D01*
X166864366Y-67370876D01*
X166296014Y-67362889D01*
X165691393Y-67357273D01*
X165067976Y-67354079D01*
X164443233Y-67353362D01*
X163834637Y-67355173D01*
X163259658Y-67359565D01*
X162735768Y-67366592D01*
X162280439Y-67376306D01*
X161911141Y-67388760D01*
X161645346Y-67404007D01*
X161500525Y-67422099D01*
X161496427Y-67423175D01*
X161271880Y-67523872D01*
X161077869Y-67670331D01*
X161073094Y-67675339D01*
X160901944Y-67857448D01*
X160879989Y-70938641D01*
X160875017Y-71729790D01*
X160872971Y-72392412D01*
X159349722Y-72392412D01*
X159349722Y-67848936D01*
X159119125Y-67618274D01*
X158888528Y-67387611D01*
X155556070Y-67365648D01*
X154872093Y-67362138D01*
X154222183Y-67360711D01*
X153621849Y-67361268D01*
X153086598Y-67363707D01*
X152631938Y-67367927D01*
X152273379Y-67373829D01*
X152026426Y-67381310D01*
X151912279Y-67389330D01*
X151574540Y-67502365D01*
X151400057Y-67635866D01*
X151199167Y-67836756D01*
X149671928Y-67836756D01*
X149590732Y-67722919D01*
X149435673Y-67558570D01*
X149265139Y-67450010D01*
X149237954Y-67440697D01*
X149131470Y-67430226D01*
X148898236Y-67420441D01*
X148552610Y-67411547D01*
X148108952Y-67403749D01*
X147581622Y-67397253D01*
X146984979Y-67392265D01*
X146333382Y-67388991D01*
X145641192Y-67387636D01*
X145533025Y-67387611D01*
X142017440Y-67387611D01*
X141775942Y-67651159D01*
X141534444Y-67914706D01*
X139982222Y-67914706D01*
X139982222Y-67862966D01*
X139766385Y-67651946D01*
X139496824Y-67468096D01*
X139227371Y-67396630D01*
X139090170Y-67387386D01*
X138827950Y-67378796D01*
X138456804Y-67371064D01*
X137992824Y-67364395D01*
X137452102Y-67358992D01*
X136850730Y-67355061D01*
X136204800Y-67352806D01*
X135740469Y-67352334D01*
X134974771Y-67352858D01*
X134337152Y-67354720D01*
X133814584Y-67358352D01*
X133394036Y-67364187D01*
X133062479Y-67372657D01*
X132806885Y-67384196D01*
X132614225Y-67399236D01*
X132471468Y-67418209D01*
X132365587Y-67441548D01*
X132290383Y-67466912D01*
X132179125Y-67511912D01*
X132086015Y-67558295D01*
X132009439Y-67618225D01*
X131947781Y-67703869D01*
X131899426Y-67827389D01*
X131862758Y-68000951D01*
X131836164Y-68236720D01*
X131818028Y-68546861D01*
X131806735Y-68943537D01*
X131800669Y-69438914D01*
X131798216Y-70045156D01*
X131797761Y-70774428D01*
X130386248Y-70774428D01*
X130386091Y-70394555D01*
X130384944Y-69765502D01*
X130382443Y-69251625D01*
X130378066Y-68839954D01*
X130371294Y-68517523D01*
X130361605Y-68271364D01*
X130348479Y-68088509D01*
X130331396Y-67955990D01*
X130309836Y-67860839D01*
X130283278Y-67790088D01*
X130251201Y-67730769D01*
X130248961Y-67727080D01*
X130041716Y-67513718D01*
X129843531Y-67427612D01*
X129703259Y-67408646D01*
X129440985Y-67392521D01*
X129074118Y-67379198D01*
X128620066Y-67368634D01*
X128096235Y-67360790D01*
X127520033Y-67355623D01*
X126908869Y-67353093D01*
X126280149Y-67353158D01*
X125651282Y-67355777D01*
X125039674Y-67360909D01*
X124462735Y-67368513D01*
X123937870Y-67378547D01*
X123482488Y-67390971D01*
X123113997Y-67405744D01*
X122849804Y-67422823D01*
X122707317Y-67442168D01*
X122699595Y-67444510D01*
X122452536Y-67598516D01*
X122311539Y-67775667D01*
X122276944Y-67839292D01*
X122248353Y-67909943D01*
X122225195Y-68000894D01*
X122206899Y-68125419D01*
X122192893Y-68296791D01*
X122182605Y-68528284D01*
X122175465Y-68833170D01*
X122170900Y-69224723D01*
X122168340Y-69716217D01*
X122167212Y-70320926D01*
X122166945Y-71052121D01*
X122166944Y-71134091D01*
X120791514Y-71134091D01*
X120793103Y-70153264D01*
X120797694Y-69305794D01*
X120805302Y-68596836D01*
X120815953Y-68025106D01*
X120829670Y-67589320D01*
X120846480Y-67288195D01*
X120866408Y-67120446D01*
X120870027Y-67105389D01*
X120994903Y-66844373D01*
X121210319Y-66568268D01*
X121476896Y-66317059D01*
X121755255Y-66130736D01*
X121884722Y-66075006D01*
X121981822Y-66053570D01*
X122142295Y-66034605D01*
X122375324Y-66017834D01*
X122690090Y-66002982D01*
X123095776Y-65989773D01*
X123601563Y-65977930D01*
X124216633Y-65967177D01*
X124950169Y-65957240D01*
X125811352Y-65947842D01*
X126259166Y-65943566D01*
X130351388Y-65905945D01*
X130368086Y-64074027D01*
X131804731Y-64074027D01*
X131805904Y-64490290D01*
X131809892Y-64816127D01*
X131817164Y-65064211D01*
X131828188Y-65247212D01*
X131843435Y-65377800D01*
X131863373Y-65468648D01*
X131888471Y-65532425D01*
X131919199Y-65581802D01*
X131941319Y-65610787D01*
X132117000Y-65766687D01*
X132313744Y-65865564D01*
X132433500Y-65879949D01*
X132682872Y-65892444D01*
X133050373Y-65902884D01*
X133524520Y-65911105D01*
X134093826Y-65916941D01*
X134746807Y-65920228D01*
X135471977Y-65920800D01*
X136056538Y-65919348D01*
X139574465Y-65905945D01*
X139778343Y-65661665D01*
X139982222Y-65417386D01*
X139982222Y-62252429D01*
X141534708Y-62252429D01*
X141535029Y-62995253D01*
X141536223Y-63610207D01*
X141538841Y-64110528D01*
X141543438Y-64509457D01*
X141550565Y-64820233D01*
X141560776Y-65056096D01*
X141574622Y-65230284D01*
X141592657Y-65356037D01*
X141615434Y-65446595D01*
X141643505Y-65515198D01*
X141673131Y-65568092D01*
X141863595Y-65771883D01*
X142043284Y-65861590D01*
X142161280Y-65875635D01*
X142406299Y-65888864D01*
X142764257Y-65900988D01*
X143221067Y-65911723D01*
X143762643Y-65920781D01*
X144374900Y-65927876D01*
X145043752Y-65932722D01*
X145646571Y-65934859D01*
X146453121Y-65935717D01*
X147130229Y-65934785D01*
X147689554Y-65931760D01*
X148142757Y-65926341D01*
X148501500Y-65918226D01*
X148777442Y-65907112D01*
X148982244Y-65892696D01*
X149127566Y-65874678D01*
X149225070Y-65852754D01*
X149257056Y-65841282D01*
X149371767Y-65792693D01*
X149467306Y-65742920D01*
X149545518Y-65679385D01*
X149608245Y-65589507D01*
X149657334Y-65460706D01*
X149694629Y-65280401D01*
X149721975Y-65036012D01*
X149741216Y-64714959D01*
X149754197Y-64304661D01*
X149762763Y-63792539D01*
X149768758Y-63166012D01*
X149774027Y-62412500D01*
X149774711Y-62310977D01*
X149775558Y-62170289D01*
X151200555Y-62170289D01*
X151200719Y-62933059D01*
X151201569Y-63567404D01*
X151203641Y-64086007D01*
X151207472Y-64501555D01*
X151213597Y-64826733D01*
X151222553Y-65074225D01*
X151234876Y-65256718D01*
X151251102Y-65386896D01*
X151271768Y-65477445D01*
X151297409Y-65541049D01*
X151328563Y-65590394D01*
X151346105Y-65613340D01*
X151521954Y-65768218D01*
X151716522Y-65864720D01*
X151834850Y-65878641D01*
X152081675Y-65890852D01*
X152444389Y-65901168D01*
X152910386Y-65909404D01*
X153467058Y-65915378D01*
X154101800Y-65918904D01*
X154802003Y-65919798D01*
X155398611Y-65918503D01*
X156191176Y-65915307D01*
X156854815Y-65911667D01*
X157401711Y-65907127D01*
X157844049Y-65901226D01*
X158194013Y-65893506D01*
X158463787Y-65883510D01*
X158665556Y-65870777D01*
X158811504Y-65854850D01*
X158913815Y-65835270D01*
X158984673Y-65811578D01*
X159036264Y-65783316D01*
X159038986Y-65781483D01*
X159118759Y-65724280D01*
X159185222Y-65662259D01*
X159239588Y-65582787D01*
X159283071Y-65473227D01*
X159316883Y-65320944D01*
X159342238Y-65113301D01*
X159360349Y-64837664D01*
X159372430Y-64481397D01*
X159379694Y-64031865D01*
X159383355Y-63476431D01*
X159384625Y-62802460D01*
X159384736Y-62180819D01*
X159384440Y-61434637D01*
X159383318Y-60816376D01*
X159380816Y-60312848D01*
X159376377Y-59910864D01*
X159369446Y-59597234D01*
X159359467Y-59358770D01*
X159345884Y-59182283D01*
X159328141Y-59054583D01*
X159305684Y-58962482D01*
X159277955Y-58892790D01*
X159244400Y-58832319D01*
X159243592Y-58830992D01*
X159101928Y-58657993D01*
X158941080Y-58539410D01*
X158921763Y-58531131D01*
X158811475Y-58515893D01*
X158577017Y-58502550D01*
X158235309Y-58491109D01*
X157803267Y-58481573D01*
X157297811Y-58473951D01*
X156735859Y-58468247D01*
X156134329Y-58464468D01*
X155510139Y-58462619D01*
X154880208Y-58462708D01*
X154261454Y-58464738D01*
X153670794Y-58468718D01*
X153125148Y-58474652D01*
X152641434Y-58482546D01*
X152236570Y-58492407D01*
X151927473Y-58504241D01*
X151731064Y-58518053D01*
X151670535Y-58528567D01*
X151490868Y-58631318D01*
X151348441Y-58753538D01*
X151313843Y-58793741D01*
X151285110Y-58841780D01*
X151261698Y-58910238D01*
X151243062Y-59011697D01*
X151228657Y-59158741D01*
X151217939Y-59363953D01*
X151210364Y-59639915D01*
X151205386Y-59999210D01*
X151202460Y-60454422D01*
X151201044Y-61018134D01*
X151200591Y-61702927D01*
X151200555Y-62170289D01*
X149775558Y-62170289D01*
X149779227Y-61561211D01*
X149781462Y-60939166D01*
X149781047Y-60431462D01*
X149777615Y-60024722D01*
X149770798Y-59705569D01*
X149760228Y-59460622D01*
X149745537Y-59276506D01*
X149726357Y-59139841D01*
X149702322Y-59037249D01*
X149683139Y-58980447D01*
X149639652Y-58867816D01*
X149594583Y-58772811D01*
X149536310Y-58693935D01*
X149453207Y-58629687D01*
X149333651Y-58578569D01*
X149166019Y-58539079D01*
X148938687Y-58509721D01*
X148640031Y-58488992D01*
X148258427Y-58475396D01*
X147782252Y-58467431D01*
X147199881Y-58463598D01*
X146499692Y-58462399D01*
X145670059Y-58462334D01*
X145666654Y-58462334D01*
X144833790Y-58462557D01*
X144130448Y-58464096D01*
X143545036Y-58468257D01*
X143065964Y-58476346D01*
X142681641Y-58489668D01*
X142380478Y-58509528D01*
X142150884Y-58537232D01*
X141981269Y-58574085D01*
X141860042Y-58621393D01*
X141775613Y-58680462D01*
X141716392Y-58752596D01*
X141670788Y-58839102D01*
X141637738Y-58916139D01*
X141612132Y-58998517D01*
X141590965Y-59120163D01*
X141573851Y-59293554D01*
X141560405Y-59531169D01*
X141550243Y-59845486D01*
X141542977Y-60248982D01*
X141538224Y-60754135D01*
X141535598Y-61373424D01*
X141534713Y-62119326D01*
X141534708Y-62252429D01*
X139982222Y-62252429D01*
X139982222Y-58942111D01*
X139740471Y-58700361D01*
X139498720Y-58458610D01*
X135861476Y-58478111D01*
X132224231Y-58497611D01*
X132028643Y-58693192D01*
X131833055Y-58888772D01*
X131813408Y-62155984D01*
X131808952Y-62919546D01*
X131805903Y-63554670D01*
X131804731Y-64074027D01*
X130368086Y-64074027D01*
X130386760Y-62025389D01*
X130394782Y-61179737D01*
X130402476Y-60463702D01*
X130410285Y-59865793D01*
X130418651Y-59374520D01*
X130428017Y-58978391D01*
X130438825Y-58665913D01*
X130451519Y-58425598D01*
X130466540Y-58245951D01*
X130484333Y-58115484D01*
X130505338Y-58022704D01*
X130530000Y-57956119D01*
X130544616Y-57927678D01*
X130740015Y-57665593D01*
X131005137Y-57415216D01*
X131281296Y-57230550D01*
X131324847Y-57209698D01*
X131383611Y-57196277D01*
X131500635Y-57184189D01*
X131682005Y-57173375D01*
X131933810Y-57163777D01*
X132262136Y-57155337D01*
X132673072Y-57147997D01*
X133172705Y-57141698D01*
X133767122Y-57136383D01*
X134462412Y-57131993D01*
X135264661Y-57128470D01*
X136179958Y-57125755D01*
X137214389Y-57123791D01*
X138374043Y-57122519D01*
X139665007Y-57121881D01*
X140519347Y-57121778D01*
X142036175Y-57121234D01*
X143412731Y-57119598D01*
X144649851Y-57116864D01*
X145748370Y-57113024D01*
X146709125Y-57108072D01*
X147532949Y-57102001D01*
X148220678Y-57094805D01*
X148773149Y-57086477D01*
X149191196Y-57077010D01*
X149475654Y-57066397D01*
X149627360Y-57054632D01*
X149652971Y-57048740D01*
X149682681Y-57028721D01*
X149707736Y-56995574D01*
X149728534Y-56938015D01*
X149745469Y-56844760D01*
X149758938Y-56704526D01*
X149769337Y-56506028D01*
X149777061Y-56237982D01*
X149782508Y-55889106D01*
X149786072Y-55448114D01*
X149788150Y-54903723D01*
X149789138Y-54244649D01*
X149789432Y-53459609D01*
X149789444Y-53160094D01*
X149789444Y-50003536D01*
X151200555Y-50003536D01*
X151202124Y-53262796D01*
X151202474Y-54045282D01*
X151203580Y-54699022D01*
X151206756Y-55236378D01*
X151213317Y-55669714D01*
X151224576Y-56011393D01*
X151241849Y-56273778D01*
X151266448Y-56469233D01*
X151299689Y-56610120D01*
X151342884Y-56708804D01*
X151397350Y-56777646D01*
X151464399Y-56829011D01*
X151545345Y-56875262D01*
X151588611Y-56898774D01*
X151688981Y-56915759D01*
X151913834Y-56930851D01*
X152246556Y-56944018D01*
X152670531Y-56955233D01*
X153169143Y-56964464D01*
X153725778Y-56971683D01*
X154323820Y-56976860D01*
X154946654Y-56979965D01*
X155577664Y-56980968D01*
X156200236Y-56979840D01*
X156797753Y-56976551D01*
X157353602Y-56971072D01*
X157851166Y-56963372D01*
X158273830Y-56953422D01*
X158604979Y-56941193D01*
X158827998Y-56926654D01*
X158921763Y-56911870D01*
X159080023Y-56805697D01*
X159228979Y-56636467D01*
X159244769Y-56612009D01*
X159278362Y-56552949D01*
X159306091Y-56486415D01*
X159328425Y-56399377D01*
X159345838Y-56278804D01*
X159358799Y-56111666D01*
X159367779Y-55884932D01*
X159373250Y-55585572D01*
X159375683Y-55200557D01*
X159375549Y-54716854D01*
X159373319Y-54121435D01*
X159369463Y-53401269D01*
X159368274Y-53195655D01*
X159363674Y-52441634D01*
X159359048Y-51815987D01*
X159353789Y-51305978D01*
X159347288Y-50898870D01*
X159338937Y-50581926D01*
X159328129Y-50342411D01*
X159314253Y-50167589D01*
X159296703Y-50044722D01*
X159274871Y-49961075D01*
X159248147Y-49903912D01*
X159215924Y-49860496D01*
X159208611Y-49852167D01*
X159133877Y-49772259D01*
X159056197Y-49705524D01*
X158962835Y-49650776D01*
X158841058Y-49606828D01*
X158678131Y-49572495D01*
X158461321Y-49546591D01*
X158177894Y-49527931D01*
X157815115Y-49515329D01*
X157360250Y-49507598D01*
X156800566Y-49503554D01*
X156123329Y-49502010D01*
X155445785Y-49501778D01*
X154738708Y-49503358D01*
X154076165Y-49507900D01*
X153473086Y-49515108D01*
X152944401Y-49524686D01*
X152505041Y-49536338D01*
X152169936Y-49549769D01*
X151954017Y-49564683D01*
X151898102Y-49572093D01*
X151576000Y-49667146D01*
X151364635Y-49816998D01*
X151359305Y-49822972D01*
X151200555Y-50003536D01*
X149789444Y-50003536D01*
X149789444Y-49344485D01*
X149977212Y-48999493D01*
X150264600Y-48608004D01*
X150645379Y-48321786D01*
X150798180Y-48247028D01*
X150879938Y-48227904D01*
X151035982Y-48211540D01*
X151274290Y-48197780D01*
X151602838Y-48186472D01*
X152029602Y-48177462D01*
X152562561Y-48170597D01*
X153209690Y-48165722D01*
X153978967Y-48162683D01*
X154878368Y-48161328D01*
X155252203Y-48161223D01*
X156160675Y-48161172D01*
X156939249Y-48161663D01*
X156939249Y-48161663D01*
G37*
X156939249Y-48161663D02*
X157599137Y-48163666D01*
X158151552Y-48168151D01*
X158607705Y-48176085D01*
X158978810Y-48188439D01*
X159276079Y-48206180D01*
X159510723Y-48230277D01*
X159693955Y-48261700D01*
X159836988Y-48301418D01*
X159951034Y-48350399D01*
X160047305Y-48409612D01*
X160137013Y-48480026D01*
X160231371Y-48562611D01*
X160267645Y-48594636D01*
X160341282Y-48655845D01*
X160407222Y-48708276D01*
X160465903Y-48759619D01*
X160517760Y-48817562D01*
X160563229Y-48889792D01*
X160602745Y-48983997D01*
X160636745Y-49107865D01*
X160665664Y-49269085D01*
X160689938Y-49475344D01*
X160710002Y-49734331D01*
X160726293Y-50053733D01*
X160739246Y-50441238D01*
X160749298Y-50904535D01*
X160756883Y-51451311D01*
X160762438Y-52089255D01*
X160766398Y-52826054D01*
X160769199Y-53669397D01*
X160771278Y-54626971D01*
X160773069Y-55706465D01*
X160775009Y-56915566D01*
X160776160Y-57565748D01*
X160778495Y-58632953D01*
X160781427Y-59661066D01*
X160784895Y-60641250D01*
X160788839Y-61564668D01*
X160793199Y-62422484D01*
X160797912Y-63205862D01*
X160802919Y-63905965D01*
X160808159Y-64513957D01*
X160813571Y-65021001D01*
X160819095Y-65418262D01*
X160824669Y-65696902D01*
X160830233Y-65848085D01*
X160833241Y-65873665D01*
X160912338Y-65888583D01*
X161125641Y-65901885D01*
X161466251Y-65913454D01*
X161927272Y-65923174D01*
X162501805Y-65930928D01*
X163182954Y-65936598D01*
X163963820Y-65940069D01*
X164820929Y-65941222D01*
X165833313Y-65942629D01*
X166706590Y-65946872D01*
X167442734Y-65953989D01*
X168043721Y-65964015D01*
X168511525Y-65976989D01*
X168848123Y-65992945D01*
X169055489Y-66011921D01*
X169103015Y-66020441D01*
X169556839Y-66163529D01*
X169901949Y-66362461D01*
X170166203Y-66637582D01*
X170335188Y-66920314D01*
X170497500Y-67246500D01*
X170505918Y-70915389D01*
X170507716Y-71626348D01*
X170509735Y-72297944D01*
X170511912Y-72916311D01*
X170514183Y-73467585D01*
X170516484Y-73937898D01*
X170518750Y-74313387D01*
X170520919Y-74580184D01*
X170522926Y-74724425D01*
X170523557Y-74743028D01*
X170548735Y-74844993D01*
X170634719Y-74890959D01*
X170821041Y-74901777D01*
X170824504Y-74901778D01*
X171120326Y-74884620D01*
X171536331Y-74832573D01*
X172078764Y-74744778D01*
X172437777Y-74680106D01*
X172910967Y-74580643D01*
X173407590Y-74455630D01*
X173904904Y-74312838D01*
X174380165Y-74160041D01*
X174810631Y-74005011D01*
X175173558Y-73855519D01*
X175446204Y-73719338D01*
X175605824Y-73604241D01*
X175614434Y-73594504D01*
X175638902Y-73461270D01*
X175578532Y-73243890D01*
X175441142Y-72964648D01*
X175330552Y-72785111D01*
X175238549Y-72620860D01*
X175125932Y-72386917D01*
X175053516Y-72220667D01*
X174948209Y-71966959D01*
X174850747Y-71732393D01*
X174804379Y-71620945D01*
X174545902Y-70887826D01*
X174336489Y-70065558D01*
X174183914Y-69199926D01*
X174095950Y-68336715D01*
X174080371Y-67521711D01*
X174085659Y-67387611D01*
X174117204Y-66896897D01*
X174162222Y-66402395D01*
X174217345Y-65926869D01*
X174279207Y-65493083D01*
X174344441Y-65123801D01*
X174409680Y-64841785D01*
X174471558Y-64669800D01*
X174492113Y-64639473D01*
X174543149Y-64519189D01*
X174554444Y-64419510D01*
X174576397Y-64289324D01*
X174635024Y-64061343D01*
X174719480Y-63770641D01*
X174818919Y-63452294D01*
X174922496Y-63141376D01*
X175019363Y-62872960D01*
X175076589Y-62730945D01*
X175168349Y-62511590D01*
X175262229Y-62276729D01*
X175263933Y-62272334D01*
X175393818Y-61972534D01*
X175570266Y-61615693D01*
X175780711Y-61222473D01*
X176012585Y-60813535D01*
X176253324Y-60409542D01*
X176490360Y-60031157D01*
X176711128Y-59699042D01*
X176903061Y-59433858D01*
X177053592Y-59256268D01*
X177138522Y-59190027D01*
X177215052Y-59172609D01*
X177305329Y-59191181D01*
X177442794Y-59258963D01*
X177660888Y-59389176D01*
X177694166Y-59409687D01*
X177916180Y-59543056D01*
X178126339Y-59663578D01*
X178177647Y-59691603D01*
X178627139Y-59969178D01*
X179130648Y-60343756D01*
X179665280Y-60794032D01*
X180208143Y-61298699D01*
X180736345Y-61836451D01*
X181226993Y-62385980D01*
X181657195Y-62925980D01*
X181667053Y-62939275D01*
X181911023Y-63291997D01*
X182169129Y-63705203D01*
X182430321Y-64156927D01*
X182683548Y-64625204D01*
X182917758Y-65088071D01*
X183121902Y-65523562D01*
X183284928Y-65909712D01*
X183395786Y-66224556D01*
X183443426Y-66446131D01*
X183444444Y-66472089D01*
X183475491Y-66624904D01*
X183506665Y-66700652D01*
X183576087Y-66888258D01*
X183645117Y-67153221D01*
X183699762Y-67432447D01*
X183726030Y-67662837D01*
X183726666Y-67692639D01*
X183758827Y-67926125D01*
X183867563Y-68061744D01*
X184071260Y-68112773D01*
X184295783Y-68103690D01*
X184515228Y-68083409D01*
X184841782Y-68056581D01*
X185241733Y-68025669D01*
X185681367Y-67993137D01*
X186126970Y-67961450D01*
X186544830Y-67933070D01*
X186901232Y-67910463D01*
X187078055Y-67900345D01*
X187335098Y-67896634D01*
X187687751Y-67905008D01*
X188099073Y-67923172D01*
X188532126Y-67948832D01*
X188949970Y-67979690D01*
X189315665Y-68013451D01*
X189592273Y-68047821D01*
X189670972Y-68061479D01*
X190091343Y-68145990D01*
X190400216Y-68209728D01*
X190624615Y-68258812D01*
X190791566Y-68299360D01*
X190928095Y-68337490D01*
X191029166Y-68368945D01*
X191296522Y-68453607D01*
X191570378Y-68538555D01*
X191593611Y-68545650D01*
X191809897Y-68616249D01*
X191988915Y-68682396D01*
X192016944Y-68694263D01*
X192151436Y-68753945D01*
X192367821Y-68849985D01*
X192616666Y-68960443D01*
X192842566Y-69076665D01*
X193117269Y-69241631D01*
X193413698Y-69436108D01*
X193704778Y-69640865D01*
X193963430Y-69836670D01*
X194162578Y-70004291D01*
X194275146Y-70124496D01*
X194287534Y-70147223D01*
X194282088Y-70272057D01*
X194221017Y-70498975D01*
X194113183Y-70804547D01*
X193967445Y-71165341D01*
X193792662Y-71557927D01*
X193616675Y-71921394D01*
X193201854Y-72640038D01*
X192681771Y-73373435D01*
X192083856Y-74088316D01*
X191435536Y-74751411D01*
X190888055Y-75231136D01*
X190683684Y-75386344D01*
X190426294Y-75567171D01*
X190143401Y-75756080D01*
X189862522Y-75935537D01*
X189611174Y-76088004D01*
X189416872Y-76195947D01*
X189307134Y-76241828D01*
X189301327Y-76242334D01*
X189232193Y-76295548D01*
X189230000Y-76312889D01*
X189175593Y-76380513D01*
X189153931Y-76383445D01*
X189057744Y-76411988D01*
X188871167Y-76487648D01*
X188630538Y-76595469D01*
X188571848Y-76623017D01*
X187920704Y-76907156D01*
X187260508Y-77143416D01*
X186569170Y-77336448D01*
X185824599Y-77490897D01*
X185004707Y-77611412D01*
X184087403Y-77702640D01*
X183148132Y-77764190D01*
X182181541Y-77815215D01*
X181988925Y-78281135D01*
X181885558Y-78521467D01*
X181796388Y-78711662D01*
X181739994Y-78812194D01*
X181738432Y-78814084D01*
X181682932Y-78943796D01*
X181680555Y-78972391D01*
X181653286Y-79070752D01*
X181579363Y-79267441D01*
X181470616Y-79532364D01*
X181360259Y-79787308D01*
X181224988Y-80093636D01*
X181106450Y-80363376D01*
X181019078Y-80563612D01*
X180981141Y-80652056D01*
X180824670Y-81010090D01*
X180615744Y-81462639D01*
X180366911Y-81984644D01*
X180090717Y-82551047D01*
X179799710Y-83136789D01*
X179506437Y-83716811D01*
X179223443Y-84266055D01*
X178963277Y-84759463D01*
X178738484Y-85171975D01*
X178578897Y-85449834D01*
X178477704Y-85624546D01*
X178341640Y-85866465D01*
X178221200Y-86084834D01*
X178001772Y-86463665D01*
X177710623Y-86931585D01*
X177363070Y-87466615D01*
X176974432Y-88046774D01*
X176560027Y-88650081D01*
X176135172Y-89254555D01*
X175715185Y-89838217D01*
X175315384Y-90379087D01*
X174951088Y-90855182D01*
X174637613Y-91244524D01*
X174568478Y-91326315D01*
X174390577Y-91535106D01*
X174161892Y-91804805D01*
X173922384Y-92088254D01*
X173838421Y-92187889D01*
X173348422Y-92740662D01*
X172763738Y-93351548D01*
X172106817Y-93999968D01*
X171400107Y-94665345D01*
X170666054Y-95327101D01*
X169927108Y-95964657D01*
X169205715Y-96557436D01*
X168524324Y-97084858D01*
X168380833Y-97190942D01*
X168118833Y-97379200D01*
X167805462Y-97598709D01*
X167460735Y-97836081D01*
X167104665Y-98077928D01*
X166757267Y-98310861D01*
X166438555Y-98521494D01*
X166168542Y-98696438D01*
X165967242Y-98822306D01*
X165854671Y-98885710D01*
X165839843Y-98890667D01*
X165763853Y-98925325D01*
X165610946Y-99013777D01*
X165504292Y-99079914D01*
X165223625Y-99247380D01*
X164839587Y-99461398D01*
X164376888Y-99709297D01*
X163860239Y-99978410D01*
X163314354Y-100256068D01*
X162763942Y-100529601D01*
X162233715Y-100786342D01*
X161748385Y-101013621D01*
X161607500Y-101077653D01*
X161347595Y-101190313D01*
X161022745Y-101324494D01*
X160657860Y-101470656D01*
X160277853Y-101619261D01*
X159907635Y-101760769D01*
X159572117Y-101885643D01*
X159296212Y-101984344D01*
X159104831Y-102047331D01*
X159027191Y-102065667D01*
X158899315Y-102092482D01*
X158866827Y-102113469D01*
X158778821Y-102159561D01*
X158591884Y-102235777D01*
X158341470Y-102329195D01*
X158063033Y-102426890D01*
X157792028Y-102515940D01*
X157621111Y-102567534D01*
X157383769Y-102635897D01*
X157162500Y-102700462D01*
X156905623Y-102774352D01*
X156570229Y-102868243D01*
X156189342Y-102973177D01*
X155795989Y-103080196D01*
X155423194Y-103180342D01*
X155103983Y-103264655D01*
X154871380Y-103324177D01*
X154798888Y-103341611D01*
X153679686Y-103590295D01*
X152667811Y-103797843D01*
X151737138Y-103968978D01*
X150861541Y-104108421D01*
X150014897Y-104220895D01*
X149789444Y-104247075D01*
X148664782Y-104367027D01*
X147597921Y-104467365D01*
X146608460Y-104546540D01*
X145715996Y-104603001D01*
X144940128Y-104635200D01*
X144850555Y-104637484D01*
X144381050Y-104649685D01*
X143920350Y-104663814D01*
X143502310Y-104678678D01*
X143160787Y-104693079D01*
X142945555Y-104704741D01*
X142655696Y-104713656D01*
X142394874Y-104703924D01*
X142217405Y-104677674D01*
X142211696Y-104675967D01*
X142072126Y-104653882D01*
X141820992Y-104634705D01*
X141487833Y-104619909D01*
X141102189Y-104610969D01*
X140871140Y-104609060D01*
X140276869Y-104595081D01*
X139579680Y-104558113D01*
X138807782Y-104501233D01*
X137989387Y-104427519D01*
X137152702Y-104340050D01*
X136325940Y-104241902D01*
X135537309Y-104136155D01*
X134815019Y-104025884D01*
X134187281Y-103914169D01*
X133843888Y-103842367D01*
X133589120Y-103787021D01*
X133282105Y-103723342D01*
X133103055Y-103687526D01*
X132846188Y-103631908D01*
X132624458Y-103574958D01*
X132517652Y-103540605D01*
X132324133Y-103488945D01*
X132205161Y-103476778D01*
X132027769Y-103456558D01*
X131838064Y-103412474D01*
X131341793Y-103264412D01*
X130855136Y-103117790D01*
X130398922Y-102979016D01*
X129993981Y-102854494D01*
X129661142Y-102750632D01*
X129421234Y-102673837D01*
X129295087Y-102630514D01*
X129293055Y-102629709D01*
X129159307Y-102576939D01*
X128939596Y-102490961D01*
X128679516Y-102389615D01*
X128658055Y-102381270D01*
X128376780Y-102264071D01*
X128011802Y-102100646D01*
X127594607Y-101906255D01*
X127156683Y-101696159D01*
X126729517Y-101485619D01*
X126344596Y-101289894D01*
X126033407Y-101124246D01*
X125865745Y-101027953D01*
X125615275Y-100871987D01*
X125336954Y-100693731D01*
X125057629Y-100511014D01*
X124804144Y-100341668D01*
X124603345Y-100203521D01*
X124482077Y-100114404D01*
X124460000Y-100094278D01*
X124392317Y-100031749D01*
X124241202Y-99904359D01*
X124033856Y-99734842D01*
X123930833Y-99651979D01*
X123220370Y-99037439D01*
X122494313Y-98324284D01*
X121784739Y-97546716D01*
X121123726Y-96738934D01*
X120829449Y-96345454D01*
X120660865Y-96108083D01*
X120469332Y-95831377D01*
X120271142Y-95539778D01*
X120082583Y-95257730D01*
X119919949Y-95009673D01*
X119799528Y-94820051D01*
X119737611Y-94713305D01*
X119732777Y-94700034D01*
X119700277Y-94629106D01*
X119614539Y-94468983D01*
X119493206Y-94252487D01*
X119476440Y-94223139D01*
X119325741Y-93951981D01*
X119156644Y-93634971D01*
X118981825Y-93297473D01*
X118813962Y-92964848D01*
X118665732Y-92662461D01*
X118549812Y-92415674D01*
X118478878Y-92249849D01*
X118462777Y-92195131D01*
X118431070Y-92089185D01*
X118353002Y-91923036D01*
X118335293Y-91890174D01*
X118216672Y-91652562D01*
X118113042Y-91411778D01*
X118021637Y-91177905D01*
X117932869Y-90956990D01*
X117931299Y-90953167D01*
X117844996Y-90732123D01*
X117758935Y-90496170D01*
X117758373Y-90494556D01*
X117683264Y-90287457D01*
X117616433Y-90116611D01*
X117612159Y-90106500D01*
X117554492Y-89952463D01*
X117469382Y-89702628D01*
X117369544Y-89396475D01*
X117267690Y-89073482D01*
X117176533Y-88773129D01*
X117123687Y-88589556D01*
X117058233Y-88364562D01*
X116998703Y-88177355D01*
X116982205Y-88130945D01*
X116930864Y-87968392D01*
X116857013Y-87700100D01*
X116768568Y-87358118D01*
X116673445Y-86974498D01*
X116579560Y-86581293D01*
X116494829Y-86210553D01*
X116427167Y-85894330D01*
X116415876Y-85837889D01*
X116361565Y-85563682D01*
X116300964Y-85260013D01*
X116282419Y-85167611D01*
X116108447Y-84246433D01*
X115966822Y-83363299D01*
X115853326Y-82481514D01*
X115763742Y-81564381D01*
X115693852Y-80575204D01*
X115645851Y-79629000D01*
X115619434Y-78909689D01*
X115608585Y-78323412D01*
X116926528Y-78323412D01*
X116928307Y-78781142D01*
X116938857Y-79278814D01*
X116957692Y-79791237D01*
X116984325Y-80293222D01*
X117018272Y-80759577D01*
X117048743Y-81075389D01*
X117113223Y-81659883D01*
X117165011Y-82124075D01*
X117206500Y-82487965D01*
X117240082Y-82771554D01*
X117268149Y-82994843D01*
X117293093Y-83177833D01*
X117317305Y-83340523D01*
X117327215Y-83403723D01*
X117377474Y-83719749D01*
X117434376Y-84076463D01*
X117467833Y-84285667D01*
X117557826Y-84796933D01*
X117673077Y-85375587D01*
X117804736Y-85982740D01*
X117943950Y-86579506D01*
X118081869Y-87126997D01*
X118209641Y-87586325D01*
X118246710Y-87707611D01*
X118345612Y-88028840D01*
X118450534Y-88379972D01*
X118501234Y-88554278D01*
X118742455Y-89314303D01*
X119048866Y-90151302D01*
X119403959Y-91027197D01*
X119791225Y-91903908D01*
X120194154Y-92743356D01*
X120596237Y-93507462D01*
X120810693Y-93881223D01*
X120990058Y-94173868D01*
X121202566Y-94506731D01*
X121432506Y-94856740D01*
X121664170Y-95200822D01*
X121881845Y-95515904D01*
X122069823Y-95778914D01*
X122212392Y-95966779D01*
X122289515Y-96053057D01*
X122421558Y-96107004D01*
X122673209Y-96159832D01*
X123022963Y-96210040D01*
X123449317Y-96256124D01*
X123930768Y-96296582D01*
X124445813Y-96329911D01*
X124972947Y-96354609D01*
X125490667Y-96369173D01*
X125977471Y-96372101D01*
X126411853Y-96361890D01*
X126580335Y-96352880D01*
X127924030Y-96232262D01*
X129176710Y-96046754D01*
X130370396Y-95787613D01*
X131537108Y-95446098D01*
X132708868Y-95013467D01*
X133917697Y-94480977D01*
X134530156Y-94182510D01*
X134954254Y-93971168D01*
X135273137Y-93816809D01*
X135507115Y-93711950D01*
X135676499Y-93649107D01*
X135801599Y-93620798D01*
X135902725Y-93619537D01*
X136000186Y-93637843D01*
X136005062Y-93639071D01*
X136229595Y-93740329D01*
X136405201Y-93894385D01*
X136406311Y-93895872D01*
X136510497Y-94125537D01*
X136534793Y-94388064D01*
X136479413Y-94626668D01*
X136403147Y-94739708D01*
X136278031Y-94832632D01*
X136053204Y-94969069D01*
X135752351Y-95137157D01*
X135399159Y-95325033D01*
X135017313Y-95520836D01*
X134630499Y-95712704D01*
X134262403Y-95888774D01*
X133936711Y-96037184D01*
X133677108Y-96146073D01*
X133507282Y-96203579D01*
X133468177Y-96209556D01*
X133332905Y-96252382D01*
X133311194Y-96268450D01*
X133209970Y-96323949D01*
X133024289Y-96401545D01*
X132891388Y-96450318D01*
X132660466Y-96532681D01*
X132466088Y-96605190D01*
X132397500Y-96632480D01*
X132208737Y-96699619D01*
X132115277Y-96725927D01*
X131990191Y-96759746D01*
X131765865Y-96823507D01*
X131478308Y-96906896D01*
X131268611Y-96968489D01*
X130507277Y-97180570D01*
X129788591Y-97351527D01*
X129082924Y-97485368D01*
X128360646Y-97586104D01*
X127592127Y-97657743D01*
X126747736Y-97704296D01*
X125797844Y-97729771D01*
X125624166Y-97732289D01*
X125060693Y-97740037D01*
X124625225Y-97748972D01*
X124304666Y-97762211D01*
X124085925Y-97782873D01*
X123955906Y-97814077D01*
X123901516Y-97858943D01*
X123909662Y-97920587D01*
X123967249Y-98002131D01*
X124059588Y-98104957D01*
X124248492Y-98286647D01*
X124528863Y-98526279D01*
X124874460Y-98803970D01*
X125259040Y-99099839D01*
X125656361Y-99394002D01*
X126040181Y-99666577D01*
X126384257Y-99897681D01*
X126610918Y-100037974D01*
X126754391Y-100115153D01*
X126996197Y-100238342D01*
X127307109Y-100393214D01*
X127657897Y-100565445D01*
X128019333Y-100740711D01*
X128362188Y-100904686D01*
X128657233Y-101043045D01*
X128728611Y-101075844D01*
X128991121Y-101186370D01*
X129347714Y-101323849D01*
X129757607Y-101473719D01*
X130180017Y-101621420D01*
X130574161Y-101752391D01*
X130899255Y-101852069D01*
X130915833Y-101856781D01*
X131276474Y-101958345D01*
X131535624Y-102030286D01*
X131727425Y-102081909D01*
X131886022Y-102122518D01*
X131938888Y-102135578D01*
X132130863Y-102183379D01*
X132402681Y-102251968D01*
X132697519Y-102327002D01*
X132715000Y-102331473D01*
X133168684Y-102440499D01*
X133684787Y-102553263D01*
X134211779Y-102659331D01*
X134698126Y-102748269D01*
X135043333Y-102802921D01*
X135205117Y-102826163D01*
X135471678Y-102864941D01*
X135808197Y-102914171D01*
X136179853Y-102968769D01*
X136242777Y-102978036D01*
X136871465Y-103069400D01*
X137381835Y-103140365D01*
X137794831Y-103193319D01*
X138131393Y-103230651D01*
X138412465Y-103254747D01*
X138658987Y-103267997D01*
X138821717Y-103272089D01*
X139147077Y-103284776D01*
X139484112Y-103310426D01*
X139700000Y-103335462D01*
X139877203Y-103350313D01*
X140170881Y-103362065D01*
X140563626Y-103370852D01*
X141038030Y-103376810D01*
X141576685Y-103380075D01*
X142162186Y-103380782D01*
X142777123Y-103379066D01*
X143404090Y-103375063D01*
X144025680Y-103368908D01*
X144624484Y-103360737D01*
X145183096Y-103350685D01*
X145684107Y-103338887D01*
X146110111Y-103325480D01*
X146443701Y-103310598D01*
X146667468Y-103294376D01*
X146755555Y-103280575D01*
X146923984Y-103243101D01*
X147194346Y-103200548D01*
X147527858Y-103158418D01*
X147849166Y-103125478D01*
X149834558Y-102903275D01*
X151800795Y-102600966D01*
X153722047Y-102223758D01*
X155572487Y-101776855D01*
X157326287Y-101265464D01*
X157726944Y-101134715D01*
X157974726Y-101050414D01*
X158185134Y-100975906D01*
X158291388Y-100935705D01*
X158422247Y-100886604D01*
X158644887Y-100807403D01*
X158917336Y-100712969D01*
X158996944Y-100685784D01*
X159701189Y-100427219D01*
X160491645Y-100104328D01*
X161337620Y-99731820D01*
X162208422Y-99324405D01*
X163073361Y-98896789D01*
X163901745Y-98463682D01*
X164662884Y-98039793D01*
X165241111Y-97693316D01*
X165529958Y-97509642D01*
X165873118Y-97286338D01*
X166249446Y-97037712D01*
X166637792Y-96778071D01*
X167017012Y-96521723D01*
X167365957Y-96282976D01*
X167663480Y-96076138D01*
X167888435Y-95915516D01*
X168019675Y-95815418D01*
X168030422Y-95806103D01*
X168146361Y-95707340D01*
X168339814Y-95548231D01*
X168577597Y-95355939D01*
X168698771Y-95259003D01*
X169366120Y-94705878D01*
X170068773Y-94084969D01*
X170785624Y-93417412D01*
X171495568Y-92724342D01*
X172177499Y-92026894D01*
X172810311Y-91346204D01*
X173372900Y-90703407D01*
X173844160Y-90119639D01*
X173886540Y-90063880D01*
X173983049Y-89936550D01*
X174142750Y-89726356D01*
X174343308Y-89462678D01*
X174558695Y-89179743D01*
X174770740Y-88896420D01*
X175017992Y-88558293D01*
X175282464Y-88190798D01*
X175546172Y-87819373D01*
X175791132Y-87469453D01*
X175999358Y-87166476D01*
X176152865Y-86935878D01*
X176212500Y-86840702D01*
X176292849Y-86710786D01*
X176412837Y-86522001D01*
X176466457Y-86438775D01*
X176581565Y-86253068D01*
X176750988Y-85969447D01*
X176960076Y-85613110D01*
X177194178Y-85209253D01*
X177438641Y-84783072D01*
X177678816Y-84359764D01*
X177779963Y-84179834D01*
X177966419Y-83834336D01*
X178197220Y-83386772D01*
X178459419Y-82864031D01*
X178740071Y-82293003D01*
X179026230Y-81700579D01*
X179304949Y-81113650D01*
X179563282Y-80559105D01*
X179788284Y-80063837D01*
X179967008Y-79654734D01*
X180021853Y-79523167D01*
X180145815Y-79221661D01*
X180260145Y-78946483D01*
X180347337Y-78739648D01*
X180374620Y-78676500D01*
X180479209Y-78434525D01*
X180598579Y-78149364D01*
X180743587Y-77794636D01*
X180925090Y-77343959D01*
X180998894Y-77159556D01*
X181295039Y-76418723D01*
X182140436Y-76434658D01*
X183475997Y-76418624D01*
X184710053Y-76315730D01*
X185854998Y-76122416D01*
X186923230Y-75835124D01*
X187927142Y-75450292D01*
X188879132Y-74964361D01*
X189791593Y-74373772D01*
X190091343Y-74151322D01*
X190356981Y-73926551D01*
X190671326Y-73627836D01*
X191004902Y-73286581D01*
X191328233Y-72934190D01*
X191611843Y-72602070D01*
X191826255Y-72321624D01*
X191870320Y-72255945D01*
X192162253Y-71794612D01*
X192380397Y-71432393D01*
X192532727Y-71153393D01*
X192627218Y-70941715D01*
X192671844Y-70781465D01*
X192674580Y-70656746D01*
X192674144Y-70653697D01*
X192587825Y-70505900D01*
X192380506Y-70339374D01*
X192069658Y-70162553D01*
X191672753Y-69983867D01*
X191207264Y-69811749D01*
X190690662Y-69654630D01*
X190500000Y-69604487D01*
X189606433Y-69415233D01*
X188692405Y-69297434D01*
X187712484Y-69245911D01*
X187325000Y-69242607D01*
X186698896Y-69247746D01*
X186170602Y-69262694D01*
X185696966Y-69290786D01*
X185234835Y-69335355D01*
X184741056Y-69399736D01*
X184185277Y-69485198D01*
X183809180Y-69542392D01*
X183453311Y-69590341D01*
X183156564Y-69624191D01*
X182957836Y-69639089D01*
X182950555Y-69639262D01*
X182633055Y-69645389D01*
X182577901Y-69080945D01*
X182404497Y-67870722D01*
X182126731Y-66747098D01*
X181739474Y-65696345D01*
X181237597Y-64704737D01*
X180615971Y-63758548D01*
X180562051Y-63685923D01*
X180301631Y-63360316D01*
X179989568Y-63005743D01*
X179642105Y-62637251D01*
X179275487Y-62269886D01*
X178905957Y-61918694D01*
X178549757Y-61598722D01*
X178223131Y-61325015D01*
X177942323Y-61112621D01*
X177723575Y-60976584D01*
X177588790Y-60931778D01*
X177487272Y-60994095D01*
X177344088Y-61168354D01*
X177170075Y-61435516D01*
X176976068Y-61776543D01*
X176772905Y-62172396D01*
X176571421Y-62604037D01*
X176384037Y-63048445D01*
X175957785Y-64268081D01*
X175653643Y-65473732D01*
X175472264Y-66656424D01*
X175414299Y-67807181D01*
X175480400Y-68917031D01*
X175671218Y-69977000D01*
X175838385Y-70562611D01*
X176063435Y-71168850D01*
X176344596Y-71798994D01*
X176658556Y-72406230D01*
X176982001Y-72943745D01*
X177132997Y-73162173D01*
X177302614Y-73405269D01*
X177434053Y-73614274D01*
X177508176Y-73757751D01*
X177517777Y-73794221D01*
X177456392Y-73926861D01*
X177285797Y-74102138D01*
X177026337Y-74306751D01*
X176698354Y-74527403D01*
X176322192Y-74750796D01*
X175918194Y-74963631D01*
X175506704Y-75152611D01*
X175330555Y-75223989D01*
X174628765Y-75475210D01*
X173913959Y-75694099D01*
X173247828Y-75862033D01*
X173143333Y-75884285D01*
X172967624Y-75921309D01*
X172807268Y-75956147D01*
X172657814Y-75988866D01*
X172514811Y-76019531D01*
X172373808Y-76048209D01*
X172230356Y-76074965D01*
X172080004Y-76099867D01*
X171918301Y-76122981D01*
X171740797Y-76144371D01*
X171543040Y-76164106D01*
X171320581Y-76182251D01*
X171068970Y-76198872D01*
X170783754Y-76214036D01*
X170460485Y-76227809D01*
X170094711Y-76240256D01*
X169681982Y-76251445D01*
X169217847Y-76261442D01*
X168697856Y-76270312D01*
X168117558Y-76278122D01*
X167472503Y-76284938D01*
X166758240Y-76290827D01*
X165970319Y-76295854D01*
X165104289Y-76300087D01*
X164155699Y-76303590D01*
X163120100Y-76306431D01*
X161993039Y-76308676D01*
X160770068Y-76310390D01*
X159446735Y-76311640D01*
X158018590Y-76312493D01*
X156481183Y-76313014D01*
X154830062Y-76313271D01*
X153060777Y-76313328D01*
X151168878Y-76313252D01*
X149149914Y-76313110D01*
X146999435Y-76312967D01*
X144712990Y-76312891D01*
X144343600Y-76312889D01*
X141966082Y-76312981D01*
X139726126Y-76313264D01*
X137620186Y-76313751D01*
X135644711Y-76314452D01*
X133796155Y-76315380D01*
X132070968Y-76316547D01*
X130465603Y-76317963D01*
X128976511Y-76319641D01*
X127600145Y-76321592D01*
X126332955Y-76323829D01*
X125171394Y-76326362D01*
X124111913Y-76329204D01*
X123150964Y-76332366D01*
X122284999Y-76335860D01*
X121510470Y-76339698D01*
X120823828Y-76343891D01*
X120221525Y-76348451D01*
X119700013Y-76353390D01*
X119255744Y-76358720D01*
X118885169Y-76364451D01*
X118584740Y-76370597D01*
X118350909Y-76377168D01*
X118180128Y-76384176D01*
X118068849Y-76391634D01*
X118013522Y-76399552D01*
X118012839Y-76399752D01*
X117710653Y-76546463D01*
X117414404Y-76784811D01*
X117164207Y-77074373D01*
X117000179Y-77374730D01*
X116978672Y-77441778D01*
X116951225Y-77628540D01*
X116934005Y-77930814D01*
X116926528Y-78323412D01*
X115608585Y-78323412D01*
X115608539Y-78320930D01*
X115613394Y-77852995D01*
X115634224Y-77496156D01*
X115671258Y-77240685D01*
X115704163Y-77124278D01*
X116003481Y-76490517D01*
X116388401Y-75966810D01*
X116856973Y-75555255D01*
X117407245Y-75257950D01*
X117459317Y-75237403D01*
X117645511Y-75168984D01*
X117813786Y-75118207D01*
X117990834Y-75081886D01*
X118203344Y-75056833D01*
X118478008Y-75039862D01*
X118841516Y-75027784D01*
X119297782Y-75017854D01*
X119720842Y-75007186D01*
X120097174Y-74993112D01*
X120403296Y-74976883D01*
X120615727Y-74959748D01*
X120710984Y-74942956D01*
X120711506Y-74942649D01*
X120730591Y-74885285D01*
X120746803Y-74734329D01*
X120760278Y-74483346D01*
X120771151Y-74125904D01*
X120779556Y-73655568D01*
X120785630Y-73065907D01*
X120789508Y-72350486D01*
X120791325Y-71502872D01*
X120791504Y-71140531D01*
X120791514Y-71134091D01*
X122166944Y-71134091D01*
X122167140Y-71906776D01*
X122168613Y-72551003D01*
X122172690Y-73079430D01*
X122180699Y-73504709D01*
X122193968Y-73839497D01*
X122213823Y-74096447D01*
X122241593Y-74288215D01*
X122278604Y-74427454D01*
X122326186Y-74526821D01*
X122385664Y-74598969D01*
X122458366Y-74656554D01*
X122542065Y-74710024D01*
X122595839Y-74736576D01*
X122672195Y-74758861D01*
X122783006Y-74777256D01*
X122940146Y-74792134D01*
X123155489Y-74803873D01*
X123440909Y-74812845D01*
X123808280Y-74819427D01*
X124269475Y-74823994D01*
X124836369Y-74826920D01*
X125520836Y-74828582D01*
X126319138Y-74829345D01*
X129906888Y-74831223D01*
X130386666Y-74351445D01*
X130386402Y-71151750D01*
X130386248Y-70774428D01*
X131797761Y-70774428D01*
X131797777Y-71177190D01*
X131797777Y-74374053D01*
X131977021Y-74567360D01*
X132096934Y-74696651D01*
X132166215Y-74771292D01*
X132171049Y-74776486D01*
X132243434Y-74781811D01*
X132440251Y-74787808D01*
X132744823Y-74794306D01*
X133140474Y-74801136D01*
X133610526Y-74808127D01*
X134138304Y-74815109D01*
X134707130Y-74821912D01*
X135300327Y-74828366D01*
X135901220Y-74834301D01*
X136493131Y-74839547D01*
X137059384Y-74843934D01*
X137583302Y-74847291D01*
X138048209Y-74849449D01*
X138437426Y-74850237D01*
X138734279Y-74849486D01*
X138922090Y-74847025D01*
X138959166Y-74845718D01*
X139224825Y-74821764D01*
X139460730Y-74782080D01*
X139573088Y-74750389D01*
X139665811Y-74713205D01*
X139743349Y-74672416D01*
X139807061Y-74615917D01*
X139858302Y-74531606D01*
X139898431Y-74407378D01*
X139928806Y-74231129D01*
X139950783Y-73990758D01*
X139965721Y-73674159D01*
X139974976Y-73269230D01*
X139979908Y-72763866D01*
X139981872Y-72145965D01*
X139982227Y-71403423D01*
X139982222Y-71102632D01*
X139982222Y-67914706D01*
X141534444Y-67914706D01*
X141534444Y-71062440D01*
X141534900Y-71856247D01*
X141537092Y-72521113D01*
X141542256Y-73069207D01*
X141551627Y-73512699D01*
X141566442Y-73863759D01*
X141587935Y-74134555D01*
X141617343Y-74337257D01*
X141655901Y-74484035D01*
X141704846Y-74587057D01*
X141765412Y-74658493D01*
X141838837Y-74710513D01*
X141908569Y-74746764D01*
X142022987Y-74766643D01*
X142277587Y-74783722D01*
X142671465Y-74797983D01*
X143203719Y-74809406D01*
X143873446Y-74817972D01*
X144679744Y-74823662D01*
X145615780Y-74826447D01*
X146422831Y-74827174D01*
X147100761Y-74826757D01*
X147661558Y-74824838D01*
X148117211Y-74821054D01*
X148479706Y-74815044D01*
X148761033Y-74806448D01*
X148973178Y-74794903D01*
X149128131Y-74780050D01*
X149237880Y-74761526D01*
X149314411Y-74738972D01*
X149367334Y-74713443D01*
X149456198Y-74659433D01*
X149530290Y-74603279D01*
X149590955Y-74532436D01*
X149639533Y-74434360D01*
X149677367Y-74296504D01*
X149705801Y-74106325D01*
X149726176Y-73851277D01*
X149739836Y-73518815D01*
X149748122Y-73096394D01*
X149752378Y-72571469D01*
X149753945Y-71931495D01*
X149754166Y-71163927D01*
X149754166Y-67952056D01*
X149671928Y-67836756D01*
X151199167Y-67836756D01*
X151217500Y-71172443D01*
X151235833Y-74508131D01*
X151475572Y-74669677D01*
X151715312Y-74831223D01*
X158888884Y-74831223D01*
X159119303Y-74625343D01*
X159349722Y-74419464D01*
X159349722Y-72392412D01*
X160872971Y-72392412D01*
X160874782Y-72939077D01*
X160881380Y-73382356D01*
X160893696Y-73734819D01*
X160912662Y-74009035D01*
X160939207Y-74217576D01*
X160974264Y-74373012D01*
X161018761Y-74487912D01*
X161073631Y-74574847D01*
X161139804Y-74646387D01*
X161155615Y-74660986D01*
X161196646Y-74692560D01*
X161252216Y-74719039D01*
X161334778Y-74741040D01*
X161456787Y-74759179D01*
X161630697Y-74774072D01*
X161868963Y-74786335D01*
X162184039Y-74796585D01*
X162588379Y-74805438D01*
X163094437Y-74813511D01*
X163714667Y-74821418D01*
X164461523Y-74829778D01*
X164595808Y-74831223D01*
X165430004Y-74839945D01*
X166134992Y-74846582D01*
X166722665Y-74850870D01*
X167204913Y-74852544D01*
X167593629Y-74851339D01*
X167900704Y-74846992D01*
X168138031Y-74839238D01*
X168317500Y-74827813D01*
X168451005Y-74812452D01*
X168550435Y-74792891D01*
X168627684Y-74768866D01*
X168694643Y-74740111D01*
X168694671Y-74740098D01*
X168846388Y-74620220D01*
X168983546Y-74437633D01*
X168999593Y-74407808D01*
X169029564Y-74339541D01*
X169054171Y-74255593D01*
X169073827Y-74142760D01*
X169088950Y-73987839D01*
X169099954Y-73777625D01*
X169107255Y-73498914D01*
X169111268Y-73138503D01*
X169112409Y-72683186D01*
X169111093Y-72119762D01*
X169107735Y-71435024D01*
X169105426Y-71043945D01*
X169100692Y-70299096D01*
X169095985Y-69682297D01*
X169090648Y-69180488D01*
X169084025Y-68780609D01*
X169075459Y-68469600D01*
X169064293Y-68234400D01*
X169049870Y-68061952D01*
X169031535Y-67939193D01*
X169008629Y-67853065D01*
X168980497Y-67790508D01*
X168946481Y-67738462D01*
X168938669Y-67727834D01*
X168764879Y-67563304D01*
X168552752Y-67445266D01*
X168550613Y-67444510D01*
X168425671Y-67425466D01*
X168177103Y-67408527D01*
X167822383Y-67393748D01*
X167378980Y-67381179D01*
X166864366Y-67370876D01*
X166296014Y-67362889D01*
X165691393Y-67357273D01*
X165067976Y-67354079D01*
X164443233Y-67353362D01*
X163834637Y-67355173D01*
X163259658Y-67359565D01*
X162735768Y-67366592D01*
X162280439Y-67376306D01*
X161911141Y-67388760D01*
X161645346Y-67404007D01*
X161500525Y-67422099D01*
X161496427Y-67423175D01*
X161271880Y-67523872D01*
X161077869Y-67670331D01*
X161073094Y-67675339D01*
X160901944Y-67857448D01*
X160879989Y-70938641D01*
X160875017Y-71729790D01*
X160872971Y-72392412D01*
X159349722Y-72392412D01*
X159349722Y-67848936D01*
X159119125Y-67618274D01*
X158888528Y-67387611D01*
X155556070Y-67365648D01*
X154872093Y-67362138D01*
X154222183Y-67360711D01*
X153621849Y-67361268D01*
X153086598Y-67363707D01*
X152631938Y-67367927D01*
X152273379Y-67373829D01*
X152026426Y-67381310D01*
X151912279Y-67389330D01*
X151574540Y-67502365D01*
X151400057Y-67635866D01*
X151199167Y-67836756D01*
X149671928Y-67836756D01*
X149590732Y-67722919D01*
X149435673Y-67558570D01*
X149265139Y-67450010D01*
X149237954Y-67440697D01*
X149131470Y-67430226D01*
X148898236Y-67420441D01*
X148552610Y-67411547D01*
X148108952Y-67403749D01*
X147581622Y-67397253D01*
X146984979Y-67392265D01*
X146333382Y-67388991D01*
X145641192Y-67387636D01*
X145533025Y-67387611D01*
X142017440Y-67387611D01*
X141775942Y-67651159D01*
X141534444Y-67914706D01*
X139982222Y-67914706D01*
X139982222Y-67862966D01*
X139766385Y-67651946D01*
X139496824Y-67468096D01*
X139227371Y-67396630D01*
X139090170Y-67387386D01*
X138827950Y-67378796D01*
X138456804Y-67371064D01*
X137992824Y-67364395D01*
X137452102Y-67358992D01*
X136850730Y-67355061D01*
X136204800Y-67352806D01*
X135740469Y-67352334D01*
X134974771Y-67352858D01*
X134337152Y-67354720D01*
X133814584Y-67358352D01*
X133394036Y-67364187D01*
X133062479Y-67372657D01*
X132806885Y-67384196D01*
X132614225Y-67399236D01*
X132471468Y-67418209D01*
X132365587Y-67441548D01*
X132290383Y-67466912D01*
X132179125Y-67511912D01*
X132086015Y-67558295D01*
X132009439Y-67618225D01*
X131947781Y-67703869D01*
X131899426Y-67827389D01*
X131862758Y-68000951D01*
X131836164Y-68236720D01*
X131818028Y-68546861D01*
X131806735Y-68943537D01*
X131800669Y-69438914D01*
X131798216Y-70045156D01*
X131797761Y-70774428D01*
X130386248Y-70774428D01*
X130386091Y-70394555D01*
X130384944Y-69765502D01*
X130382443Y-69251625D01*
X130378066Y-68839954D01*
X130371294Y-68517523D01*
X130361605Y-68271364D01*
X130348479Y-68088509D01*
X130331396Y-67955990D01*
X130309836Y-67860839D01*
X130283278Y-67790088D01*
X130251201Y-67730769D01*
X130248961Y-67727080D01*
X130041716Y-67513718D01*
X129843531Y-67427612D01*
X129703259Y-67408646D01*
X129440985Y-67392521D01*
X129074118Y-67379198D01*
X128620066Y-67368634D01*
X128096235Y-67360790D01*
X127520033Y-67355623D01*
X126908869Y-67353093D01*
X126280149Y-67353158D01*
X125651282Y-67355777D01*
X125039674Y-67360909D01*
X124462735Y-67368513D01*
X123937870Y-67378547D01*
X123482488Y-67390971D01*
X123113997Y-67405744D01*
X122849804Y-67422823D01*
X122707317Y-67442168D01*
X122699595Y-67444510D01*
X122452536Y-67598516D01*
X122311539Y-67775667D01*
X122276944Y-67839292D01*
X122248353Y-67909943D01*
X122225195Y-68000894D01*
X122206899Y-68125419D01*
X122192893Y-68296791D01*
X122182605Y-68528284D01*
X122175465Y-68833170D01*
X122170900Y-69224723D01*
X122168340Y-69716217D01*
X122167212Y-70320926D01*
X122166945Y-71052121D01*
X122166944Y-71134091D01*
X120791514Y-71134091D01*
X120793103Y-70153264D01*
X120797694Y-69305794D01*
X120805302Y-68596836D01*
X120815953Y-68025106D01*
X120829670Y-67589320D01*
X120846480Y-67288195D01*
X120866408Y-67120446D01*
X120870027Y-67105389D01*
X120994903Y-66844373D01*
X121210319Y-66568268D01*
X121476896Y-66317059D01*
X121755255Y-66130736D01*
X121884722Y-66075006D01*
X121981822Y-66053570D01*
X122142295Y-66034605D01*
X122375324Y-66017834D01*
X122690090Y-66002982D01*
X123095776Y-65989773D01*
X123601563Y-65977930D01*
X124216633Y-65967177D01*
X124950169Y-65957240D01*
X125811352Y-65947842D01*
X126259166Y-65943566D01*
X130351388Y-65905945D01*
X130368086Y-64074027D01*
X131804731Y-64074027D01*
X131805904Y-64490290D01*
X131809892Y-64816127D01*
X131817164Y-65064211D01*
X131828188Y-65247212D01*
X131843435Y-65377800D01*
X131863373Y-65468648D01*
X131888471Y-65532425D01*
X131919199Y-65581802D01*
X131941319Y-65610787D01*
X132117000Y-65766687D01*
X132313744Y-65865564D01*
X132433500Y-65879949D01*
X132682872Y-65892444D01*
X133050373Y-65902884D01*
X133524520Y-65911105D01*
X134093826Y-65916941D01*
X134746807Y-65920228D01*
X135471977Y-65920800D01*
X136056538Y-65919348D01*
X139574465Y-65905945D01*
X139778343Y-65661665D01*
X139982222Y-65417386D01*
X139982222Y-62252429D01*
X141534708Y-62252429D01*
X141535029Y-62995253D01*
X141536223Y-63610207D01*
X141538841Y-64110528D01*
X141543438Y-64509457D01*
X141550565Y-64820233D01*
X141560776Y-65056096D01*
X141574622Y-65230284D01*
X141592657Y-65356037D01*
X141615434Y-65446595D01*
X141643505Y-65515198D01*
X141673131Y-65568092D01*
X141863595Y-65771883D01*
X142043284Y-65861590D01*
X142161280Y-65875635D01*
X142406299Y-65888864D01*
X142764257Y-65900988D01*
X143221067Y-65911723D01*
X143762643Y-65920781D01*
X144374900Y-65927876D01*
X145043752Y-65932722D01*
X145646571Y-65934859D01*
X146453121Y-65935717D01*
X147130229Y-65934785D01*
X147689554Y-65931760D01*
X148142757Y-65926341D01*
X148501500Y-65918226D01*
X148777442Y-65907112D01*
X148982244Y-65892696D01*
X149127566Y-65874678D01*
X149225070Y-65852754D01*
X149257056Y-65841282D01*
X149371767Y-65792693D01*
X149467306Y-65742920D01*
X149545518Y-65679385D01*
X149608245Y-65589507D01*
X149657334Y-65460706D01*
X149694629Y-65280401D01*
X149721975Y-65036012D01*
X149741216Y-64714959D01*
X149754197Y-64304661D01*
X149762763Y-63792539D01*
X149768758Y-63166012D01*
X149774027Y-62412500D01*
X149774711Y-62310977D01*
X149775558Y-62170289D01*
X151200555Y-62170289D01*
X151200719Y-62933059D01*
X151201569Y-63567404D01*
X151203641Y-64086007D01*
X151207472Y-64501555D01*
X151213597Y-64826733D01*
X151222553Y-65074225D01*
X151234876Y-65256718D01*
X151251102Y-65386896D01*
X151271768Y-65477445D01*
X151297409Y-65541049D01*
X151328563Y-65590394D01*
X151346105Y-65613340D01*
X151521954Y-65768218D01*
X151716522Y-65864720D01*
X151834850Y-65878641D01*
X152081675Y-65890852D01*
X152444389Y-65901168D01*
X152910386Y-65909404D01*
X153467058Y-65915378D01*
X154101800Y-65918904D01*
X154802003Y-65919798D01*
X155398611Y-65918503D01*
X156191176Y-65915307D01*
X156854815Y-65911667D01*
X157401711Y-65907127D01*
X157844049Y-65901226D01*
X158194013Y-65893506D01*
X158463787Y-65883510D01*
X158665556Y-65870777D01*
X158811504Y-65854850D01*
X158913815Y-65835270D01*
X158984673Y-65811578D01*
X159036264Y-65783316D01*
X159038986Y-65781483D01*
X159118759Y-65724280D01*
X159185222Y-65662259D01*
X159239588Y-65582787D01*
X159283071Y-65473227D01*
X159316883Y-65320944D01*
X159342238Y-65113301D01*
X159360349Y-64837664D01*
X159372430Y-64481397D01*
X159379694Y-64031865D01*
X159383355Y-63476431D01*
X159384625Y-62802460D01*
X159384736Y-62180819D01*
X159384440Y-61434637D01*
X159383318Y-60816376D01*
X159380816Y-60312848D01*
X159376377Y-59910864D01*
X159369446Y-59597234D01*
X159359467Y-59358770D01*
X159345884Y-59182283D01*
X159328141Y-59054583D01*
X159305684Y-58962482D01*
X159277955Y-58892790D01*
X159244400Y-58832319D01*
X159243592Y-58830992D01*
X159101928Y-58657993D01*
X158941080Y-58539410D01*
X158921763Y-58531131D01*
X158811475Y-58515893D01*
X158577017Y-58502550D01*
X158235309Y-58491109D01*
X157803267Y-58481573D01*
X157297811Y-58473951D01*
X156735859Y-58468247D01*
X156134329Y-58464468D01*
X155510139Y-58462619D01*
X154880208Y-58462708D01*
X154261454Y-58464738D01*
X153670794Y-58468718D01*
X153125148Y-58474652D01*
X152641434Y-58482546D01*
X152236570Y-58492407D01*
X151927473Y-58504241D01*
X151731064Y-58518053D01*
X151670535Y-58528567D01*
X151490868Y-58631318D01*
X151348441Y-58753538D01*
X151313843Y-58793741D01*
X151285110Y-58841780D01*
X151261698Y-58910238D01*
X151243062Y-59011697D01*
X151228657Y-59158741D01*
X151217939Y-59363953D01*
X151210364Y-59639915D01*
X151205386Y-59999210D01*
X151202460Y-60454422D01*
X151201044Y-61018134D01*
X151200591Y-61702927D01*
X151200555Y-62170289D01*
X149775558Y-62170289D01*
X149779227Y-61561211D01*
X149781462Y-60939166D01*
X149781047Y-60431462D01*
X149777615Y-60024722D01*
X149770798Y-59705569D01*
X149760228Y-59460622D01*
X149745537Y-59276506D01*
X149726357Y-59139841D01*
X149702322Y-59037249D01*
X149683139Y-58980447D01*
X149639652Y-58867816D01*
X149594583Y-58772811D01*
X149536310Y-58693935D01*
X149453207Y-58629687D01*
X149333651Y-58578569D01*
X149166019Y-58539079D01*
X148938687Y-58509721D01*
X148640031Y-58488992D01*
X148258427Y-58475396D01*
X147782252Y-58467431D01*
X147199881Y-58463598D01*
X146499692Y-58462399D01*
X145670059Y-58462334D01*
X145666654Y-58462334D01*
X144833790Y-58462557D01*
X144130448Y-58464096D01*
X143545036Y-58468257D01*
X143065964Y-58476346D01*
X142681641Y-58489668D01*
X142380478Y-58509528D01*
X142150884Y-58537232D01*
X141981269Y-58574085D01*
X141860042Y-58621393D01*
X141775613Y-58680462D01*
X141716392Y-58752596D01*
X141670788Y-58839102D01*
X141637738Y-58916139D01*
X141612132Y-58998517D01*
X141590965Y-59120163D01*
X141573851Y-59293554D01*
X141560405Y-59531169D01*
X141550243Y-59845486D01*
X141542977Y-60248982D01*
X141538224Y-60754135D01*
X141535598Y-61373424D01*
X141534713Y-62119326D01*
X141534708Y-62252429D01*
X139982222Y-62252429D01*
X139982222Y-58942111D01*
X139740471Y-58700361D01*
X139498720Y-58458610D01*
X135861476Y-58478111D01*
X132224231Y-58497611D01*
X132028643Y-58693192D01*
X131833055Y-58888772D01*
X131813408Y-62155984D01*
X131808952Y-62919546D01*
X131805903Y-63554670D01*
X131804731Y-64074027D01*
X130368086Y-64074027D01*
X130386760Y-62025389D01*
X130394782Y-61179737D01*
X130402476Y-60463702D01*
X130410285Y-59865793D01*
X130418651Y-59374520D01*
X130428017Y-58978391D01*
X130438825Y-58665913D01*
X130451519Y-58425598D01*
X130466540Y-58245951D01*
X130484333Y-58115484D01*
X130505338Y-58022704D01*
X130530000Y-57956119D01*
X130544616Y-57927678D01*
X130740015Y-57665593D01*
X131005137Y-57415216D01*
X131281296Y-57230550D01*
X131324847Y-57209698D01*
X131383611Y-57196277D01*
X131500635Y-57184189D01*
X131682005Y-57173375D01*
X131933810Y-57163777D01*
X132262136Y-57155337D01*
X132673072Y-57147997D01*
X133172705Y-57141698D01*
X133767122Y-57136383D01*
X134462412Y-57131993D01*
X135264661Y-57128470D01*
X136179958Y-57125755D01*
X137214389Y-57123791D01*
X138374043Y-57122519D01*
X139665007Y-57121881D01*
X140519347Y-57121778D01*
X142036175Y-57121234D01*
X143412731Y-57119598D01*
X144649851Y-57116864D01*
X145748370Y-57113024D01*
X146709125Y-57108072D01*
X147532949Y-57102001D01*
X148220678Y-57094805D01*
X148773149Y-57086477D01*
X149191196Y-57077010D01*
X149475654Y-57066397D01*
X149627360Y-57054632D01*
X149652971Y-57048740D01*
X149682681Y-57028721D01*
X149707736Y-56995574D01*
X149728534Y-56938015D01*
X149745469Y-56844760D01*
X149758938Y-56704526D01*
X149769337Y-56506028D01*
X149777061Y-56237982D01*
X149782508Y-55889106D01*
X149786072Y-55448114D01*
X149788150Y-54903723D01*
X149789138Y-54244649D01*
X149789432Y-53459609D01*
X149789444Y-53160094D01*
X149789444Y-50003536D01*
X151200555Y-50003536D01*
X151202124Y-53262796D01*
X151202474Y-54045282D01*
X151203580Y-54699022D01*
X151206756Y-55236378D01*
X151213317Y-55669714D01*
X151224576Y-56011393D01*
X151241849Y-56273778D01*
X151266448Y-56469233D01*
X151299689Y-56610120D01*
X151342884Y-56708804D01*
X151397350Y-56777646D01*
X151464399Y-56829011D01*
X151545345Y-56875262D01*
X151588611Y-56898774D01*
X151688981Y-56915759D01*
X151913834Y-56930851D01*
X152246556Y-56944018D01*
X152670531Y-56955233D01*
X153169143Y-56964464D01*
X153725778Y-56971683D01*
X154323820Y-56976860D01*
X154946654Y-56979965D01*
X155577664Y-56980968D01*
X156200236Y-56979840D01*
X156797753Y-56976551D01*
X157353602Y-56971072D01*
X157851166Y-56963372D01*
X158273830Y-56953422D01*
X158604979Y-56941193D01*
X158827998Y-56926654D01*
X158921763Y-56911870D01*
X159080023Y-56805697D01*
X159228979Y-56636467D01*
X159244769Y-56612009D01*
X159278362Y-56552949D01*
X159306091Y-56486415D01*
X159328425Y-56399377D01*
X159345838Y-56278804D01*
X159358799Y-56111666D01*
X159367779Y-55884932D01*
X159373250Y-55585572D01*
X159375683Y-55200557D01*
X159375549Y-54716854D01*
X159373319Y-54121435D01*
X159369463Y-53401269D01*
X159368274Y-53195655D01*
X159363674Y-52441634D01*
X159359048Y-51815987D01*
X159353789Y-51305978D01*
X159347288Y-50898870D01*
X159338937Y-50581926D01*
X159328129Y-50342411D01*
X159314253Y-50167589D01*
X159296703Y-50044722D01*
X159274871Y-49961075D01*
X159248147Y-49903912D01*
X159215924Y-49860496D01*
X159208611Y-49852167D01*
X159133877Y-49772259D01*
X159056197Y-49705524D01*
X158962835Y-49650776D01*
X158841058Y-49606828D01*
X158678131Y-49572495D01*
X158461321Y-49546591D01*
X158177894Y-49527931D01*
X157815115Y-49515329D01*
X157360250Y-49507598D01*
X156800566Y-49503554D01*
X156123329Y-49502010D01*
X155445785Y-49501778D01*
X154738708Y-49503358D01*
X154076165Y-49507900D01*
X153473086Y-49515108D01*
X152944401Y-49524686D01*
X152505041Y-49536338D01*
X152169936Y-49549769D01*
X151954017Y-49564683D01*
X151898102Y-49572093D01*
X151576000Y-49667146D01*
X151364635Y-49816998D01*
X151359305Y-49822972D01*
X151200555Y-50003536D01*
X149789444Y-50003536D01*
X149789444Y-49344485D01*
X149977212Y-48999493D01*
X150264600Y-48608004D01*
X150645379Y-48321786D01*
X150798180Y-48247028D01*
X150879938Y-48227904D01*
X151035982Y-48211540D01*
X151274290Y-48197780D01*
X151602838Y-48186472D01*
X152029602Y-48177462D01*
X152562561Y-48170597D01*
X153209690Y-48165722D01*
X153978967Y-48162683D01*
X154878368Y-48161328D01*
X155252203Y-48161223D01*
X156160675Y-48161172D01*
X156939249Y-48161663D01*
G36*
X133866091Y-68924140D02*
G01*
X133991494Y-68983678D01*
X133994565Y-68988173D01*
X134009284Y-69079757D01*
X134022089Y-69290622D01*
X134032887Y-69598951D01*
X134041585Y-69982926D01*
X134048090Y-70420729D01*
X134052309Y-70890543D01*
X134054148Y-71370549D01*
X134053513Y-71838929D01*
X134050313Y-72273866D01*
X134044453Y-72653542D01*
X134035840Y-72956139D01*
X134024382Y-73159840D01*
X134012729Y-73237952D01*
X133921563Y-73307878D01*
X133750314Y-73346062D01*
X133554274Y-73350721D01*
X133388732Y-73320068D01*
X133311431Y-73260590D01*
X133303444Y-73169900D01*
X133297354Y-72956337D01*
X133293289Y-72638128D01*
X133291378Y-72233501D01*
X133291747Y-71760682D01*
X133294524Y-71237900D01*
X133296007Y-71055729D01*
X133314722Y-68939834D01*
X133625229Y-68917618D01*
X133866091Y-68924140D01*
X133866091Y-68924140D01*
G37*
X133866091Y-68924140D02*
X133991494Y-68983678D01*
X133994565Y-68988173D01*
X134009284Y-69079757D01*
X134022089Y-69290622D01*
X134032887Y-69598951D01*
X134041585Y-69982926D01*
X134048090Y-70420729D01*
X134052309Y-70890543D01*
X134054148Y-71370549D01*
X134053513Y-71838929D01*
X134050313Y-72273866D01*
X134044453Y-72653542D01*
X134035840Y-72956139D01*
X134024382Y-73159840D01*
X134012729Y-73237952D01*
X133921563Y-73307878D01*
X133750314Y-73346062D01*
X133554274Y-73350721D01*
X133388732Y-73320068D01*
X133311431Y-73260590D01*
X133303444Y-73169900D01*
X133297354Y-72956337D01*
X133293289Y-72638128D01*
X133291378Y-72233501D01*
X133291747Y-71760682D01*
X133294524Y-71237900D01*
X133296007Y-71055729D01*
X133314722Y-68939834D01*
X133625229Y-68917618D01*
X133866091Y-68924140D01*
G36*
X136056836Y-68920848D02*
G01*
X136209073Y-68999970D01*
X136240295Y-69041029D01*
X136263249Y-69156071D01*
X136282335Y-69401599D01*
X136297183Y-69767033D01*
X136307423Y-70241789D01*
X136312685Y-70815288D01*
X136313333Y-71127056D01*
X136310630Y-71744797D01*
X136302767Y-72268947D01*
X136290116Y-72688926D01*
X136273047Y-72994151D01*
X136251930Y-73174042D01*
X136240295Y-73213083D01*
X136125859Y-73302333D01*
X135939558Y-73348358D01*
X135741170Y-73346919D01*
X135590476Y-73293776D01*
X135559536Y-73261361D01*
X135541838Y-73164906D01*
X135526743Y-72949398D01*
X135514314Y-72636874D01*
X135504620Y-72249370D01*
X135497725Y-71808922D01*
X135493697Y-71337565D01*
X135492601Y-70857338D01*
X135494504Y-70390274D01*
X135499472Y-69958411D01*
X135507571Y-69583784D01*
X135518866Y-69288429D01*
X135533426Y-69094383D01*
X135546817Y-69028028D01*
X135667160Y-68933780D01*
X135856683Y-68898419D01*
X136056836Y-68920848D01*
X136056836Y-68920848D01*
G37*
X136056836Y-68920848D02*
X136209073Y-68999970D01*
X136240295Y-69041029D01*
X136263249Y-69156071D01*
X136282335Y-69401599D01*
X136297183Y-69767033D01*
X136307423Y-70241789D01*
X136312685Y-70815288D01*
X136313333Y-71127056D01*
X136310630Y-71744797D01*
X136302767Y-72268947D01*
X136290116Y-72688926D01*
X136273047Y-72994151D01*
X136251930Y-73174042D01*
X136240295Y-73213083D01*
X136125859Y-73302333D01*
X135939558Y-73348358D01*
X135741170Y-73346919D01*
X135590476Y-73293776D01*
X135559536Y-73261361D01*
X135541838Y-73164906D01*
X135526743Y-72949398D01*
X135514314Y-72636874D01*
X135504620Y-72249370D01*
X135497725Y-71808922D01*
X135493697Y-71337565D01*
X135492601Y-70857338D01*
X135494504Y-70390274D01*
X135499472Y-69958411D01*
X135507571Y-69583784D01*
X135518866Y-69288429D01*
X135533426Y-69094383D01*
X135546817Y-69028028D01*
X135667160Y-68933780D01*
X135856683Y-68898419D01*
X136056836Y-68920848D01*
G36*
X138195770Y-68917642D02*
G01*
X138465277Y-68939834D01*
X138465277Y-73314278D01*
X138182738Y-73335127D01*
X137975829Y-73327729D01*
X137829299Y-73281575D01*
X137812321Y-73268100D01*
X137785163Y-73203736D01*
X137763679Y-73063195D01*
X137747393Y-72834843D01*
X137735830Y-72507043D01*
X137728512Y-72068158D01*
X137724963Y-71506554D01*
X137724444Y-71121584D01*
X137724646Y-70500506D01*
X137727275Y-70006339D01*
X137735369Y-69624885D01*
X137751963Y-69341946D01*
X137780094Y-69143322D01*
X137822799Y-69014816D01*
X137883114Y-68942229D01*
X137964075Y-68911362D01*
X138068718Y-68908017D01*
X138195770Y-68917642D01*
X138195770Y-68917642D01*
G37*
X138195770Y-68917642D02*
X138465277Y-68939834D01*
X138465277Y-73314278D01*
X138182738Y-73335127D01*
X137975829Y-73327729D01*
X137829299Y-73281575D01*
X137812321Y-73268100D01*
X137785163Y-73203736D01*
X137763679Y-73063195D01*
X137747393Y-72834843D01*
X137735830Y-72507043D01*
X137728512Y-72068158D01*
X137724963Y-71506554D01*
X137724444Y-71121584D01*
X137724646Y-70500506D01*
X137727275Y-70006339D01*
X137735369Y-69624885D01*
X137751963Y-69341946D01*
X137780094Y-69143322D01*
X137822799Y-69014816D01*
X137883114Y-68942229D01*
X137964075Y-68911362D01*
X138068718Y-68908017D01*
X138195770Y-68917642D01*
G36*
X162819659Y-68917642D02*
G01*
X163089166Y-68939834D01*
X163089166Y-73314278D01*
X162762920Y-73335420D01*
X162544966Y-73336059D01*
X162429630Y-73295695D01*
X162392503Y-73241455D01*
X162381150Y-73143404D01*
X162370877Y-72923201D01*
X162362075Y-72599803D01*
X162355133Y-72192165D01*
X162350442Y-71719245D01*
X162348392Y-71199999D01*
X162348333Y-71094647D01*
X162348554Y-70477724D01*
X162351278Y-69987628D01*
X162359598Y-69610079D01*
X162376605Y-69330794D01*
X162405393Y-69135490D01*
X162449051Y-69009886D01*
X162510674Y-68939700D01*
X162593352Y-68910649D01*
X162700179Y-68908452D01*
X162819659Y-68917642D01*
X162819659Y-68917642D01*
G37*
X162819659Y-68917642D02*
X163089166Y-68939834D01*
X163089166Y-73314278D01*
X162762920Y-73335420D01*
X162544966Y-73336059D01*
X162429630Y-73295695D01*
X162392503Y-73241455D01*
X162381150Y-73143404D01*
X162370877Y-72923201D01*
X162362075Y-72599803D01*
X162355133Y-72192165D01*
X162350442Y-71719245D01*
X162348392Y-71199999D01*
X162348333Y-71094647D01*
X162348554Y-70477724D01*
X162351278Y-69987628D01*
X162359598Y-69610079D01*
X162376605Y-69330794D01*
X162405393Y-69135490D01*
X162449051Y-69009886D01*
X162510674Y-68939700D01*
X162593352Y-68910649D01*
X162700179Y-68908452D01*
X162819659Y-68917642D01*
G36*
X165366717Y-70985945D02*
G01*
X165370490Y-71516583D01*
X165371403Y-72007058D01*
X165369622Y-72437970D01*
X165365314Y-72789921D01*
X165358647Y-73043512D01*
X165349787Y-73179344D01*
X165347734Y-73190806D01*
X165302175Y-73290731D01*
X165202445Y-73337446D01*
X165006758Y-73349527D01*
X164990608Y-73349556D01*
X164773695Y-73330451D01*
X164650704Y-73279161D01*
X164638098Y-73260590D01*
X164630110Y-73169900D01*
X164624021Y-72956337D01*
X164619956Y-72638128D01*
X164618045Y-72233501D01*
X164618414Y-71760682D01*
X164621191Y-71237900D01*
X164622674Y-71055729D01*
X164641388Y-68939834D01*
X165346944Y-68939834D01*
X165366717Y-70985945D01*
X165366717Y-70985945D01*
G37*
X165366717Y-70985945D02*
X165370490Y-71516583D01*
X165371403Y-72007058D01*
X165369622Y-72437970D01*
X165365314Y-72789921D01*
X165358647Y-73043512D01*
X165349787Y-73179344D01*
X165347734Y-73190806D01*
X165302175Y-73290731D01*
X165202445Y-73337446D01*
X165006758Y-73349527D01*
X164990608Y-73349556D01*
X164773695Y-73330451D01*
X164650704Y-73279161D01*
X164638098Y-73260590D01*
X164630110Y-73169900D01*
X164624021Y-72956337D01*
X164619956Y-72638128D01*
X164618045Y-72233501D01*
X164618414Y-71760682D01*
X164621191Y-71237900D01*
X164622674Y-71055729D01*
X164641388Y-68939834D01*
X165346944Y-68939834D01*
X165366717Y-70985945D01*
G36*
X167571454Y-73349556D02*
G01*
X167250735Y-73349556D01*
X167032378Y-73330553D01*
X166908725Y-73279405D01*
X166895876Y-73260590D01*
X166887888Y-73169900D01*
X166881798Y-72956337D01*
X166877734Y-72638128D01*
X166875823Y-72233501D01*
X166876192Y-71760682D01*
X166878969Y-71237900D01*
X166880451Y-71055729D01*
X166899166Y-68939834D01*
X167534166Y-68939834D01*
X167571454Y-73349556D01*
X167571454Y-73349556D01*
G37*
X167571454Y-73349556D02*
X167250735Y-73349556D01*
X167032378Y-73330553D01*
X166908725Y-73279405D01*
X166895876Y-73260590D01*
X166887888Y-73169900D01*
X166881798Y-72956337D01*
X166877734Y-72638128D01*
X166875823Y-72233501D01*
X166876192Y-71760682D01*
X166878969Y-71237900D01*
X166880451Y-71055729D01*
X166899166Y-68939834D01*
X167534166Y-68939834D01*
X167571454Y-73349556D01*
G36*
X124354733Y-68945168D02*
G01*
X124405445Y-69028505D01*
X124414616Y-69059813D01*
X124427960Y-69178814D01*
X124438741Y-69411908D01*
X124447002Y-69737222D01*
X124452789Y-70132882D01*
X124456147Y-70577015D01*
X124457121Y-71047747D01*
X124455755Y-71523204D01*
X124452095Y-71981514D01*
X124446186Y-72400801D01*
X124438072Y-72759194D01*
X124427799Y-73034817D01*
X124415412Y-73205798D01*
X124406002Y-73250847D01*
X124284757Y-73330027D01*
X124092296Y-73370185D01*
X123895879Y-73359463D01*
X123855429Y-73347933D01*
X123814911Y-73326969D01*
X123782821Y-73285132D01*
X123757784Y-73206524D01*
X123738422Y-73075244D01*
X123723358Y-72875396D01*
X123711216Y-72591080D01*
X123700619Y-72206398D01*
X123690191Y-71705452D01*
X123683888Y-71366967D01*
X123675831Y-70845355D01*
X123671068Y-70358702D01*
X123669592Y-69928249D01*
X123671394Y-69575237D01*
X123676465Y-69320906D01*
X123684757Y-69186778D01*
X123716173Y-69035333D01*
X123780141Y-68959718D01*
X123918984Y-68928525D01*
X124046031Y-68918702D01*
X124249056Y-68913976D01*
X124354733Y-68945168D01*
X124354733Y-68945168D01*
G37*
X124354733Y-68945168D02*
X124405445Y-69028505D01*
X124414616Y-69059813D01*
X124427960Y-69178814D01*
X124438741Y-69411908D01*
X124447002Y-69737222D01*
X124452789Y-70132882D01*
X124456147Y-70577015D01*
X124457121Y-71047747D01*
X124455755Y-71523204D01*
X124452095Y-71981514D01*
X124446186Y-72400801D01*
X124438072Y-72759194D01*
X124427799Y-73034817D01*
X124415412Y-73205798D01*
X124406002Y-73250847D01*
X124284757Y-73330027D01*
X124092296Y-73370185D01*
X123895879Y-73359463D01*
X123855429Y-73347933D01*
X123814911Y-73326969D01*
X123782821Y-73285132D01*
X123757784Y-73206524D01*
X123738422Y-73075244D01*
X123723358Y-72875396D01*
X123711216Y-72591080D01*
X123700619Y-72206398D01*
X123690191Y-71705452D01*
X123683888Y-71366967D01*
X123675831Y-70845355D01*
X123671068Y-70358702D01*
X123669592Y-69928249D01*
X123671394Y-69575237D01*
X123676465Y-69320906D01*
X123684757Y-69186778D01*
X123716173Y-69035333D01*
X123780141Y-68959718D01*
X123918984Y-68928525D01*
X124046031Y-68918702D01*
X124249056Y-68913976D01*
X124354733Y-68945168D01*
G36*
X126506686Y-68929020D02*
G01*
X126626774Y-69012079D01*
X126644739Y-69041029D01*
X126667693Y-69156071D01*
X126686779Y-69401599D01*
X126701628Y-69767033D01*
X126711868Y-70241789D01*
X126717129Y-70815288D01*
X126717777Y-71127056D01*
X126715074Y-71744797D01*
X126707212Y-72268947D01*
X126694561Y-72688926D01*
X126677491Y-72994151D01*
X126656374Y-73174042D01*
X126644739Y-73213083D01*
X126539548Y-73312610D01*
X126345005Y-73348688D01*
X126294444Y-73349556D01*
X126078567Y-73323997D01*
X125959108Y-73237742D01*
X125944149Y-73213083D01*
X125922782Y-73103025D01*
X125905074Y-72874708D01*
X125891048Y-72550938D01*
X125880727Y-72154523D01*
X125874134Y-71708266D01*
X125871294Y-71234975D01*
X125872229Y-70757455D01*
X125876963Y-70298513D01*
X125885519Y-69880953D01*
X125897920Y-69527583D01*
X125914190Y-69261208D01*
X125934352Y-69104633D01*
X125939920Y-69085538D01*
X126009368Y-68965233D01*
X126127172Y-68913753D01*
X126290215Y-68904556D01*
X126506686Y-68929020D01*
X126506686Y-68929020D01*
G37*
X126506686Y-68929020D02*
X126626774Y-69012079D01*
X126644739Y-69041029D01*
X126667693Y-69156071D01*
X126686779Y-69401599D01*
X126701628Y-69767033D01*
X126711868Y-70241789D01*
X126717129Y-70815288D01*
X126717777Y-71127056D01*
X126715074Y-71744797D01*
X126707212Y-72268947D01*
X126694561Y-72688926D01*
X126677491Y-72994151D01*
X126656374Y-73174042D01*
X126644739Y-73213083D01*
X126539548Y-73312610D01*
X126345005Y-73348688D01*
X126294444Y-73349556D01*
X126078567Y-73323997D01*
X125959108Y-73237742D01*
X125944149Y-73213083D01*
X125922782Y-73103025D01*
X125905074Y-72874708D01*
X125891048Y-72550938D01*
X125880727Y-72154523D01*
X125874134Y-71708266D01*
X125871294Y-71234975D01*
X125872229Y-70757455D01*
X125876963Y-70298513D01*
X125885519Y-69880953D01*
X125897920Y-69527583D01*
X125914190Y-69261208D01*
X125934352Y-69104633D01*
X125939920Y-69085538D01*
X126009368Y-68965233D01*
X126127172Y-68913753D01*
X126290215Y-68904556D01*
X126506686Y-68929020D01*
G36*
X128640582Y-68908478D02*
G01*
X128803751Y-68960351D01*
X128870930Y-69028028D01*
X128894175Y-69153654D01*
X128914453Y-69396770D01*
X128931544Y-69733782D01*
X128945230Y-70141095D01*
X128955290Y-70595115D01*
X128961504Y-71072247D01*
X128963654Y-71548897D01*
X128961519Y-72001471D01*
X128954879Y-72406374D01*
X128943516Y-72740012D01*
X128927209Y-72978791D01*
X128908752Y-73091241D01*
X128844178Y-73253519D01*
X128759896Y-73328063D01*
X128604776Y-73348760D01*
X128519021Y-73349556D01*
X128292142Y-73327490D01*
X128181241Y-73257288D01*
X128171715Y-73237952D01*
X128159539Y-73136667D01*
X128149447Y-72916530D01*
X128141439Y-72599784D01*
X128135514Y-72208673D01*
X128131674Y-71765440D01*
X128129917Y-71292328D01*
X128130243Y-70811582D01*
X128132654Y-70345445D01*
X128137148Y-69916160D01*
X128143726Y-69545970D01*
X128152387Y-69257119D01*
X128163132Y-69071851D01*
X128171715Y-69016160D01*
X128268879Y-68935437D01*
X128443730Y-68899858D01*
X128640582Y-68908478D01*
X128640582Y-68908478D01*
G37*
X128640582Y-68908478D02*
X128803751Y-68960351D01*
X128870930Y-69028028D01*
X128894175Y-69153654D01*
X128914453Y-69396770D01*
X128931544Y-69733782D01*
X128945230Y-70141095D01*
X128955290Y-70595115D01*
X128961504Y-71072247D01*
X128963654Y-71548897D01*
X128961519Y-72001471D01*
X128954879Y-72406374D01*
X128943516Y-72740012D01*
X128927209Y-72978791D01*
X128908752Y-73091241D01*
X128844178Y-73253519D01*
X128759896Y-73328063D01*
X128604776Y-73348760D01*
X128519021Y-73349556D01*
X128292142Y-73327490D01*
X128181241Y-73257288D01*
X128171715Y-73237952D01*
X128159539Y-73136667D01*
X128149447Y-72916530D01*
X128141439Y-72599784D01*
X128135514Y-72208673D01*
X128131674Y-71765440D01*
X128129917Y-71292328D01*
X128130243Y-70811582D01*
X128132654Y-70345445D01*
X128137148Y-69916160D01*
X128143726Y-69545970D01*
X128152387Y-69257119D01*
X128163132Y-69071851D01*
X128171715Y-69016160D01*
X128268879Y-68935437D01*
X128443730Y-68899858D01*
X128640582Y-68908478D01*
G36*
X143563666Y-68928753D02*
G01*
X143700921Y-68988282D01*
X143714091Y-69001262D01*
X143739215Y-69083634D01*
X143758119Y-69267735D01*
X143771022Y-69561362D01*
X143778142Y-69972313D01*
X143779694Y-70508384D01*
X143775899Y-71177374D01*
X143775647Y-71206123D01*
X143756944Y-73314278D01*
X143430698Y-73335420D01*
X143212743Y-73336059D01*
X143097408Y-73295695D01*
X143060281Y-73241455D01*
X143047798Y-73139263D01*
X143037495Y-72918362D01*
X143029373Y-72601138D01*
X143023429Y-72209975D01*
X143019662Y-71767258D01*
X143018070Y-71295374D01*
X143018651Y-70816707D01*
X143021404Y-70353642D01*
X143026328Y-69928565D01*
X143033420Y-69563861D01*
X143042679Y-69281915D01*
X143054103Y-69105112D01*
X143060581Y-69063306D01*
X143118020Y-68954925D01*
X143241144Y-68910365D01*
X143368478Y-68904556D01*
X143563666Y-68928753D01*
X143563666Y-68928753D01*
G37*
X143563666Y-68928753D02*
X143700921Y-68988282D01*
X143714091Y-69001262D01*
X143739215Y-69083634D01*
X143758119Y-69267735D01*
X143771022Y-69561362D01*
X143778142Y-69972313D01*
X143779694Y-70508384D01*
X143775899Y-71177374D01*
X143775647Y-71206123D01*
X143756944Y-73314278D01*
X143430698Y-73335420D01*
X143212743Y-73336059D01*
X143097408Y-73295695D01*
X143060281Y-73241455D01*
X143047798Y-73139263D01*
X143037495Y-72918362D01*
X143029373Y-72601138D01*
X143023429Y-72209975D01*
X143019662Y-71767258D01*
X143018070Y-71295374D01*
X143018651Y-70816707D01*
X143021404Y-70353642D01*
X143026328Y-69928565D01*
X143033420Y-69563861D01*
X143042679Y-69281915D01*
X143054103Y-69105112D01*
X143060581Y-69063306D01*
X143118020Y-68954925D01*
X143241144Y-68910365D01*
X143368478Y-68904556D01*
X143563666Y-68928753D01*
G36*
X146006882Y-69274973D02*
G01*
X146022060Y-69479322D01*
X146033003Y-69782647D01*
X146039934Y-70162069D01*
X146043076Y-70594707D01*
X146042651Y-71057681D01*
X146038881Y-71528113D01*
X146031990Y-71983122D01*
X146022199Y-72399828D01*
X146009732Y-72755352D01*
X145994811Y-73026814D01*
X145977658Y-73191334D01*
X145968450Y-73226084D01*
X145849076Y-73321483D01*
X145635509Y-73349556D01*
X145442125Y-73330240D01*
X145332684Y-73253799D01*
X145285214Y-73169847D01*
X145261404Y-73046748D01*
X145241487Y-72806019D01*
X145225538Y-72471089D01*
X145213633Y-72065387D01*
X145205845Y-71612344D01*
X145202251Y-71135388D01*
X145202924Y-70657948D01*
X145207941Y-70203454D01*
X145217375Y-69795335D01*
X145231303Y-69457021D01*
X145249798Y-69211941D01*
X145272142Y-69085538D01*
X145335963Y-68970432D01*
X145442215Y-68917680D01*
X145638562Y-68904577D01*
X145652068Y-68904556D01*
X145963185Y-68904556D01*
X146006882Y-69274973D01*
X146006882Y-69274973D01*
G37*
X146006882Y-69274973D02*
X146022060Y-69479322D01*
X146033003Y-69782647D01*
X146039934Y-70162069D01*
X146043076Y-70594707D01*
X146042651Y-71057681D01*
X146038881Y-71528113D01*
X146031990Y-71983122D01*
X146022199Y-72399828D01*
X146009732Y-72755352D01*
X145994811Y-73026814D01*
X145977658Y-73191334D01*
X145968450Y-73226084D01*
X145849076Y-73321483D01*
X145635509Y-73349556D01*
X145442125Y-73330240D01*
X145332684Y-73253799D01*
X145285214Y-73169847D01*
X145261404Y-73046748D01*
X145241487Y-72806019D01*
X145225538Y-72471089D01*
X145213633Y-72065387D01*
X145205845Y-71612344D01*
X145202251Y-71135388D01*
X145202924Y-70657948D01*
X145207941Y-70203454D01*
X145217375Y-69795335D01*
X145231303Y-69457021D01*
X145249798Y-69211941D01*
X145272142Y-69085538D01*
X145335963Y-68970432D01*
X145442215Y-68917680D01*
X145638562Y-68904577D01*
X145652068Y-68904556D01*
X145963185Y-68904556D01*
X146006882Y-69274973D01*
G36*
X148201944Y-68939834D02*
G01*
X148249338Y-69504278D01*
X148267090Y-69791643D01*
X148280352Y-70160552D01*
X148289235Y-70586991D01*
X148293848Y-71046942D01*
X148294303Y-71516392D01*
X148290710Y-71971325D01*
X148283178Y-72387726D01*
X148271819Y-72741579D01*
X148256743Y-73008869D01*
X148238060Y-73165580D01*
X148232420Y-73185797D01*
X148161903Y-73296254D01*
X148032501Y-73342750D01*
X147890354Y-73349556D01*
X147697921Y-73328984D01*
X147569154Y-73277911D01*
X147553469Y-73261361D01*
X147538067Y-73170466D01*
X147522675Y-72957091D01*
X147507992Y-72639864D01*
X147494716Y-72237415D01*
X147483548Y-71768374D01*
X147475187Y-71251368D01*
X147473872Y-71140163D01*
X147468442Y-70506688D01*
X147467945Y-70002191D01*
X147472744Y-69614611D01*
X147483203Y-69331890D01*
X147499685Y-69141967D01*
X147522555Y-69032783D01*
X147538326Y-69002364D01*
X147690832Y-68926349D01*
X147913621Y-68918702D01*
X148201944Y-68939834D01*
X148201944Y-68939834D01*
G37*
X148201944Y-68939834D02*
X148249338Y-69504278D01*
X148267090Y-69791643D01*
X148280352Y-70160552D01*
X148289235Y-70586991D01*
X148293848Y-71046942D01*
X148294303Y-71516392D01*
X148290710Y-71971325D01*
X148283178Y-72387726D01*
X148271819Y-72741579D01*
X148256743Y-73008869D01*
X148238060Y-73165580D01*
X148232420Y-73185797D01*
X148161903Y-73296254D01*
X148032501Y-73342750D01*
X147890354Y-73349556D01*
X147697921Y-73328984D01*
X147569154Y-73277911D01*
X147553469Y-73261361D01*
X147538067Y-73170466D01*
X147522675Y-72957091D01*
X147507992Y-72639864D01*
X147494716Y-72237415D01*
X147483548Y-71768374D01*
X147475187Y-71251368D01*
X147473872Y-71140163D01*
X147468442Y-70506688D01*
X147467945Y-70002191D01*
X147472744Y-69614611D01*
X147483203Y-69331890D01*
X147499685Y-69141967D01*
X147522555Y-69032783D01*
X147538326Y-69002364D01*
X147690832Y-68926349D01*
X147913621Y-68918702D01*
X148201944Y-68939834D01*
G36*
X153221217Y-68922239D02*
G01*
X153342312Y-68966101D01*
X153355409Y-68979818D01*
X153367447Y-69067781D01*
X153377857Y-69277773D01*
X153386255Y-69590717D01*
X153392258Y-69987539D01*
X153395482Y-70449160D01*
X153395543Y-70956505D01*
X153395489Y-70973013D01*
X153393755Y-71490983D01*
X153392150Y-71972456D01*
X153390744Y-72396425D01*
X153389606Y-72741881D01*
X153388806Y-72987818D01*
X153388416Y-73112021D01*
X153354998Y-73283980D01*
X153241807Y-73366492D01*
X153027523Y-73372251D01*
X152964444Y-73364442D01*
X152865260Y-73345693D01*
X152786642Y-73310525D01*
X152726203Y-73243919D01*
X152681558Y-73130857D01*
X152650319Y-72956322D01*
X152630102Y-72705294D01*
X152618519Y-72362756D01*
X152613184Y-71913689D01*
X152611712Y-71343076D01*
X152611666Y-71144210D01*
X152614346Y-70522748D01*
X152622146Y-69995411D01*
X152634703Y-69572615D01*
X152651656Y-69264776D01*
X152672643Y-69082310D01*
X152684704Y-69041029D01*
X152790702Y-68941126D01*
X152986713Y-68905302D01*
X153033318Y-68904556D01*
X153221217Y-68922239D01*
X153221217Y-68922239D01*
G37*
X153221217Y-68922239D02*
X153342312Y-68966101D01*
X153355409Y-68979818D01*
X153367447Y-69067781D01*
X153377857Y-69277773D01*
X153386255Y-69590717D01*
X153392258Y-69987539D01*
X153395482Y-70449160D01*
X153395543Y-70956505D01*
X153395489Y-70973013D01*
X153393755Y-71490983D01*
X153392150Y-71972456D01*
X153390744Y-72396425D01*
X153389606Y-72741881D01*
X153388806Y-72987818D01*
X153388416Y-73112021D01*
X153354998Y-73283980D01*
X153241807Y-73366492D01*
X153027523Y-73372251D01*
X152964444Y-73364442D01*
X152865260Y-73345693D01*
X152786642Y-73310525D01*
X152726203Y-73243919D01*
X152681558Y-73130857D01*
X152650319Y-72956322D01*
X152630102Y-72705294D01*
X152618519Y-72362756D01*
X152613184Y-71913689D01*
X152611712Y-71343076D01*
X152611666Y-71144210D01*
X152614346Y-70522748D01*
X152622146Y-69995411D01*
X152634703Y-69572615D01*
X152651656Y-69264776D01*
X152672643Y-69082310D01*
X152684704Y-69041029D01*
X152790702Y-68941126D01*
X152986713Y-68905302D01*
X153033318Y-68904556D01*
X153221217Y-68922239D01*
G36*
X155452380Y-68915488D02*
G01*
X155558461Y-68964891D01*
X155619990Y-69077674D01*
X155627318Y-69098584D01*
X155646049Y-69222980D01*
X155660912Y-69460137D01*
X155672013Y-69788225D01*
X155679457Y-70185416D01*
X155683349Y-70629881D01*
X155683794Y-71099790D01*
X155680897Y-71573317D01*
X155674764Y-72028630D01*
X155665499Y-72443903D01*
X155653207Y-72797306D01*
X155637994Y-73067011D01*
X155619964Y-73231188D01*
X155607228Y-73270592D01*
X155405468Y-73371033D01*
X155168201Y-73362022D01*
X155081111Y-73328324D01*
X154904722Y-73239624D01*
X154884257Y-71301396D01*
X154880319Y-70780258D01*
X154879606Y-70295151D01*
X154881918Y-69867046D01*
X154887053Y-69516916D01*
X154894809Y-69265734D01*
X154904985Y-69134472D01*
X154905093Y-69133861D01*
X154941566Y-68990749D01*
X155011776Y-68924356D01*
X155160241Y-68905408D01*
X155253794Y-68904556D01*
X155452380Y-68915488D01*
X155452380Y-68915488D01*
G37*
X155452380Y-68915488D02*
X155558461Y-68964891D01*
X155619990Y-69077674D01*
X155627318Y-69098584D01*
X155646049Y-69222980D01*
X155660912Y-69460137D01*
X155672013Y-69788225D01*
X155679457Y-70185416D01*
X155683349Y-70629881D01*
X155683794Y-71099790D01*
X155680897Y-71573317D01*
X155674764Y-72028630D01*
X155665499Y-72443903D01*
X155653207Y-72797306D01*
X155637994Y-73067011D01*
X155619964Y-73231188D01*
X155607228Y-73270592D01*
X155405468Y-73371033D01*
X155168201Y-73362022D01*
X155081111Y-73328324D01*
X154904722Y-73239624D01*
X154884257Y-71301396D01*
X154880319Y-70780258D01*
X154879606Y-70295151D01*
X154881918Y-69867046D01*
X154887053Y-69516916D01*
X154894809Y-69265734D01*
X154904985Y-69134472D01*
X154905093Y-69133861D01*
X154941566Y-68990749D01*
X155011776Y-68924356D01*
X155160241Y-68905408D01*
X155253794Y-68904556D01*
X155452380Y-68915488D01*
G36*
X157713869Y-68924140D02*
G01*
X157839271Y-68983678D01*
X157842343Y-68988173D01*
X157857386Y-69080148D01*
X157871081Y-69294678D01*
X157882913Y-69613212D01*
X157892365Y-70017196D01*
X157898920Y-70488079D01*
X157902062Y-71007308D01*
X157902252Y-71139655D01*
X157901720Y-71743514D01*
X157898898Y-72221648D01*
X157893010Y-72589433D01*
X157883276Y-72862246D01*
X157868918Y-73055466D01*
X157849159Y-73184468D01*
X157823219Y-73264630D01*
X157792460Y-73309238D01*
X157685240Y-73394173D01*
X157633710Y-73411764D01*
X157536558Y-73392332D01*
X157374166Y-73358154D01*
X157162500Y-73312892D01*
X157162500Y-68939834D01*
X157473007Y-68917618D01*
X157713869Y-68924140D01*
X157713869Y-68924140D01*
G37*
X157713869Y-68924140D02*
X157839271Y-68983678D01*
X157842343Y-68988173D01*
X157857386Y-69080148D01*
X157871081Y-69294678D01*
X157882913Y-69613212D01*
X157892365Y-70017196D01*
X157898920Y-70488079D01*
X157902062Y-71007308D01*
X157902252Y-71139655D01*
X157901720Y-71743514D01*
X157898898Y-72221648D01*
X157893010Y-72589433D01*
X157883276Y-72862246D01*
X157868918Y-73055466D01*
X157849159Y-73184468D01*
X157823219Y-73264630D01*
X157792460Y-73309238D01*
X157685240Y-73394173D01*
X157633710Y-73411764D01*
X157536558Y-73392332D01*
X157374166Y-73358154D01*
X157162500Y-73312892D01*
X157162500Y-68939834D01*
X157473007Y-68917618D01*
X157713869Y-68924140D01*
G36*
X133895446Y-59999638D02*
G01*
X133982517Y-60080473D01*
X134005931Y-60193494D01*
X134025021Y-60422420D01*
X134039845Y-60745528D01*
X134050462Y-61141092D01*
X134056931Y-61587389D01*
X134059312Y-62062694D01*
X134057661Y-62545283D01*
X134052039Y-63013432D01*
X134042505Y-63445416D01*
X134029116Y-63819511D01*
X134011933Y-64113993D01*
X133991013Y-64307137D01*
X133970888Y-64374889D01*
X133818142Y-64444078D01*
X133608129Y-64448481D01*
X133409464Y-64387076D01*
X133402916Y-64383349D01*
X133367498Y-64353199D01*
X133339537Y-64298482D01*
X133318164Y-64203888D01*
X133302508Y-64054108D01*
X133291697Y-63833831D01*
X133284861Y-63527747D01*
X133281130Y-63120546D01*
X133279633Y-62596917D01*
X133279444Y-62212383D01*
X133281178Y-61557173D01*
X133286641Y-61032974D01*
X133296222Y-60629726D01*
X133310313Y-60337369D01*
X133329301Y-60145842D01*
X133353579Y-60045087D01*
X133364111Y-60028667D01*
X133517195Y-59954309D01*
X133715450Y-59946404D01*
X133895446Y-59999638D01*
X133895446Y-59999638D01*
G37*
X133895446Y-59999638D02*
X133982517Y-60080473D01*
X134005931Y-60193494D01*
X134025021Y-60422420D01*
X134039845Y-60745528D01*
X134050462Y-61141092D01*
X134056931Y-61587389D01*
X134059312Y-62062694D01*
X134057661Y-62545283D01*
X134052039Y-63013432D01*
X134042505Y-63445416D01*
X134029116Y-63819511D01*
X134011933Y-64113993D01*
X133991013Y-64307137D01*
X133970888Y-64374889D01*
X133818142Y-64444078D01*
X133608129Y-64448481D01*
X133409464Y-64387076D01*
X133402916Y-64383349D01*
X133367498Y-64353199D01*
X133339537Y-64298482D01*
X133318164Y-64203888D01*
X133302508Y-64054108D01*
X133291697Y-63833831D01*
X133284861Y-63527747D01*
X133281130Y-63120546D01*
X133279633Y-62596917D01*
X133279444Y-62212383D01*
X133281178Y-61557173D01*
X133286641Y-61032974D01*
X133296222Y-60629726D01*
X133310313Y-60337369D01*
X133329301Y-60145842D01*
X133353579Y-60045087D01*
X133364111Y-60028667D01*
X133517195Y-59954309D01*
X133715450Y-59946404D01*
X133895446Y-59999638D01*
G36*
X136004939Y-59948362D02*
G01*
X136098408Y-59971013D01*
X136170798Y-60026298D01*
X136224800Y-60128565D01*
X136263104Y-60292159D01*
X136288400Y-60531427D01*
X136303377Y-60860715D01*
X136310726Y-61294370D01*
X136313137Y-61846738D01*
X136313333Y-62214037D01*
X136312764Y-62802651D01*
X136310409Y-63266239D01*
X136305291Y-63620887D01*
X136296437Y-63882677D01*
X136282872Y-64067693D01*
X136263619Y-64192020D01*
X136237706Y-64271741D01*
X136204156Y-64322940D01*
X136184305Y-64342787D01*
X136023972Y-64440100D01*
X135839541Y-64435648D01*
X135705786Y-64390432D01*
X135566564Y-64293314D01*
X135512193Y-64213878D01*
X135501114Y-64114995D01*
X135492269Y-63894380D01*
X135485916Y-63571396D01*
X135482309Y-63165408D01*
X135481706Y-62695781D01*
X135484361Y-62181879D01*
X135484740Y-62137343D01*
X135490957Y-61523758D01*
X135499428Y-61036695D01*
X135512833Y-60661564D01*
X135533853Y-60383778D01*
X135565167Y-60188746D01*
X135609457Y-60061882D01*
X135669403Y-59988595D01*
X135747683Y-59954297D01*
X135846980Y-59944400D01*
X135887703Y-59944000D01*
X136004939Y-59948362D01*
X136004939Y-59948362D01*
G37*
X136004939Y-59948362D02*
X136098408Y-59971013D01*
X136170798Y-60026298D01*
X136224800Y-60128565D01*
X136263104Y-60292159D01*
X136288400Y-60531427D01*
X136303377Y-60860715D01*
X136310726Y-61294370D01*
X136313137Y-61846738D01*
X136313333Y-62214037D01*
X136312764Y-62802651D01*
X136310409Y-63266239D01*
X136305291Y-63620887D01*
X136296437Y-63882677D01*
X136282872Y-64067693D01*
X136263619Y-64192020D01*
X136237706Y-64271741D01*
X136204156Y-64322940D01*
X136184305Y-64342787D01*
X136023972Y-64440100D01*
X135839541Y-64435648D01*
X135705786Y-64390432D01*
X135566564Y-64293314D01*
X135512193Y-64213878D01*
X135501114Y-64114995D01*
X135492269Y-63894380D01*
X135485916Y-63571396D01*
X135482309Y-63165408D01*
X135481706Y-62695781D01*
X135484361Y-62181879D01*
X135484740Y-62137343D01*
X135490957Y-61523758D01*
X135499428Y-61036695D01*
X135512833Y-60661564D01*
X135533853Y-60383778D01*
X135565167Y-60188746D01*
X135609457Y-60061882D01*
X135669403Y-59988595D01*
X135747683Y-59954297D01*
X135846980Y-59944400D01*
X135887703Y-59944000D01*
X136004939Y-59948362D01*
G36*
X138285616Y-59961978D02*
G01*
X138415888Y-60028667D01*
X138441619Y-60123450D01*
X138463067Y-60337608D01*
X138480233Y-60649472D01*
X138493117Y-61037370D01*
X138501718Y-61479632D01*
X138506038Y-61954589D01*
X138506075Y-62440568D01*
X138501830Y-62915900D01*
X138493302Y-63358914D01*
X138480493Y-63747940D01*
X138463401Y-64061308D01*
X138442027Y-64277346D01*
X138416371Y-64374384D01*
X138415888Y-64374889D01*
X138257882Y-64447753D01*
X138052138Y-64447513D01*
X137869615Y-64377374D01*
X137835317Y-64348683D01*
X137802947Y-64300541D01*
X137777420Y-64218007D01*
X137757959Y-64085770D01*
X137743787Y-63888517D01*
X137734126Y-63610937D01*
X137728200Y-63237717D01*
X137725232Y-62753545D01*
X137724444Y-62163943D01*
X137724845Y-61567992D01*
X137726707Y-61097611D01*
X137731017Y-60737262D01*
X137738764Y-60471404D01*
X137750935Y-60284499D01*
X137768518Y-60161006D01*
X137792501Y-60085385D01*
X137823871Y-60042099D01*
X137860917Y-60017038D01*
X138074175Y-59951931D01*
X138285616Y-59961978D01*
X138285616Y-59961978D01*
G37*
X138285616Y-59961978D02*
X138415888Y-60028667D01*
X138441619Y-60123450D01*
X138463067Y-60337608D01*
X138480233Y-60649472D01*
X138493117Y-61037370D01*
X138501718Y-61479632D01*
X138506038Y-61954589D01*
X138506075Y-62440568D01*
X138501830Y-62915900D01*
X138493302Y-63358914D01*
X138480493Y-63747940D01*
X138463401Y-64061308D01*
X138442027Y-64277346D01*
X138416371Y-64374384D01*
X138415888Y-64374889D01*
X138257882Y-64447753D01*
X138052138Y-64447513D01*
X137869615Y-64377374D01*
X137835317Y-64348683D01*
X137802947Y-64300541D01*
X137777420Y-64218007D01*
X137757959Y-64085770D01*
X137743787Y-63888517D01*
X137734126Y-63610937D01*
X137728200Y-63237717D01*
X137725232Y-62753545D01*
X137724444Y-62163943D01*
X137724845Y-61567992D01*
X137726707Y-61097611D01*
X137731017Y-60737262D01*
X137738764Y-60471404D01*
X137750935Y-60284499D01*
X137768518Y-60161006D01*
X137792501Y-60085385D01*
X137823871Y-60042099D01*
X137860917Y-60017038D01*
X138074175Y-59951931D01*
X138285616Y-59961978D01*
G36*
X143530016Y-59946922D02*
G01*
X143609451Y-59965265D01*
X143670966Y-60013391D01*
X143716853Y-60105665D01*
X143749401Y-60256451D01*
X143770901Y-60480113D01*
X143783642Y-60791015D01*
X143789916Y-61203520D01*
X143792013Y-61731993D01*
X143792222Y-62213407D01*
X143791829Y-62813493D01*
X143790005Y-63287906D01*
X143785780Y-63652080D01*
X143778184Y-63921451D01*
X143766249Y-64111456D01*
X143749004Y-64237531D01*
X143725481Y-64315111D01*
X143694710Y-64359633D01*
X143655749Y-64386518D01*
X143473893Y-64449309D01*
X143280242Y-64424737D01*
X143174861Y-64386802D01*
X143016111Y-64322992D01*
X143016111Y-62244369D01*
X143016679Y-61614715D01*
X143020099Y-61111907D01*
X143028937Y-60721679D01*
X143045764Y-60429764D01*
X143073149Y-60221899D01*
X143113659Y-60083817D01*
X143169865Y-60001253D01*
X143244336Y-59959941D01*
X143339640Y-59945616D01*
X143430373Y-59944000D01*
X143530016Y-59946922D01*
X143530016Y-59946922D01*
G37*
X143530016Y-59946922D02*
X143609451Y-59965265D01*
X143670966Y-60013391D01*
X143716853Y-60105665D01*
X143749401Y-60256451D01*
X143770901Y-60480113D01*
X143783642Y-60791015D01*
X143789916Y-61203520D01*
X143792013Y-61731993D01*
X143792222Y-62213407D01*
X143791829Y-62813493D01*
X143790005Y-63287906D01*
X143785780Y-63652080D01*
X143778184Y-63921451D01*
X143766249Y-64111456D01*
X143749004Y-64237531D01*
X143725481Y-64315111D01*
X143694710Y-64359633D01*
X143655749Y-64386518D01*
X143473893Y-64449309D01*
X143280242Y-64424737D01*
X143174861Y-64386802D01*
X143016111Y-64322992D01*
X143016111Y-62244369D01*
X143016679Y-61614715D01*
X143020099Y-61111907D01*
X143028937Y-60721679D01*
X143045764Y-60429764D01*
X143073149Y-60221899D01*
X143113659Y-60083817D01*
X143169865Y-60001253D01*
X143244336Y-59959941D01*
X143339640Y-59945616D01*
X143430373Y-59944000D01*
X143530016Y-59946922D01*
G36*
X145868023Y-59985270D02*
G01*
X145975603Y-60077935D01*
X145997385Y-60192099D01*
X146014261Y-60438341D01*
X146026007Y-60807704D01*
X146032394Y-61291232D01*
X146033198Y-61879970D01*
X146031002Y-62267766D01*
X146025274Y-62873063D01*
X146018190Y-63351967D01*
X146008904Y-63719194D01*
X145996570Y-63989462D01*
X145980339Y-64177487D01*
X145959367Y-64297986D01*
X145932807Y-64365676D01*
X145908888Y-64390529D01*
X145685835Y-64455148D01*
X145449799Y-64403959D01*
X145375568Y-64359317D01*
X145335919Y-64323841D01*
X145304749Y-64271564D01*
X145281041Y-64186601D01*
X145263781Y-64053065D01*
X145251951Y-63855071D01*
X145244536Y-63576733D01*
X145240520Y-63202165D01*
X145238886Y-62715483D01*
X145238611Y-62218146D01*
X145239885Y-61599900D01*
X145244128Y-61108669D01*
X145251973Y-60730376D01*
X145264051Y-60450943D01*
X145280993Y-60256294D01*
X145303432Y-60132352D01*
X145332000Y-60065039D01*
X145335444Y-60060607D01*
X145484674Y-59968491D01*
X145682259Y-59943921D01*
X145868023Y-59985270D01*
X145868023Y-59985270D01*
G37*
X145868023Y-59985270D02*
X145975603Y-60077935D01*
X145997385Y-60192099D01*
X146014261Y-60438341D01*
X146026007Y-60807704D01*
X146032394Y-61291232D01*
X146033198Y-61879970D01*
X146031002Y-62267766D01*
X146025274Y-62873063D01*
X146018190Y-63351967D01*
X146008904Y-63719194D01*
X145996570Y-63989462D01*
X145980339Y-64177487D01*
X145959367Y-64297986D01*
X145932807Y-64365676D01*
X145908888Y-64390529D01*
X145685835Y-64455148D01*
X145449799Y-64403959D01*
X145375568Y-64359317D01*
X145335919Y-64323841D01*
X145304749Y-64271564D01*
X145281041Y-64186601D01*
X145263781Y-64053065D01*
X145251951Y-63855071D01*
X145244536Y-63576733D01*
X145240520Y-63202165D01*
X145238886Y-62715483D01*
X145238611Y-62218146D01*
X145239885Y-61599900D01*
X145244128Y-61108669D01*
X145251973Y-60730376D01*
X145264051Y-60450943D01*
X145280993Y-60256294D01*
X145303432Y-60132352D01*
X145332000Y-60065039D01*
X145335444Y-60060607D01*
X145484674Y-59968491D01*
X145682259Y-59943921D01*
X145868023Y-59985270D01*
G36*
X147988419Y-59948271D02*
G01*
X148074297Y-59970670D01*
X148141079Y-60025575D01*
X148191364Y-60127365D01*
X148227752Y-60290418D01*
X148252841Y-60529112D01*
X148269233Y-60857827D01*
X148279526Y-61290941D01*
X148286321Y-61842832D01*
X148289526Y-62204426D01*
X148293294Y-62830324D01*
X148292659Y-63327349D01*
X148287211Y-63707682D01*
X148276541Y-63983506D01*
X148260238Y-64167000D01*
X148237893Y-64270348D01*
X148218971Y-64301114D01*
X148066367Y-64375924D01*
X147869319Y-64418830D01*
X147683414Y-64423771D01*
X147564240Y-64384687D01*
X147554807Y-64373526D01*
X147539179Y-64282168D01*
X147523650Y-64068243D01*
X147508912Y-63750297D01*
X147495655Y-63346874D01*
X147484571Y-62876517D01*
X147476351Y-62357772D01*
X147474883Y-62228323D01*
X147468899Y-61601128D01*
X147467200Y-61100719D01*
X147472329Y-60712781D01*
X147486829Y-60423001D01*
X147513245Y-60217063D01*
X147554121Y-60080653D01*
X147612000Y-59999457D01*
X147689427Y-59959161D01*
X147788945Y-59945449D01*
X147880844Y-59944000D01*
X147988419Y-59948271D01*
X147988419Y-59948271D01*
G37*
X147988419Y-59948271D02*
X148074297Y-59970670D01*
X148141079Y-60025575D01*
X148191364Y-60127365D01*
X148227752Y-60290418D01*
X148252841Y-60529112D01*
X148269233Y-60857827D01*
X148279526Y-61290941D01*
X148286321Y-61842832D01*
X148289526Y-62204426D01*
X148293294Y-62830324D01*
X148292659Y-63327349D01*
X148287211Y-63707682D01*
X148276541Y-63983506D01*
X148260238Y-64167000D01*
X148237893Y-64270348D01*
X148218971Y-64301114D01*
X148066367Y-64375924D01*
X147869319Y-64418830D01*
X147683414Y-64423771D01*
X147564240Y-64384687D01*
X147554807Y-64373526D01*
X147539179Y-64282168D01*
X147523650Y-64068243D01*
X147508912Y-63750297D01*
X147495655Y-63346874D01*
X147484571Y-62876517D01*
X147476351Y-62357772D01*
X147474883Y-62228323D01*
X147468899Y-61601128D01*
X147467200Y-61100719D01*
X147472329Y-60712781D01*
X147486829Y-60423001D01*
X147513245Y-60217063D01*
X147554121Y-60080653D01*
X147612000Y-59999457D01*
X147689427Y-59959161D01*
X147788945Y-59945449D01*
X147880844Y-59944000D01*
X147988419Y-59948271D01*
G36*
X153303572Y-60004627D02*
G01*
X153330855Y-60050259D01*
X153352440Y-60157295D01*
X153368853Y-60338606D01*
X153380622Y-60607063D01*
X153388273Y-60975540D01*
X153392333Y-61456908D01*
X153393328Y-62064039D01*
X153393214Y-62195164D01*
X153391270Y-62731291D01*
X153386993Y-63222351D01*
X153380736Y-63650441D01*
X153372852Y-63997660D01*
X153363696Y-64246106D01*
X153353620Y-64377879D01*
X153349783Y-64393395D01*
X153242228Y-64451206D01*
X153064698Y-64457130D01*
X152875936Y-64417112D01*
X152734684Y-64337095D01*
X152728435Y-64330528D01*
X152694012Y-64278903D01*
X152666992Y-64198300D01*
X152646507Y-64072784D01*
X152631685Y-63886420D01*
X152621660Y-63623275D01*
X152615561Y-63267414D01*
X152612520Y-62802904D01*
X152611667Y-62213810D01*
X152611666Y-62189519D01*
X152612235Y-61600905D01*
X152614590Y-61137317D01*
X152619708Y-60782669D01*
X152628562Y-60520879D01*
X152642127Y-60335863D01*
X152661380Y-60211536D01*
X152687293Y-60131815D01*
X152720843Y-60080616D01*
X152740694Y-60060769D01*
X152935132Y-59963944D01*
X153162743Y-59953924D01*
X153303572Y-60004627D01*
X153303572Y-60004627D01*
G37*
X153303572Y-60004627D02*
X153330855Y-60050259D01*
X153352440Y-60157295D01*
X153368853Y-60338606D01*
X153380622Y-60607063D01*
X153388273Y-60975540D01*
X153392333Y-61456908D01*
X153393328Y-62064039D01*
X153393214Y-62195164D01*
X153391270Y-62731291D01*
X153386993Y-63222351D01*
X153380736Y-63650441D01*
X153372852Y-63997660D01*
X153363696Y-64246106D01*
X153353620Y-64377879D01*
X153349783Y-64393395D01*
X153242228Y-64451206D01*
X153064698Y-64457130D01*
X152875936Y-64417112D01*
X152734684Y-64337095D01*
X152728435Y-64330528D01*
X152694012Y-64278903D01*
X152666992Y-64198300D01*
X152646507Y-64072784D01*
X152631685Y-63886420D01*
X152621660Y-63623275D01*
X152615561Y-63267414D01*
X152612520Y-62802904D01*
X152611667Y-62213810D01*
X152611666Y-62189519D01*
X152612235Y-61600905D01*
X152614590Y-61137317D01*
X152619708Y-60782669D01*
X152628562Y-60520879D01*
X152642127Y-60335863D01*
X152661380Y-60211536D01*
X152687293Y-60131815D01*
X152720843Y-60080616D01*
X152740694Y-60060769D01*
X152935132Y-59963944D01*
X153162743Y-59953924D01*
X153303572Y-60004627D01*
G36*
X155339505Y-59945867D02*
G01*
X155432504Y-59961105D01*
X155504720Y-60004169D01*
X155559030Y-60089514D01*
X155598311Y-60231595D01*
X155625439Y-60444867D01*
X155643290Y-60743784D01*
X155654742Y-61142802D01*
X155662672Y-61656376D01*
X155668686Y-62184367D01*
X155674622Y-62784121D01*
X155677257Y-63258395D01*
X155675916Y-63622795D01*
X155669922Y-63892926D01*
X155658601Y-64084395D01*
X155641276Y-64212808D01*
X155617271Y-64293771D01*
X155585912Y-64342891D01*
X155574748Y-64353950D01*
X155379764Y-64447260D01*
X155160428Y-64436411D01*
X154986213Y-64330528D01*
X154952040Y-64279296D01*
X154925159Y-64199271D01*
X154904720Y-64074657D01*
X154889874Y-63889657D01*
X154879774Y-63628474D01*
X154873569Y-63275311D01*
X154870411Y-62814372D01*
X154869452Y-62229861D01*
X154869444Y-62157417D01*
X154869979Y-61541016D01*
X154873133Y-61051184D01*
X154881227Y-60673380D01*
X154896584Y-60393060D01*
X154921524Y-60195683D01*
X154958370Y-60066708D01*
X155009444Y-59991593D01*
X155077067Y-59955794D01*
X155163562Y-59944772D01*
X155222848Y-59944000D01*
X155339505Y-59945867D01*
X155339505Y-59945867D01*
G37*
X155339505Y-59945867D02*
X155432504Y-59961105D01*
X155504720Y-60004169D01*
X155559030Y-60089514D01*
X155598311Y-60231595D01*
X155625439Y-60444867D01*
X155643290Y-60743784D01*
X155654742Y-61142802D01*
X155662672Y-61656376D01*
X155668686Y-62184367D01*
X155674622Y-62784121D01*
X155677257Y-63258395D01*
X155675916Y-63622795D01*
X155669922Y-63892926D01*
X155658601Y-64084395D01*
X155641276Y-64212808D01*
X155617271Y-64293771D01*
X155585912Y-64342891D01*
X155574748Y-64353950D01*
X155379764Y-64447260D01*
X155160428Y-64436411D01*
X154986213Y-64330528D01*
X154952040Y-64279296D01*
X154925159Y-64199271D01*
X154904720Y-64074657D01*
X154889874Y-63889657D01*
X154879774Y-63628474D01*
X154873569Y-63275311D01*
X154870411Y-62814372D01*
X154869452Y-62229861D01*
X154869444Y-62157417D01*
X154869979Y-61541016D01*
X154873133Y-61051184D01*
X154881227Y-60673380D01*
X154896584Y-60393060D01*
X154921524Y-60195683D01*
X154958370Y-60066708D01*
X155009444Y-59991593D01*
X155077067Y-59955794D01*
X155163562Y-59944772D01*
X155222848Y-59944000D01*
X155339505Y-59945867D01*
G36*
X157697969Y-59969816D02*
G01*
X157818666Y-60028667D01*
X157845163Y-60098333D01*
X157866167Y-60255303D01*
X157882071Y-60509657D01*
X157893272Y-60871475D01*
X157900164Y-61350839D01*
X157903142Y-61957829D01*
X157903333Y-62190472D01*
X157902739Y-62790238D01*
X157900366Y-63264452D01*
X157895331Y-63628670D01*
X157886748Y-63898448D01*
X157873733Y-64089342D01*
X157855400Y-64216908D01*
X157830866Y-64296703D01*
X157799244Y-64344282D01*
X157779861Y-64361339D01*
X157557000Y-64448819D01*
X157313828Y-64414444D01*
X157250694Y-64383349D01*
X157215275Y-64353199D01*
X157187315Y-64298482D01*
X157165942Y-64203888D01*
X157150285Y-64054108D01*
X157139475Y-63833831D01*
X157132639Y-63527747D01*
X157128908Y-63120546D01*
X157127410Y-62596917D01*
X157127222Y-62212383D01*
X157128956Y-61557173D01*
X157134419Y-61032974D01*
X157144000Y-60629726D01*
X157158090Y-60337369D01*
X157177079Y-60145842D01*
X157201357Y-60045087D01*
X157211888Y-60028667D01*
X157339305Y-59967941D01*
X157515277Y-59944000D01*
X157697969Y-59969816D01*
X157697969Y-59969816D01*
G37*
X157697969Y-59969816D02*
X157818666Y-60028667D01*
X157845163Y-60098333D01*
X157866167Y-60255303D01*
X157882071Y-60509657D01*
X157893272Y-60871475D01*
X157900164Y-61350839D01*
X157903142Y-61957829D01*
X157903333Y-62190472D01*
X157902739Y-62790238D01*
X157900366Y-63264452D01*
X157895331Y-63628670D01*
X157886748Y-63898448D01*
X157873733Y-64089342D01*
X157855400Y-64216908D01*
X157830866Y-64296703D01*
X157799244Y-64344282D01*
X157779861Y-64361339D01*
X157557000Y-64448819D01*
X157313828Y-64414444D01*
X157250694Y-64383349D01*
X157215275Y-64353199D01*
X157187315Y-64298482D01*
X157165942Y-64203888D01*
X157150285Y-64054108D01*
X157139475Y-63833831D01*
X157132639Y-63527747D01*
X157128908Y-63120546D01*
X157127410Y-62596917D01*
X157127222Y-62212383D01*
X157128956Y-61557173D01*
X157134419Y-61032974D01*
X157144000Y-60629726D01*
X157158090Y-60337369D01*
X157177079Y-60145842D01*
X157201357Y-60045087D01*
X157211888Y-60028667D01*
X157339305Y-59967941D01*
X157515277Y-59944000D01*
X157697969Y-59969816D01*
G36*
X153203346Y-51067310D02*
G01*
X153337584Y-51112485D01*
X153358239Y-51133843D01*
X153369657Y-51221192D01*
X153378751Y-51428105D01*
X153385593Y-51733056D01*
X153390252Y-52114519D01*
X153392799Y-52550967D01*
X153393304Y-53020874D01*
X153391837Y-53502714D01*
X153388468Y-53974961D01*
X153383267Y-54416088D01*
X153376305Y-54804568D01*
X153367651Y-55118876D01*
X153357377Y-55337485D01*
X153345551Y-55438868D01*
X153344195Y-55441881D01*
X153243212Y-55490790D01*
X153068852Y-55496884D01*
X152880451Y-55465294D01*
X152737350Y-55401151D01*
X152722539Y-55388127D01*
X152689825Y-55339468D01*
X152664106Y-55256116D01*
X152644579Y-55122574D01*
X152630439Y-54923343D01*
X152620883Y-54642924D01*
X152615106Y-54265818D01*
X152612307Y-53776527D01*
X152611666Y-53250294D01*
X152613487Y-52606316D01*
X152619219Y-52093280D01*
X152629269Y-51701060D01*
X152644043Y-51419529D01*
X152663947Y-51238562D01*
X152689386Y-51148034D01*
X152696333Y-51138667D01*
X152822495Y-51080840D01*
X153011575Y-51056908D01*
X153203346Y-51067310D01*
X153203346Y-51067310D01*
G37*
X153203346Y-51067310D02*
X153337584Y-51112485D01*
X153358239Y-51133843D01*
X153369657Y-51221192D01*
X153378751Y-51428105D01*
X153385593Y-51733056D01*
X153390252Y-52114519D01*
X153392799Y-52550967D01*
X153393304Y-53020874D01*
X153391837Y-53502714D01*
X153388468Y-53974961D01*
X153383267Y-54416088D01*
X153376305Y-54804568D01*
X153367651Y-55118876D01*
X153357377Y-55337485D01*
X153345551Y-55438868D01*
X153344195Y-55441881D01*
X153243212Y-55490790D01*
X153068852Y-55496884D01*
X152880451Y-55465294D01*
X152737350Y-55401151D01*
X152722539Y-55388127D01*
X152689825Y-55339468D01*
X152664106Y-55256116D01*
X152644579Y-55122574D01*
X152630439Y-54923343D01*
X152620883Y-54642924D01*
X152615106Y-54265818D01*
X152612307Y-53776527D01*
X152611666Y-53250294D01*
X152613487Y-52606316D01*
X152619219Y-52093280D01*
X152629269Y-51701060D01*
X152644043Y-51419529D01*
X152663947Y-51238562D01*
X152689386Y-51148034D01*
X152696333Y-51138667D01*
X152822495Y-51080840D01*
X153011575Y-51056908D01*
X153203346Y-51067310D01*
G36*
X155499665Y-51071873D02*
G01*
X155602100Y-51142373D01*
X155643079Y-51223876D01*
X155659824Y-51338030D01*
X155673019Y-51568104D01*
X155682772Y-51891935D01*
X155689191Y-52287361D01*
X155692386Y-52732219D01*
X155692462Y-53204347D01*
X155689530Y-53681581D01*
X155683697Y-54141760D01*
X155675072Y-54562720D01*
X155663762Y-54922300D01*
X155649876Y-55198336D01*
X155633523Y-55368665D01*
X155622634Y-55410806D01*
X155514399Y-55471724D01*
X155330582Y-55496116D01*
X155131986Y-55483661D01*
X154979417Y-55434038D01*
X154954111Y-55414334D01*
X154927459Y-55344317D01*
X154906367Y-55186662D01*
X154890435Y-54931264D01*
X154879261Y-54568021D01*
X154872445Y-54086831D01*
X154869589Y-53477590D01*
X154869444Y-53276500D01*
X154871232Y-52628422D01*
X154876864Y-52111310D01*
X154886739Y-51715061D01*
X154901257Y-51429574D01*
X154920819Y-51244744D01*
X154945824Y-51150470D01*
X154954111Y-51138667D01*
X155076384Y-51083091D01*
X155268950Y-51054879D01*
X155308635Y-51054000D01*
X155499665Y-51071873D01*
X155499665Y-51071873D01*
G37*
X155499665Y-51071873D02*
X155602100Y-51142373D01*
X155643079Y-51223876D01*
X155659824Y-51338030D01*
X155673019Y-51568104D01*
X155682772Y-51891935D01*
X155689191Y-52287361D01*
X155692386Y-52732219D01*
X155692462Y-53204347D01*
X155689530Y-53681581D01*
X155683697Y-54141760D01*
X155675072Y-54562720D01*
X155663762Y-54922300D01*
X155649876Y-55198336D01*
X155633523Y-55368665D01*
X155622634Y-55410806D01*
X155514399Y-55471724D01*
X155330582Y-55496116D01*
X155131986Y-55483661D01*
X154979417Y-55434038D01*
X154954111Y-55414334D01*
X154927459Y-55344317D01*
X154906367Y-55186662D01*
X154890435Y-54931264D01*
X154879261Y-54568021D01*
X154872445Y-54086831D01*
X154869589Y-53477590D01*
X154869444Y-53276500D01*
X154871232Y-52628422D01*
X154876864Y-52111310D01*
X154886739Y-51715061D01*
X154901257Y-51429574D01*
X154920819Y-51244744D01*
X154945824Y-51150470D01*
X154954111Y-51138667D01*
X155076384Y-51083091D01*
X155268950Y-51054879D01*
X155308635Y-51054000D01*
X155499665Y-51071873D01*
G36*
X157528878Y-51053968D02*
G01*
X157542215Y-51054000D01*
X157642592Y-51057088D01*
X157722399Y-51076025D01*
X157783995Y-51125327D01*
X157829738Y-51219508D01*
X157861986Y-51373081D01*
X157883096Y-51600560D01*
X157895429Y-51916460D01*
X157901341Y-52335294D01*
X157903191Y-52871576D01*
X157903333Y-53276500D01*
X157901545Y-53924579D01*
X157895913Y-54441691D01*
X157886038Y-54837939D01*
X157871520Y-55123427D01*
X157851958Y-55308256D01*
X157826953Y-55402531D01*
X157818666Y-55414334D01*
X157673298Y-55480520D01*
X157470207Y-55495155D01*
X157283030Y-55458239D01*
X157211888Y-55414334D01*
X157185505Y-55344922D01*
X157164566Y-55188453D01*
X157148683Y-54934862D01*
X157137463Y-54574085D01*
X157130516Y-54096057D01*
X157127450Y-53490715D01*
X157127222Y-53234660D01*
X157127069Y-52622613D01*
X157128463Y-52137065D01*
X157134185Y-51763412D01*
X157147013Y-51487046D01*
X157169727Y-51293363D01*
X157205108Y-51167755D01*
X157255933Y-51095618D01*
X157324983Y-51062345D01*
X157415038Y-51053330D01*
X157528878Y-51053968D01*
X157528878Y-51053968D01*
G37*
X157528878Y-51053968D02*
X157542215Y-51054000D01*
X157642592Y-51057088D01*
X157722399Y-51076025D01*
X157783995Y-51125327D01*
X157829738Y-51219508D01*
X157861986Y-51373081D01*
X157883096Y-51600560D01*
X157895429Y-51916460D01*
X157901341Y-52335294D01*
X157903191Y-52871576D01*
X157903333Y-53276500D01*
X157901545Y-53924579D01*
X157895913Y-54441691D01*
X157886038Y-54837939D01*
X157871520Y-55123427D01*
X157851958Y-55308256D01*
X157826953Y-55402531D01*
X157818666Y-55414334D01*
X157673298Y-55480520D01*
X157470207Y-55495155D01*
X157283030Y-55458239D01*
X157211888Y-55414334D01*
X157185505Y-55344922D01*
X157164566Y-55188453D01*
X157148683Y-54934862D01*
X157137463Y-54574085D01*
X157130516Y-54096057D01*
X157127450Y-53490715D01*
X157127222Y-53234660D01*
X157127069Y-52622613D01*
X157128463Y-52137065D01*
X157134185Y-51763412D01*
X157147013Y-51487046D01*
X157169727Y-51293363D01*
X157205108Y-51167755D01*
X157255933Y-51095618D01*
X157324983Y-51062345D01*
X157415038Y-51053330D01*
X157528878Y-51053968D01*
D11*
X141884400Y-89560400D03*
D12*
X139344400Y-89560400D03*
M02*
