G04 #@! TF.GenerationSoftware,KiCad,Pcbnew,(5.1.2)-1*
G04 #@! TF.CreationDate,2019-07-13T13:46:09+09:00*
G04 #@! TF.ProjectId,github,67697468-7562-42e6-9b69-6361645f7063,rev?*
G04 #@! TF.SameCoordinates,Original*
G04 #@! TF.FileFunction,Legend,Top*
G04 #@! TF.FilePolarity,Positive*
%FSLAX46Y46*%
G04 Gerber Fmt 4.6, Leading zero omitted, Abs format (unit mm)*
G04 Created by KiCad (PCBNEW (5.1.2)-1) date 2019-07-13 13:46:09*
%MOMM*%
%LPD*%
G04 APERTURE LIST*
%ADD10C,0.010000*%
G04 APERTURE END LIST*
D10*
G36*
X181384140Y-63834379D02*
G01*
X181464862Y-63841029D01*
X181792542Y-63871735D01*
X181936642Y-64068984D01*
X182022529Y-64202296D01*
X182086904Y-64330788D01*
X182107749Y-64393234D01*
X182139367Y-64503717D01*
X182191769Y-64651961D01*
X182231862Y-64753067D01*
X182289660Y-64904279D01*
X182357800Y-65101243D01*
X182424027Y-65308114D01*
X182441735Y-65366900D01*
X182500462Y-65561777D01*
X182559036Y-65750236D01*
X182607509Y-65900448D01*
X182620353Y-65938400D01*
X182660965Y-66071918D01*
X182709095Y-66253624D01*
X182755623Y-66448691D01*
X182764476Y-66488734D01*
X182805602Y-66665708D01*
X182846354Y-66820879D01*
X182879644Y-66927823D01*
X182887467Y-66947330D01*
X182911522Y-67028871D01*
X182941706Y-67172386D01*
X182973730Y-67355823D01*
X182996996Y-67510757D01*
X183027040Y-67710451D01*
X183057703Y-67887801D01*
X183084908Y-68020541D01*
X183100910Y-68078277D01*
X183139601Y-68228830D01*
X183172654Y-68459900D01*
X183199833Y-68767509D01*
X183220903Y-69147679D01*
X183235627Y-69596432D01*
X183243768Y-70109791D01*
X183245423Y-70510400D01*
X183243772Y-70982014D01*
X183238411Y-71381992D01*
X183228413Y-71723322D01*
X183212853Y-72018987D01*
X183190803Y-72281975D01*
X183161340Y-72525271D01*
X183123535Y-72761860D01*
X183076464Y-73004729D01*
X183063004Y-73068588D01*
X183020383Y-73269485D01*
X182978969Y-73467090D01*
X182945942Y-73627078D01*
X182938416Y-73664234D01*
X182892489Y-73866894D01*
X182829626Y-74108616D01*
X182755453Y-74371082D01*
X182675600Y-74635974D01*
X182595693Y-74884973D01*
X182521361Y-75099761D01*
X182458231Y-75262021D01*
X182427210Y-75328161D01*
X182411677Y-75397922D01*
X182443147Y-75486520D01*
X182497003Y-75573093D01*
X182580924Y-75687699D01*
X182658831Y-75779776D01*
X182681555Y-75802067D01*
X182734697Y-75858071D01*
X182830428Y-75967820D01*
X182958504Y-76118898D01*
X183108680Y-76298891D01*
X183270711Y-76495385D01*
X183434353Y-76695965D01*
X183589360Y-76888218D01*
X183725488Y-77059727D01*
X183819800Y-77181370D01*
X183925979Y-77324757D01*
X184054205Y-77503932D01*
X184189368Y-77697123D01*
X184316356Y-77882556D01*
X184420060Y-78038459D01*
X184474915Y-78125309D01*
X184619895Y-78364277D01*
X184727709Y-78537472D01*
X184793478Y-78638400D01*
X184860018Y-78745482D01*
X184946795Y-78897091D01*
X185045469Y-79077201D01*
X185147703Y-79269784D01*
X185245156Y-79458813D01*
X185329490Y-79628259D01*
X185392365Y-79762097D01*
X185425443Y-79844298D01*
X185428467Y-79858838D01*
X185457465Y-79916275D01*
X185489246Y-79948475D01*
X185540740Y-80024093D01*
X185578479Y-80133575D01*
X185622433Y-80269184D01*
X185683752Y-80395234D01*
X185747314Y-80516418D01*
X185813193Y-80665591D01*
X185831548Y-80712734D01*
X185950474Y-81032492D01*
X186042435Y-81281092D01*
X186110384Y-81466580D01*
X186157272Y-81597002D01*
X186180971Y-81665234D01*
X186220500Y-81781889D01*
X186271601Y-81932397D01*
X186295907Y-82003900D01*
X186350719Y-82176279D01*
X186406586Y-82368918D01*
X186427862Y-82448400D01*
X186471874Y-82616130D01*
X186525769Y-82817188D01*
X186569513Y-82977567D01*
X186620245Y-83182130D01*
X186669641Y-83414660D01*
X186701420Y-83591400D01*
X186731110Y-83760802D01*
X186762168Y-83908983D01*
X186788242Y-84005869D01*
X186789960Y-84010604D01*
X186806151Y-84081371D01*
X186830022Y-84222517D01*
X186859560Y-84420312D01*
X186892752Y-84661025D01*
X186927587Y-84930927D01*
X186941991Y-85047771D01*
X186974823Y-85325838D01*
X187000759Y-85569493D01*
X187020605Y-85794986D01*
X187035171Y-86018568D01*
X187045266Y-86256490D01*
X187051698Y-86525003D01*
X187055276Y-86840357D01*
X187056808Y-87218805D01*
X187057001Y-87359067D01*
X187055466Y-87761226D01*
X187050384Y-88155393D01*
X187042171Y-88525993D01*
X187031246Y-88857454D01*
X187018027Y-89134204D01*
X187004157Y-89327567D01*
X186981052Y-89585113D01*
X186953930Y-89894740D01*
X186925585Y-90224138D01*
X186898812Y-90540995D01*
X186888474Y-90665396D01*
X186864211Y-90933313D01*
X186836655Y-91195449D01*
X186808334Y-91430328D01*
X186781777Y-91616475D01*
X186766369Y-91702563D01*
X186728707Y-91911382D01*
X186695176Y-92143290D01*
X186678648Y-92290900D01*
X186657411Y-92461519D01*
X186622242Y-92680777D01*
X186578825Y-92914950D01*
X186550242Y-93052900D01*
X186504405Y-93266687D01*
X186461136Y-93473703D01*
X186426261Y-93645814D01*
X186410003Y-93730234D01*
X186367373Y-93933938D01*
X186305648Y-94191690D01*
X186229334Y-94487739D01*
X186142942Y-94806335D01*
X186050980Y-95131730D01*
X185957957Y-95448174D01*
X185868381Y-95739917D01*
X185786760Y-95991211D01*
X185717604Y-96186304D01*
X185681156Y-96276230D01*
X185624248Y-96425403D01*
X185580938Y-96574858D01*
X185574613Y-96604781D01*
X185547177Y-96710897D01*
X185516664Y-96774742D01*
X185511633Y-96779161D01*
X185481882Y-96827400D01*
X185436796Y-96933525D01*
X185386135Y-97074562D01*
X185386133Y-97074567D01*
X185335208Y-97215825D01*
X185289490Y-97322353D01*
X185258924Y-97371030D01*
X185224023Y-97422608D01*
X185182569Y-97522626D01*
X185173004Y-97551406D01*
X185111754Y-97716331D01*
X185016209Y-97937643D01*
X184894426Y-98198418D01*
X184754459Y-98481730D01*
X184604363Y-98770652D01*
X184509626Y-98945400D01*
X184427808Y-99095712D01*
X184353516Y-99235680D01*
X184311247Y-99318234D01*
X184257773Y-99414431D01*
X184173279Y-99553530D01*
X184074330Y-99708403D01*
X184055338Y-99737260D01*
X183966617Y-99873089D01*
X183899369Y-99979332D01*
X183864602Y-100038474D01*
X183862134Y-100044656D01*
X183839632Y-100084168D01*
X183780208Y-100174374D01*
X183695980Y-100296954D01*
X183682217Y-100316629D01*
X183583902Y-100457286D01*
X183497022Y-100582342D01*
X183439921Y-100665389D01*
X183438800Y-100667044D01*
X183230453Y-100956155D01*
X182972252Y-101284830D01*
X182678302Y-101637153D01*
X182362707Y-101997210D01*
X182039573Y-102349085D01*
X181723003Y-102676865D01*
X181427103Y-102964634D01*
X181298082Y-103082518D01*
X181005459Y-103337159D01*
X180693316Y-103597956D01*
X180371750Y-103857325D01*
X180050858Y-104107685D01*
X179740737Y-104341454D01*
X179451483Y-104551052D01*
X179193194Y-104728895D01*
X178975967Y-104867403D01*
X178809898Y-104958994D01*
X178782134Y-104971703D01*
X178665346Y-105038948D01*
X178591634Y-105096734D01*
X178483447Y-105177965D01*
X178401134Y-105223861D01*
X178304446Y-105272131D01*
X178171064Y-105343842D01*
X178083634Y-105392873D01*
X177967949Y-105455895D01*
X177796169Y-105545738D01*
X177588378Y-105652278D01*
X177364658Y-105765389D01*
X177145096Y-105874948D01*
X176949775Y-105970828D01*
X176798780Y-106042907D01*
X176750134Y-106065106D01*
X176645520Y-106115616D01*
X176580800Y-106151426D01*
X176487941Y-106201906D01*
X176355250Y-106265870D01*
X176206134Y-106333064D01*
X176063997Y-106393238D01*
X175952247Y-106436139D01*
X175895551Y-106451558D01*
X175824001Y-106472440D01*
X175722904Y-106523251D01*
X175710517Y-106530656D01*
X175590287Y-106591518D01*
X175437186Y-106653433D01*
X175371851Y-106675664D01*
X175221582Y-106725951D01*
X175034910Y-106792302D01*
X174866300Y-106855044D01*
X174687860Y-106921562D01*
X174510569Y-106984875D01*
X174379467Y-107029090D01*
X174232176Y-107077218D01*
X174095546Y-107123697D01*
X174061967Y-107135594D01*
X173960559Y-107168598D01*
X173807155Y-107214502D01*
X173631578Y-107264435D01*
X173596300Y-107274158D01*
X173427279Y-107322999D01*
X173281839Y-107369559D01*
X173185972Y-107405398D01*
X173172967Y-107411604D01*
X173075823Y-107448050D01*
X172944806Y-107480692D01*
X172918967Y-107485477D01*
X172786287Y-107513424D01*
X172614534Y-107556166D01*
X172474467Y-107594863D01*
X172117971Y-107691765D01*
X171706412Y-107791702D01*
X171331467Y-107874471D01*
X171156474Y-107911780D01*
X170939625Y-107958601D01*
X170721725Y-108006112D01*
X170675300Y-108016309D01*
X170296437Y-108095398D01*
X169883282Y-108174492D01*
X169481220Y-108245100D01*
X169278300Y-108277696D01*
X169117353Y-108303005D01*
X168909774Y-108336404D01*
X168692425Y-108371945D01*
X168622134Y-108383580D01*
X168393987Y-108420222D01*
X168172064Y-108452805D01*
X167936102Y-108483936D01*
X167665839Y-108516223D01*
X167341012Y-108552273D01*
X167164202Y-108571209D01*
X166873155Y-108605668D01*
X166661775Y-108642169D01*
X166525141Y-108686342D01*
X166458328Y-108743818D01*
X166456415Y-108820228D01*
X166514478Y-108921202D01*
X166627595Y-109052372D01*
X166688218Y-109115648D01*
X166991181Y-109447002D01*
X167290150Y-109811432D01*
X167564858Y-110182713D01*
X167795034Y-110534619D01*
X167828444Y-110590917D01*
X167911134Y-110740507D01*
X168011992Y-110934782D01*
X168122144Y-111155287D01*
X168232712Y-111383563D01*
X168334823Y-111601153D01*
X168419601Y-111789599D01*
X168478170Y-111930446D01*
X168494424Y-111975900D01*
X168535957Y-112092256D01*
X168573196Y-112174711D01*
X168581421Y-112187567D01*
X168610253Y-112249500D01*
X168649850Y-112364481D01*
X168678952Y-112462734D01*
X168729390Y-112636406D01*
X168784162Y-112813259D01*
X168808074Y-112886067D01*
X168862962Y-113067631D01*
X168925032Y-113303486D01*
X168987389Y-113564435D01*
X169043134Y-113821282D01*
X169085371Y-114044831D01*
X169093084Y-114092567D01*
X169115158Y-114232786D01*
X169146977Y-114431012D01*
X169184417Y-114661728D01*
X169223358Y-114899419D01*
X169226431Y-114918067D01*
X169320634Y-115489567D01*
X169320634Y-129374900D01*
X169479549Y-129699269D01*
X169700335Y-130058704D01*
X169979628Y-130358109D01*
X170314220Y-130595419D01*
X170700902Y-130768566D01*
X171136465Y-130875482D01*
X171345408Y-130901247D01*
X171536819Y-130924601D01*
X171653607Y-130958448D01*
X171705763Y-131010205D01*
X171703275Y-131087293D01*
X171679453Y-131149352D01*
X171638365Y-131203928D01*
X171559773Y-131250283D01*
X171426889Y-131296266D01*
X171282304Y-131335027D01*
X171074013Y-131387407D01*
X170854747Y-131442533D01*
X170668874Y-131489249D01*
X170654134Y-131492953D01*
X170465268Y-131544451D01*
X170268642Y-131604278D01*
X170152950Y-131643246D01*
X170002476Y-131689316D01*
X169863840Y-131718721D01*
X169802364Y-131724400D01*
X169694770Y-131737978D01*
X169545278Y-131773101D01*
X169425156Y-131809508D01*
X169243314Y-131865275D01*
X169051457Y-131915834D01*
X168950241Y-131938296D01*
X168800268Y-131969152D01*
X168605556Y-132011079D01*
X168403824Y-132055929D01*
X168368134Y-132064035D01*
X167881972Y-132173194D01*
X167472095Y-132261449D01*
X167133034Y-132329917D01*
X166859318Y-132379715D01*
X166698461Y-132404801D01*
X166525034Y-132432277D01*
X166373253Y-132461570D01*
X166271793Y-132487045D01*
X166261337Y-132490695D01*
X166175975Y-132511953D01*
X166030868Y-132537091D01*
X165850574Y-132562112D01*
X165750843Y-132573776D01*
X165534194Y-132600947D01*
X165313046Y-132634478D01*
X165125222Y-132668465D01*
X165074525Y-132679336D01*
X164922062Y-132707950D01*
X164714585Y-132738569D01*
X164481533Y-132767173D01*
X164291359Y-132786359D01*
X164051917Y-132810556D01*
X163806610Y-132840040D01*
X163587971Y-132870666D01*
X163457467Y-132892570D01*
X163303952Y-132915975D01*
X163088954Y-132941109D01*
X162835560Y-132965644D01*
X162566857Y-132987255D01*
X162420300Y-132997089D01*
X162123466Y-133017393D01*
X161800847Y-133042719D01*
X161485379Y-133070284D01*
X161209998Y-133097309D01*
X161129134Y-133106130D01*
X160955960Y-133120620D01*
X160708722Y-133134055D01*
X160398016Y-133146329D01*
X160034438Y-133157337D01*
X159628585Y-133166975D01*
X159191053Y-133175138D01*
X158732439Y-133181720D01*
X158263339Y-133186617D01*
X157794351Y-133189724D01*
X157336070Y-133190936D01*
X156899094Y-133190147D01*
X156494018Y-133187254D01*
X156131439Y-133182150D01*
X155821954Y-133174732D01*
X155576159Y-133164894D01*
X155519967Y-133161677D01*
X155272842Y-133144378D01*
X155026351Y-133123863D01*
X154807552Y-133102581D01*
X154643501Y-133082982D01*
X154630967Y-133081182D01*
X154492098Y-133064931D01*
X154288571Y-133046543D01*
X154040312Y-133027556D01*
X153767249Y-133009506D01*
X153518246Y-132995408D01*
X153206824Y-132977579D01*
X152966863Y-132959406D01*
X152785168Y-132939272D01*
X152648542Y-132915562D01*
X152543789Y-132886659D01*
X152502246Y-132871000D01*
X152392750Y-132834428D01*
X152257506Y-132807406D01*
X152079814Y-132787808D01*
X151842976Y-132773507D01*
X151688800Y-132767384D01*
X151446230Y-132755050D01*
X151212561Y-132736328D01*
X151011220Y-132713544D01*
X150865632Y-132689025D01*
X150842134Y-132683288D01*
X150696271Y-132651022D01*
X150498390Y-132616490D01*
X150280795Y-132585058D01*
X150170209Y-132571679D01*
X149974227Y-132547047D01*
X149799631Y-132520106D01*
X149670197Y-132494780D01*
X149621777Y-132481132D01*
X149534681Y-132457980D01*
X149386930Y-132428673D01*
X149201884Y-132397567D01*
X149066035Y-132377521D01*
X148856851Y-132345167D01*
X148657279Y-132308603D01*
X148495925Y-132273330D01*
X148429134Y-132255005D01*
X148263032Y-132211275D01*
X148079518Y-132175505D01*
X148026967Y-132167970D01*
X147872562Y-132142251D01*
X147681664Y-132101773D01*
X147518967Y-132061389D01*
X147311277Y-132008167D01*
X147081065Y-131953404D01*
X146926300Y-131919240D01*
X146620147Y-131851478D01*
X146276614Y-131769509D01*
X145919946Y-131679593D01*
X145574387Y-131587992D01*
X145264182Y-131500966D01*
X145021300Y-131427266D01*
X144848023Y-131376959D01*
X144673365Y-131334615D01*
X144578653Y-131316567D01*
X144425572Y-131270750D01*
X144299460Y-131193182D01*
X144219819Y-131099581D01*
X144203997Y-131014601D01*
X144228107Y-130976403D01*
X144293320Y-130946378D01*
X144414256Y-130920053D01*
X144598494Y-130893836D01*
X145063313Y-130805201D01*
X145464678Y-130662977D01*
X145806823Y-130464438D01*
X146093980Y-130206857D01*
X146330383Y-129887506D01*
X146423800Y-129718015D01*
X146507263Y-129533783D01*
X146559066Y-129364241D01*
X146590093Y-129168898D01*
X146600179Y-129061745D01*
X146604291Y-128966502D01*
X146607785Y-128793193D01*
X146610646Y-128548414D01*
X146612861Y-128238763D01*
X146614418Y-127870838D01*
X146615302Y-127451236D01*
X146615502Y-126986555D01*
X146615004Y-126483392D01*
X146613794Y-125948346D01*
X146611860Y-125388013D01*
X146609188Y-124808992D01*
X146608800Y-124735288D01*
X146604955Y-124048965D01*
X146601135Y-123442623D01*
X146597248Y-122911576D01*
X146593203Y-122451138D01*
X146588907Y-122056625D01*
X146584270Y-121723350D01*
X146579198Y-121446627D01*
X146573600Y-121221770D01*
X146567385Y-121044095D01*
X146560460Y-120908916D01*
X146552733Y-120811546D01*
X146544113Y-120747300D01*
X146534509Y-120711492D01*
X146529774Y-120703328D01*
X146481274Y-120667701D01*
X146403589Y-120652917D01*
X146284520Y-120659924D01*
X146111868Y-120689669D01*
X145873434Y-120743102D01*
X145804467Y-120759701D01*
X145590217Y-120804488D01*
X145351450Y-120843591D01*
X145169467Y-120865485D01*
X144956216Y-120889932D01*
X144723689Y-120924439D01*
X144555634Y-120955003D01*
X144266323Y-121002691D01*
X143907791Y-121042867D01*
X143493213Y-121075456D01*
X143035767Y-121100382D01*
X142548629Y-121117570D01*
X142044978Y-121126947D01*
X141537990Y-121128436D01*
X141040842Y-121121962D01*
X140566712Y-121107452D01*
X140128775Y-121084829D01*
X139740211Y-121054019D01*
X139414195Y-121014946D01*
X139242800Y-120985233D01*
X139031815Y-120944251D01*
X138791304Y-120900519D01*
X138586634Y-120865709D01*
X138307593Y-120814800D01*
X138015190Y-120751589D01*
X137733347Y-120682008D01*
X137485988Y-120611987D01*
X137297036Y-120547456D01*
X137287619Y-120543703D01*
X137159978Y-120497047D01*
X137058188Y-120468232D01*
X137026234Y-120463734D01*
X136954766Y-120447668D01*
X136819508Y-120402922D01*
X136634274Y-120334672D01*
X136412876Y-120248094D01*
X136169128Y-120148363D01*
X136046634Y-120096653D01*
X135296824Y-119737309D01*
X134574471Y-119313074D01*
X133891769Y-118832788D01*
X133260912Y-118305288D01*
X132694095Y-117739412D01*
X132516950Y-117538456D01*
X132366042Y-117360694D01*
X132257750Y-117231078D01*
X132179433Y-117133608D01*
X132118446Y-117052282D01*
X132062147Y-116971099D01*
X132027360Y-116918836D01*
X131936186Y-116783524D01*
X131831175Y-116631467D01*
X131793518Y-116577930D01*
X131703830Y-116442281D01*
X131647370Y-116346085D01*
X137254775Y-116346085D01*
X137254854Y-116369697D01*
X137266799Y-116525351D01*
X137308583Y-116638470D01*
X137372272Y-116725323D01*
X137609774Y-116941363D01*
X137886852Y-117083870D01*
X138198667Y-117151391D01*
X138540378Y-117142476D01*
X138680987Y-117117907D01*
X138797745Y-117070235D01*
X140936134Y-117070235D01*
X140955920Y-117221967D01*
X141021497Y-117350037D01*
X141142191Y-117462944D01*
X141327329Y-117569185D01*
X141586238Y-117677258D01*
X141613467Y-117687361D01*
X141727455Y-117703229D01*
X141893032Y-117695557D01*
X142081720Y-117668331D01*
X142265041Y-117625541D01*
X142402112Y-117576924D01*
X142610177Y-117454118D01*
X142759238Y-117304313D01*
X142838713Y-117139555D01*
X142848814Y-117068353D01*
X142836289Y-116924538D01*
X142777844Y-116797750D01*
X142682214Y-116686957D01*
X144408967Y-116686957D01*
X144432516Y-116857631D01*
X144507977Y-116992204D01*
X144648141Y-117108667D01*
X144751070Y-117168164D01*
X145031042Y-117270083D01*
X145325629Y-117291079D01*
X145624032Y-117230993D01*
X145744934Y-117182900D01*
X145872928Y-117126513D01*
X145969105Y-117088122D01*
X146006805Y-117077066D01*
X146054133Y-117044816D01*
X146126546Y-116964213D01*
X146205517Y-116859469D01*
X146272514Y-116754800D01*
X146305072Y-116687296D01*
X146320651Y-116519283D01*
X146254799Y-116342196D01*
X146163149Y-116218258D01*
X146001786Y-116096797D01*
X145782226Y-116020318D01*
X145519929Y-115992053D01*
X145230352Y-116015229D01*
X145209137Y-116018920D01*
X144948336Y-116092147D01*
X144726390Y-116205772D01*
X144554837Y-116350163D01*
X144445216Y-116515687D01*
X144408967Y-116686957D01*
X142682214Y-116686957D01*
X142660339Y-116661614D01*
X142633062Y-116635184D01*
X142479844Y-116538323D01*
X142268207Y-116471383D01*
X142019596Y-116436166D01*
X141755453Y-116434477D01*
X141497222Y-116468117D01*
X141304493Y-116523492D01*
X141217229Y-116577686D01*
X141112411Y-116670518D01*
X141071097Y-116714631D01*
X140981996Y-116834280D01*
X140943121Y-116950940D01*
X140936134Y-117070235D01*
X138797745Y-117070235D01*
X138875339Y-117038554D01*
X139025882Y-116902104D01*
X139115047Y-116725604D01*
X139123710Y-116688371D01*
X139113188Y-116533970D01*
X139035428Y-116365309D01*
X138901891Y-116199354D01*
X138724037Y-116053067D01*
X138672649Y-116020760D01*
X138517469Y-115936719D01*
X138382621Y-115888268D01*
X138228006Y-115863711D01*
X138105809Y-115855414D01*
X137828504Y-115857513D01*
X137612803Y-115898089D01*
X137443006Y-115981089D01*
X137369550Y-116040537D01*
X137297836Y-116121624D01*
X137263644Y-116211801D01*
X137254775Y-116346085D01*
X131647370Y-116346085D01*
X131625489Y-116308805D01*
X131600732Y-116260430D01*
X131536667Y-116132159D01*
X131474829Y-116018734D01*
X131427354Y-115927867D01*
X131360480Y-115788165D01*
X131288069Y-115628649D01*
X131282745Y-115616567D01*
X131207303Y-115448353D01*
X131133600Y-115289590D01*
X131077312Y-115174033D01*
X131076304Y-115172067D01*
X131016596Y-115038358D01*
X130972732Y-114910231D01*
X130969991Y-114899482D01*
X130921451Y-114768692D01*
X130864460Y-114666649D01*
X130796785Y-114547470D01*
X130741532Y-114417067D01*
X134201033Y-114417067D01*
X134202001Y-114582616D01*
X134220139Y-114724738D01*
X134228194Y-114754702D01*
X134314409Y-114921236D01*
X134459111Y-115094696D01*
X134640409Y-115255400D01*
X134836413Y-115383667D01*
X135007159Y-115455067D01*
X135178275Y-115484426D01*
X135363253Y-115487307D01*
X135533490Y-115465952D01*
X135660383Y-115422605D01*
X135690609Y-115401453D01*
X135747024Y-115322738D01*
X135802462Y-115203921D01*
X135813964Y-115171571D01*
X135842199Y-115065003D01*
X135844940Y-114967503D01*
X135820391Y-114845286D01*
X135791264Y-114744209D01*
X135738029Y-114594159D01*
X135671736Y-114477743D01*
X135571773Y-114364708D01*
X135466714Y-114267843D01*
X135324361Y-114153885D01*
X135181674Y-114058976D01*
X135068059Y-114002541D01*
X135062072Y-114000570D01*
X134831693Y-113953969D01*
X134614573Y-113956707D01*
X134428592Y-114005326D01*
X134291632Y-114096370D01*
X134246284Y-114158277D01*
X134216154Y-114263739D01*
X134201033Y-114417067D01*
X130741532Y-114417067D01*
X130739809Y-114413001D01*
X130739746Y-114412816D01*
X130690218Y-114295120D01*
X130636531Y-114205627D01*
X130632790Y-114201149D01*
X130581937Y-114117604D01*
X130531533Y-113997997D01*
X130524397Y-113976740D01*
X130482748Y-113869421D01*
X130443207Y-113801826D01*
X130435584Y-113795070D01*
X130395371Y-113745583D01*
X130337481Y-113647492D01*
X130309565Y-113593397D01*
X130232708Y-113442374D01*
X130154572Y-113300908D01*
X130061753Y-113146227D01*
X129940850Y-112955558D01*
X129868364Y-112843734D01*
X129756861Y-112671754D01*
X129646488Y-112500307D01*
X129557454Y-112360806D01*
X129541608Y-112335734D01*
X129453639Y-112202564D01*
X129367349Y-112081965D01*
X129334015Y-112039400D01*
X129295489Y-111991159D01*
X132046134Y-111991159D01*
X132055515Y-112153122D01*
X132092661Y-112283419D01*
X132171070Y-112426451D01*
X132185263Y-112448707D01*
X132351207Y-112667124D01*
X132529696Y-112833458D01*
X132686629Y-112925199D01*
X132831360Y-112958046D01*
X133010530Y-112966391D01*
X133178288Y-112949721D01*
X133244683Y-112931423D01*
X133350010Y-112848455D01*
X133415004Y-112703491D01*
X133437371Y-112510175D01*
X133414816Y-112282151D01*
X133378735Y-112134247D01*
X133320222Y-111985314D01*
X133231132Y-111857875D01*
X133092985Y-111723399D01*
X132870275Y-111563057D01*
X132654657Y-111474365D01*
X132454452Y-111458233D01*
X132277977Y-111515570D01*
X132154519Y-111620754D01*
X132087846Y-111718070D01*
X132055175Y-111826526D01*
X132046150Y-111981513D01*
X132046134Y-111991159D01*
X129295489Y-111991159D01*
X129254223Y-111939488D01*
X129156824Y-111813032D01*
X129120104Y-111764234D01*
X128829609Y-111395677D01*
X128507013Y-111022661D01*
X128164750Y-110657361D01*
X127815251Y-110311949D01*
X127470949Y-109998602D01*
X127199327Y-109774842D01*
X130295248Y-109774842D01*
X130368887Y-109993828D01*
X130525921Y-110201758D01*
X130526868Y-110202725D01*
X130730053Y-110369976D01*
X130941297Y-110472019D01*
X131146806Y-110504007D01*
X131300854Y-110474757D01*
X131465169Y-110375552D01*
X131559718Y-110234560D01*
X131582995Y-110060084D01*
X131533493Y-109860430D01*
X131442884Y-109691792D01*
X131281180Y-109504335D01*
X131074806Y-109348872D01*
X130853082Y-109245708D01*
X130767037Y-109223705D01*
X130605999Y-109232891D01*
X130457472Y-109308641D01*
X130346415Y-109433773D01*
X130304172Y-109542333D01*
X130295248Y-109774842D01*
X127199327Y-109774842D01*
X127144279Y-109729494D01*
X126847671Y-109516799D01*
X126783605Y-109476275D01*
X126643608Y-109386326D01*
X126513398Y-109296172D01*
X126459994Y-109255984D01*
X126371189Y-109192582D01*
X126309225Y-109160889D01*
X126303856Y-109160086D01*
X126252310Y-109137134D01*
X126155146Y-109078185D01*
X126055967Y-109011542D01*
X125910184Y-108909916D01*
X125733625Y-108787170D01*
X125569134Y-108673078D01*
X125330686Y-108492872D01*
X125087782Y-108283083D01*
X124872600Y-108074413D01*
X128407056Y-108074413D01*
X128448217Y-108227814D01*
X128556598Y-108374560D01*
X128714979Y-108501809D01*
X128906141Y-108596716D01*
X129112863Y-108646438D01*
X129179737Y-108650713D01*
X129292486Y-108632581D01*
X129428083Y-108584928D01*
X129465487Y-108567206D01*
X129573005Y-108502720D01*
X129621698Y-108437371D01*
X129632855Y-108344956D01*
X129593051Y-108174871D01*
X129485618Y-108014156D01*
X129327484Y-107876522D01*
X129135574Y-107775677D01*
X128926817Y-107725329D01*
X128863798Y-107722122D01*
X128675219Y-107751106D01*
X128526398Y-107831757D01*
X128432475Y-107952397D01*
X128407056Y-108074413D01*
X124872600Y-108074413D01*
X124861952Y-108064088D01*
X124674731Y-107856261D01*
X124591992Y-107748406D01*
X124510130Y-107621538D01*
X124466523Y-107513578D01*
X124449553Y-107385985D01*
X124447300Y-107268416D01*
X124451112Y-107114143D01*
X124467659Y-107018695D01*
X124504608Y-106956380D01*
X124553134Y-106913786D01*
X124651327Y-106835250D01*
X124722813Y-106772736D01*
X124810452Y-106719036D01*
X124913313Y-106683417D01*
X125024606Y-106651917D01*
X125173991Y-106601982D01*
X125272800Y-106565743D01*
X125365917Y-106533531D01*
X125461722Y-106509989D01*
X125575517Y-106493746D01*
X125722606Y-106483430D01*
X125918289Y-106477670D01*
X126177870Y-106475094D01*
X126288800Y-106474685D01*
X126553831Y-106474510D01*
X126765948Y-106477281D01*
X126944175Y-106485527D01*
X127107537Y-106501774D01*
X127275057Y-106528551D01*
X127465759Y-106568386D01*
X127698665Y-106623807D01*
X127992802Y-106697341D01*
X128024467Y-106705322D01*
X128273165Y-106775543D01*
X128535257Y-106865565D01*
X128823186Y-106980583D01*
X129149393Y-107125787D01*
X129526321Y-107306369D01*
X129836805Y-107461565D01*
X129954970Y-107527984D01*
X130121231Y-107629885D01*
X130314684Y-107753681D01*
X130514426Y-107885784D01*
X130699555Y-108012607D01*
X130839612Y-108113400D01*
X131281479Y-108467825D01*
X131731214Y-108873590D01*
X132171703Y-109312854D01*
X132585831Y-109767777D01*
X132956483Y-110220518D01*
X133245347Y-110621234D01*
X133346871Y-110773421D01*
X133438600Y-110910961D01*
X133503882Y-111008886D01*
X133513552Y-111023400D01*
X133580835Y-111126353D01*
X133664026Y-111256101D01*
X133690934Y-111298567D01*
X133924711Y-111644260D01*
X134203001Y-112015450D01*
X134510525Y-112394357D01*
X134832004Y-112763201D01*
X135152160Y-113104201D01*
X135455715Y-113399577D01*
X135623300Y-113547320D01*
X135798430Y-113691933D01*
X135977320Y-113835286D01*
X136146888Y-113967395D01*
X136294057Y-114078271D01*
X136405746Y-114157928D01*
X136468875Y-114196378D01*
X136476003Y-114198400D01*
X136526645Y-114223879D01*
X136585920Y-114271058D01*
X136674519Y-114340000D01*
X136793223Y-114419572D01*
X136822087Y-114437284D01*
X136940197Y-114504303D01*
X137099823Y-114589596D01*
X137285048Y-114685271D01*
X137479957Y-114783436D01*
X137668632Y-114876199D01*
X137835158Y-114955667D01*
X137963617Y-115013949D01*
X138038093Y-115043152D01*
X138047827Y-115045067D01*
X138114061Y-115061294D01*
X138223821Y-115102292D01*
X138278584Y-115125731D01*
X138515951Y-115219510D01*
X138797947Y-115312790D01*
X139088121Y-115394693D01*
X139350021Y-115454338D01*
X139421649Y-115466906D01*
X139584069Y-115495943D01*
X139725767Y-115527002D01*
X139808434Y-115550836D01*
X139964455Y-115590987D01*
X140191429Y-115623202D01*
X140476021Y-115647544D01*
X140804896Y-115664080D01*
X141164718Y-115672875D01*
X141542154Y-115673994D01*
X141923867Y-115667502D01*
X142296524Y-115653464D01*
X142646788Y-115631946D01*
X142961326Y-115603013D01*
X143226801Y-115566730D01*
X143391467Y-115533312D01*
X143577845Y-115493242D01*
X143779198Y-115458932D01*
X143857134Y-115448576D01*
X144028960Y-115420932D01*
X144229281Y-115377697D01*
X144365134Y-115342120D01*
X144559907Y-115286502D01*
X144769611Y-115227634D01*
X144894300Y-115193208D01*
X145254203Y-115091856D01*
X145537165Y-115005503D01*
X145740932Y-114934860D01*
X145832031Y-114896672D01*
X145938811Y-114853184D01*
X146018467Y-114832809D01*
X146022531Y-114832619D01*
X146096694Y-114813865D01*
X146218591Y-114766129D01*
X146365159Y-114700458D01*
X146513332Y-114627898D01*
X146640046Y-114559494D01*
X146722235Y-114506291D01*
X146739041Y-114489490D01*
X146761078Y-114420503D01*
X146784598Y-114295508D01*
X146802664Y-114157421D01*
X146830633Y-113974861D01*
X146876277Y-113757965D01*
X146929919Y-113552526D01*
X146932045Y-113545357D01*
X146979100Y-113376169D01*
X147014272Y-113227912D01*
X147031395Y-113127231D01*
X147032134Y-113113007D01*
X147047419Y-113019007D01*
X147086503Y-112884799D01*
X147117123Y-112800581D01*
X147174527Y-112643353D01*
X147223688Y-112489212D01*
X147240096Y-112428597D01*
X147280301Y-112297988D01*
X147347881Y-112113676D01*
X147433417Y-111898211D01*
X147527490Y-111674145D01*
X147620683Y-111464027D01*
X147703576Y-111290409D01*
X147756273Y-111192734D01*
X147795801Y-111120295D01*
X147856277Y-111002894D01*
X147898999Y-110917567D01*
X147968013Y-110782264D01*
X148030331Y-110666971D01*
X148057189Y-110621234D01*
X148193717Y-110405468D01*
X148293185Y-110249836D01*
X148363320Y-110142623D01*
X148411849Y-110072113D01*
X148446499Y-110026589D01*
X148459518Y-110011253D01*
X148512653Y-109946760D01*
X148600281Y-109836291D01*
X148705526Y-109701176D01*
X148730544Y-109668734D01*
X148869917Y-109496962D01*
X149035437Y-109306400D01*
X149192318Y-109137040D01*
X149198789Y-109130382D01*
X149331902Y-108983699D01*
X149411663Y-108873086D01*
X149432043Y-108806979D01*
X149431373Y-108804935D01*
X149390423Y-108758546D01*
X149300124Y-108716982D01*
X149152362Y-108678278D01*
X148939025Y-108640467D01*
X148652002Y-108601583D01*
X148534967Y-108587627D01*
X148194444Y-108547224D01*
X147912247Y-108511437D01*
X147662441Y-108476612D01*
X147419090Y-108439092D01*
X147156259Y-108395223D01*
X147095634Y-108384770D01*
X146886469Y-108348910D01*
X146672943Y-108312888D01*
X146494206Y-108283297D01*
X146460634Y-108277852D01*
X146126527Y-108221170D01*
X145783216Y-108157922D01*
X145454188Y-108092755D01*
X145162931Y-108030314D01*
X144940445Y-107977191D01*
X144771291Y-107936350D01*
X144624315Y-107905912D01*
X144526242Y-107891290D01*
X144513658Y-107890734D01*
X144426268Y-107878966D01*
X144289536Y-107848284D01*
X144150013Y-107810185D01*
X143949987Y-107753316D01*
X143729078Y-107694062D01*
X143603134Y-107662086D01*
X143455837Y-107624782D01*
X143281776Y-107578351D01*
X143068846Y-107519421D01*
X142804947Y-107444619D01*
X142477975Y-107350572D01*
X142290800Y-107296364D01*
X141956784Y-107195851D01*
X141663603Y-107100425D01*
X141426456Y-107015197D01*
X141295952Y-106961690D01*
X141154151Y-106905660D01*
X141017694Y-106862716D01*
X140993170Y-106856796D01*
X140866096Y-106817375D01*
X140723723Y-106757723D01*
X140698484Y-106745278D01*
X140585889Y-106693906D01*
X140500062Y-106665229D01*
X140483620Y-106663067D01*
X140417891Y-106646407D01*
X140304319Y-106603407D01*
X140206821Y-106561077D01*
X140053326Y-106492479D01*
X139861984Y-106409100D01*
X139673183Y-106328533D01*
X139666134Y-106325566D01*
X139509004Y-106257918D01*
X139377347Y-106198390D01*
X139294815Y-106157749D01*
X139285134Y-106152120D01*
X139191328Y-106100877D01*
X139158134Y-106085762D01*
X139080237Y-106050042D01*
X138948009Y-105986251D01*
X138782509Y-105904857D01*
X138604792Y-105816326D01*
X138435916Y-105731126D01*
X138296937Y-105659725D01*
X138233031Y-105625900D01*
X137836434Y-105407740D01*
X137483791Y-105206767D01*
X137186305Y-105029490D01*
X136972760Y-104894102D01*
X136642893Y-104675069D01*
X136376800Y-104496756D01*
X136176452Y-104360498D01*
X136043818Y-104267633D01*
X135988525Y-104226088D01*
X135928799Y-104177663D01*
X135819345Y-104089481D01*
X135676523Y-103974706D01*
X135538634Y-103864086D01*
X135000908Y-103417435D01*
X134494400Y-102965767D01*
X134030104Y-102519668D01*
X133619018Y-102089724D01*
X133272138Y-101686522D01*
X133257060Y-101667734D01*
X133162385Y-101550977D01*
X133081493Y-101454042D01*
X133046228Y-101413734D01*
X132949270Y-101298483D01*
X132817392Y-101127423D01*
X132661707Y-100915799D01*
X132493333Y-100678857D01*
X132323385Y-100431845D01*
X132243775Y-100313067D01*
X132143256Y-100161662D01*
X132050064Y-100021309D01*
X131983188Y-99920603D01*
X131979532Y-99915099D01*
X131731797Y-99519612D01*
X131471559Y-99062859D01*
X131209623Y-98564971D01*
X130956791Y-98046076D01*
X130841288Y-97794234D01*
X130766735Y-97628765D01*
X130692874Y-97465751D01*
X130649612Y-97370900D01*
X130583559Y-97218876D01*
X130515782Y-97051287D01*
X130500404Y-97011067D01*
X130446176Y-96867287D01*
X130378298Y-96688053D01*
X130324105Y-96545400D01*
X130256551Y-96357868D01*
X130183050Y-96138552D01*
X130124105Y-95949996D01*
X130074343Y-95790315D01*
X130029184Y-95658582D01*
X129997084Y-95579197D01*
X129993117Y-95571976D01*
X129965453Y-95504022D01*
X129926359Y-95379759D01*
X129883990Y-95225247D01*
X129881344Y-95214880D01*
X129786200Y-94842095D01*
X129707464Y-94537430D01*
X129641430Y-94286763D01*
X129584387Y-94075973D01*
X129547065Y-93941900D01*
X129504803Y-93774809D01*
X129474539Y-93622460D01*
X129462872Y-93518567D01*
X129451921Y-93422382D01*
X129423111Y-93270312D01*
X129381576Y-93087958D01*
X129357173Y-92991636D01*
X129310386Y-92792879D01*
X129274325Y-92600442D01*
X129254397Y-92444988D01*
X129252134Y-92395982D01*
X129243004Y-92265489D01*
X129218617Y-92084025D01*
X129183471Y-91882948D01*
X129166774Y-91801080D01*
X129128825Y-91593105D01*
X129091486Y-91335803D01*
X129059458Y-91064415D01*
X129040115Y-90851567D01*
X129019551Y-90585465D01*
X128996068Y-90293982D01*
X128972894Y-90016628D01*
X128957114Y-89835567D01*
X128894691Y-89025342D01*
X128854324Y-88241588D01*
X128836025Y-87494192D01*
X128839804Y-86793045D01*
X128865672Y-86148035D01*
X128913639Y-85569051D01*
X128952143Y-85263567D01*
X128983891Y-85033648D01*
X129010530Y-84819631D01*
X129029649Y-84642465D01*
X129038841Y-84523096D01*
X129039301Y-84505671D01*
X129049403Y-84394842D01*
X129075717Y-84227763D01*
X129113823Y-84030297D01*
X129144219Y-83891837D01*
X129192290Y-83681110D01*
X129237828Y-83476460D01*
X129274421Y-83306949D01*
X129289936Y-83231567D01*
X129362092Y-82903898D01*
X129445664Y-82583445D01*
X129531665Y-82303909D01*
X129555257Y-82236734D01*
X129610853Y-82070050D01*
X129658970Y-81902332D01*
X129677373Y-81825277D01*
X129723771Y-81663827D01*
X129788268Y-81503181D01*
X129797412Y-81484641D01*
X129859521Y-81337871D01*
X129905050Y-81187104D01*
X129909565Y-81165380D01*
X129937078Y-81057859D01*
X129967513Y-80992301D01*
X129973301Y-80986973D01*
X130003127Y-80938695D01*
X130048192Y-80832665D01*
X130097887Y-80694311D01*
X130152888Y-80547945D01*
X130208197Y-80431166D01*
X130249352Y-80372087D01*
X130302142Y-80292653D01*
X130310467Y-80249790D01*
X130316060Y-80218195D01*
X130335278Y-80164195D01*
X130371773Y-80080238D01*
X130429202Y-79958772D01*
X130511219Y-79792246D01*
X130621478Y-79573108D01*
X130763636Y-79293807D01*
X130936671Y-78955900D01*
X131012084Y-78830500D01*
X131100646Y-78709235D01*
X131166183Y-78617878D01*
X131198692Y-78549044D01*
X131199467Y-78542178D01*
X131221269Y-78479650D01*
X131275808Y-78380550D01*
X131298876Y-78344342D01*
X131479982Y-78071022D01*
X131620201Y-77861193D01*
X131724649Y-77707267D01*
X131798439Y-77601655D01*
X131813300Y-77581083D01*
X131901114Y-77457869D01*
X131980773Y-77342600D01*
X132062524Y-77228161D01*
X132160459Y-77099202D01*
X132181910Y-77072067D01*
X132277754Y-76952072D01*
X132367391Y-76839871D01*
X132384814Y-76818067D01*
X132528322Y-76640206D01*
X132685766Y-76447899D01*
X132844410Y-76256406D01*
X132991516Y-76080986D01*
X133114349Y-75936898D01*
X133200173Y-75839401D01*
X133215169Y-75823234D01*
X133323992Y-75697742D01*
X133427571Y-75562486D01*
X133435442Y-75551197D01*
X133535364Y-75406161D01*
X133446915Y-75229061D01*
X133393675Y-75110732D01*
X133362156Y-75018024D01*
X133358467Y-74994145D01*
X133344569Y-74927171D01*
X133308135Y-74807166D01*
X133257052Y-74660115D01*
X133192177Y-74471335D01*
X133124882Y-74255218D01*
X133060489Y-74031391D01*
X133004320Y-73819484D01*
X132961697Y-73639125D01*
X132937942Y-73509943D01*
X132934803Y-73471582D01*
X132924670Y-73382251D01*
X132898110Y-73238724D01*
X132860372Y-73068648D01*
X132850800Y-73029234D01*
X132802038Y-72783872D01*
X132758151Y-72470098D01*
X132720228Y-72104078D01*
X132689358Y-71701981D01*
X132666629Y-71279976D01*
X132653130Y-70854232D01*
X132649949Y-70440915D01*
X132655585Y-70129400D01*
X132678117Y-69551610D01*
X132707750Y-69043032D01*
X132746235Y-68588379D01*
X132795322Y-68172366D01*
X132856759Y-67779707D01*
X132932296Y-67395116D01*
X133004438Y-67081400D01*
X133048366Y-66897076D01*
X133099404Y-66677316D01*
X133146571Y-66469396D01*
X133146979Y-66467567D01*
X133192348Y-66277715D01*
X133241555Y-66092695D01*
X133284684Y-65949592D01*
X133288493Y-65938400D01*
X133328869Y-65818888D01*
X133386525Y-65644555D01*
X133452964Y-65441225D01*
X133504411Y-65282234D01*
X133612266Y-64950897D01*
X133700472Y-64689318D01*
X133773493Y-64486096D01*
X133835794Y-64329828D01*
X133891839Y-64209112D01*
X133946095Y-64112546D01*
X133986017Y-64052337D01*
X134053316Y-63961216D01*
X134112759Y-63905506D01*
X134188833Y-63873800D01*
X134306027Y-63854688D01*
X134438606Y-63841478D01*
X134841768Y-63822155D01*
X135301574Y-63831600D01*
X135795856Y-63867640D01*
X136302447Y-63928101D01*
X136799183Y-64010808D01*
X137263895Y-64113588D01*
X137295467Y-64121689D01*
X137485064Y-64168620D01*
X137675706Y-64212232D01*
X137824634Y-64242794D01*
X137998953Y-64286166D01*
X138177892Y-64347503D01*
X138226800Y-64368235D01*
X138368294Y-64420979D01*
X138501806Y-64452448D01*
X138544300Y-64456191D01*
X138655164Y-64475764D01*
X138798903Y-64524336D01*
X138882967Y-64561630D01*
X139019647Y-64620699D01*
X139140139Y-64659047D01*
X139191570Y-64667076D01*
X139291502Y-64686999D01*
X139416982Y-64734677D01*
X139445808Y-64748649D01*
X139592219Y-64812525D01*
X139756851Y-64869719D01*
X139792140Y-64879799D01*
X139927490Y-64924141D01*
X140039731Y-64974151D01*
X140065905Y-64990050D01*
X140154849Y-65036797D01*
X140208207Y-65049400D01*
X140279641Y-65067170D01*
X140416275Y-65117383D01*
X140607198Y-65195397D01*
X140841496Y-65296568D01*
X141108260Y-65416253D01*
X141396576Y-65549809D01*
X141507634Y-65602335D01*
X141655049Y-65670716D01*
X141801502Y-65736089D01*
X141825134Y-65746290D01*
X141940474Y-65799509D01*
X142028806Y-65846766D01*
X142036800Y-65851856D01*
X142117343Y-65896401D01*
X142231487Y-65950299D01*
X142248467Y-65957689D01*
X142363717Y-66010616D01*
X142452041Y-66056899D01*
X142460134Y-66061865D01*
X142500887Y-66086266D01*
X142559941Y-66117761D01*
X142652737Y-66164098D01*
X142794713Y-66233029D01*
X142946967Y-66306236D01*
X143059026Y-66361247D01*
X143146040Y-66405893D01*
X143213786Y-66442089D01*
X143335491Y-66506942D01*
X143490352Y-66589370D01*
X143576221Y-66635045D01*
X143762373Y-66736112D01*
X143947222Y-66839936D01*
X144099351Y-66928766D01*
X144139148Y-66953089D01*
X144291404Y-67044533D01*
X144447203Y-67132924D01*
X144513300Y-67168296D01*
X144932433Y-67398329D01*
X145392572Y-67675144D01*
X145434050Y-67701163D01*
X145580151Y-67792736D01*
X145731499Y-67887073D01*
X145751550Y-67899519D01*
X145869408Y-67974248D01*
X146023454Y-68074067D01*
X146174214Y-68173314D01*
X146368306Y-68287673D01*
X146535776Y-68344812D01*
X146707458Y-68349702D01*
X146914185Y-68307310D01*
X146947467Y-68297946D01*
X147181833Y-68234547D01*
X147467215Y-68163584D01*
X147771371Y-68092879D01*
X147984634Y-68046364D01*
X148119472Y-68016927D01*
X148306328Y-67974873D01*
X148514828Y-67927075D01*
X148625391Y-67901373D01*
X148812790Y-67859351D01*
X148975419Y-67826146D01*
X149091794Y-67805969D01*
X149133391Y-67801836D01*
X149204144Y-67793909D01*
X149338436Y-67771759D01*
X149516993Y-67738781D01*
X149720300Y-67698421D01*
X150164662Y-67611222D01*
X150606187Y-67531911D01*
X151024759Y-67463772D01*
X151400266Y-67410091D01*
X151695691Y-67375780D01*
X151933755Y-67349286D01*
X152199432Y-67314763D01*
X152440674Y-67279040D01*
X152471967Y-67273928D01*
X152659354Y-67247188D01*
X152902325Y-67218810D01*
X153171925Y-67191873D01*
X153439204Y-67169454D01*
X153487967Y-67165915D01*
X153777424Y-67143005D01*
X154099734Y-67113454D01*
X154416131Y-67081028D01*
X154687851Y-67049496D01*
X154694467Y-67048659D01*
X154886400Y-67030619D01*
X155152919Y-67014881D01*
X155483976Y-67001444D01*
X155869522Y-66990307D01*
X156299508Y-66981468D01*
X156763885Y-66974925D01*
X157252604Y-66970677D01*
X157755617Y-66968721D01*
X158262875Y-66969058D01*
X158764329Y-66971684D01*
X159249930Y-66976598D01*
X159709630Y-66983799D01*
X160133379Y-66993285D01*
X160511129Y-67005055D01*
X160832830Y-67019107D01*
X161088435Y-67035439D01*
X161234967Y-67049699D01*
X161514451Y-67081404D01*
X161838465Y-67114184D01*
X162167017Y-67144191D01*
X162460112Y-67167581D01*
X162462634Y-67167761D01*
X162740142Y-67191167D01*
X163038994Y-67222240D01*
X163325047Y-67257100D01*
X163564157Y-67291868D01*
X163584467Y-67295240D01*
X163797058Y-67328557D01*
X163996735Y-67355410D01*
X164158475Y-67372682D01*
X164244666Y-67377508D01*
X164351615Y-67385094D01*
X164519852Y-67405665D01*
X164727525Y-67436213D01*
X164952781Y-67473726D01*
X164985500Y-67479546D01*
X165224436Y-67521838D01*
X165461283Y-67562758D01*
X165669430Y-67597770D01*
X165822266Y-67622335D01*
X165828134Y-67623231D01*
X166179985Y-67682771D01*
X166591570Y-67762728D01*
X167041622Y-67858864D01*
X167267467Y-67910067D01*
X167462251Y-67952748D01*
X167636463Y-67986754D01*
X167767376Y-68007872D01*
X167821756Y-68012735D01*
X167922197Y-68026433D01*
X168064602Y-68061709D01*
X168169390Y-68094564D01*
X168343719Y-68147237D01*
X168524783Y-68190898D01*
X168609934Y-68206419D01*
X168774521Y-68238257D01*
X168936810Y-68280900D01*
X168976706Y-68293922D01*
X169146199Y-68336113D01*
X169315109Y-68349904D01*
X169457761Y-68335562D01*
X169548478Y-68293355D01*
X169553467Y-68287900D01*
X169616434Y-68234581D01*
X169646980Y-68224400D01*
X169702071Y-68202158D01*
X169801122Y-68144820D01*
X169885213Y-68090005D01*
X170065109Y-67967814D01*
X170187456Y-67885704D01*
X170264521Y-67835856D01*
X170308572Y-67810452D01*
X170331875Y-67801676D01*
X170338582Y-67801067D01*
X170385779Y-67778825D01*
X170477109Y-67722010D01*
X170541380Y-67678536D01*
X170679256Y-67588350D01*
X170873353Y-67469202D01*
X171105246Y-67332088D01*
X171356511Y-67188003D01*
X171468935Y-67124964D01*
X171551032Y-67079061D01*
X171687643Y-67002455D01*
X171859497Y-66905960D01*
X172040435Y-66804264D01*
X172257191Y-66684521D01*
X172486277Y-66561497D01*
X172696551Y-66451750D01*
X172823385Y-66388009D01*
X172974283Y-66311608D01*
X173093878Y-66246171D01*
X173163127Y-66202313D01*
X173172235Y-66193585D01*
X173225203Y-66158995D01*
X173307568Y-66130775D01*
X173429510Y-66083922D01*
X173530218Y-66026727D01*
X173649397Y-65959052D01*
X173783866Y-65902076D01*
X173784051Y-65902013D01*
X173901739Y-65852580D01*
X173991232Y-65799117D01*
X173995718Y-65795390D01*
X174085636Y-65743261D01*
X174186385Y-65708438D01*
X174313637Y-65660803D01*
X174425753Y-65596919D01*
X174518333Y-65540362D01*
X174585611Y-65515152D01*
X174587885Y-65515067D01*
X174647689Y-65496289D01*
X174756418Y-65447377D01*
X174873059Y-65388067D01*
X175008527Y-65321331D01*
X175121795Y-65275334D01*
X175180340Y-65261067D01*
X175268306Y-65237732D01*
X175335699Y-65200781D01*
X175378833Y-65173849D01*
X175439161Y-65143897D01*
X175528856Y-65106092D01*
X175660090Y-65055603D01*
X175845033Y-64987597D01*
X176095860Y-64897241D01*
X176141111Y-64881035D01*
X176293418Y-64822519D01*
X176435011Y-64761688D01*
X176488259Y-64735972D01*
X176607780Y-64688543D01*
X176714500Y-64668031D01*
X176716281Y-64668013D01*
X176808570Y-64649455D01*
X176939390Y-64602326D01*
X177025300Y-64563504D01*
X177169299Y-64503558D01*
X177304595Y-64464832D01*
X177363967Y-64457128D01*
X177480096Y-64437937D01*
X177623993Y-64392215D01*
X177681467Y-64368235D01*
X177847231Y-64305530D01*
X178030466Y-64253900D01*
X178083634Y-64242794D01*
X178234360Y-64211839D01*
X178425199Y-64168145D01*
X178612800Y-64121689D01*
X179059612Y-64020782D01*
X179541711Y-63938205D01*
X180037157Y-63876117D01*
X180524005Y-63836677D01*
X180980314Y-63822044D01*
X181384140Y-63834379D01*
X181384140Y-63834379D01*
G37*
X181384140Y-63834379D02*
X181464862Y-63841029D01*
X181792542Y-63871735D01*
X181936642Y-64068984D01*
X182022529Y-64202296D01*
X182086904Y-64330788D01*
X182107749Y-64393234D01*
X182139367Y-64503717D01*
X182191769Y-64651961D01*
X182231862Y-64753067D01*
X182289660Y-64904279D01*
X182357800Y-65101243D01*
X182424027Y-65308114D01*
X182441735Y-65366900D01*
X182500462Y-65561777D01*
X182559036Y-65750236D01*
X182607509Y-65900448D01*
X182620353Y-65938400D01*
X182660965Y-66071918D01*
X182709095Y-66253624D01*
X182755623Y-66448691D01*
X182764476Y-66488734D01*
X182805602Y-66665708D01*
X182846354Y-66820879D01*
X182879644Y-66927823D01*
X182887467Y-66947330D01*
X182911522Y-67028871D01*
X182941706Y-67172386D01*
X182973730Y-67355823D01*
X182996996Y-67510757D01*
X183027040Y-67710451D01*
X183057703Y-67887801D01*
X183084908Y-68020541D01*
X183100910Y-68078277D01*
X183139601Y-68228830D01*
X183172654Y-68459900D01*
X183199833Y-68767509D01*
X183220903Y-69147679D01*
X183235627Y-69596432D01*
X183243768Y-70109791D01*
X183245423Y-70510400D01*
X183243772Y-70982014D01*
X183238411Y-71381992D01*
X183228413Y-71723322D01*
X183212853Y-72018987D01*
X183190803Y-72281975D01*
X183161340Y-72525271D01*
X183123535Y-72761860D01*
X183076464Y-73004729D01*
X183063004Y-73068588D01*
X183020383Y-73269485D01*
X182978969Y-73467090D01*
X182945942Y-73627078D01*
X182938416Y-73664234D01*
X182892489Y-73866894D01*
X182829626Y-74108616D01*
X182755453Y-74371082D01*
X182675600Y-74635974D01*
X182595693Y-74884973D01*
X182521361Y-75099761D01*
X182458231Y-75262021D01*
X182427210Y-75328161D01*
X182411677Y-75397922D01*
X182443147Y-75486520D01*
X182497003Y-75573093D01*
X182580924Y-75687699D01*
X182658831Y-75779776D01*
X182681555Y-75802067D01*
X182734697Y-75858071D01*
X182830428Y-75967820D01*
X182958504Y-76118898D01*
X183108680Y-76298891D01*
X183270711Y-76495385D01*
X183434353Y-76695965D01*
X183589360Y-76888218D01*
X183725488Y-77059727D01*
X183819800Y-77181370D01*
X183925979Y-77324757D01*
X184054205Y-77503932D01*
X184189368Y-77697123D01*
X184316356Y-77882556D01*
X184420060Y-78038459D01*
X184474915Y-78125309D01*
X184619895Y-78364277D01*
X184727709Y-78537472D01*
X184793478Y-78638400D01*
X184860018Y-78745482D01*
X184946795Y-78897091D01*
X185045469Y-79077201D01*
X185147703Y-79269784D01*
X185245156Y-79458813D01*
X185329490Y-79628259D01*
X185392365Y-79762097D01*
X185425443Y-79844298D01*
X185428467Y-79858838D01*
X185457465Y-79916275D01*
X185489246Y-79948475D01*
X185540740Y-80024093D01*
X185578479Y-80133575D01*
X185622433Y-80269184D01*
X185683752Y-80395234D01*
X185747314Y-80516418D01*
X185813193Y-80665591D01*
X185831548Y-80712734D01*
X185950474Y-81032492D01*
X186042435Y-81281092D01*
X186110384Y-81466580D01*
X186157272Y-81597002D01*
X186180971Y-81665234D01*
X186220500Y-81781889D01*
X186271601Y-81932397D01*
X186295907Y-82003900D01*
X186350719Y-82176279D01*
X186406586Y-82368918D01*
X186427862Y-82448400D01*
X186471874Y-82616130D01*
X186525769Y-82817188D01*
X186569513Y-82977567D01*
X186620245Y-83182130D01*
X186669641Y-83414660D01*
X186701420Y-83591400D01*
X186731110Y-83760802D01*
X186762168Y-83908983D01*
X186788242Y-84005869D01*
X186789960Y-84010604D01*
X186806151Y-84081371D01*
X186830022Y-84222517D01*
X186859560Y-84420312D01*
X186892752Y-84661025D01*
X186927587Y-84930927D01*
X186941991Y-85047771D01*
X186974823Y-85325838D01*
X187000759Y-85569493D01*
X187020605Y-85794986D01*
X187035171Y-86018568D01*
X187045266Y-86256490D01*
X187051698Y-86525003D01*
X187055276Y-86840357D01*
X187056808Y-87218805D01*
X187057001Y-87359067D01*
X187055466Y-87761226D01*
X187050384Y-88155393D01*
X187042171Y-88525993D01*
X187031246Y-88857454D01*
X187018027Y-89134204D01*
X187004157Y-89327567D01*
X186981052Y-89585113D01*
X186953930Y-89894740D01*
X186925585Y-90224138D01*
X186898812Y-90540995D01*
X186888474Y-90665396D01*
X186864211Y-90933313D01*
X186836655Y-91195449D01*
X186808334Y-91430328D01*
X186781777Y-91616475D01*
X186766369Y-91702563D01*
X186728707Y-91911382D01*
X186695176Y-92143290D01*
X186678648Y-92290900D01*
X186657411Y-92461519D01*
X186622242Y-92680777D01*
X186578825Y-92914950D01*
X186550242Y-93052900D01*
X186504405Y-93266687D01*
X186461136Y-93473703D01*
X186426261Y-93645814D01*
X186410003Y-93730234D01*
X186367373Y-93933938D01*
X186305648Y-94191690D01*
X186229334Y-94487739D01*
X186142942Y-94806335D01*
X186050980Y-95131730D01*
X185957957Y-95448174D01*
X185868381Y-95739917D01*
X185786760Y-95991211D01*
X185717604Y-96186304D01*
X185681156Y-96276230D01*
X185624248Y-96425403D01*
X185580938Y-96574858D01*
X185574613Y-96604781D01*
X185547177Y-96710897D01*
X185516664Y-96774742D01*
X185511633Y-96779161D01*
X185481882Y-96827400D01*
X185436796Y-96933525D01*
X185386135Y-97074562D01*
X185386133Y-97074567D01*
X185335208Y-97215825D01*
X185289490Y-97322353D01*
X185258924Y-97371030D01*
X185224023Y-97422608D01*
X185182569Y-97522626D01*
X185173004Y-97551406D01*
X185111754Y-97716331D01*
X185016209Y-97937643D01*
X184894426Y-98198418D01*
X184754459Y-98481730D01*
X184604363Y-98770652D01*
X184509626Y-98945400D01*
X184427808Y-99095712D01*
X184353516Y-99235680D01*
X184311247Y-99318234D01*
X184257773Y-99414431D01*
X184173279Y-99553530D01*
X184074330Y-99708403D01*
X184055338Y-99737260D01*
X183966617Y-99873089D01*
X183899369Y-99979332D01*
X183864602Y-100038474D01*
X183862134Y-100044656D01*
X183839632Y-100084168D01*
X183780208Y-100174374D01*
X183695980Y-100296954D01*
X183682217Y-100316629D01*
X183583902Y-100457286D01*
X183497022Y-100582342D01*
X183439921Y-100665389D01*
X183438800Y-100667044D01*
X183230453Y-100956155D01*
X182972252Y-101284830D01*
X182678302Y-101637153D01*
X182362707Y-101997210D01*
X182039573Y-102349085D01*
X181723003Y-102676865D01*
X181427103Y-102964634D01*
X181298082Y-103082518D01*
X181005459Y-103337159D01*
X180693316Y-103597956D01*
X180371750Y-103857325D01*
X180050858Y-104107685D01*
X179740737Y-104341454D01*
X179451483Y-104551052D01*
X179193194Y-104728895D01*
X178975967Y-104867403D01*
X178809898Y-104958994D01*
X178782134Y-104971703D01*
X178665346Y-105038948D01*
X178591634Y-105096734D01*
X178483447Y-105177965D01*
X178401134Y-105223861D01*
X178304446Y-105272131D01*
X178171064Y-105343842D01*
X178083634Y-105392873D01*
X177967949Y-105455895D01*
X177796169Y-105545738D01*
X177588378Y-105652278D01*
X177364658Y-105765389D01*
X177145096Y-105874948D01*
X176949775Y-105970828D01*
X176798780Y-106042907D01*
X176750134Y-106065106D01*
X176645520Y-106115616D01*
X176580800Y-106151426D01*
X176487941Y-106201906D01*
X176355250Y-106265870D01*
X176206134Y-106333064D01*
X176063997Y-106393238D01*
X175952247Y-106436139D01*
X175895551Y-106451558D01*
X175824001Y-106472440D01*
X175722904Y-106523251D01*
X175710517Y-106530656D01*
X175590287Y-106591518D01*
X175437186Y-106653433D01*
X175371851Y-106675664D01*
X175221582Y-106725951D01*
X175034910Y-106792302D01*
X174866300Y-106855044D01*
X174687860Y-106921562D01*
X174510569Y-106984875D01*
X174379467Y-107029090D01*
X174232176Y-107077218D01*
X174095546Y-107123697D01*
X174061967Y-107135594D01*
X173960559Y-107168598D01*
X173807155Y-107214502D01*
X173631578Y-107264435D01*
X173596300Y-107274158D01*
X173427279Y-107322999D01*
X173281839Y-107369559D01*
X173185972Y-107405398D01*
X173172967Y-107411604D01*
X173075823Y-107448050D01*
X172944806Y-107480692D01*
X172918967Y-107485477D01*
X172786287Y-107513424D01*
X172614534Y-107556166D01*
X172474467Y-107594863D01*
X172117971Y-107691765D01*
X171706412Y-107791702D01*
X171331467Y-107874471D01*
X171156474Y-107911780D01*
X170939625Y-107958601D01*
X170721725Y-108006112D01*
X170675300Y-108016309D01*
X170296437Y-108095398D01*
X169883282Y-108174492D01*
X169481220Y-108245100D01*
X169278300Y-108277696D01*
X169117353Y-108303005D01*
X168909774Y-108336404D01*
X168692425Y-108371945D01*
X168622134Y-108383580D01*
X168393987Y-108420222D01*
X168172064Y-108452805D01*
X167936102Y-108483936D01*
X167665839Y-108516223D01*
X167341012Y-108552273D01*
X167164202Y-108571209D01*
X166873155Y-108605668D01*
X166661775Y-108642169D01*
X166525141Y-108686342D01*
X166458328Y-108743818D01*
X166456415Y-108820228D01*
X166514478Y-108921202D01*
X166627595Y-109052372D01*
X166688218Y-109115648D01*
X166991181Y-109447002D01*
X167290150Y-109811432D01*
X167564858Y-110182713D01*
X167795034Y-110534619D01*
X167828444Y-110590917D01*
X167911134Y-110740507D01*
X168011992Y-110934782D01*
X168122144Y-111155287D01*
X168232712Y-111383563D01*
X168334823Y-111601153D01*
X168419601Y-111789599D01*
X168478170Y-111930446D01*
X168494424Y-111975900D01*
X168535957Y-112092256D01*
X168573196Y-112174711D01*
X168581421Y-112187567D01*
X168610253Y-112249500D01*
X168649850Y-112364481D01*
X168678952Y-112462734D01*
X168729390Y-112636406D01*
X168784162Y-112813259D01*
X168808074Y-112886067D01*
X168862962Y-113067631D01*
X168925032Y-113303486D01*
X168987389Y-113564435D01*
X169043134Y-113821282D01*
X169085371Y-114044831D01*
X169093084Y-114092567D01*
X169115158Y-114232786D01*
X169146977Y-114431012D01*
X169184417Y-114661728D01*
X169223358Y-114899419D01*
X169226431Y-114918067D01*
X169320634Y-115489567D01*
X169320634Y-129374900D01*
X169479549Y-129699269D01*
X169700335Y-130058704D01*
X169979628Y-130358109D01*
X170314220Y-130595419D01*
X170700902Y-130768566D01*
X171136465Y-130875482D01*
X171345408Y-130901247D01*
X171536819Y-130924601D01*
X171653607Y-130958448D01*
X171705763Y-131010205D01*
X171703275Y-131087293D01*
X171679453Y-131149352D01*
X171638365Y-131203928D01*
X171559773Y-131250283D01*
X171426889Y-131296266D01*
X171282304Y-131335027D01*
X171074013Y-131387407D01*
X170854747Y-131442533D01*
X170668874Y-131489249D01*
X170654134Y-131492953D01*
X170465268Y-131544451D01*
X170268642Y-131604278D01*
X170152950Y-131643246D01*
X170002476Y-131689316D01*
X169863840Y-131718721D01*
X169802364Y-131724400D01*
X169694770Y-131737978D01*
X169545278Y-131773101D01*
X169425156Y-131809508D01*
X169243314Y-131865275D01*
X169051457Y-131915834D01*
X168950241Y-131938296D01*
X168800268Y-131969152D01*
X168605556Y-132011079D01*
X168403824Y-132055929D01*
X168368134Y-132064035D01*
X167881972Y-132173194D01*
X167472095Y-132261449D01*
X167133034Y-132329917D01*
X166859318Y-132379715D01*
X166698461Y-132404801D01*
X166525034Y-132432277D01*
X166373253Y-132461570D01*
X166271793Y-132487045D01*
X166261337Y-132490695D01*
X166175975Y-132511953D01*
X166030868Y-132537091D01*
X165850574Y-132562112D01*
X165750843Y-132573776D01*
X165534194Y-132600947D01*
X165313046Y-132634478D01*
X165125222Y-132668465D01*
X165074525Y-132679336D01*
X164922062Y-132707950D01*
X164714585Y-132738569D01*
X164481533Y-132767173D01*
X164291359Y-132786359D01*
X164051917Y-132810556D01*
X163806610Y-132840040D01*
X163587971Y-132870666D01*
X163457467Y-132892570D01*
X163303952Y-132915975D01*
X163088954Y-132941109D01*
X162835560Y-132965644D01*
X162566857Y-132987255D01*
X162420300Y-132997089D01*
X162123466Y-133017393D01*
X161800847Y-133042719D01*
X161485379Y-133070284D01*
X161209998Y-133097309D01*
X161129134Y-133106130D01*
X160955960Y-133120620D01*
X160708722Y-133134055D01*
X160398016Y-133146329D01*
X160034438Y-133157337D01*
X159628585Y-133166975D01*
X159191053Y-133175138D01*
X158732439Y-133181720D01*
X158263339Y-133186617D01*
X157794351Y-133189724D01*
X157336070Y-133190936D01*
X156899094Y-133190147D01*
X156494018Y-133187254D01*
X156131439Y-133182150D01*
X155821954Y-133174732D01*
X155576159Y-133164894D01*
X155519967Y-133161677D01*
X155272842Y-133144378D01*
X155026351Y-133123863D01*
X154807552Y-133102581D01*
X154643501Y-133082982D01*
X154630967Y-133081182D01*
X154492098Y-133064931D01*
X154288571Y-133046543D01*
X154040312Y-133027556D01*
X153767249Y-133009506D01*
X153518246Y-132995408D01*
X153206824Y-132977579D01*
X152966863Y-132959406D01*
X152785168Y-132939272D01*
X152648542Y-132915562D01*
X152543789Y-132886659D01*
X152502246Y-132871000D01*
X152392750Y-132834428D01*
X152257506Y-132807406D01*
X152079814Y-132787808D01*
X151842976Y-132773507D01*
X151688800Y-132767384D01*
X151446230Y-132755050D01*
X151212561Y-132736328D01*
X151011220Y-132713544D01*
X150865632Y-132689025D01*
X150842134Y-132683288D01*
X150696271Y-132651022D01*
X150498390Y-132616490D01*
X150280795Y-132585058D01*
X150170209Y-132571679D01*
X149974227Y-132547047D01*
X149799631Y-132520106D01*
X149670197Y-132494780D01*
X149621777Y-132481132D01*
X149534681Y-132457980D01*
X149386930Y-132428673D01*
X149201884Y-132397567D01*
X149066035Y-132377521D01*
X148856851Y-132345167D01*
X148657279Y-132308603D01*
X148495925Y-132273330D01*
X148429134Y-132255005D01*
X148263032Y-132211275D01*
X148079518Y-132175505D01*
X148026967Y-132167970D01*
X147872562Y-132142251D01*
X147681664Y-132101773D01*
X147518967Y-132061389D01*
X147311277Y-132008167D01*
X147081065Y-131953404D01*
X146926300Y-131919240D01*
X146620147Y-131851478D01*
X146276614Y-131769509D01*
X145919946Y-131679593D01*
X145574387Y-131587992D01*
X145264182Y-131500966D01*
X145021300Y-131427266D01*
X144848023Y-131376959D01*
X144673365Y-131334615D01*
X144578653Y-131316567D01*
X144425572Y-131270750D01*
X144299460Y-131193182D01*
X144219819Y-131099581D01*
X144203997Y-131014601D01*
X144228107Y-130976403D01*
X144293320Y-130946378D01*
X144414256Y-130920053D01*
X144598494Y-130893836D01*
X145063313Y-130805201D01*
X145464678Y-130662977D01*
X145806823Y-130464438D01*
X146093980Y-130206857D01*
X146330383Y-129887506D01*
X146423800Y-129718015D01*
X146507263Y-129533783D01*
X146559066Y-129364241D01*
X146590093Y-129168898D01*
X146600179Y-129061745D01*
X146604291Y-128966502D01*
X146607785Y-128793193D01*
X146610646Y-128548414D01*
X146612861Y-128238763D01*
X146614418Y-127870838D01*
X146615302Y-127451236D01*
X146615502Y-126986555D01*
X146615004Y-126483392D01*
X146613794Y-125948346D01*
X146611860Y-125388013D01*
X146609188Y-124808992D01*
X146608800Y-124735288D01*
X146604955Y-124048965D01*
X146601135Y-123442623D01*
X146597248Y-122911576D01*
X146593203Y-122451138D01*
X146588907Y-122056625D01*
X146584270Y-121723350D01*
X146579198Y-121446627D01*
X146573600Y-121221770D01*
X146567385Y-121044095D01*
X146560460Y-120908916D01*
X146552733Y-120811546D01*
X146544113Y-120747300D01*
X146534509Y-120711492D01*
X146529774Y-120703328D01*
X146481274Y-120667701D01*
X146403589Y-120652917D01*
X146284520Y-120659924D01*
X146111868Y-120689669D01*
X145873434Y-120743102D01*
X145804467Y-120759701D01*
X145590217Y-120804488D01*
X145351450Y-120843591D01*
X145169467Y-120865485D01*
X144956216Y-120889932D01*
X144723689Y-120924439D01*
X144555634Y-120955003D01*
X144266323Y-121002691D01*
X143907791Y-121042867D01*
X143493213Y-121075456D01*
X143035767Y-121100382D01*
X142548629Y-121117570D01*
X142044978Y-121126947D01*
X141537990Y-121128436D01*
X141040842Y-121121962D01*
X140566712Y-121107452D01*
X140128775Y-121084829D01*
X139740211Y-121054019D01*
X139414195Y-121014946D01*
X139242800Y-120985233D01*
X139031815Y-120944251D01*
X138791304Y-120900519D01*
X138586634Y-120865709D01*
X138307593Y-120814800D01*
X138015190Y-120751589D01*
X137733347Y-120682008D01*
X137485988Y-120611987D01*
X137297036Y-120547456D01*
X137287619Y-120543703D01*
X137159978Y-120497047D01*
X137058188Y-120468232D01*
X137026234Y-120463734D01*
X136954766Y-120447668D01*
X136819508Y-120402922D01*
X136634274Y-120334672D01*
X136412876Y-120248094D01*
X136169128Y-120148363D01*
X136046634Y-120096653D01*
X135296824Y-119737309D01*
X134574471Y-119313074D01*
X133891769Y-118832788D01*
X133260912Y-118305288D01*
X132694095Y-117739412D01*
X132516950Y-117538456D01*
X132366042Y-117360694D01*
X132257750Y-117231078D01*
X132179433Y-117133608D01*
X132118446Y-117052282D01*
X132062147Y-116971099D01*
X132027360Y-116918836D01*
X131936186Y-116783524D01*
X131831175Y-116631467D01*
X131793518Y-116577930D01*
X131703830Y-116442281D01*
X131647370Y-116346085D01*
X137254775Y-116346085D01*
X137254854Y-116369697D01*
X137266799Y-116525351D01*
X137308583Y-116638470D01*
X137372272Y-116725323D01*
X137609774Y-116941363D01*
X137886852Y-117083870D01*
X138198667Y-117151391D01*
X138540378Y-117142476D01*
X138680987Y-117117907D01*
X138797745Y-117070235D01*
X140936134Y-117070235D01*
X140955920Y-117221967D01*
X141021497Y-117350037D01*
X141142191Y-117462944D01*
X141327329Y-117569185D01*
X141586238Y-117677258D01*
X141613467Y-117687361D01*
X141727455Y-117703229D01*
X141893032Y-117695557D01*
X142081720Y-117668331D01*
X142265041Y-117625541D01*
X142402112Y-117576924D01*
X142610177Y-117454118D01*
X142759238Y-117304313D01*
X142838713Y-117139555D01*
X142848814Y-117068353D01*
X142836289Y-116924538D01*
X142777844Y-116797750D01*
X142682214Y-116686957D01*
X144408967Y-116686957D01*
X144432516Y-116857631D01*
X144507977Y-116992204D01*
X144648141Y-117108667D01*
X144751070Y-117168164D01*
X145031042Y-117270083D01*
X145325629Y-117291079D01*
X145624032Y-117230993D01*
X145744934Y-117182900D01*
X145872928Y-117126513D01*
X145969105Y-117088122D01*
X146006805Y-117077066D01*
X146054133Y-117044816D01*
X146126546Y-116964213D01*
X146205517Y-116859469D01*
X146272514Y-116754800D01*
X146305072Y-116687296D01*
X146320651Y-116519283D01*
X146254799Y-116342196D01*
X146163149Y-116218258D01*
X146001786Y-116096797D01*
X145782226Y-116020318D01*
X145519929Y-115992053D01*
X145230352Y-116015229D01*
X145209137Y-116018920D01*
X144948336Y-116092147D01*
X144726390Y-116205772D01*
X144554837Y-116350163D01*
X144445216Y-116515687D01*
X144408967Y-116686957D01*
X142682214Y-116686957D01*
X142660339Y-116661614D01*
X142633062Y-116635184D01*
X142479844Y-116538323D01*
X142268207Y-116471383D01*
X142019596Y-116436166D01*
X141755453Y-116434477D01*
X141497222Y-116468117D01*
X141304493Y-116523492D01*
X141217229Y-116577686D01*
X141112411Y-116670518D01*
X141071097Y-116714631D01*
X140981996Y-116834280D01*
X140943121Y-116950940D01*
X140936134Y-117070235D01*
X138797745Y-117070235D01*
X138875339Y-117038554D01*
X139025882Y-116902104D01*
X139115047Y-116725604D01*
X139123710Y-116688371D01*
X139113188Y-116533970D01*
X139035428Y-116365309D01*
X138901891Y-116199354D01*
X138724037Y-116053067D01*
X138672649Y-116020760D01*
X138517469Y-115936719D01*
X138382621Y-115888268D01*
X138228006Y-115863711D01*
X138105809Y-115855414D01*
X137828504Y-115857513D01*
X137612803Y-115898089D01*
X137443006Y-115981089D01*
X137369550Y-116040537D01*
X137297836Y-116121624D01*
X137263644Y-116211801D01*
X137254775Y-116346085D01*
X131647370Y-116346085D01*
X131625489Y-116308805D01*
X131600732Y-116260430D01*
X131536667Y-116132159D01*
X131474829Y-116018734D01*
X131427354Y-115927867D01*
X131360480Y-115788165D01*
X131288069Y-115628649D01*
X131282745Y-115616567D01*
X131207303Y-115448353D01*
X131133600Y-115289590D01*
X131077312Y-115174033D01*
X131076304Y-115172067D01*
X131016596Y-115038358D01*
X130972732Y-114910231D01*
X130969991Y-114899482D01*
X130921451Y-114768692D01*
X130864460Y-114666649D01*
X130796785Y-114547470D01*
X130741532Y-114417067D01*
X134201033Y-114417067D01*
X134202001Y-114582616D01*
X134220139Y-114724738D01*
X134228194Y-114754702D01*
X134314409Y-114921236D01*
X134459111Y-115094696D01*
X134640409Y-115255400D01*
X134836413Y-115383667D01*
X135007159Y-115455067D01*
X135178275Y-115484426D01*
X135363253Y-115487307D01*
X135533490Y-115465952D01*
X135660383Y-115422605D01*
X135690609Y-115401453D01*
X135747024Y-115322738D01*
X135802462Y-115203921D01*
X135813964Y-115171571D01*
X135842199Y-115065003D01*
X135844940Y-114967503D01*
X135820391Y-114845286D01*
X135791264Y-114744209D01*
X135738029Y-114594159D01*
X135671736Y-114477743D01*
X135571773Y-114364708D01*
X135466714Y-114267843D01*
X135324361Y-114153885D01*
X135181674Y-114058976D01*
X135068059Y-114002541D01*
X135062072Y-114000570D01*
X134831693Y-113953969D01*
X134614573Y-113956707D01*
X134428592Y-114005326D01*
X134291632Y-114096370D01*
X134246284Y-114158277D01*
X134216154Y-114263739D01*
X134201033Y-114417067D01*
X130741532Y-114417067D01*
X130739809Y-114413001D01*
X130739746Y-114412816D01*
X130690218Y-114295120D01*
X130636531Y-114205627D01*
X130632790Y-114201149D01*
X130581937Y-114117604D01*
X130531533Y-113997997D01*
X130524397Y-113976740D01*
X130482748Y-113869421D01*
X130443207Y-113801826D01*
X130435584Y-113795070D01*
X130395371Y-113745583D01*
X130337481Y-113647492D01*
X130309565Y-113593397D01*
X130232708Y-113442374D01*
X130154572Y-113300908D01*
X130061753Y-113146227D01*
X129940850Y-112955558D01*
X129868364Y-112843734D01*
X129756861Y-112671754D01*
X129646488Y-112500307D01*
X129557454Y-112360806D01*
X129541608Y-112335734D01*
X129453639Y-112202564D01*
X129367349Y-112081965D01*
X129334015Y-112039400D01*
X129295489Y-111991159D01*
X132046134Y-111991159D01*
X132055515Y-112153122D01*
X132092661Y-112283419D01*
X132171070Y-112426451D01*
X132185263Y-112448707D01*
X132351207Y-112667124D01*
X132529696Y-112833458D01*
X132686629Y-112925199D01*
X132831360Y-112958046D01*
X133010530Y-112966391D01*
X133178288Y-112949721D01*
X133244683Y-112931423D01*
X133350010Y-112848455D01*
X133415004Y-112703491D01*
X133437371Y-112510175D01*
X133414816Y-112282151D01*
X133378735Y-112134247D01*
X133320222Y-111985314D01*
X133231132Y-111857875D01*
X133092985Y-111723399D01*
X132870275Y-111563057D01*
X132654657Y-111474365D01*
X132454452Y-111458233D01*
X132277977Y-111515570D01*
X132154519Y-111620754D01*
X132087846Y-111718070D01*
X132055175Y-111826526D01*
X132046150Y-111981513D01*
X132046134Y-111991159D01*
X129295489Y-111991159D01*
X129254223Y-111939488D01*
X129156824Y-111813032D01*
X129120104Y-111764234D01*
X128829609Y-111395677D01*
X128507013Y-111022661D01*
X128164750Y-110657361D01*
X127815251Y-110311949D01*
X127470949Y-109998602D01*
X127199327Y-109774842D01*
X130295248Y-109774842D01*
X130368887Y-109993828D01*
X130525921Y-110201758D01*
X130526868Y-110202725D01*
X130730053Y-110369976D01*
X130941297Y-110472019D01*
X131146806Y-110504007D01*
X131300854Y-110474757D01*
X131465169Y-110375552D01*
X131559718Y-110234560D01*
X131582995Y-110060084D01*
X131533493Y-109860430D01*
X131442884Y-109691792D01*
X131281180Y-109504335D01*
X131074806Y-109348872D01*
X130853082Y-109245708D01*
X130767037Y-109223705D01*
X130605999Y-109232891D01*
X130457472Y-109308641D01*
X130346415Y-109433773D01*
X130304172Y-109542333D01*
X130295248Y-109774842D01*
X127199327Y-109774842D01*
X127144279Y-109729494D01*
X126847671Y-109516799D01*
X126783605Y-109476275D01*
X126643608Y-109386326D01*
X126513398Y-109296172D01*
X126459994Y-109255984D01*
X126371189Y-109192582D01*
X126309225Y-109160889D01*
X126303856Y-109160086D01*
X126252310Y-109137134D01*
X126155146Y-109078185D01*
X126055967Y-109011542D01*
X125910184Y-108909916D01*
X125733625Y-108787170D01*
X125569134Y-108673078D01*
X125330686Y-108492872D01*
X125087782Y-108283083D01*
X124872600Y-108074413D01*
X128407056Y-108074413D01*
X128448217Y-108227814D01*
X128556598Y-108374560D01*
X128714979Y-108501809D01*
X128906141Y-108596716D01*
X129112863Y-108646438D01*
X129179737Y-108650713D01*
X129292486Y-108632581D01*
X129428083Y-108584928D01*
X129465487Y-108567206D01*
X129573005Y-108502720D01*
X129621698Y-108437371D01*
X129632855Y-108344956D01*
X129593051Y-108174871D01*
X129485618Y-108014156D01*
X129327484Y-107876522D01*
X129135574Y-107775677D01*
X128926817Y-107725329D01*
X128863798Y-107722122D01*
X128675219Y-107751106D01*
X128526398Y-107831757D01*
X128432475Y-107952397D01*
X128407056Y-108074413D01*
X124872600Y-108074413D01*
X124861952Y-108064088D01*
X124674731Y-107856261D01*
X124591992Y-107748406D01*
X124510130Y-107621538D01*
X124466523Y-107513578D01*
X124449553Y-107385985D01*
X124447300Y-107268416D01*
X124451112Y-107114143D01*
X124467659Y-107018695D01*
X124504608Y-106956380D01*
X124553134Y-106913786D01*
X124651327Y-106835250D01*
X124722813Y-106772736D01*
X124810452Y-106719036D01*
X124913313Y-106683417D01*
X125024606Y-106651917D01*
X125173991Y-106601982D01*
X125272800Y-106565743D01*
X125365917Y-106533531D01*
X125461722Y-106509989D01*
X125575517Y-106493746D01*
X125722606Y-106483430D01*
X125918289Y-106477670D01*
X126177870Y-106475094D01*
X126288800Y-106474685D01*
X126553831Y-106474510D01*
X126765948Y-106477281D01*
X126944175Y-106485527D01*
X127107537Y-106501774D01*
X127275057Y-106528551D01*
X127465759Y-106568386D01*
X127698665Y-106623807D01*
X127992802Y-106697341D01*
X128024467Y-106705322D01*
X128273165Y-106775543D01*
X128535257Y-106865565D01*
X128823186Y-106980583D01*
X129149393Y-107125787D01*
X129526321Y-107306369D01*
X129836805Y-107461565D01*
X129954970Y-107527984D01*
X130121231Y-107629885D01*
X130314684Y-107753681D01*
X130514426Y-107885784D01*
X130699555Y-108012607D01*
X130839612Y-108113400D01*
X131281479Y-108467825D01*
X131731214Y-108873590D01*
X132171703Y-109312854D01*
X132585831Y-109767777D01*
X132956483Y-110220518D01*
X133245347Y-110621234D01*
X133346871Y-110773421D01*
X133438600Y-110910961D01*
X133503882Y-111008886D01*
X133513552Y-111023400D01*
X133580835Y-111126353D01*
X133664026Y-111256101D01*
X133690934Y-111298567D01*
X133924711Y-111644260D01*
X134203001Y-112015450D01*
X134510525Y-112394357D01*
X134832004Y-112763201D01*
X135152160Y-113104201D01*
X135455715Y-113399577D01*
X135623300Y-113547320D01*
X135798430Y-113691933D01*
X135977320Y-113835286D01*
X136146888Y-113967395D01*
X136294057Y-114078271D01*
X136405746Y-114157928D01*
X136468875Y-114196378D01*
X136476003Y-114198400D01*
X136526645Y-114223879D01*
X136585920Y-114271058D01*
X136674519Y-114340000D01*
X136793223Y-114419572D01*
X136822087Y-114437284D01*
X136940197Y-114504303D01*
X137099823Y-114589596D01*
X137285048Y-114685271D01*
X137479957Y-114783436D01*
X137668632Y-114876199D01*
X137835158Y-114955667D01*
X137963617Y-115013949D01*
X138038093Y-115043152D01*
X138047827Y-115045067D01*
X138114061Y-115061294D01*
X138223821Y-115102292D01*
X138278584Y-115125731D01*
X138515951Y-115219510D01*
X138797947Y-115312790D01*
X139088121Y-115394693D01*
X139350021Y-115454338D01*
X139421649Y-115466906D01*
X139584069Y-115495943D01*
X139725767Y-115527002D01*
X139808434Y-115550836D01*
X139964455Y-115590987D01*
X140191429Y-115623202D01*
X140476021Y-115647544D01*
X140804896Y-115664080D01*
X141164718Y-115672875D01*
X141542154Y-115673994D01*
X141923867Y-115667502D01*
X142296524Y-115653464D01*
X142646788Y-115631946D01*
X142961326Y-115603013D01*
X143226801Y-115566730D01*
X143391467Y-115533312D01*
X143577845Y-115493242D01*
X143779198Y-115458932D01*
X143857134Y-115448576D01*
X144028960Y-115420932D01*
X144229281Y-115377697D01*
X144365134Y-115342120D01*
X144559907Y-115286502D01*
X144769611Y-115227634D01*
X144894300Y-115193208D01*
X145254203Y-115091856D01*
X145537165Y-115005503D01*
X145740932Y-114934860D01*
X145832031Y-114896672D01*
X145938811Y-114853184D01*
X146018467Y-114832809D01*
X146022531Y-114832619D01*
X146096694Y-114813865D01*
X146218591Y-114766129D01*
X146365159Y-114700458D01*
X146513332Y-114627898D01*
X146640046Y-114559494D01*
X146722235Y-114506291D01*
X146739041Y-114489490D01*
X146761078Y-114420503D01*
X146784598Y-114295508D01*
X146802664Y-114157421D01*
X146830633Y-113974861D01*
X146876277Y-113757965D01*
X146929919Y-113552526D01*
X146932045Y-113545357D01*
X146979100Y-113376169D01*
X147014272Y-113227912D01*
X147031395Y-113127231D01*
X147032134Y-113113007D01*
X147047419Y-113019007D01*
X147086503Y-112884799D01*
X147117123Y-112800581D01*
X147174527Y-112643353D01*
X147223688Y-112489212D01*
X147240096Y-112428597D01*
X147280301Y-112297988D01*
X147347881Y-112113676D01*
X147433417Y-111898211D01*
X147527490Y-111674145D01*
X147620683Y-111464027D01*
X147703576Y-111290409D01*
X147756273Y-111192734D01*
X147795801Y-111120295D01*
X147856277Y-111002894D01*
X147898999Y-110917567D01*
X147968013Y-110782264D01*
X148030331Y-110666971D01*
X148057189Y-110621234D01*
X148193717Y-110405468D01*
X148293185Y-110249836D01*
X148363320Y-110142623D01*
X148411849Y-110072113D01*
X148446499Y-110026589D01*
X148459518Y-110011253D01*
X148512653Y-109946760D01*
X148600281Y-109836291D01*
X148705526Y-109701176D01*
X148730544Y-109668734D01*
X148869917Y-109496962D01*
X149035437Y-109306400D01*
X149192318Y-109137040D01*
X149198789Y-109130382D01*
X149331902Y-108983699D01*
X149411663Y-108873086D01*
X149432043Y-108806979D01*
X149431373Y-108804935D01*
X149390423Y-108758546D01*
X149300124Y-108716982D01*
X149152362Y-108678278D01*
X148939025Y-108640467D01*
X148652002Y-108601583D01*
X148534967Y-108587627D01*
X148194444Y-108547224D01*
X147912247Y-108511437D01*
X147662441Y-108476612D01*
X147419090Y-108439092D01*
X147156259Y-108395223D01*
X147095634Y-108384770D01*
X146886469Y-108348910D01*
X146672943Y-108312888D01*
X146494206Y-108283297D01*
X146460634Y-108277852D01*
X146126527Y-108221170D01*
X145783216Y-108157922D01*
X145454188Y-108092755D01*
X145162931Y-108030314D01*
X144940445Y-107977191D01*
X144771291Y-107936350D01*
X144624315Y-107905912D01*
X144526242Y-107891290D01*
X144513658Y-107890734D01*
X144426268Y-107878966D01*
X144289536Y-107848284D01*
X144150013Y-107810185D01*
X143949987Y-107753316D01*
X143729078Y-107694062D01*
X143603134Y-107662086D01*
X143455837Y-107624782D01*
X143281776Y-107578351D01*
X143068846Y-107519421D01*
X142804947Y-107444619D01*
X142477975Y-107350572D01*
X142290800Y-107296364D01*
X141956784Y-107195851D01*
X141663603Y-107100425D01*
X141426456Y-107015197D01*
X141295952Y-106961690D01*
X141154151Y-106905660D01*
X141017694Y-106862716D01*
X140993170Y-106856796D01*
X140866096Y-106817375D01*
X140723723Y-106757723D01*
X140698484Y-106745278D01*
X140585889Y-106693906D01*
X140500062Y-106665229D01*
X140483620Y-106663067D01*
X140417891Y-106646407D01*
X140304319Y-106603407D01*
X140206821Y-106561077D01*
X140053326Y-106492479D01*
X139861984Y-106409100D01*
X139673183Y-106328533D01*
X139666134Y-106325566D01*
X139509004Y-106257918D01*
X139377347Y-106198390D01*
X139294815Y-106157749D01*
X139285134Y-106152120D01*
X139191328Y-106100877D01*
X139158134Y-106085762D01*
X139080237Y-106050042D01*
X138948009Y-105986251D01*
X138782509Y-105904857D01*
X138604792Y-105816326D01*
X138435916Y-105731126D01*
X138296937Y-105659725D01*
X138233031Y-105625900D01*
X137836434Y-105407740D01*
X137483791Y-105206767D01*
X137186305Y-105029490D01*
X136972760Y-104894102D01*
X136642893Y-104675069D01*
X136376800Y-104496756D01*
X136176452Y-104360498D01*
X136043818Y-104267633D01*
X135988525Y-104226088D01*
X135928799Y-104177663D01*
X135819345Y-104089481D01*
X135676523Y-103974706D01*
X135538634Y-103864086D01*
X135000908Y-103417435D01*
X134494400Y-102965767D01*
X134030104Y-102519668D01*
X133619018Y-102089724D01*
X133272138Y-101686522D01*
X133257060Y-101667734D01*
X133162385Y-101550977D01*
X133081493Y-101454042D01*
X133046228Y-101413734D01*
X132949270Y-101298483D01*
X132817392Y-101127423D01*
X132661707Y-100915799D01*
X132493333Y-100678857D01*
X132323385Y-100431845D01*
X132243775Y-100313067D01*
X132143256Y-100161662D01*
X132050064Y-100021309D01*
X131983188Y-99920603D01*
X131979532Y-99915099D01*
X131731797Y-99519612D01*
X131471559Y-99062859D01*
X131209623Y-98564971D01*
X130956791Y-98046076D01*
X130841288Y-97794234D01*
X130766735Y-97628765D01*
X130692874Y-97465751D01*
X130649612Y-97370900D01*
X130583559Y-97218876D01*
X130515782Y-97051287D01*
X130500404Y-97011067D01*
X130446176Y-96867287D01*
X130378298Y-96688053D01*
X130324105Y-96545400D01*
X130256551Y-96357868D01*
X130183050Y-96138552D01*
X130124105Y-95949996D01*
X130074343Y-95790315D01*
X130029184Y-95658582D01*
X129997084Y-95579197D01*
X129993117Y-95571976D01*
X129965453Y-95504022D01*
X129926359Y-95379759D01*
X129883990Y-95225247D01*
X129881344Y-95214880D01*
X129786200Y-94842095D01*
X129707464Y-94537430D01*
X129641430Y-94286763D01*
X129584387Y-94075973D01*
X129547065Y-93941900D01*
X129504803Y-93774809D01*
X129474539Y-93622460D01*
X129462872Y-93518567D01*
X129451921Y-93422382D01*
X129423111Y-93270312D01*
X129381576Y-93087958D01*
X129357173Y-92991636D01*
X129310386Y-92792879D01*
X129274325Y-92600442D01*
X129254397Y-92444988D01*
X129252134Y-92395982D01*
X129243004Y-92265489D01*
X129218617Y-92084025D01*
X129183471Y-91882948D01*
X129166774Y-91801080D01*
X129128825Y-91593105D01*
X129091486Y-91335803D01*
X129059458Y-91064415D01*
X129040115Y-90851567D01*
X129019551Y-90585465D01*
X128996068Y-90293982D01*
X128972894Y-90016628D01*
X128957114Y-89835567D01*
X128894691Y-89025342D01*
X128854324Y-88241588D01*
X128836025Y-87494192D01*
X128839804Y-86793045D01*
X128865672Y-86148035D01*
X128913639Y-85569051D01*
X128952143Y-85263567D01*
X128983891Y-85033648D01*
X129010530Y-84819631D01*
X129029649Y-84642465D01*
X129038841Y-84523096D01*
X129039301Y-84505671D01*
X129049403Y-84394842D01*
X129075717Y-84227763D01*
X129113823Y-84030297D01*
X129144219Y-83891837D01*
X129192290Y-83681110D01*
X129237828Y-83476460D01*
X129274421Y-83306949D01*
X129289936Y-83231567D01*
X129362092Y-82903898D01*
X129445664Y-82583445D01*
X129531665Y-82303909D01*
X129555257Y-82236734D01*
X129610853Y-82070050D01*
X129658970Y-81902332D01*
X129677373Y-81825277D01*
X129723771Y-81663827D01*
X129788268Y-81503181D01*
X129797412Y-81484641D01*
X129859521Y-81337871D01*
X129905050Y-81187104D01*
X129909565Y-81165380D01*
X129937078Y-81057859D01*
X129967513Y-80992301D01*
X129973301Y-80986973D01*
X130003127Y-80938695D01*
X130048192Y-80832665D01*
X130097887Y-80694311D01*
X130152888Y-80547945D01*
X130208197Y-80431166D01*
X130249352Y-80372087D01*
X130302142Y-80292653D01*
X130310467Y-80249790D01*
X130316060Y-80218195D01*
X130335278Y-80164195D01*
X130371773Y-80080238D01*
X130429202Y-79958772D01*
X130511219Y-79792246D01*
X130621478Y-79573108D01*
X130763636Y-79293807D01*
X130936671Y-78955900D01*
X131012084Y-78830500D01*
X131100646Y-78709235D01*
X131166183Y-78617878D01*
X131198692Y-78549044D01*
X131199467Y-78542178D01*
X131221269Y-78479650D01*
X131275808Y-78380550D01*
X131298876Y-78344342D01*
X131479982Y-78071022D01*
X131620201Y-77861193D01*
X131724649Y-77707267D01*
X131798439Y-77601655D01*
X131813300Y-77581083D01*
X131901114Y-77457869D01*
X131980773Y-77342600D01*
X132062524Y-77228161D01*
X132160459Y-77099202D01*
X132181910Y-77072067D01*
X132277754Y-76952072D01*
X132367391Y-76839871D01*
X132384814Y-76818067D01*
X132528322Y-76640206D01*
X132685766Y-76447899D01*
X132844410Y-76256406D01*
X132991516Y-76080986D01*
X133114349Y-75936898D01*
X133200173Y-75839401D01*
X133215169Y-75823234D01*
X133323992Y-75697742D01*
X133427571Y-75562486D01*
X133435442Y-75551197D01*
X133535364Y-75406161D01*
X133446915Y-75229061D01*
X133393675Y-75110732D01*
X133362156Y-75018024D01*
X133358467Y-74994145D01*
X133344569Y-74927171D01*
X133308135Y-74807166D01*
X133257052Y-74660115D01*
X133192177Y-74471335D01*
X133124882Y-74255218D01*
X133060489Y-74031391D01*
X133004320Y-73819484D01*
X132961697Y-73639125D01*
X132937942Y-73509943D01*
X132934803Y-73471582D01*
X132924670Y-73382251D01*
X132898110Y-73238724D01*
X132860372Y-73068648D01*
X132850800Y-73029234D01*
X132802038Y-72783872D01*
X132758151Y-72470098D01*
X132720228Y-72104078D01*
X132689358Y-71701981D01*
X132666629Y-71279976D01*
X132653130Y-70854232D01*
X132649949Y-70440915D01*
X132655585Y-70129400D01*
X132678117Y-69551610D01*
X132707750Y-69043032D01*
X132746235Y-68588379D01*
X132795322Y-68172366D01*
X132856759Y-67779707D01*
X132932296Y-67395116D01*
X133004438Y-67081400D01*
X133048366Y-66897076D01*
X133099404Y-66677316D01*
X133146571Y-66469396D01*
X133146979Y-66467567D01*
X133192348Y-66277715D01*
X133241555Y-66092695D01*
X133284684Y-65949592D01*
X133288493Y-65938400D01*
X133328869Y-65818888D01*
X133386525Y-65644555D01*
X133452964Y-65441225D01*
X133504411Y-65282234D01*
X133612266Y-64950897D01*
X133700472Y-64689318D01*
X133773493Y-64486096D01*
X133835794Y-64329828D01*
X133891839Y-64209112D01*
X133946095Y-64112546D01*
X133986017Y-64052337D01*
X134053316Y-63961216D01*
X134112759Y-63905506D01*
X134188833Y-63873800D01*
X134306027Y-63854688D01*
X134438606Y-63841478D01*
X134841768Y-63822155D01*
X135301574Y-63831600D01*
X135795856Y-63867640D01*
X136302447Y-63928101D01*
X136799183Y-64010808D01*
X137263895Y-64113588D01*
X137295467Y-64121689D01*
X137485064Y-64168620D01*
X137675706Y-64212232D01*
X137824634Y-64242794D01*
X137998953Y-64286166D01*
X138177892Y-64347503D01*
X138226800Y-64368235D01*
X138368294Y-64420979D01*
X138501806Y-64452448D01*
X138544300Y-64456191D01*
X138655164Y-64475764D01*
X138798903Y-64524336D01*
X138882967Y-64561630D01*
X139019647Y-64620699D01*
X139140139Y-64659047D01*
X139191570Y-64667076D01*
X139291502Y-64686999D01*
X139416982Y-64734677D01*
X139445808Y-64748649D01*
X139592219Y-64812525D01*
X139756851Y-64869719D01*
X139792140Y-64879799D01*
X139927490Y-64924141D01*
X140039731Y-64974151D01*
X140065905Y-64990050D01*
X140154849Y-65036797D01*
X140208207Y-65049400D01*
X140279641Y-65067170D01*
X140416275Y-65117383D01*
X140607198Y-65195397D01*
X140841496Y-65296568D01*
X141108260Y-65416253D01*
X141396576Y-65549809D01*
X141507634Y-65602335D01*
X141655049Y-65670716D01*
X141801502Y-65736089D01*
X141825134Y-65746290D01*
X141940474Y-65799509D01*
X142028806Y-65846766D01*
X142036800Y-65851856D01*
X142117343Y-65896401D01*
X142231487Y-65950299D01*
X142248467Y-65957689D01*
X142363717Y-66010616D01*
X142452041Y-66056899D01*
X142460134Y-66061865D01*
X142500887Y-66086266D01*
X142559941Y-66117761D01*
X142652737Y-66164098D01*
X142794713Y-66233029D01*
X142946967Y-66306236D01*
X143059026Y-66361247D01*
X143146040Y-66405893D01*
X143213786Y-66442089D01*
X143335491Y-66506942D01*
X143490352Y-66589370D01*
X143576221Y-66635045D01*
X143762373Y-66736112D01*
X143947222Y-66839936D01*
X144099351Y-66928766D01*
X144139148Y-66953089D01*
X144291404Y-67044533D01*
X144447203Y-67132924D01*
X144513300Y-67168296D01*
X144932433Y-67398329D01*
X145392572Y-67675144D01*
X145434050Y-67701163D01*
X145580151Y-67792736D01*
X145731499Y-67887073D01*
X145751550Y-67899519D01*
X145869408Y-67974248D01*
X146023454Y-68074067D01*
X146174214Y-68173314D01*
X146368306Y-68287673D01*
X146535776Y-68344812D01*
X146707458Y-68349702D01*
X146914185Y-68307310D01*
X146947467Y-68297946D01*
X147181833Y-68234547D01*
X147467215Y-68163584D01*
X147771371Y-68092879D01*
X147984634Y-68046364D01*
X148119472Y-68016927D01*
X148306328Y-67974873D01*
X148514828Y-67927075D01*
X148625391Y-67901373D01*
X148812790Y-67859351D01*
X148975419Y-67826146D01*
X149091794Y-67805969D01*
X149133391Y-67801836D01*
X149204144Y-67793909D01*
X149338436Y-67771759D01*
X149516993Y-67738781D01*
X149720300Y-67698421D01*
X150164662Y-67611222D01*
X150606187Y-67531911D01*
X151024759Y-67463772D01*
X151400266Y-67410091D01*
X151695691Y-67375780D01*
X151933755Y-67349286D01*
X152199432Y-67314763D01*
X152440674Y-67279040D01*
X152471967Y-67273928D01*
X152659354Y-67247188D01*
X152902325Y-67218810D01*
X153171925Y-67191873D01*
X153439204Y-67169454D01*
X153487967Y-67165915D01*
X153777424Y-67143005D01*
X154099734Y-67113454D01*
X154416131Y-67081028D01*
X154687851Y-67049496D01*
X154694467Y-67048659D01*
X154886400Y-67030619D01*
X155152919Y-67014881D01*
X155483976Y-67001444D01*
X155869522Y-66990307D01*
X156299508Y-66981468D01*
X156763885Y-66974925D01*
X157252604Y-66970677D01*
X157755617Y-66968721D01*
X158262875Y-66969058D01*
X158764329Y-66971684D01*
X159249930Y-66976598D01*
X159709630Y-66983799D01*
X160133379Y-66993285D01*
X160511129Y-67005055D01*
X160832830Y-67019107D01*
X161088435Y-67035439D01*
X161234967Y-67049699D01*
X161514451Y-67081404D01*
X161838465Y-67114184D01*
X162167017Y-67144191D01*
X162460112Y-67167581D01*
X162462634Y-67167761D01*
X162740142Y-67191167D01*
X163038994Y-67222240D01*
X163325047Y-67257100D01*
X163564157Y-67291868D01*
X163584467Y-67295240D01*
X163797058Y-67328557D01*
X163996735Y-67355410D01*
X164158475Y-67372682D01*
X164244666Y-67377508D01*
X164351615Y-67385094D01*
X164519852Y-67405665D01*
X164727525Y-67436213D01*
X164952781Y-67473726D01*
X164985500Y-67479546D01*
X165224436Y-67521838D01*
X165461283Y-67562758D01*
X165669430Y-67597770D01*
X165822266Y-67622335D01*
X165828134Y-67623231D01*
X166179985Y-67682771D01*
X166591570Y-67762728D01*
X167041622Y-67858864D01*
X167267467Y-67910067D01*
X167462251Y-67952748D01*
X167636463Y-67986754D01*
X167767376Y-68007872D01*
X167821756Y-68012735D01*
X167922197Y-68026433D01*
X168064602Y-68061709D01*
X168169390Y-68094564D01*
X168343719Y-68147237D01*
X168524783Y-68190898D01*
X168609934Y-68206419D01*
X168774521Y-68238257D01*
X168936810Y-68280900D01*
X168976706Y-68293922D01*
X169146199Y-68336113D01*
X169315109Y-68349904D01*
X169457761Y-68335562D01*
X169548478Y-68293355D01*
X169553467Y-68287900D01*
X169616434Y-68234581D01*
X169646980Y-68224400D01*
X169702071Y-68202158D01*
X169801122Y-68144820D01*
X169885213Y-68090005D01*
X170065109Y-67967814D01*
X170187456Y-67885704D01*
X170264521Y-67835856D01*
X170308572Y-67810452D01*
X170331875Y-67801676D01*
X170338582Y-67801067D01*
X170385779Y-67778825D01*
X170477109Y-67722010D01*
X170541380Y-67678536D01*
X170679256Y-67588350D01*
X170873353Y-67469202D01*
X171105246Y-67332088D01*
X171356511Y-67188003D01*
X171468935Y-67124964D01*
X171551032Y-67079061D01*
X171687643Y-67002455D01*
X171859497Y-66905960D01*
X172040435Y-66804264D01*
X172257191Y-66684521D01*
X172486277Y-66561497D01*
X172696551Y-66451750D01*
X172823385Y-66388009D01*
X172974283Y-66311608D01*
X173093878Y-66246171D01*
X173163127Y-66202313D01*
X173172235Y-66193585D01*
X173225203Y-66158995D01*
X173307568Y-66130775D01*
X173429510Y-66083922D01*
X173530218Y-66026727D01*
X173649397Y-65959052D01*
X173783866Y-65902076D01*
X173784051Y-65902013D01*
X173901739Y-65852580D01*
X173991232Y-65799117D01*
X173995718Y-65795390D01*
X174085636Y-65743261D01*
X174186385Y-65708438D01*
X174313637Y-65660803D01*
X174425753Y-65596919D01*
X174518333Y-65540362D01*
X174585611Y-65515152D01*
X174587885Y-65515067D01*
X174647689Y-65496289D01*
X174756418Y-65447377D01*
X174873059Y-65388067D01*
X175008527Y-65321331D01*
X175121795Y-65275334D01*
X175180340Y-65261067D01*
X175268306Y-65237732D01*
X175335699Y-65200781D01*
X175378833Y-65173849D01*
X175439161Y-65143897D01*
X175528856Y-65106092D01*
X175660090Y-65055603D01*
X175845033Y-64987597D01*
X176095860Y-64897241D01*
X176141111Y-64881035D01*
X176293418Y-64822519D01*
X176435011Y-64761688D01*
X176488259Y-64735972D01*
X176607780Y-64688543D01*
X176714500Y-64668031D01*
X176716281Y-64668013D01*
X176808570Y-64649455D01*
X176939390Y-64602326D01*
X177025300Y-64563504D01*
X177169299Y-64503558D01*
X177304595Y-64464832D01*
X177363967Y-64457128D01*
X177480096Y-64437937D01*
X177623993Y-64392215D01*
X177681467Y-64368235D01*
X177847231Y-64305530D01*
X178030466Y-64253900D01*
X178083634Y-64242794D01*
X178234360Y-64211839D01*
X178425199Y-64168145D01*
X178612800Y-64121689D01*
X179059612Y-64020782D01*
X179541711Y-63938205D01*
X180037157Y-63876117D01*
X180524005Y-63836677D01*
X180980314Y-63822044D01*
X181384140Y-63834379D01*
M02*
