G04 #@! TF.GenerationSoftware,KiCad,Pcbnew,(5.1.2)-1*
G04 #@! TF.CreationDate,2019-07-13T13:46:09+09:00*
G04 #@! TF.ProjectId,github,67697468-7562-42e6-9b69-6361645f7063,rev?*
G04 #@! TF.SameCoordinates,Original*
G04 #@! TF.FileFunction,Profile,NP*
%FSLAX46Y46*%
G04 Gerber Fmt 4.6, Leading zero omitted, Abs format (unit mm)*
G04 Created by KiCad (PCBNEW (5.1.2)-1) date 2019-07-13 13:46:09*
%MOMM*%
%LPD*%
G04 APERTURE LIST*
%ADD10C,0.050000*%
G04 APERTURE END LIST*
D10*
X171653200Y-131267200D02*
X171999999Y-130999999D01*
X170942000Y-131470400D02*
X171653200Y-131267200D01*
X170078400Y-131724400D02*
X170942000Y-131470400D01*
X169722800Y-131775200D02*
X170078400Y-131724400D01*
X169570400Y-131826000D02*
X169722800Y-131775200D01*
X168351200Y-132130800D02*
X169570400Y-131826000D01*
X166319200Y-132537200D02*
X168351200Y-132130800D01*
X166014400Y-132588000D02*
X166319200Y-132537200D01*
X165608000Y-132638800D02*
X166014400Y-132588000D01*
X165049200Y-132740400D02*
X165608000Y-132638800D01*
X164287200Y-132842000D02*
X165049200Y-132740400D01*
X163779200Y-132892800D02*
X164287200Y-132842000D01*
X163474400Y-132943600D02*
X163779200Y-132892800D01*
X163017200Y-132994400D02*
X163474400Y-132943600D01*
X162458400Y-133045200D02*
X163017200Y-132994400D01*
X161798000Y-133096000D02*
X162458400Y-133045200D01*
X161188400Y-133146800D02*
X161798000Y-133096000D01*
X160578800Y-133197600D02*
X161188400Y-133146800D01*
X160324800Y-133197600D02*
X160578800Y-133197600D01*
X159156400Y-133248400D02*
X160324800Y-133197600D01*
X158648400Y-133248400D02*
X159156400Y-133248400D01*
X157480000Y-133248400D02*
X158648400Y-133248400D01*
X156565600Y-133248400D02*
X157480000Y-133248400D01*
X155803600Y-133248400D02*
X156565600Y-133248400D01*
X155143200Y-133197600D02*
X155803600Y-133248400D01*
X154635200Y-133146800D02*
X155143200Y-133197600D01*
X153466800Y-133045200D02*
X154635200Y-133146800D01*
X152654000Y-132994400D02*
X153466800Y-133045200D01*
X152501600Y-132943600D02*
X152654000Y-132994400D01*
X152247600Y-132892800D02*
X152501600Y-132943600D01*
X151485600Y-132842000D02*
X152247600Y-132892800D01*
X150774400Y-132740400D02*
X151485600Y-132842000D01*
X150164800Y-132638800D02*
X150774400Y-132740400D01*
X149352000Y-132486400D02*
X150164800Y-132638800D01*
X148691600Y-132384800D02*
X149352000Y-132486400D01*
X148234400Y-132283200D02*
X148691600Y-132384800D01*
X147472400Y-132130800D02*
X148234400Y-132283200D01*
X146100800Y-131826000D02*
X147472400Y-132130800D01*
X144780000Y-131470400D02*
X146100800Y-131826000D01*
X143014690Y-131005388D02*
X144780000Y-131470400D01*
X160591501Y-57531000D02*
G75*
G03X160591501Y-57531000I-2976383J0D01*
G01*
X143014690Y-131005389D02*
G75*
G02X171999999Y-130999999I14485310J39505389D01*
G01*
M02*
